<svg xmlns="http://www.w3.org/2000/svg" xmlns:xlink="http://www.w3.org/1999/xlink" width="1280" zoomAndPan="magnify" viewBox="0 0 960 599.999999" height="800" preserveAspectRatio="xMidYMid meet" version="1.0"><defs><g/><clipPath id="c3e842d5f1"><path d="M 227.9375 218.886719 L 732.355469 218.886719 L 732.355469 300 L 227.9375 300 Z M 227.9375 218.886719 " clip-rule="nonzero"/></clipPath><clipPath id="efdb4156e7"><path d="M 265.4375 218.886719 L 694.5625 218.886719 C 704.507812 218.886719 714.042969 222.839844 721.078125 229.871094 C 728.109375 236.902344 732.0625 246.441406 732.0625 256.386719 L 732.0625 262.5 C 732.0625 272.445312 728.109375 281.984375 721.078125 289.015625 C 714.042969 296.050781 704.507812 300 694.5625 300 L 265.4375 300 C 255.492188 300 245.957031 296.050781 238.921875 289.015625 C 231.890625 281.984375 227.9375 272.445312 227.9375 262.5 L 227.9375 256.386719 C 227.9375 246.441406 231.890625 236.902344 238.921875 229.871094 C 245.957031 222.839844 255.492188 218.886719 265.4375 218.886719 Z M 265.4375 218.886719 " clip-rule="nonzero"/></clipPath><clipPath id="9244673d05"><path d="M 227.957031 218.886719 L 731.9375 218.886719 L 731.9375 299.886719 L 227.957031 299.886719 Z M 227.957031 218.886719 " clip-rule="nonzero"/></clipPath><clipPath id="0de7457580"><path d="M 265.453125 218.886719 L 694.542969 218.886719 C 704.484375 218.886719 714.023438 222.839844 721.054688 229.871094 C 728.085938 236.902344 732.039062 246.441406 732.039062 256.386719 L 732.039062 262.496094 C 732.039062 272.441406 728.085938 281.980469 721.054688 289.011719 C 714.023438 296.042969 704.484375 299.992188 694.542969 299.992188 L 265.453125 299.992188 C 255.507812 299.992188 245.972656 296.042969 238.941406 289.011719 C 231.90625 281.980469 227.957031 272.441406 227.957031 262.496094 L 227.957031 256.386719 C 227.957031 246.441406 231.90625 236.902344 238.941406 229.871094 C 245.972656 222.839844 255.507812 218.886719 265.453125 218.886719 Z M 265.453125 218.886719 " clip-rule="nonzero"/></clipPath></defs><g clip-path="url(#c3e842d5f1)"><g clip-path="url(#efdb4156e7)"><path fill="#151d42" d="M 227.9375 218.886719 L 732.039062 218.886719 L 732.039062 300 L 227.9375 300 Z M 227.9375 218.886719 " fill-opacity="1" fill-rule="nonzero"/></g></g><g clip-path="url(#9244673d05)"><g clip-path="url(#0de7457580)"><path stroke-linecap="butt" transform="matrix(0.75, 0, 0, 0.75, 227.956997, 218.887993)" fill="none" stroke-linejoin="miter" d="M 49.994839 -0.00169908 L 622.114655 -0.00169908 C 635.369864 -0.00169908 648.088615 5.269134 657.463615 14.644135 C 666.838616 24.019135 672.109449 36.737886 672.109449 49.998303 L 672.109449 58.144137 C 672.109449 71.404554 666.838616 84.123305 657.463615 93.498305 C 648.088615 102.873305 635.369864 108.138931 622.114655 108.138931 L 49.994839 108.138931 C 36.734422 108.138931 24.02088 102.873305 14.645879 93.498305 C 5.265671 84.123305 0.0000454616 71.404554 0.0000454616 58.144137 L 0.0000454616 49.998303 C 0.0000454616 36.737886 5.265671 24.019135 14.645879 14.644135 C 24.02088 5.269134 36.734422 -0.00169908 49.994839 -0.00169908 Z M 49.994839 -0.00169908 " stroke="#faf8f4" stroke-width="2" stroke-opacity="1" stroke-miterlimit="4"/></g></g><g fill="#faf8f4" fill-opacity="1"><g transform="translate(390.201665, 272.979871)"><g><path d="M 15.875 0.421875 C 21.703125 0.421875 26.375 -2.546875 28.6875 -8.015625 L 23.8125 -10.015625 C 22.25 -6.078125 19.65625 -4.578125 15.875 -4.578125 C 9.59375 -4.578125 6.921875 -9.03125 6.921875 -14.859375 C 6.921875 -20.296875 9.59375 -24.75 15.796875 -24.75 C 19.609375 -24.75 22.640625 -23.265625 23.734375 -19.40625 L 28.640625 -21.34375 C 26.28125 -26.828125 21.640625 -29.765625 15.84375 -29.765625 C 6.203125 -29.765625 1.703125 -22.671875 1.703125 -14.65625 C 1.703125 -6.609375 6.234375 0.421875 15.875 0.421875 Z M 15.875 0.421875 "/></g></g></g><g fill="#faf8f4" fill-opacity="1"><g transform="translate(417.663524, 272.979871)"><g><path d="M 11.671875 0.421875 C 18.078125 0.421875 22.28125 -4.546875 22.28125 -10.40625 C 22.28125 -16.25 18.078125 -21.140625 11.671875 -21.140625 C 5.265625 -21.140625 1.0625 -16.25 1.0625 -10.40625 C 1.0625 -4.546875 5.265625 0.421875 11.671875 0.421875 Z M 11.671875 -3.9375 C 7.859375 -3.9375 6.328125 -7 6.328125 -10.40625 C 6.328125 -13.8125 7.859375 -16.765625 11.671875 -16.765625 C 15.5 -16.765625 17.015625 -13.8125 17.015625 -10.40625 C 17.015625 -7 15.5 -3.9375 11.671875 -3.9375 Z M 11.671875 -3.9375 "/></g></g></g><g fill="#faf8f4" fill-opacity="1"><g transform="translate(438.826886, 272.979871)"><g><path d="M 3 0 L 8.109375 0 L 8.109375 -11.375 C 8.109375 -14.140625 9.71875 -16.4375 12.484375 -16.4375 C 15.0625 -16.4375 15.75 -14.390625 15.75 -11.875 L 15.75 0 L 20.890625 0 L 20.890625 -11.375 C 20.890625 -14.140625 22.484375 -16.4375 25.234375 -16.4375 C 27.84375 -16.4375 28.5625 -14.34375 28.5625 -11.796875 L 28.5625 0 L 33.703125 0 L 33.703125 -12.4375 C 33.703125 -16.8125 31.359375 -21.140625 26.0625 -21.140625 C 23.375 -21.140625 20.8125 -20.046875 19.1875 -17.5 C 17.828125 -19.96875 15.875 -21.140625 13.375 -21.140625 C 11.421875 -21.140625 9.46875 -20.421875 8.109375 -18.546875 L 8.109375 -20.703125 L 3 -20.703125 Z M 3 0 "/></g></g></g><g fill="#faf8f4" fill-opacity="1"><g transform="translate(472.732282, 272.979871)"><g><path d="M 11.625 0.421875 C 15.109375 0.421875 17.875 -0.8125 20.125 -3.3125 L 16.640625 -6.359375 C 15.1875 -4.75 13.53125 -4.171875 11.671875 -4.171875 C 8.421875 -4.171875 6.921875 -5.984375 6.484375 -8.703125 L 20.703125 -8.703125 C 20.8125 -9 20.890625 -9.84375 20.890625 -10.703125 C 20.890625 -15.3125 18.546875 -21.140625 11.296875 -21.140625 C 4.296875 -21.140625 1.140625 -15.671875 1.140625 -10.28125 C 1.140625 -4.703125 4.5 0.421875 11.625 0.421875 Z M 6.484375 -12.359375 C 6.96875 -14.953125 8.265625 -16.890625 11.25 -16.890625 C 13.890625 -16.890625 15.59375 -15.3125 15.921875 -12.359375 Z M 6.484375 -12.359375 "/></g></g></g><g fill="#faf8f4" fill-opacity="1"><g transform="translate(492.631811, 272.979871)"><g><path d="M 3 0 L 8.015625 0 L 8.015625 -11.34375 C 8.015625 -14.953125 9.84375 -16.484375 12.6875 -16.484375 C 15.28125 -16.484375 16.640625 -14.515625 16.640625 -11.796875 L 16.640625 0 L 21.640625 0 L 21.640625 -12.4375 C 21.640625 -16.765625 19.5625 -21.140625 14.140625 -21.140625 C 12.109375 -21.140625 9.6875 -20.328125 8.015625 -18.296875 L 8.015625 -20.703125 L 3 -20.703125 Z M 3 0 "/></g></g></g><g fill="#faf8f4" fill-opacity="1"><g transform="translate(514.478901, 272.979871)"><g><path d="M 19.359375 -20.703125 L 1.703125 -20.703125 L 1.703125 -16.484375 L 12.8125 -16.484375 L 1.09375 -3.359375 L 1.09375 0 L 19.359375 0 L 19.359375 -4.25 L 8.125 -4.25 L 19.359375 -17.09375 Z M 19.359375 -20.703125 "/></g></g></g><g fill="#faf8f4" fill-opacity="1"><g transform="translate(533.073143, 272.979871)"><g><path d="M 8.671875 0.421875 C 11.125 0.421875 13.328125 -0.375 15.109375 -2.96875 L 15.4375 0 L 19.609375 0 L 19.609375 -12.5625 C 19.609375 -17.625 16.296875 -21.140625 10.65625 -21.140625 C 6.578125 -21.140625 3.9375 -19.3125 1.953125 -16.609375 L 5.828125 -13.8125 C 6.71875 -15.3125 8.3125 -16.734375 10.703125 -16.734375 C 13.375 -16.734375 14.78125 -14.984375 14.78125 -12.359375 L 9.390625 -12.359375 C 4.75 -12.359375 1.140625 -10.859375 1.140625 -6.359375 C 1.140625 -2.03125 4.421875 0.421875 8.671875 0.421875 Z M 9.390625 -3.859375 C 7.421875 -3.859375 6.328125 -4.828125 6.328125 -6.203125 C 6.328125 -7.5 7.375 -8.703125 9.6875 -8.703125 L 14.78125 -8.703125 C 14.703125 -6.109375 12.265625 -3.859375 9.390625 -3.859375 Z M 9.390625 -3.859375 "/></g></g></g><g fill="#faf8f4" fill-opacity="1"><g transform="translate(552.848365, 272.979871)"><g><path d="M 3 0 L 7.890625 0 L 7.890625 -8.75 C 7.890625 -14.015625 10.359375 -16.203125 12.734375 -16.203125 C 13.53125 -16.203125 14.296875 -15.96875 14.984375 -15.5 L 17.28125 -19.65625 C 16.296875 -20.671875 14.859375 -21.140625 13.5 -21.140625 C 11.171875 -21.140625 8.828125 -19.734375 7.9375 -17.21875 L 7.9375 -20.703125 L 3 -20.703125 Z M 3 0 "/></g></g></g></svg>