<svg xmlns="http://www.w3.org/2000/svg" xmlns:xlink="http://www.w3.org/1999/xlink" width="1280" zoomAndPan="magnify" viewBox="0 0 960 599.999999" height="800" preserveAspectRatio="xMidYMid meet" version="1.0"><defs><g/><clipPath id="6e2e78ebb3"><path d="M 264.007812 211.847656 L 696 211.847656 L 696 311.230469 L 264.007812 311.230469 Z M 264.007812 211.847656 " clip-rule="nonzero"/></clipPath><clipPath id="34ace6a963"><path d="M 301.507812 211.847656 L 658.492188 211.847656 C 668.4375 211.847656 677.972656 215.800781 685.007812 222.832031 C 692.039062 229.867188 695.992188 239.402344 695.992188 249.347656 L 695.992188 273.730469 C 695.992188 283.675781 692.039062 293.214844 685.007812 300.246094 C 677.972656 307.28125 668.4375 311.230469 658.492188 311.230469 L 301.507812 311.230469 C 291.5625 311.230469 282.027344 307.28125 274.992188 300.246094 C 267.960938 293.214844 264.007812 283.675781 264.007812 273.730469 L 264.007812 249.347656 C 264.007812 239.402344 267.960938 229.867188 274.992188 222.832031 C 282.027344 215.800781 291.5625 211.847656 301.507812 211.847656 Z M 301.507812 211.847656 " clip-rule="nonzero"/></clipPath><clipPath id="651904f7d0"><path d="M 264.019531 211.847656 L 696 211.847656 L 696 311.597656 L 264.019531 311.597656 Z M 264.019531 211.847656 " clip-rule="nonzero"/></clipPath><clipPath id="3e3e98f838"><path d="M 301.519531 211.847656 L 658.476562 211.847656 C 668.421875 211.847656 677.960938 215.800781 684.992188 222.832031 C 692.023438 229.863281 695.972656 239.402344 695.972656 249.347656 L 695.972656 273.726562 C 695.972656 283.671875 692.023438 293.210938 684.992188 300.242188 C 677.960938 307.273438 668.421875 311.222656 658.476562 311.222656 L 301.519531 311.222656 C 291.574219 311.222656 282.035156 307.273438 275.003906 300.242188 C 267.972656 293.210938 264.019531 283.671875 264.019531 273.726562 L 264.019531 249.347656 C 264.019531 239.402344 267.972656 229.863281 275.003906 222.832031 C 282.035156 215.800781 291.574219 211.847656 301.519531 211.847656 Z M 301.519531 211.847656 " clip-rule="nonzero"/></clipPath><clipPath id="6dc8712fb7"><path d="M 607.300781 223.582031 L 683.222656 223.582031 L 683.222656 299.5 L 607.300781 299.5 Z M 607.300781 223.582031 " clip-rule="nonzero"/></clipPath><clipPath id="b8ea35e372"><path d="M 645.261719 223.582031 C 624.296875 223.582031 607.300781 240.574219 607.300781 261.539062 C 607.300781 282.503906 624.296875 299.5 645.261719 299.5 C 666.226562 299.5 683.222656 282.503906 683.222656 261.539062 C 683.222656 240.574219 666.226562 223.582031 645.261719 223.582031 Z M 645.261719 223.582031 " clip-rule="nonzero"/></clipPath><clipPath id="7ddc669003"><path d="M 630.894531 247.175781 L 659.394531 247.175781 L 659.394531 275.675781 L 630.894531 275.675781 Z M 630.894531 247.175781 " clip-rule="nonzero"/></clipPath></defs><g clip-path="url(#6e2e78ebb3)"><g clip-path="url(#34ace6a963)"><path fill="#0d221b" d="M 264.007812 211.847656 L 696.085938 211.847656 L 696.085938 311.230469 L 264.007812 311.230469 Z M 264.007812 211.847656 " fill-opacity="1" fill-rule="nonzero"/></g></g><g clip-path="url(#651904f7d0)"><g clip-path="url(#3e3e98f838)"><path stroke-linecap="butt" transform="matrix(0.75, 0, 0, 0.75, 264.021376, 211.849537)" fill="none" stroke-linejoin="miter" d="M 49.997543 -0.00250815 L 525.940272 -0.00250815 C 539.200689 -0.00250815 551.919439 5.268325 561.29444 14.643326 C 570.66944 24.018326 575.935065 36.737077 575.935065 49.997494 L 575.935065 82.502704 C 575.935065 95.763121 570.66944 108.481871 561.29444 117.856872 C 551.919439 127.231872 539.200689 132.497498 525.940272 132.497498 L 49.997543 132.497498 C 36.737126 132.497498 24.018375 127.231872 14.643375 117.856872 C 5.268374 108.481871 -0.00245915 95.763121 -0.00245915 82.502704 L -0.00245915 49.997494 C -0.00245915 36.737077 5.268374 24.018326 14.643375 14.643326 C 24.018375 5.268325 36.737126 -0.00250815 49.997543 -0.00250815 Z M 49.997543 -0.00250815 " stroke="#0d221b" stroke-width="2" stroke-opacity="1" stroke-miterlimit="4"/></g></g><g clip-path="url(#6dc8712fb7)"><g clip-path="url(#b8ea35e372)"><path fill="#5271ff" d="M 607.300781 223.582031 L 683.222656 223.582031 L 683.222656 299.5 L 607.300781 299.5 Z M 607.300781 223.582031 " fill-opacity="1" fill-rule="nonzero"/></g></g><g clip-path="url(#7ddc669003)"><path fill="#faf8f4" d="M 659.617188 247.175781 L 659.617188 275.867188 L 653.875 275.867188 L 653.875 256.976562 L 634.957031 275.894531 L 630.894531 271.835938 L 649.8125 252.917969 L 630.921875 252.917969 L 630.921875 247.175781 Z M 659.617188 247.175781 " fill-opacity="1" fill-rule="nonzero"/></g><g fill="#faf8f4" fill-opacity="1"><g transform="translate(309.894011, 275.172305)"><g><path d="M 17.765625 0.46875 C 24.296875 0.46875 29.515625 -2.859375 32.109375 -8.984375 L 26.65625 -11.203125 C 24.890625 -6.796875 22 -5.125 17.765625 -5.125 C 10.734375 -5.125 7.75 -10.109375 7.75 -16.640625 C 7.75 -22.71875 10.734375 -27.703125 17.671875 -27.703125 C 21.953125 -27.703125 25.328125 -26.03125 26.5625 -21.71875 L 32.0625 -23.890625 C 29.421875 -30.015625 24.21875 -33.3125 17.71875 -33.3125 C 6.9375 -33.3125 1.90625 -25.375 1.90625 -16.40625 C 1.90625 -7.40625 6.984375 0.46875 17.765625 0.46875 Z M 17.765625 0.46875 "/></g></g></g><g fill="#faf8f4" fill-opacity="1"><g transform="translate(341.881633, 275.172305)"><g><path d="M 13.0625 0.46875 C 20.234375 0.46875 24.9375 -5.078125 24.9375 -11.640625 C 24.9375 -18.1875 20.234375 -23.671875 13.0625 -23.671875 C 5.890625 -23.671875 1.1875 -18.1875 1.1875 -11.640625 C 1.1875 -5.078125 5.890625 0.46875 13.0625 0.46875 Z M 13.0625 -4.40625 C 8.796875 -4.40625 7.078125 -7.84375 7.078125 -11.640625 C 7.078125 -15.453125 8.796875 -18.765625 13.0625 -18.765625 C 17.359375 -18.765625 19.046875 -15.453125 19.046875 -11.640625 C 19.046875 -7.84375 17.359375 -4.40625 13.0625 -4.40625 Z M 13.0625 -4.40625 "/></g></g></g><g fill="#faf8f4" fill-opacity="1"><g transform="translate(366.816204, 275.172305)"><g><path d="M 3.359375 0 L 8.984375 0 L 8.984375 -12.6875 C 8.984375 -16.734375 11.015625 -18.4375 14.203125 -18.4375 C 17.09375 -18.4375 18.625 -16.234375 18.625 -13.203125 L 18.625 0 L 24.21875 0 L 24.21875 -13.921875 C 24.21875 -18.765625 21.90625 -23.671875 15.828125 -23.671875 C 13.546875 -23.671875 10.828125 -22.765625 8.984375 -20.484375 L 8.984375 -23.171875 L 3.359375 -23.171875 Z M 3.359375 0 "/></g></g></g><g fill="#faf8f4" fill-opacity="1"><g transform="translate(392.516403, 275.172305)"><g><path d="M 11.59375 0.46875 C 13.203125 0.46875 14.921875 0.09375 15.78125 -0.234375 L 15.78125 -5.359375 C 15.015625 -4.984375 13.734375 -4.53125 12.546875 -4.53125 C 11.0625 -4.53125 9.9375 -5.171875 9.9375 -7.40625 L 9.9375 -18.4375 L 15.78125 -18.4375 L 15.78125 -23.171875 L 9.9375 -23.171875 L 9.9375 -32.96875 L 4.40625 -28.9375 L 4.40625 -23.171875 L 0.578125 -23.171875 L 0.578125 -18.4375 L 4.3125 -18.4375 L 4.3125 -6.40625 C 4.3125 -2.1875 7.03125 0.46875 11.59375 0.46875 Z M 11.59375 0.46875 "/></g></g></g><g fill="#faf8f4" fill-opacity="1"><g transform="translate(408.773868, 275.172305)"><g><path d="M 9.703125 0.46875 C 12.453125 0.46875 14.921875 -0.421875 16.90625 -3.3125 L 17.28125 0 L 21.953125 0 L 21.953125 -14.0625 C 21.953125 -19.71875 18.234375 -23.671875 11.921875 -23.671875 C 7.359375 -23.671875 4.40625 -21.625 2.1875 -18.578125 L 6.515625 -15.453125 C 7.515625 -17.140625 9.296875 -18.71875 11.96875 -18.71875 C 14.96875 -18.71875 16.546875 -16.78125 16.546875 -13.828125 L 10.515625 -13.828125 C 5.3125 -13.828125 1.28125 -12.15625 1.28125 -7.125 C 1.28125 -2.28125 4.9375 0.46875 9.703125 0.46875 Z M 10.515625 -4.3125 C 8.3125 -4.3125 7.078125 -5.40625 7.078125 -6.9375 C 7.078125 -8.40625 8.265625 -9.75 10.828125 -9.75 L 16.546875 -9.75 C 16.453125 -6.84375 13.734375 -4.3125 10.515625 -4.3125 Z M 10.515625 -4.3125 "/></g></g></g><g fill="#faf8f4" fill-opacity="1"><g transform="translate(432.153984, 275.172305)"><g><path d="M 12.546875 0.46875 C 17.140625 0.46875 20.765625 -2.09375 22.296875 -6.40625 L 17.140625 -8.359375 C 16.546875 -6.171875 14.78125 -4.65625 12.5 -4.65625 C 8.5625 -4.65625 7.078125 -8.03125 7.078125 -11.546875 C 7.078125 -15.015625 8.609375 -18.53125 12.5 -18.53125 C 14.828125 -18.53125 16.546875 -16.953125 17.140625 -14.734375 L 22.53125 -16.828125 C 20.765625 -21.4375 17.09375 -23.671875 12.5 -23.671875 C 4.9375 -23.671875 1.328125 -17.625 1.328125 -11.546875 C 1.328125 -5.40625 4.984375 0.46875 12.546875 0.46875 Z M 12.546875 0.46875 "/></g></g></g><g fill="#faf8f4" fill-opacity="1"><g transform="translate(454.211654, 275.172305)"><g><path d="M 11.59375 0.46875 C 13.203125 0.46875 14.921875 0.09375 15.78125 -0.234375 L 15.78125 -5.359375 C 15.015625 -4.984375 13.734375 -4.53125 12.546875 -4.53125 C 11.0625 -4.53125 9.9375 -5.171875 9.9375 -7.40625 L 9.9375 -18.4375 L 15.78125 -18.4375 L 15.78125 -23.171875 L 9.9375 -23.171875 L 9.9375 -32.96875 L 4.40625 -28.9375 L 4.40625 -23.171875 L 0.578125 -23.171875 L 0.578125 -18.4375 L 4.3125 -18.4375 L 4.3125 -6.40625 C 4.3125 -2.1875 7.03125 0.46875 11.59375 0.46875 Z M 11.59375 0.46875 "/></g></g></g><g fill="#faf8f4" fill-opacity="1"><g transform="translate(470.46911, 275.172305)"><g><path d="M 13.0625 0.46875 C 20.234375 0.46875 24.9375 -5.078125 24.9375 -11.640625 C 24.9375 -18.1875 20.234375 -23.671875 13.0625 -23.671875 C 5.890625 -23.671875 1.1875 -18.1875 1.1875 -11.640625 C 1.1875 -5.078125 5.890625 0.46875 13.0625 0.46875 Z M 13.0625 -4.40625 C 8.796875 -4.40625 7.078125 -7.84375 7.078125 -11.640625 C 7.078125 -15.453125 8.796875 -18.765625 13.0625 -18.765625 C 17.359375 -18.765625 19.046875 -15.453125 19.046875 -11.640625 C 19.046875 -7.84375 17.359375 -4.40625 13.0625 -4.40625 Z M 13.0625 -4.40625 "/></g></g></g><g fill="#faf8f4" fill-opacity="1"><g transform="translate(495.40369, 275.172305)"><g><path d="M 10.34375 0.46875 C 14.734375 0.46875 19.390625 -1.90625 19.390625 -7.265625 C 19.390625 -15.78125 7.609375 -13.6875 7.609375 -17.1875 C 7.609375 -18.28125 8.75 -19.1875 10.609375 -19.1875 C 13.109375 -19.1875 14.40625 -17.671875 15.203125 -16.234375 L 19.578125 -18.625 C 17.8125 -21.765625 14.78125 -23.671875 10.78125 -23.671875 C 6.3125 -23.671875 2.1875 -21.34375 2.1875 -16.453125 C 2.1875 -8.265625 13.828125 -10.875 13.828125 -6.984375 C 13.828125 -5.75 12.6875 -4.21875 10.0625 -4.21875 C 6.984375 -4.21875 5.75 -6.359375 5.125 -8.03125 L 0.625 -6.03125 C 1.765625 -2.453125 5.46875 0.46875 10.34375 0.46875 Z M 10.34375 0.46875 "/></g></g></g></svg>