<svg xmlns="http://www.w3.org/2000/svg" xmlns:xlink="http://www.w3.org/1999/xlink" width="500" zoomAndPan="magnify" viewBox="0 0 375 374.999991" height="500" preserveAspectRatio="xMidYMid meet" version="1.0"><defs><g/><clipPath id="dd54deb5d0"><path d="M 74.214844 21.109375 L 309.714844 21.109375 L 309.714844 283.609375 L 74.214844 283.609375 Z M 74.214844 21.109375 " clip-rule="nonzero"/></clipPath></defs><g clip-path="url(#dd54deb5d0)"><path fill="#000002" d="M 261.0625 227.324219 C 259.527344 227.324219 257.988281 226.710938 256.757812 225.632812 L 246.152344 214.867188 C 240.3125 209.179688 249.074219 200.414062 254.761719 206.257812 L 261.0625 212.5625 L 279.507812 194.109375 C 285.195312 188.417969 293.957031 197.183594 288.117188 202.875 L 265.519531 225.632812 C 264.289062 226.710938 262.753906 227.324219 261.0625 227.324219 Z M 243.078125 283.609375 L 104.421875 283.609375 C 87.820312 283.609375 74.292969 269.921875 74.292969 253.3125 L 74.292969 51.402344 C 74.292969 34.640625 87.820312 21.109375 104.421875 21.109375 L 243.078125 21.109375 C 259.679688 21.109375 273.207031 34.640625 273.207031 51.402344 L 273.207031 163.199219 C 279.816406 167.351562 291.191406 172.425781 300.414062 167.042969 C 304.566406 164.738281 309.636719 167.660156 309.636719 172.425781 L 309.636719 211.023438 C 309.636719 223.019531 300.722656 248.699219 272.898438 258.082031 C 270.59375 272.535156 257.988281 283.609375 243.078125 283.609375 Z M 260.910156 163.046875 L 260.910156 51.402344 C 260.910156 41.40625 252.914062 33.410156 243.078125 33.410156 L 104.421875 33.410156 C 94.585938 33.410156 86.589844 41.40625 86.589844 51.402344 L 86.589844 253.3125 C 86.589844 263.15625 94.585938 271.304688 104.421875 271.304688 L 243.078125 271.304688 C 251.378906 271.304688 258.449219 265.460938 260.449219 257.773438 C 233.238281 248.085938 224.632812 222.867188 224.632812 211.023438 L 224.632812 172.425781 C 224.632812 167.660156 229.703125 164.738281 233.855469 167.042969 C 243.078125 172.425781 254.300781 167.351562 260.910156 163.046875 Z M 220.480469 78.3125 L 127.019531 78.3125 C 118.871094 78.3125 118.871094 66.011719 127.019531 66.011719 L 220.480469 66.011719 C 228.628906 66.011719 228.628906 78.3125 220.480469 78.3125 Z M 238.3125 118.449219 L 109.1875 118.449219 C 101.039062 118.449219 101.039062 106.148438 109.1875 106.148438 L 238.3125 106.148438 C 246.460938 106.148438 246.460938 118.449219 238.3125 118.449219 Z M 238.3125 158.433594 L 109.1875 158.433594 C 101.039062 158.433594 101.039062 146.128906 109.1875 146.128906 L 238.3125 146.128906 C 246.460938 146.128906 246.460938 158.433594 238.3125 158.433594 Z M 179.128906 198.570312 L 109.1875 198.570312 C 101.039062 198.570312 101.039062 186.265625 109.1875 186.265625 L 179.128906 186.265625 C 187.277344 186.265625 187.277344 198.570312 179.128906 198.570312 Z M 187.429688 238.550781 L 109.1875 238.550781 C 101.039062 238.550781 101.039062 226.25 109.1875 226.25 L 187.429688 226.25 C 195.425781 226.25 195.425781 238.550781 187.429688 238.550781 Z M 236.929688 210.871094 C 237.082031 212.871094 239.082031 238.703125 267.058594 247.007812 C 295.1875 238.703125 297.1875 213.023438 297.339844 210.871094 L 297.339844 181.191406 C 285.65625 183.34375 274.128906 178.269531 267.058594 173.808594 C 260.140625 178.269531 248.613281 183.34375 236.929688 181.191406 Z M 236.929688 210.871094 " fill-opacity="1" fill-rule="evenodd"/></g><g fill="#000000" fill-opacity="1"><g transform="translate(147.374995, 336.334108)"><g><path d="M 15.71875 -23.921875 C 13.445312 -23.921875 11.6875 -23.066406 10.4375 -21.359375 C 9.1875 -19.648438 8.5625 -17.265625 8.5625 -14.203125 C 8.5625 -7.835938 10.945312 -4.65625 15.71875 -4.65625 C 17.726562 -4.65625 20.160156 -5.15625 23.015625 -6.15625 L 23.015625 -1.078125 C 20.671875 -0.0976562 18.050781 0.390625 15.15625 0.390625 C 11 0.390625 7.820312 -0.867188 5.625 -3.390625 C 3.425781 -5.910156 2.328125 -9.523438 2.328125 -14.234375 C 2.328125 -17.203125 2.863281 -19.800781 3.9375 -22.03125 C 5.019531 -24.269531 6.570312 -25.984375 8.59375 -27.171875 C 10.625 -28.367188 13 -28.96875 15.71875 -28.96875 C 18.5 -28.96875 21.285156 -28.296875 24.078125 -26.953125 L 22.125 -22.03125 C 21.0625 -22.539062 19.988281 -22.984375 18.90625 -23.359375 C 17.820312 -23.734375 16.757812 -23.921875 15.71875 -23.921875 Z M 15.71875 -23.921875 "/></g></g></g><g fill="#000000" fill-opacity="1"><g transform="translate(172.860791, 336.334108)"><g><path d="M 9.65625 -15.125 L 11.640625 -15.125 C 13.503906 -15.125 14.894531 -15.488281 15.8125 -16.21875 C 16.738281 -16.957031 17.203125 -18.03125 17.203125 -19.4375 C 17.203125 -20.851562 16.816406 -21.898438 16.046875 -22.578125 C 15.273438 -23.253906 14.0625 -23.59375 12.40625 -23.59375 L 9.65625 -23.59375 Z M 23.328125 -19.65625 C 23.328125 -16.582031 22.363281 -14.226562 20.4375 -12.59375 C 18.519531 -10.96875 15.789062 -10.15625 12.25 -10.15625 L 9.65625 -10.15625 L 9.65625 0 L 3.59375 0 L 3.59375 -28.5625 L 12.71875 -28.5625 C 16.175781 -28.5625 18.804688 -27.8125 20.609375 -26.3125 C 22.421875 -24.820312 23.328125 -22.601562 23.328125 -19.65625 Z M 23.328125 -19.65625 "/></g></g></g><g fill="#000000" fill-opacity="1"><g transform="translate(197.975524, 336.334108)"><g><path d="M 3.59375 0 L 3.59375 -28.5625 L 9.65625 -28.5625 L 9.65625 0 Z M 3.59375 0 "/></g></g></g><g fill="#000000" fill-opacity="1"><g transform="translate(211.216418, 336.334108)"><g><path d="M 15.71875 -23.921875 C 13.445312 -23.921875 11.6875 -23.066406 10.4375 -21.359375 C 9.1875 -19.648438 8.5625 -17.265625 8.5625 -14.203125 C 8.5625 -7.835938 10.945312 -4.65625 15.71875 -4.65625 C 17.726562 -4.65625 20.160156 -5.15625 23.015625 -6.15625 L 23.015625 -1.078125 C 20.671875 -0.0976562 18.050781 0.390625 15.15625 0.390625 C 11 0.390625 7.820312 -0.867188 5.625 -3.390625 C 3.425781 -5.910156 2.328125 -9.523438 2.328125 -14.234375 C 2.328125 -17.203125 2.863281 -19.800781 3.9375 -22.03125 C 5.019531 -24.269531 6.570312 -25.984375 8.59375 -27.171875 C 10.625 -28.367188 13 -28.96875 15.71875 -28.96875 C 18.5 -28.96875 21.285156 -28.296875 24.078125 -26.953125 L 22.125 -22.03125 C 21.0625 -22.539062 19.988281 -22.984375 18.90625 -23.359375 C 17.820312 -23.734375 16.757812 -23.921875 15.71875 -23.921875 Z M 15.71875 -23.921875 "/></g></g></g></svg>