<svg xmlns="http://www.w3.org/2000/svg" xmlns:xlink="http://www.w3.org/1999/xlink" width="1280" zoomAndPan="magnify" viewBox="0 0 960 599.999999" height="800" preserveAspectRatio="xMidYMid meet" version="1.0"><defs><g/><clipPath id="8e0ef57fe2"><path d="M 285.917969 237.503906 L 717.703125 237.503906 L 717.703125 327.007812 L 285.917969 327.007812 Z M 285.917969 237.503906 " clip-rule="nonzero"/></clipPath><clipPath id="fa5e70c389"><path d="M 323.417969 237.503906 L 680.128906 237.503906 C 690.074219 237.503906 699.613281 241.457031 706.644531 248.488281 C 713.679688 255.519531 717.628906 265.058594 717.628906 275.003906 L 717.628906 289.507812 C 717.628906 299.453125 713.679688 308.992188 706.644531 316.023438 C 699.613281 323.058594 690.074219 327.007812 680.128906 327.007812 L 323.417969 327.007812 C 313.472656 327.007812 303.933594 323.058594 296.898438 316.023438 C 289.867188 308.992188 285.917969 299.453125 285.917969 289.507812 L 285.917969 275.003906 C 285.917969 265.058594 289.867188 255.519531 296.898438 248.488281 C 303.933594 241.457031 313.472656 237.503906 323.417969 237.503906 Z M 323.417969 237.503906 " clip-rule="nonzero"/></clipPath><clipPath id="bd9832dcfe"><path d="M 285.933594 237.503906 L 717.917969 237.503906 L 717.917969 326.753906 L 285.933594 326.753906 Z M 285.933594 237.503906 " clip-rule="nonzero"/></clipPath><clipPath id="9d1beda267"><path d="M 323.429688 237.503906 L 680.109375 237.503906 C 690.054688 237.503906 699.59375 241.453125 706.625 248.488281 C 713.65625 255.519531 717.609375 265.054688 717.609375 275 L 717.609375 289.503906 C 717.609375 299.449219 713.65625 308.984375 706.625 316.019531 C 699.59375 323.050781 690.054688 327 680.109375 327 L 323.429688 327 C 313.484375 327 303.949219 323.050781 296.914062 316.019531 C 289.882812 308.984375 285.933594 299.449219 285.933594 289.503906 L 285.933594 275 C 285.933594 265.054688 289.882812 255.519531 296.914062 248.488281 C 303.949219 241.453125 313.484375 237.503906 323.429688 237.503906 Z M 323.429688 237.503906 " clip-rule="nonzero"/></clipPath><clipPath id="2e8815a22c"><path d="M 638.671875 250.863281 L 702.074219 250.863281 L 702.074219 314.261719 L 638.671875 314.261719 Z M 638.671875 250.863281 " clip-rule="nonzero"/></clipPath><clipPath id="a3276688af"><path d="M 670.375 250.863281 C 652.867188 250.863281 638.671875 265.054688 638.671875 282.5625 C 638.671875 300.070312 652.867188 314.261719 670.375 314.261719 C 687.882812 314.261719 702.074219 300.070312 702.074219 282.5625 C 702.074219 265.054688 687.882812 250.863281 670.375 250.863281 Z M 670.375 250.863281 " clip-rule="nonzero"/></clipPath><clipPath id="4681fbe404"><path d="M 655 264 L 688 264 L 688 300 L 655 300 Z M 655 264 " clip-rule="nonzero"/></clipPath><clipPath id="8ea2f95f98"><path d="M 670.371094 264.761719 L 687.875 282.261719 L 670.371094 299.765625 L 652.871094 282.261719 Z M 670.371094 264.761719 " clip-rule="nonzero"/></clipPath><clipPath id="f73865c15c"><path d="M 670.371094 264.761719 L 687.875 282.261719 L 670.371094 299.765625 L 652.871094 282.261719 Z M 670.371094 264.761719 " clip-rule="nonzero"/></clipPath></defs><g clip-path="url(#8e0ef57fe2)"><g clip-path="url(#fa5e70c389)"><path fill="#5271ff" d="M 285.917969 237.503906 L 717.703125 237.503906 L 717.703125 327.007812 L 285.917969 327.007812 Z M 285.917969 237.503906 " fill-opacity="1" fill-rule="nonzero"/></g></g><g clip-path="url(#bd9832dcfe)"><g clip-path="url(#9d1beda267)"><path stroke-linecap="butt" transform="matrix(0.75, 0, 0, 0.75, 285.933211, 237.504473)" fill="none" stroke-linejoin="miter" d="M 49.995303 -0.000755755 L 525.56824 -0.000755755 C 538.828658 -0.000755755 551.547408 5.264869 560.922409 14.645078 C 570.297409 24.020079 575.568243 36.733621 575.568243 49.994038 L 575.568243 69.332581 C 575.568243 82.592998 570.297409 95.30654 560.922409 104.686749 C 551.547408 114.061749 538.828658 119.327374 525.56824 119.327374 L 49.995303 119.327374 C 36.734886 119.327374 24.021344 114.061749 14.641135 104.686749 C 5.266135 95.30654 0.000509693 82.592998 0.000509693 69.332581 L 0.000509693 49.994038 C 0.000509693 36.733621 5.266135 24.020079 14.641135 14.645078 C 24.021344 5.264869 36.734886 -0.000755755 49.995303 -0.000755755 Z M 49.995303 -0.000755755 " stroke="#faf8f4" stroke-width="2" stroke-opacity="1" stroke-miterlimit="4"/></g></g><g clip-path="url(#2e8815a22c)"><g clip-path="url(#a3276688af)"><path fill="#faf8f4" d="M 638.671875 250.863281 L 702.074219 250.863281 L 702.074219 314.261719 L 638.671875 314.261719 Z M 638.671875 250.863281 " fill-opacity="1" fill-rule="nonzero"/></g></g><g clip-path="url(#4681fbe404)"><g clip-path="url(#8ea2f95f98)"><g clip-path="url(#f73865c15c)"><path fill="#0d221b" d="M 687.863281 282.253906 L 670.390625 299.730469 L 666.890625 296.230469 L 678.394531 284.726562 L 655.355469 284.726562 L 655.355469 279.78125 L 678.394531 279.78125 L 666.890625 268.277344 L 670.390625 264.78125 Z M 687.863281 282.253906 " fill-opacity="1" fill-rule="nonzero"/></g></g></g><g fill="#faf8f4" fill-opacity="1"><g transform="translate(387.003272, 296.727712)"><g><path d="M 14.265625 0.375 C 19.484375 0.375 23.671875 -2.296875 25.765625 -7.203125 L 21.390625 -8.984375 C 19.96875 -5.453125 17.640625 -4.109375 14.265625 -4.109375 C 8.625 -4.109375 6.21875 -8.109375 6.21875 -13.34375 C 6.21875 -18.21875 8.625 -22.234375 14.1875 -22.234375 C 17.609375 -22.234375 20.328125 -20.890625 21.3125 -17.421875 L 25.734375 -19.171875 C 23.609375 -24.09375 19.4375 -26.734375 14.21875 -26.734375 C 5.5625 -26.734375 1.53125 -20.359375 1.53125 -13.15625 C 1.53125 -5.9375 5.609375 0.375 14.265625 0.375 Z M 14.265625 0.375 "/></g></g></g><g fill="#faf8f4" fill-opacity="1"><g transform="translate(411.676752, 296.727712)"><g><path d="M 2.703125 0 L 7.09375 0 L 7.09375 -7.859375 C 7.09375 -12.578125 9.3125 -14.5625 11.4375 -14.5625 C 12.15625 -14.5625 12.84375 -14.328125 13.453125 -13.921875 L 15.53125 -17.640625 C 14.625 -18.5625 13.34375 -18.984375 12.125 -18.984375 C 10.03125 -18.984375 7.9375 -17.71875 7.125 -15.46875 L 7.125 -18.59375 L 2.703125 -18.59375 Z M 2.703125 0 "/></g></g></g><g fill="#faf8f4" fill-opacity="1"><g transform="translate(424.864721, 296.727712)"><g><path d="M 10.4375 0.375 C 13.578125 0.375 16.046875 -0.71875 18.078125 -2.984375 L 14.953125 -5.71875 C 13.640625 -4.265625 12.15625 -3.734375 10.484375 -3.734375 C 7.5625 -3.734375 6.21875 -5.375 5.828125 -7.8125 L 18.59375 -7.8125 C 18.6875 -8.078125 18.765625 -8.84375 18.765625 -9.609375 C 18.765625 -13.75 16.65625 -18.984375 10.140625 -18.984375 C 3.859375 -18.984375 1.03125 -14.078125 1.03125 -9.234375 C 1.03125 -4.21875 4.046875 0.375 10.4375 0.375 Z M 5.828125 -11.09375 C 6.25 -13.421875 7.421875 -15.171875 10.109375 -15.171875 C 12.46875 -15.171875 14 -13.75 14.296875 -11.09375 Z M 5.828125 -11.09375 "/></g></g></g><g fill="#faf8f4" fill-opacity="1"><g transform="translate(442.743694, 296.727712)"><g><path d="M 7.78125 0.375 C 10 0.375 11.96875 -0.328125 13.578125 -2.65625 L 13.875 0 L 17.609375 0 L 17.609375 -11.28125 C 17.609375 -15.828125 14.625 -18.984375 9.5625 -18.984375 C 5.90625 -18.984375 3.53125 -17.34375 1.75 -14.90625 L 5.234375 -12.390625 C 6.03125 -13.75 7.46875 -15.015625 9.609375 -15.015625 C 12 -15.015625 13.265625 -13.453125 13.265625 -11.09375 L 8.4375 -11.09375 C 4.265625 -11.09375 1.03125 -9.75 1.03125 -5.71875 C 1.03125 -1.828125 3.96875 0.375 7.78125 0.375 Z M 8.4375 -3.46875 C 6.671875 -3.46875 5.671875 -4.34375 5.671875 -5.5625 C 5.671875 -6.734375 6.625 -7.8125 8.6875 -7.8125 L 13.265625 -7.8125 C 13.203125 -5.484375 11.015625 -3.46875 8.4375 -3.46875 Z M 8.4375 -3.46875 "/></g></g></g><g fill="#faf8f4" fill-opacity="1"><g transform="translate(460.510975, 296.727712)"><g><path d="M 2.703125 0 L 7.09375 0 L 7.09375 -7.859375 C 7.09375 -12.578125 9.3125 -14.5625 11.4375 -14.5625 C 12.15625 -14.5625 12.84375 -14.328125 13.453125 -13.921875 L 15.53125 -17.640625 C 14.625 -18.5625 13.34375 -18.984375 12.125 -18.984375 C 10.03125 -18.984375 7.9375 -17.71875 7.125 -15.46875 L 7.125 -18.59375 L 2.703125 -18.59375 Z M 2.703125 0 "/></g></g></g><g fill="#faf8f4" fill-opacity="1"><g transform="translate(473.698945, 296.727712)"><g/></g></g><g fill="#faf8f4" fill-opacity="1"><g transform="translate(480.87424, 296.727712)"><g><path d="M 10.078125 0.375 C 13.75 0.375 16.65625 -1.671875 17.890625 -5.140625 L 13.75 -6.703125 C 13.265625 -4.953125 11.859375 -3.734375 10.03125 -3.734375 C 6.875 -3.734375 5.671875 -6.4375 5.671875 -9.265625 C 5.671875 -12.046875 6.90625 -14.875 10.03125 -14.875 C 11.890625 -14.875 13.265625 -13.609375 13.75 -11.828125 L 18.078125 -13.5 C 16.65625 -17.203125 13.71875 -18.984375 10.03125 -18.984375 C 3.96875 -18.984375 1.0625 -14.140625 1.0625 -9.265625 C 1.0625 -4.34375 4 0.375 10.078125 0.375 Z M 10.078125 0.375 "/></g></g></g><g fill="#faf8f4" fill-opacity="1"><g transform="translate(497.580462, 296.727712)"><g><path d="M 8.921875 0.375 C 11.125 0.375 13.0625 -0.421875 14.40625 -2.171875 L 14.40625 0 L 19.03125 0 L 19.03125 -18.59375 L 14.40625 -18.59375 L 14.40625 -10.21875 C 14.40625 -4.84375 12.234375 -3.734375 10.109375 -3.734375 C 7.359375 -3.734375 6.734375 -5.609375 6.734375 -8.65625 L 6.734375 -18.59375 L 2.140625 -18.59375 L 2.140625 -8.8125 C 2.140625 -3.203125 4.21875 0.375 8.921875 0.375 Z M 8.921875 0.375 "/></g></g></g><g fill="#faf8f4" fill-opacity="1"><g transform="translate(517.320943, 296.727712)"><g><path d="M 10.4375 0.375 C 13.578125 0.375 16.046875 -0.71875 18.078125 -2.984375 L 14.953125 -5.71875 C 13.640625 -4.265625 12.15625 -3.734375 10.484375 -3.734375 C 7.5625 -3.734375 6.21875 -5.375 5.828125 -7.8125 L 18.59375 -7.8125 C 18.6875 -8.078125 18.765625 -8.84375 18.765625 -9.609375 C 18.765625 -13.75 16.65625 -18.984375 10.140625 -18.984375 C 3.859375 -18.984375 1.03125 -14.078125 1.03125 -9.234375 C 1.03125 -4.21875 4.046875 0.375 10.4375 0.375 Z M 5.828125 -11.09375 C 6.25 -13.421875 7.421875 -15.171875 10.109375 -15.171875 C 12.46875 -15.171875 14 -13.75 14.296875 -11.09375 Z M 5.828125 -11.09375 "/></g></g></g><g fill="#faf8f4" fill-opacity="1"><g transform="translate(535.199915, 296.727712)"><g><path d="M 2.703125 0 L 7.203125 0 L 7.203125 -10.1875 C 7.203125 -13.421875 8.84375 -14.796875 11.390625 -14.796875 C 13.71875 -14.796875 14.953125 -13.03125 14.953125 -10.59375 L 14.953125 0 L 19.4375 0 L 19.4375 -11.171875 C 19.4375 -15.0625 17.578125 -18.984375 12.703125 -18.984375 C 10.875 -18.984375 8.6875 -18.265625 7.203125 -16.4375 L 7.203125 -18.59375 L 2.703125 -18.59375 Z M 2.703125 0 "/></g></g></g><g fill="#faf8f4" fill-opacity="1"><g transform="translate(554.828705, 296.727712)"><g><path d="M 9.3125 0.375 C 10.59375 0.375 11.96875 0.078125 12.65625 -0.1875 L 12.65625 -4.296875 C 12.046875 -4 11.015625 -3.625 10.078125 -3.625 C 8.875 -3.625 7.96875 -4.15625 7.96875 -5.9375 L 7.96875 -14.796875 L 12.65625 -14.796875 L 12.65625 -18.59375 L 7.96875 -18.59375 L 7.96875 -26.453125 L 3.53125 -23.21875 L 3.53125 -18.59375 L 0.46875 -18.59375 L 0.46875 -14.796875 L 3.46875 -14.796875 L 3.46875 -5.140625 C 3.46875 -1.75 5.640625 0.375 9.3125 0.375 Z M 9.3125 0.375 "/></g></g></g><g fill="#faf8f4" fill-opacity="1"><g transform="translate(566.881154, 296.727712)"><g><path d="M 7.78125 0.375 C 10 0.375 11.96875 -0.328125 13.578125 -2.65625 L 13.875 0 L 17.609375 0 L 17.609375 -11.28125 C 17.609375 -15.828125 14.625 -18.984375 9.5625 -18.984375 C 5.90625 -18.984375 3.53125 -17.34375 1.75 -14.90625 L 5.234375 -12.390625 C 6.03125 -13.75 7.46875 -15.015625 9.609375 -15.015625 C 12 -15.015625 13.265625 -13.453125 13.265625 -11.09375 L 8.4375 -11.09375 C 4.265625 -11.09375 1.03125 -9.75 1.03125 -5.71875 C 1.03125 -1.828125 3.96875 0.375 7.78125 0.375 Z M 8.4375 -3.46875 C 6.671875 -3.46875 5.671875 -4.34375 5.671875 -5.5625 C 5.671875 -6.734375 6.625 -7.8125 8.6875 -7.8125 L 13.265625 -7.8125 C 13.203125 -5.484375 11.015625 -3.46875 8.4375 -3.46875 Z M 8.4375 -3.46875 "/></g></g></g></svg>