<svg xmlns="http://www.w3.org/2000/svg" xmlns:xlink="http://www.w3.org/1999/xlink" width="500" zoomAndPan="magnify" viewBox="0 0 375 374.999991" height="500" preserveAspectRatio="xMidYMid meet" version="1.0"><defs><g/><clipPath id="9de00b8cc4"><path d="M 77.863281 12.980469 L 320 12.980469 L 320 291.230469 L 77.863281 291.230469 Z M 77.863281 12.980469 " clip-rule="nonzero"/></clipPath></defs><path fill="#000000" d="M 130.308594 75.574219 L 197.785156 75.574219 C 200.261719 75.574219 202.265625 73.570312 202.265625 71.09375 C 202.265625 68.613281 200.257812 66.605469 197.785156 66.605469 L 130.308594 66.605469 C 127.832031 66.605469 125.828125 68.613281 125.828125 71.09375 C 125.828125 73.570312 127.832031 75.574219 130.308594 75.574219 Z M 130.308594 75.574219 " fill-opacity="1" fill-rule="nonzero"/><path fill="#000000" d="M 114.535156 116.007812 L 246.21875 116.007812 C 248.691406 116.007812 250.695312 113.996094 250.695312 111.519531 C 250.695312 109.042969 248.691406 107.035156 246.21875 107.035156 L 114.535156 107.035156 C 112.058594 107.035156 110.050781 109.042969 110.050781 111.519531 C 110.050781 113.996094 112.058594 116.007812 114.535156 116.007812 Z M 114.535156 116.007812 " fill-opacity="1" fill-rule="nonzero"/><path fill="#000000" d="M 114.53125 156.4375 L 191.648438 156.4375 C 194.125 156.4375 196.128906 154.433594 196.128906 151.953125 C 196.128906 149.480469 194.121094 147.472656 191.648438 147.472656 L 114.53125 147.472656 C 112.054688 147.472656 110.050781 149.480469 110.050781 151.953125 C 110.050781 154.433594 112.054688 156.4375 114.53125 156.4375 Z M 114.53125 156.4375 " fill-opacity="1" fill-rule="nonzero"/><g clip-path="url(#9de00b8cc4)"><path fill="#000000" d="M 318.640625 140.28125 C 317.226562 132.585938 312.898438 125.90625 306.457031 121.464844 C 300.019531 117.03125 292.230469 115.367188 284.554688 116.785156 C 283.960938 116.898438 283.382812 117.054688 282.804688 117.199219 L 282.804688 70.976562 C 282.804688 69.785156 282.332031 68.644531 281.492188 67.800781 L 227.945312 14.21875 C 227.738281 14.011719 227.507812 13.820312 227.261719 13.65625 C 227.203125 13.617188 227.136719 13.59375 227.074219 13.554688 C 226.886719 13.441406 226.695312 13.328125 226.492188 13.242188 C 226.398438 13.203125 226.300781 13.183594 226.203125 13.15625 C 226.023438 13.09375 225.847656 13.023438 225.65625 12.984375 C 225.363281 12.925781 225.066406 12.898438 224.769531 12.898438 L 82.429688 12.898438 C 79.953125 12.898438 77.949219 14.902344 77.949219 17.382812 L 77.949219 286.523438 C 77.949219 289.003906 79.953125 291.011719 82.429688 291.011719 L 278.324219 291.011719 C 280.796875 291.011719 282.804688 289.003906 282.804688 286.523438 L 282.804688 262.828125 L 293 248.011719 C 300.460938 237.179688 297.722656 222.28125 286.894531 214.816406 L 276.109375 207.386719 C 288.574219 181.671875 294.472656 178.257812 300.179688 174.964844 C 304.070312 172.71875 308.480469 170.171875 313.964844 162.203125 C 318.394531 155.765625 320.054688 147.980469 318.640625 140.28125 Z M 86.910156 282.039062 L 86.910156 21.867188 L 220.289062 21.867188 L 220.289062 70.976562 C 220.289062 73.453125 222.296875 75.460938 224.773438 75.460938 L 251.40625 75.460938 C 253.882812 75.460938 255.886719 73.453125 255.886719 70.976562 C 255.886719 68.496094 253.882812 66.488281 251.40625 66.488281 L 229.253906 66.488281 L 229.253906 28.210938 L 273.84375 72.832031 L 273.84375 121.0625 C 270.695312 123.121094 267.949219 125.785156 265.757812 128.972656 C 260.273438 136.941406 259.472656 141.972656 258.757812 146.40625 C 257.71875 152.917969 256.589844 159.675781 237.054688 180.464844 L 226.277344 173.035156 C 222.296875 170.296875 217.636719 168.84375 212.792969 168.84375 C 204.910156 168.84375 197.550781 172.703125 193.105469 179.15625 L 182.117188 195.117188 C 181.441406 196.09375 181.183594 197.304688 181.398438 198.472656 C 181.613281 199.648438 182.285156 200.679688 183.265625 201.359375 L 273.839844 263.792969 L 273.839844 282.039062 Z M 285.617188 242.929688 L 277.171875 255.195312 L 192.042969 196.503906 L 200.488281 184.238281 C 203.261719 180.214844 207.859375 177.8125 212.796875 177.8125 C 215.8125 177.8125 218.71875 178.71875 221.195312 180.421875 L 281.808594 222.203125 C 288.5625 226.863281 290.273438 236.160156 285.617188 242.929688 Z M 306.578125 157.121094 C 302.242188 163.417969 299.210938 165.164062 295.699219 167.191406 C 288.925781 171.101562 281.933594 175.148438 268.644531 202.246094 L 244.519531 185.621094 C 265.082031 163.53125 266.371094 155.550781 267.605469 147.828125 C 268.246094 143.820312 268.796875 140.363281 273.136719 134.0625 C 276.207031 129.597656 280.839844 126.59375 286.175781 125.609375 C 291.511719 124.628906 296.90625 125.78125 301.371094 128.859375 C 305.839844 131.9375 308.839844 136.574219 309.820312 141.914062 C 310.808594 147.246094 309.65625 152.648438 306.578125 157.121094 Z M 306.578125 157.121094 " fill-opacity="1" fill-rule="nonzero"/></g><path fill="#000000" d="M 210.410156 195.359375 C 209.007812 197.398438 209.519531 200.1875 211.558594 201.59375 L 265.46875 238.761719 C 266.246094 239.300781 267.132812 239.558594 268.007812 239.558594 C 269.433594 239.558594 270.835938 238.878906 271.703125 237.613281 C 273.109375 235.574219 272.59375 232.78125 270.558594 231.375 L 216.644531 194.210938 C 214.601562 192.804688 211.816406 193.320312 210.410156 195.359375 Z M 210.410156 195.359375 " fill-opacity="1" fill-rule="nonzero"/><path fill="#000000" d="M 137.960938 189.214844 C 115.214844 189.214844 96.707031 207.730469 96.707031 230.5 C 96.707031 253.257812 115.210938 271.78125 137.960938 271.78125 C 160.710938 271.78125 179.214844 253.261719 179.214844 230.5 C 179.214844 207.730469 160.710938 189.214844 137.960938 189.214844 Z M 137.960938 262.804688 C 120.15625 262.804688 105.671875 248.304688 105.671875 230.496094 C 105.671875 212.671875 120.15625 198.179688 137.960938 198.179688 C 155.761719 198.179688 170.25 212.671875 170.25 230.496094 C 170.25 248.304688 155.765625 262.804688 137.960938 262.804688 Z M 137.960938 262.804688 " fill-opacity="1" fill-rule="nonzero"/><path fill="#000000" d="M 158.289062 208.789062 C 156.132812 207.550781 153.398438 208.296875 152.167969 210.453125 L 134.308594 241.59375 L 122.621094 232.507812 C 120.664062 230.984375 117.851562 231.332031 116.332031 233.289062 C 114.8125 235.246094 115.164062 238.066406 117.117188 239.585938 L 132.875 251.851562 C 133.667969 252.472656 134.640625 252.796875 135.628906 252.796875 C 135.917969 252.796875 136.203125 252.765625 136.496094 252.710938 C 137.769531 252.460938 138.867188 251.671875 139.515625 250.542969 L 159.941406 214.914062 C 161.175781 212.761719 160.429688 210.019531 158.289062 208.789062 Z M 158.289062 208.789062 " fill-opacity="1" fill-rule="nonzero"/><g fill="#000000" fill-opacity="1"><g transform="translate(158.999994, 336.334108)"><g><path d="M 27.28125 -14.546875 C 27.28125 -9.847656 25.941406 -6.25 23.265625 -3.75 C 20.597656 -1.25 16.738281 0 11.6875 0 L 3.59375 0 L 3.59375 -28.5625 L 12.5625 -28.5625 C 17.21875 -28.5625 20.832031 -27.328125 23.40625 -24.859375 C 25.988281 -22.398438 27.28125 -18.960938 27.28125 -14.546875 Z M 21 -14.390625 C 21 -20.523438 18.289062 -23.59375 12.875 -23.59375 L 9.65625 -23.59375 L 9.65625 -5 L 12.25 -5 C 18.082031 -5 21 -8.128906 21 -14.390625 Z M 21 -14.390625 "/></g></g></g><g fill="#000000" fill-opacity="1"><g transform="translate(188.606475, 336.334108)"><g><path d="M 14.609375 0 L 8.5625 0 L 8.5625 -23.515625 L 0.796875 -23.515625 L 0.796875 -28.5625 L 22.359375 -28.5625 L 22.359375 -23.515625 L 14.609375 -23.515625 Z M 14.609375 0 "/></g></g></g><g fill="#000000" fill-opacity="1"><g transform="translate(211.768275, 336.334108)"><g><path d="M 3.59375 0 L 3.59375 -28.5625 L 9.65625 -28.5625 L 9.65625 0 Z M 3.59375 0 "/></g></g></g></svg>