<svg xmlns="http://www.w3.org/2000/svg" xmlns:xlink="http://www.w3.org/1999/xlink" width="500" zoomAndPan="magnify" viewBox="0 0 375 374.999991" height="500" preserveAspectRatio="xMidYMid meet" version="1.0"><defs><g/><clipPath id="ea1ab13fd6"><path d="M 83 18.507812 L 279 18.507812 L 279 284.007812 L 83 284.007812 Z M 83 18.507812 " clip-rule="nonzero"/></clipPath></defs><path fill="#000000" d="M 140.140625 138.746094 C 138.613281 137.523438 136.171875 137.832031 134.644531 139.355469 L 121.828125 155.226562 L 117.859375 151.5625 C 116.335938 150.035156 113.894531 150.035156 112.367188 151.5625 C 110.84375 153.089844 110.84375 155.53125 112.367188 157.054688 C 112.367188 157.054688 119.691406 163.769531 119.691406 163.769531 C 121.523438 165.296875 124.269531 164.683594 125.183594 163.464844 L 140.445312 144.238281 C 141.96875 142.40625 142.582031 140.578125 140.140625 138.746094 Z M 140.140625 138.746094 " fill-opacity="1" fill-rule="nonzero"/><g clip-path="url(#ea1ab13fd6)"><path fill="#000000" d="M 275.023438 175.367188 C 272.890625 175.367188 271.363281 177.199219 271.363281 179.027344 L 271.363281 276.378906 L 90.394531 276.378906 L 90.394531 26.136719 L 216.433594 26.136719 L 216.433594 76.796875 C 216.433594 78.933594 217.957031 80.761719 220.09375 80.761719 L 270.753906 80.761719 L 270.753906 85.644531 C 270.753906 87.78125 272.582031 89.308594 274.414062 89.308594 C 276.246094 89.308594 278.078125 87.476562 278.078125 85.644531 L 278.078125 76.796875 C 278.078125 75.878906 277.773438 74.964844 276.855469 74.050781 L 223.144531 19.726562 C 222.535156 18.8125 221.316406 18.507812 220.398438 18.507812 L 86.734375 18.507812 C 84.597656 18.507812 83.070312 20.339844 83.070312 22.167969 L 83.070312 280.34375 C 83.070312 282.480469 84.902344 284.007812 86.734375 284.007812 L 275.023438 284.007812 C 277.160156 284.007812 278.6875 282.175781 278.6875 280.34375 L 278.6875 179.027344 C 278.6875 176.890625 277.160156 175.367188 275.023438 175.367188 Z M 275.023438 175.367188 " fill-opacity="1" fill-rule="nonzero"/></g><path fill="#000000" d="M 251.832031 97.546875 C 251.832031 95.410156 250 93.886719 248.167969 93.886719 L 157.226562 93.886719 C 155.09375 93.886719 153.566406 95.714844 153.566406 97.546875 C 153.566406 99.378906 155.398438 101.210938 157.226562 101.210938 L 248.167969 101.210938 C 250.304688 101.515625 251.832031 99.683594 251.832031 97.546875 Z M 251.832031 97.546875 " fill-opacity="1" fill-rule="nonzero"/><path fill="#000000" d="M 157.226562 113.417969 C 155.09375 113.417969 153.566406 115.246094 153.566406 117.078125 C 153.566406 118.910156 155.398438 120.742188 157.226562 120.742188 L 222.535156 120.742188 C 224.671875 120.742188 226.199219 118.910156 226.199219 117.078125 C 226.199219 115.246094 224.671875 113.417969 222.535156 113.417969 Z M 157.226562 113.417969 " fill-opacity="1" fill-rule="nonzero"/><path fill="#000000" d="M 140.140625 88.390625 C 138.613281 87.171875 136.171875 87.476562 134.644531 89.003906 L 121.828125 104.871094 L 117.859375 101.210938 C 116.335938 99.683594 113.894531 99.683594 112.367188 101.210938 C 110.84375 102.734375 110.84375 105.175781 112.367188 106.703125 C 112.367188 106.703125 119.691406 113.417969 119.691406 113.417969 C 121.523438 114.941406 124.269531 114.332031 125.183594 113.109375 L 140.445312 93.886719 C 141.96875 92.054688 142.273438 90.222656 140.140625 88.390625 Z M 140.140625 88.390625 " fill-opacity="1" fill-rule="nonzero"/><path fill="#000000" d="M 140.140625 187.269531 C 138.613281 186.046875 136.171875 186.351562 134.644531 187.878906 L 121.828125 203.746094 L 117.859375 200.085938 C 116.335938 198.558594 113.894531 198.558594 112.367188 200.085938 C 110.84375 201.609375 110.84375 204.050781 112.367188 205.578125 C 112.367188 205.578125 119.691406 212.292969 119.691406 212.292969 C 121.523438 213.816406 124.269531 213.207031 125.183594 211.988281 L 140.445312 192.761719 C 141.96875 191.234375 142.273438 189.097656 140.140625 187.269531 Z M 140.140625 187.269531 " fill-opacity="1" fill-rule="nonzero"/><path fill="#000000" d="M 345.214844 87.78125 L 334.226562 79.238281 L 341.550781 69.777344 C 343.078125 67.945312 344.605469 64.894531 341.246094 62.148438 L 325.378906 49.636719 C 322.9375 47.5 318.96875 47.5 316.832031 50.246094 L 309.507812 59.707031 C 308.898438 59.402344 307.984375 59.09375 307.375 59.402344 C 306.457031 59.402344 305.542969 60.011719 304.933594 60.925781 L 292.113281 77.40625 C 291.199219 78.933594 291.199219 80.761719 292.113281 81.984375 L 243.898438 143.324219 L 157.226562 143.324219 C 155.09375 143.324219 153.566406 145.152344 153.566406 146.984375 C 153.566406 148.816406 155.398438 150.648438 157.226562 150.648438 L 237.792969 150.648438 L 228.640625 162.550781 L 157.226562 162.550781 C 155.09375 162.550781 153.566406 164.378906 153.566406 166.210938 C 153.566406 168.042969 155.398438 169.875 157.226562 169.875 L 222.839844 169.875 L 205.445312 192.761719 L 157.226562 192.761719 C 155.09375 192.761719 153.566406 194.59375 153.566406 196.421875 C 153.566406 198.253906 155.398438 200.085938 157.226562 200.085938 L 199.34375 200.085938 L 191.714844 209.851562 C 191.714844 209.851562 191.40625 210.765625 191.101562 211.988281 L 157.226562 211.988281 C 155.09375 211.988281 153.566406 213.816406 153.566406 215.648438 C 153.566406 217.480469 155.398438 219.3125 157.226562 219.3125 L 188.660156 219.3125 C 185.609375 229.078125 181.640625 242.808594 181.640625 242.808594 C 181.03125 244.335938 181.640625 246.167969 182.863281 247.082031 C 184.082031 247.996094 185.914062 247.996094 187.136719 247.386719 C 187.136719 247.386719 216.125 229.992188 216.738281 229.382812 L 316.527344 100.902344 C 317.140625 101.210938 317.75 101.515625 318.664062 101.515625 C 319.886719 101.515625 321.105469 100.902344 321.714844 99.988281 L 332.09375 86.5625 L 337.585938 90.832031 L 306.457031 131.421875 C 305.238281 133.253906 305.542969 135.390625 307.066406 136.914062 C 308.59375 138.441406 311.035156 137.832031 312.5625 136.304688 L 346.128906 93.273438 C 347.351562 91.445312 346.742188 89.003906 345.214844 87.78125 Z M 191.714844 236.09375 L 197.207031 217.785156 C 199.34375 219.007812 201.171875 220.226562 203.003906 221.449219 C 204.835938 222.972656 206.667969 224.5 208.191406 226.023438 Z M 318.054688 92.96875 L 300.050781 78.933594 L 307.679688 69.167969 L 325.683594 83.203125 Z M 318.054688 92.96875 " fill-opacity="1" fill-rule="nonzero"/><g fill="#000000" fill-opacity="1"><g transform="translate(112.499997, 336.334108)"><g><path d="M 20.046875 0 L 3.59375 0 L 3.59375 -28.5625 L 20.046875 -28.5625 L 20.046875 -23.59375 L 9.65625 -23.59375 L 9.65625 -17.328125 L 19.3125 -17.328125 L 19.3125 -12.359375 L 9.65625 -12.359375 L 9.65625 -5 L 20.046875 -5 Z M 20.046875 0 "/></g></g></g><g fill="#000000" fill-opacity="1"><g transform="translate(134.900157, 336.334108)"><g><path d="M 1.375 9.609375 C -0.15625 9.609375 -1.46875 9.445312 -2.5625 9.125 L -2.5625 4.4375 C -1.644531 4.6875 -0.710938 4.8125 0.234375 4.8125 C 1.234375 4.8125 1.960938 4.53125 2.421875 3.96875 C 2.890625 3.40625 3.125 2.578125 3.125 1.484375 L 3.125 -21.84375 L 9.078125 -21.84375 L 9.078125 2.359375 C 9.078125 4.679688 8.40625 6.46875 7.0625 7.71875 C 5.726562 8.976562 3.832031 9.609375 1.375 9.609375 Z M 2.875 -27.484375 C 2.875 -29.421875 3.953125 -30.390625 6.109375 -30.390625 C 8.273438 -30.390625 9.359375 -29.421875 9.359375 -27.484375 C 9.359375 -26.554688 9.085938 -25.832031 8.546875 -25.3125 C 8.003906 -24.800781 7.191406 -24.546875 6.109375 -24.546875 C 3.953125 -24.546875 2.875 -25.523438 2.875 -27.484375 Z M 2.875 -27.484375 "/></g></g></g><g fill="#000000" fill-opacity="1"><g transform="translate(147.106001, 336.334108)"><g><path d="M 12.171875 -18.015625 C 10.910156 -18.015625 9.921875 -17.613281 9.203125 -16.8125 C 8.484375 -16.007812 8.070312 -14.875 7.96875 -13.40625 L 16.328125 -13.40625 C 16.304688 -14.875 15.921875 -16.007812 15.171875 -16.8125 C 14.429688 -17.613281 13.429688 -18.015625 12.171875 -18.015625 Z M 13.015625 0.390625 C 9.492188 0.390625 6.742188 -0.578125 4.765625 -2.515625 C 2.785156 -4.460938 1.796875 -7.210938 1.796875 -10.765625 C 1.796875 -14.421875 2.707031 -17.25 4.53125 -19.25 C 6.363281 -21.25 8.894531 -22.25 12.125 -22.25 C 15.21875 -22.25 17.625 -21.367188 19.34375 -19.609375 C 21.0625 -17.847656 21.921875 -15.421875 21.921875 -12.328125 L 21.921875 -9.4375 L 7.828125 -9.4375 C 7.898438 -7.738281 8.40625 -6.414062 9.34375 -5.46875 C 10.28125 -4.519531 11.59375 -4.046875 13.28125 -4.046875 C 14.59375 -4.046875 15.832031 -4.179688 17 -4.453125 C 18.175781 -4.722656 19.40625 -5.160156 20.6875 -5.765625 L 20.6875 -1.15625 C 19.644531 -0.632812 18.53125 -0.25 17.34375 0 C 16.15625 0.257812 14.710938 0.390625 13.015625 0.390625 Z M 13.015625 0.390625 "/></g></g></g><g fill="#000000" fill-opacity="1"><g transform="translate(170.736504, 336.334108)"><g><path d="M 22.671875 0 L 16.71875 0 L 16.71875 -12.75 C 16.71875 -14.332031 16.453125 -15.515625 15.921875 -16.296875 C 15.398438 -17.085938 14.570312 -17.484375 13.4375 -17.484375 C 11.914062 -17.484375 10.804688 -16.921875 10.109375 -15.796875 C 9.421875 -14.679688 9.078125 -12.84375 9.078125 -10.28125 L 9.078125 0 L 3.125 0 L 3.125 -21.84375 L 7.671875 -21.84375 L 8.484375 -19.046875 L 8.8125 -19.046875 C 9.394531 -20.046875 10.238281 -20.828125 11.34375 -21.390625 C 12.457031 -21.960938 13.726562 -22.25 15.15625 -22.25 C 18.425781 -22.25 20.640625 -21.179688 21.796875 -19.046875 L 22.328125 -19.046875 C 22.910156 -20.054688 23.769531 -20.84375 24.90625 -21.40625 C 26.050781 -21.96875 27.335938 -22.25 28.765625 -22.25 C 31.242188 -22.25 33.117188 -21.613281 34.390625 -20.34375 C 35.660156 -19.070312 36.296875 -17.035156 36.296875 -14.234375 L 36.296875 0 L 30.3125 0 L 30.3125 -12.75 C 30.3125 -14.332031 30.046875 -15.515625 29.515625 -16.296875 C 28.992188 -17.085938 28.164062 -17.484375 27.03125 -17.484375 C 25.570312 -17.484375 24.476562 -16.960938 23.75 -15.921875 C 23.03125 -14.878906 22.671875 -13.222656 22.671875 -10.953125 Z M 22.671875 0 "/></g></g></g><g fill="#000000" fill-opacity="1"><g transform="translate(210.010015, 336.334108)"><g><path d="M 15.125 0.390625 C 12.550781 0.390625 10.535156 -0.539062 9.078125 -2.40625 L 8.765625 -2.40625 C 8.972656 -0.582031 9.078125 0.472656 9.078125 0.765625 L 9.078125 9.609375 L 3.125 9.609375 L 3.125 -21.84375 L 7.96875 -21.84375 L 8.8125 -19 L 9.078125 -19 C 10.472656 -21.164062 12.539062 -22.25 15.28125 -22.25 C 17.851562 -22.25 19.867188 -21.25 21.328125 -19.25 C 22.785156 -17.257812 23.515625 -14.492188 23.515625 -10.953125 C 23.515625 -8.628906 23.171875 -6.609375 22.484375 -4.890625 C 21.804688 -3.171875 20.832031 -1.859375 19.5625 -0.953125 C 18.300781 -0.0546875 16.820312 0.390625 15.125 0.390625 Z M 13.359375 -17.484375 C 11.890625 -17.484375 10.816406 -17.03125 10.140625 -16.125 C 9.460938 -15.21875 9.109375 -13.722656 9.078125 -11.640625 L 9.078125 -11 C 9.078125 -8.65625 9.425781 -6.972656 10.125 -5.953125 C 10.820312 -4.941406 11.925781 -4.4375 13.4375 -4.4375 C 16.101562 -4.4375 17.4375 -6.632812 17.4375 -11.03125 C 17.4375 -13.1875 17.109375 -14.800781 16.453125 -15.875 C 15.796875 -16.945312 14.765625 -17.484375 13.359375 -17.484375 Z M 13.359375 -17.484375 "/></g></g></g><g fill="#000000" fill-opacity="1"><g transform="translate(235.320041, 336.334108)"><g><path d="M 9.078125 0 L 3.125 0 L 3.125 -30.390625 L 9.078125 -30.390625 Z M 9.078125 0 "/></g></g></g><g fill="#000000" fill-opacity="1"><g transform="translate(247.525885, 336.334108)"><g><path d="M 7.875 -10.953125 C 7.875 -8.796875 8.226562 -7.160156 8.9375 -6.046875 C 9.644531 -4.941406 10.800781 -4.390625 12.40625 -4.390625 C 13.988281 -4.390625 15.128906 -4.941406 15.828125 -6.046875 C 16.523438 -7.148438 16.875 -8.785156 16.875 -10.953125 C 16.875 -13.117188 16.519531 -14.738281 15.8125 -15.8125 C 15.113281 -16.894531 13.960938 -17.4375 12.359375 -17.4375 C 10.773438 -17.4375 9.628906 -16.898438 8.921875 -15.828125 C 8.222656 -14.753906 7.875 -13.128906 7.875 -10.953125 Z M 22.96875 -10.953125 C 22.96875 -7.398438 22.03125 -4.617188 20.15625 -2.609375 C 18.28125 -0.609375 15.671875 0.390625 12.328125 0.390625 C 10.234375 0.390625 8.382812 -0.0664062 6.78125 -0.984375 C 5.175781 -1.898438 3.941406 -3.21875 3.078125 -4.9375 C 2.222656 -6.65625 1.796875 -8.660156 1.796875 -10.953125 C 1.796875 -14.523438 2.726562 -17.300781 4.59375 -19.28125 C 6.457031 -21.257812 9.070312 -22.25 12.4375 -22.25 C 14.539062 -22.25 16.390625 -21.789062 17.984375 -20.875 C 19.585938 -19.96875 20.816406 -18.660156 21.671875 -16.953125 C 22.535156 -15.242188 22.96875 -13.242188 22.96875 -10.953125 Z M 22.96875 -10.953125 "/></g></g></g></svg>