<svg xmlns="http://www.w3.org/2000/svg" xmlns:xlink="http://www.w3.org/1999/xlink" width="1280" zoomAndPan="magnify" viewBox="0 0 960 599.999999" height="800" preserveAspectRatio="xMidYMid meet" version="1.0"><defs><g/><clipPath id="84bed788b2"><path d="M 0 117.054688 L 960 117.054688 L 960 507.054688 L 0 507.054688 Z M 0 117.054688 " clip-rule="nonzero"/></clipPath><clipPath id="f8725d6b07"><path d="M -13.285156 117.054688 L 973.285156 117.054688 C 983.234375 117.054688 992.769531 121.003906 999.804688 128.035156 C 1006.835938 135.070312 1010.785156 144.605469 1010.785156 154.554688 L 1010.785156 469.554688 C 1010.785156 479.5 1006.835938 489.035156 999.804688 496.070312 C 992.769531 503.101562 983.234375 507.054688 973.285156 507.054688 L -13.285156 507.054688 C -23.234375 507.054688 -32.769531 503.101562 -39.804688 496.070312 C -46.835938 489.035156 -50.785156 479.5 -50.785156 469.554688 L -50.785156 154.554688 C -50.785156 144.605469 -46.835938 135.070312 -39.804688 128.035156 C -32.769531 121.003906 -23.234375 117.054688 -13.285156 117.054688 Z M -13.285156 117.054688 " clip-rule="nonzero"/></clipPath></defs><g clip-path="url(#84bed788b2)"><g clip-path="url(#f8725d6b07)"><path fill="#151d42" d="M -50.785156 117.054688 L 1011.050781 117.054688 L 1011.050781 507.054688 L -50.785156 507.054688 Z M -50.785156 117.054688 " fill-opacity="1" fill-rule="nonzero"/></g></g><g fill="#faf8f4" fill-opacity="1"><g transform="translate(30.583827, 165.828411)"><g><path d="M 7.390625 0.203125 C 11.609375 0.203125 13.59375 -3.078125 13.59375 -6.90625 C 13.59375 -10.71875 11.609375 -14 7.390625 -14 C 3.1875 -14 1.203125 -10.71875 1.203125 -6.90625 C 1.203125 -3.078125 3.1875 0.203125 7.390625 0.203125 Z M 7.390625 -1.234375 C 4.078125 -1.234375 2.71875 -3.953125 2.71875 -6.90625 C 2.71875 -9.859375 4.078125 -12.5625 7.390625 -12.5625 C 10.75 -12.5625 12.09375 -9.859375 12.09375 -6.90625 C 12.09375 -3.953125 10.75 -1.234375 7.390625 -1.234375 Z M 7.390625 -1.234375 "/></g></g></g><g fill="#faf8f4" fill-opacity="1"><g transform="translate(44.852974, 165.828411)"><g><path d="M 1.65625 4.28125 L 3.125 4.28125 L 3.125 -1.328125 C 3.796875 -0.359375 4.859375 0.203125 6.109375 0.203125 C 8.734375 0.203125 10.09375 -2.125 10.09375 -4.890625 C 10.09375 -7.671875 8.71875 -9.96875 6.109375 -9.96875 C 4.796875 -9.96875 3.765625 -9.359375 3.125 -8.421875 L 3.125 -9.75 L 1.65625 -9.75 Z M 5.796875 -1.03125 C 3.8125 -1.03125 2.984375 -2.890625 2.984375 -4.890625 C 2.984375 -6.859375 3.8125 -8.734375 5.796875 -8.734375 C 7.75 -8.734375 8.625 -6.859375 8.625 -4.890625 C 8.625 -2.890625 7.75 -1.03125 5.796875 -1.03125 Z M 5.796875 -1.03125 "/></g></g></g><g fill="#faf8f4" fill-opacity="1"><g transform="translate(55.354062, 165.828411)"><g><path d="M 4.359375 0.203125 C 4.953125 0.203125 5.453125 0.09375 5.671875 0 L 5.671875 -1.25 C 5.359375 -1.109375 5.015625 -1 4.6875 -1 C 3.96875 -1 3.453125 -1.5 3.453125 -2.578125 L 3.453125 -8.5625 L 5.921875 -8.5625 L 5.921875 -9.75 L 3.453125 -9.75 L 3.453125 -13.328125 L 2 -11.953125 L 2 -9.75 L 0.4375 -9.75 L 0.4375 -8.5625 L 2 -8.5625 L 2 -2.59375 C 2 -0.921875 2.625 0.203125 4.359375 0.203125 Z M 4.359375 0.203125 "/></g></g></g><g fill="#faf8f4" fill-opacity="1"><g transform="translate(61.403767, 165.828411)"><g><path d="M 1.546875 -11.921875 L 3.21875 -11.921875 L 3.21875 -13.796875 L 1.546875 -13.796875 Z M 1.65625 0 L 3.109375 0 L 3.109375 -9.75 L 1.65625 -9.75 Z M 1.65625 0 "/></g></g></g><g fill="#faf8f4" fill-opacity="1"><g transform="translate(65.647536, 165.828411)"><g><path d="M 1.640625 0 L 3.109375 0 L 3.109375 -5.09375 C 3.109375 -6.859375 3.984375 -8.71875 5.609375 -8.71875 C 7.28125 -8.71875 7.65625 -7.171875 7.65625 -5.828125 L 7.65625 0 L 9.140625 0 L 9.140625 -5.40625 C 9.140625 -7.015625 10.015625 -8.71875 11.609375 -8.71875 C 13.296875 -8.71875 13.703125 -7.109375 13.703125 -5.78125 L 13.703125 0 L 15.171875 0 L 15.171875 -5.921875 C 15.171875 -8.09375 14.203125 -9.96875 11.78125 -9.96875 C 10.40625 -9.96875 9.359375 -9.234375 8.75 -7.921875 C 8.265625 -9.3125 7.15625 -9.96875 5.765625 -9.96875 C 4.546875 -9.96875 3.515625 -9.1875 3.109375 -8.25 L 3.109375 -9.75 L 1.640625 -9.75 Z M 1.640625 0 "/></g></g></g><g fill="#faf8f4" fill-opacity="1"><g transform="translate(81.712857, 165.828411)"><g><path d="M 1.546875 -11.921875 L 3.21875 -11.921875 L 3.21875 -13.796875 L 1.546875 -13.796875 Z M 1.65625 0 L 3.109375 0 L 3.109375 -9.75 L 1.65625 -9.75 Z M 1.65625 0 "/></g></g></g><g fill="#faf8f4" fill-opacity="1"><g transform="translate(85.956624, 165.828411)"><g><path d="M 8.328125 -9.75 L 0.921875 -9.75 L 0.921875 -8.5625 L 6.609375 -8.5625 L 0.640625 -1.109375 L 0.640625 0 L 8.328125 0 L 8.328125 -1.25 L 2.46875 -1.25 L 8.328125 -8.5625 Z M 8.328125 -9.75 "/></g></g></g><g fill="#faf8f4" fill-opacity="1"><g transform="translate(94.51511, 165.828411)"><g><path d="M 3.921875 0.203125 C 5.296875 0.203125 6.625 -0.421875 7.34375 -1.890625 L 7.375 0 L 8.609375 0 L 8.609375 -5.984375 C 8.609375 -8.359375 7.28125 -9.96875 4.796875 -9.96875 C 3.1875 -9.96875 2 -9.265625 1.109375 -8.046875 L 2.171875 -7.21875 C 2.640625 -7.890625 3.484375 -8.6875 4.890625 -8.6875 C 6.65625 -8.6875 7.28125 -7.40625 7.28125 -5.578125 L 5.046875 -5.578125 C 2.28125 -5.578125 0.75 -4.671875 0.75 -2.71875 C 0.75 -0.875 2.078125 0.203125 3.921875 0.203125 Z M 4.078125 -1.03125 C 3.0625 -1.03125 2.25 -1.515625 2.25 -2.671875 C 2.25 -3.96875 3.25 -4.46875 5.1875 -4.46875 L 7.28125 -4.46875 C 7.28125 -2.90625 6.078125 -1.03125 4.078125 -1.03125 Z M 4.078125 -1.03125 "/></g></g></g><g fill="#faf8f4" fill-opacity="1"><g transform="translate(119.184771, 165.828411)"><g><path d="M 4.359375 0.203125 C 4.953125 0.203125 5.453125 0.09375 5.671875 0 L 5.671875 -1.25 C 5.359375 -1.109375 5.015625 -1 4.6875 -1 C 3.96875 -1 3.453125 -1.5 3.453125 -2.578125 L 3.453125 -8.5625 L 5.921875 -8.5625 L 5.921875 -9.75 L 3.453125 -9.75 L 3.453125 -13.328125 L 2 -11.953125 L 2 -9.75 L 0.4375 -9.75 L 0.4375 -8.5625 L 2 -8.5625 L 2 -2.59375 C 2 -0.921875 2.625 0.203125 4.359375 0.203125 Z M 4.359375 0.203125 "/></g></g></g><g fill="#faf8f4" fill-opacity="1"><g transform="translate(125.234473, 165.828411)"><g><path d="M 4.75 0.21875 C 6.296875 0.21875 7.421875 -0.8125 7.8125 -1.65625 L 7.8125 0 L 9.265625 0 L 9.265625 -9.75 L 7.8125 -9.75 L 7.8125 -4.359375 C 7.8125 -2.4375 6.46875 -1.015625 4.90625 -1.015625 C 3.234375 -1.015625 2.859375 -2.59375 2.859375 -4 L 2.859375 -9.75 L 1.390625 -9.75 L 1.390625 -4.09375 C 1.390625 -1.65625 2.34375 0.21875 4.75 0.21875 Z M 4.75 0.21875 "/></g></g></g><g fill="#faf8f4" fill-opacity="1"><g transform="translate(135.618418, 165.828411)"><g><path d="M 4.34375 0.203125 C 6.03125 0.203125 7.703125 -0.765625 7.703125 -2.78125 C 7.703125 -6.375 2.4375 -5.1875 2.4375 -7.4375 C 2.4375 -8.234375 3.09375 -8.78125 4.140625 -8.78125 C 5.1875 -8.78125 5.90625 -8.25 6.3125 -7.40625 L 7.390625 -8.015625 C 6.796875 -9.1875 5.6875 -9.96875 4.1875 -9.96875 C 2.53125 -9.96875 1.09375 -9.015625 1.09375 -7.25 C 1.09375 -3.953125 6.28125 -5.234375 6.28125 -2.609375 C 6.28125 -1.546875 5.46875 -1 4.359375 -1 C 3.0625 -1 2.28125 -1.8125 1.9375 -2.859375 L 0.703125 -2.21875 C 1.15625 -0.921875 2.515625 0.203125 4.34375 0.203125 Z M 4.34375 0.203125 "/></g></g></g><g fill="#faf8f4" fill-opacity="1"><g transform="translate(143.571672, 165.828411)"><g/></g></g><g fill="#faf8f4" fill-opacity="1"><g transform="translate(158.755475, 165.828411)"><g><path d="M 1.65625 4.28125 L 3.125 4.28125 L 3.125 -1.328125 C 3.796875 -0.359375 4.859375 0.203125 6.109375 0.203125 C 8.734375 0.203125 10.09375 -2.125 10.09375 -4.890625 C 10.09375 -7.671875 8.71875 -9.96875 6.109375 -9.96875 C 4.796875 -9.96875 3.765625 -9.359375 3.125 -8.421875 L 3.125 -9.75 L 1.65625 -9.75 Z M 5.796875 -1.03125 C 3.8125 -1.03125 2.984375 -2.890625 2.984375 -4.890625 C 2.984375 -6.859375 3.8125 -8.734375 5.796875 -8.734375 C 7.75 -8.734375 8.625 -6.859375 8.625 -4.890625 C 8.625 -2.890625 7.75 -1.03125 5.796875 -1.03125 Z M 5.796875 -1.03125 "/></g></g></g><g fill="#faf8f4" fill-opacity="1"><g transform="translate(169.256562, 165.828411)"><g><path d="M 1.640625 0 L 3.078125 0 L 3.078125 -4.875 C 3.078125 -7.234375 4.078125 -8.5625 5.75 -8.5625 C 6.203125 -8.5625 6.609375 -8.46875 6.9375 -8.1875 L 7.546875 -9.453125 C 7.1875 -9.734375 6.65625 -9.96875 5.984375 -9.96875 C 4.75 -9.96875 3.609375 -9.21875 3.09375 -8.03125 L 3.09375 -9.75 L 1.640625 -9.75 Z M 1.640625 0 "/></g></g></g><g fill="#faf8f4" fill-opacity="1"><g transform="translate(176.497204, 165.828411)"><g><path d="M 5.4375 0.203125 C 8.1875 0.203125 10.09375 -2.125 10.09375 -4.90625 C 10.09375 -7.671875 8.1875 -9.96875 5.4375 -9.96875 C 2.6875 -9.96875 0.84375 -7.671875 0.84375 -4.90625 C 0.84375 -2.125 2.6875 0.203125 5.4375 0.203125 Z M 5.453125 -1.015625 C 3.296875 -1.015625 2.3125 -2.9375 2.3125 -4.90625 C 2.3125 -6.859375 3.296875 -8.75 5.46875 -8.75 C 7.640625 -8.75 8.609375 -6.859375 8.609375 -4.90625 C 8.609375 -2.96875 7.640625 -1.015625 5.453125 -1.015625 Z M 5.453125 -1.015625 "/></g></g></g><g fill="#faf8f4" fill-opacity="1"><g transform="translate(186.900672, 165.828411)"><g><path d="M 5.140625 0.203125 C 6.90625 0.203125 8.234375 -0.765625 8.8125 -2.390625 L 7.546875 -2.9375 C 7.25 -1.78125 6.296875 -1.03125 5.125 -1.03125 C 3.078125 -1.03125 2.390625 -3.078125 2.390625 -4.859375 C 2.390625 -6.625 3.09375 -8.734375 5.125 -8.734375 C 6.296875 -8.734375 7.25 -7.953125 7.546875 -6.78125 L 8.921875 -7.359375 C 8.234375 -8.96875 6.890625 -9.96875 5.125 -9.96875 C 2.3125 -9.96875 0.90625 -7.484375 0.90625 -4.859375 C 0.90625 -2.21875 2.328125 0.203125 5.140625 0.203125 Z M 5.140625 0.203125 "/></g></g></g><g fill="#faf8f4" fill-opacity="1"><g transform="translate(195.888679, 165.828411)"><g><path d="M 5.28125 0.140625 C 6.84375 0.140625 7.953125 -0.3125 9.015625 -1.390625 L 8.015625 -2.1875 C 7.25 -1.375 6.390625 -1.140625 5.28125 -1.140625 C 3.375 -1.140625 2.40625 -2.640625 2.421875 -4.390625 L 9.21875 -4.390625 C 9.234375 -4.5625 9.265625 -4.890625 9.265625 -5.140625 C 9.265625 -7.390625 8.296875 -9.890625 5.125 -9.890625 C 2.296875 -9.890625 0.890625 -7.4375 0.890625 -4.828125 C 0.890625 -2.171875 2.3125 0.140625 5.28125 0.140625 Z M 2.421875 -5.578125 C 2.5 -7.234375 3.34375 -8.6875 5.125 -8.6875 C 7.125 -8.6875 7.828125 -7.140625 7.875 -5.578125 Z M 2.421875 -5.578125 "/></g></g></g><g fill="#faf8f4" fill-opacity="1"><g transform="translate(205.501441, 165.828411)"><g><path d="M 4.34375 0.203125 C 6.03125 0.203125 7.703125 -0.765625 7.703125 -2.78125 C 7.703125 -6.375 2.4375 -5.1875 2.4375 -7.4375 C 2.4375 -8.234375 3.09375 -8.78125 4.140625 -8.78125 C 5.1875 -8.78125 5.90625 -8.25 6.3125 -7.40625 L 7.390625 -8.015625 C 6.796875 -9.1875 5.6875 -9.96875 4.1875 -9.96875 C 2.53125 -9.96875 1.09375 -9.015625 1.09375 -7.25 C 1.09375 -3.953125 6.28125 -5.234375 6.28125 -2.609375 C 6.28125 -1.546875 5.46875 -1 4.359375 -1 C 3.0625 -1 2.28125 -1.8125 1.9375 -2.859375 L 0.703125 -2.21875 C 1.15625 -0.921875 2.515625 0.203125 4.34375 0.203125 Z M 4.34375 0.203125 "/></g></g></g><g fill="#faf8f4" fill-opacity="1"><g transform="translate(213.454695, 165.828411)"><g><path d="M 5.4375 0.203125 C 8.1875 0.203125 10.09375 -2.125 10.09375 -4.90625 C 10.09375 -7.671875 8.1875 -9.96875 5.4375 -9.96875 C 2.6875 -9.96875 0.84375 -7.671875 0.84375 -4.90625 C 0.84375 -2.125 2.6875 0.203125 5.4375 0.203125 Z M 5.453125 -1.015625 C 3.296875 -1.015625 2.3125 -2.9375 2.3125 -4.90625 C 2.3125 -6.859375 3.296875 -8.75 5.46875 -8.75 C 7.640625 -8.75 8.609375 -6.859375 8.609375 -4.90625 C 8.609375 -2.96875 7.640625 -1.015625 5.453125 -1.015625 Z M 5.453125 -1.015625 "/></g></g></g><g fill="#faf8f4" fill-opacity="1"><g transform="translate(223.858164, 165.828411)"><g><path d="M 4.34375 0.203125 C 6.03125 0.203125 7.703125 -0.765625 7.703125 -2.78125 C 7.703125 -6.375 2.4375 -5.1875 2.4375 -7.4375 C 2.4375 -8.234375 3.09375 -8.78125 4.140625 -8.78125 C 5.1875 -8.78125 5.90625 -8.25 6.3125 -7.40625 L 7.390625 -8.015625 C 6.796875 -9.1875 5.6875 -9.96875 4.1875 -9.96875 C 2.53125 -9.96875 1.09375 -9.015625 1.09375 -7.25 C 1.09375 -3.953125 6.28125 -5.234375 6.28125 -2.609375 C 6.28125 -1.546875 5.46875 -1 4.359375 -1 C 3.0625 -1 2.28125 -1.8125 1.9375 -2.859375 L 0.703125 -2.21875 C 1.15625 -0.921875 2.515625 0.203125 4.34375 0.203125 Z M 4.34375 0.203125 "/></g></g></g><g fill="#faf8f4" fill-opacity="1"><g transform="translate(231.811418, 165.828411)"><g/></g></g><g fill="#faf8f4" fill-opacity="1"><g transform="translate(246.995209, 165.828411)"><g><path d="M 3.5625 -1.078125 C 3.125 -1.078125 3.09375 -1.609375 3.09375 -1.625 L 3.09375 -13.796875 L 1.609375 -13.796875 L 1.609375 -1.96875 C 1.609375 -0.796875 1.71875 0.203125 3.1875 0.203125 C 3.6875 0.203125 4.203125 0.09375 4.515625 0 L 4.515625 -1.171875 C 4.296875 -1.140625 3.90625 -1.078125 3.5625 -1.078125 Z M 3.5625 -1.078125 "/></g></g></g><g fill="#faf8f4" fill-opacity="1"><g transform="translate(251.53183, 165.828411)"><g><path d="M 5.4375 0.203125 C 8.1875 0.203125 10.09375 -2.125 10.09375 -4.90625 C 10.09375 -7.671875 8.1875 -9.96875 5.4375 -9.96875 C 2.6875 -9.96875 0.84375 -7.671875 0.84375 -4.90625 C 0.84375 -2.125 2.6875 0.203125 5.4375 0.203125 Z M 5.453125 -1.015625 C 3.296875 -1.015625 2.3125 -2.9375 2.3125 -4.90625 C 2.3125 -6.859375 3.296875 -8.75 5.46875 -8.75 C 7.640625 -8.75 8.609375 -6.859375 8.609375 -4.90625 C 8.609375 -2.96875 7.640625 -1.015625 5.453125 -1.015625 Z M 5.453125 -1.015625 "/></g></g></g><g fill="#faf8f4" fill-opacity="1"><g transform="translate(261.93531, 165.828411)"><g><path d="M 5.140625 -1.265625 C 3.765625 -1.453125 2.546875 -1.75 2.546875 -2.75 C 2.546875 -3.078125 2.703125 -3.3125 2.953125 -3.5 C 3.5 -3.25 4.125 -3.09375 4.796875 -3.09375 C 6.8125 -3.09375 8.40625 -4.359375 8.40625 -6.453125 C 8.40625 -7.03125 8.265625 -7.5625 8.03125 -8.03125 L 9.609375 -9.28125 L 8.78125 -10.3125 L 7.3125 -8.984375 C 6.6875 -9.546875 5.8125 -9.890625 4.796875 -9.890625 C 2.75 -9.890625 1.140625 -8.546875 1.140625 -6.46875 C 1.140625 -5.578125 1.453125 -4.828125 1.96875 -4.25 C 1.40625 -3.765625 1.25 -3.203125 1.25 -2.640625 C 1.25 -1.640625 1.765625 -1.03125 2.484375 -0.640625 L 1.078125 0.78125 C 1.0625 0.921875 1.0625 1.03125 1.0625 1.15625 C 1.0625 3.015625 2.71875 4.46875 5.265625 4.46875 C 7.3125 4.46875 9.171875 3.515625 9.171875 1.5 C 9.171875 -0.703125 7.125 -1 5.140625 -1.265625 Z M 4.78125 -8.734375 C 6.109375 -8.734375 6.9375 -7.734375 6.9375 -6.5 C 6.9375 -5.1875 6.09375 -4.3125 4.78125 -4.3125 C 3.453125 -4.3125 2.625 -5.1875 2.625 -6.5 C 2.625 -7.703125 3.453125 -8.734375 4.78125 -8.734375 Z M 5.375 3.1875 C 3.484375 3.1875 2.40625 2.1875 2.40625 1.1875 L 3.5625 -0.21875 C 3.9375 -0.109375 4.34375 -0.046875 4.71875 0.03125 C 6.390625 0.3125 7.875 0.359375 7.875 1.609375 C 7.875 2.671875 6.671875 3.1875 5.375 3.1875 Z M 5.375 3.1875 "/></g></g></g><g fill="#faf8f4" fill-opacity="1"><g transform="translate(271.411407, 165.828411)"><g><path d="M 1.515625 -10.984375 L 2.8125 -10.984375 L 5.515625 -13.796875 L 3.640625 -13.796875 Z M 1.640625 0 L 3.25 0 L 3.25 -9.75 L 1.640625 -9.75 Z M 1.640625 0 "/></g></g></g><g fill="#faf8f4" fill-opacity="1"><g transform="translate(275.782089, 165.828411)"><g><path d="M 4.34375 0.203125 C 6.03125 0.203125 7.703125 -0.765625 7.703125 -2.78125 C 7.703125 -6.375 2.4375 -5.1875 2.4375 -7.4375 C 2.4375 -8.234375 3.09375 -8.78125 4.140625 -8.78125 C 5.1875 -8.78125 5.90625 -8.25 6.3125 -7.40625 L 7.390625 -8.015625 C 6.796875 -9.1875 5.6875 -9.96875 4.1875 -9.96875 C 2.53125 -9.96875 1.09375 -9.015625 1.09375 -7.25 C 1.09375 -3.953125 6.28125 -5.234375 6.28125 -2.609375 C 6.28125 -1.546875 5.46875 -1 4.359375 -1 C 3.0625 -1 2.28125 -1.8125 1.9375 -2.859375 L 0.703125 -2.21875 C 1.15625 -0.921875 2.515625 0.203125 4.34375 0.203125 Z M 4.34375 0.203125 "/></g></g></g><g fill="#faf8f4" fill-opacity="1"><g transform="translate(283.735343, 165.828411)"><g><path d="M 4.359375 0.203125 C 4.953125 0.203125 5.453125 0.09375 5.671875 0 L 5.671875 -1.25 C 5.359375 -1.109375 5.015625 -1 4.6875 -1 C 3.96875 -1 3.453125 -1.5 3.453125 -2.578125 L 3.453125 -8.5625 L 5.921875 -8.5625 L 5.921875 -9.75 L 3.453125 -9.75 L 3.453125 -13.328125 L 2 -11.953125 L 2 -9.75 L 0.4375 -9.75 L 0.4375 -8.5625 L 2 -8.5625 L 2 -2.59375 C 2 -0.921875 2.625 0.203125 4.359375 0.203125 Z M 4.359375 0.203125 "/></g></g></g><g fill="#faf8f4" fill-opacity="1"><g transform="translate(289.785056, 165.828411)"><g><path d="M 1.546875 -11.921875 L 3.21875 -11.921875 L 3.21875 -13.796875 L 1.546875 -13.796875 Z M 1.65625 0 L 3.109375 0 L 3.109375 -9.75 L 1.65625 -9.75 Z M 1.65625 0 "/></g></g></g><g fill="#faf8f4" fill-opacity="1"><g transform="translate(294.028822, 165.828411)"><g><path d="M 5.140625 0.203125 C 6.90625 0.203125 8.234375 -0.765625 8.8125 -2.390625 L 7.546875 -2.9375 C 7.25 -1.78125 6.296875 -1.03125 5.125 -1.03125 C 3.078125 -1.03125 2.390625 -3.078125 2.390625 -4.859375 C 2.390625 -6.625 3.09375 -8.734375 5.125 -8.734375 C 6.296875 -8.734375 7.25 -7.953125 7.546875 -6.78125 L 8.921875 -7.359375 C 8.234375 -8.96875 6.890625 -9.96875 5.125 -9.96875 C 2.3125 -9.96875 0.90625 -7.484375 0.90625 -4.859375 C 0.90625 -2.21875 2.328125 0.203125 5.140625 0.203125 Z M 5.140625 0.203125 "/></g></g></g><g fill="#faf8f4" fill-opacity="1"><g transform="translate(303.016829, 165.828411)"><g><path d="M 5.4375 0.203125 C 8.1875 0.203125 10.09375 -2.125 10.09375 -4.90625 C 10.09375 -7.671875 8.1875 -9.96875 5.4375 -9.96875 C 2.6875 -9.96875 0.84375 -7.671875 0.84375 -4.90625 C 0.84375 -2.125 2.6875 0.203125 5.4375 0.203125 Z M 5.453125 -1.015625 C 3.296875 -1.015625 2.3125 -2.9375 2.3125 -4.90625 C 2.3125 -6.859375 3.296875 -8.75 5.46875 -8.75 C 7.640625 -8.75 8.609375 -6.859375 8.609375 -4.90625 C 8.609375 -2.96875 7.640625 -1.015625 5.453125 -1.015625 Z M 5.453125 -1.015625 "/></g></g></g><g fill="#faf8f4" fill-opacity="1"><g transform="translate(313.420309, 165.828411)"><g><path d="M 4.34375 0.203125 C 6.03125 0.203125 7.703125 -0.765625 7.703125 -2.78125 C 7.703125 -6.375 2.4375 -5.1875 2.4375 -7.4375 C 2.4375 -8.234375 3.09375 -8.78125 4.140625 -8.78125 C 5.1875 -8.78125 5.90625 -8.25 6.3125 -7.40625 L 7.390625 -8.015625 C 6.796875 -9.1875 5.6875 -9.96875 4.1875 -9.96875 C 2.53125 -9.96875 1.09375 -9.015625 1.09375 -7.25 C 1.09375 -3.953125 6.28125 -5.234375 6.28125 -2.609375 C 6.28125 -1.546875 5.46875 -1 4.359375 -1 C 3.0625 -1 2.28125 -1.8125 1.9375 -2.859375 L 0.703125 -2.21875 C 1.15625 -0.921875 2.515625 0.203125 4.34375 0.203125 Z M 4.34375 0.203125 "/></g></g></g><g fill="#faf8f4" fill-opacity="1"><g transform="translate(321.373563, 165.828411)"><g/></g></g><g fill="#faf8f4" fill-opacity="1"><g transform="translate(336.557355, 165.828411)"><g><path d="M 5.28125 0.140625 C 6.84375 0.140625 7.953125 -0.3125 9.015625 -1.390625 L 8.015625 -2.1875 C 7.25 -1.375 6.390625 -1.140625 5.28125 -1.140625 C 3.375 -1.140625 2.40625 -2.640625 2.421875 -4.390625 L 9.21875 -4.390625 C 9.234375 -4.5625 9.265625 -4.890625 9.265625 -5.140625 C 9.265625 -7.390625 8.296875 -9.890625 5.125 -9.890625 C 2.296875 -9.890625 0.890625 -7.4375 0.890625 -4.828125 C 0.890625 -2.171875 2.3125 0.140625 5.28125 0.140625 Z M 2.421875 -5.578125 C 2.5 -7.234375 3.34375 -8.6875 5.125 -8.6875 C 7.125 -8.6875 7.828125 -7.140625 7.875 -5.578125 Z M 2.421875 -5.578125 "/></g></g></g><g fill="#faf8f4" fill-opacity="1"><g transform="translate(346.170117, 165.828411)"><g><path d="M 1.640625 0 L 3.09375 0 L 3.09375 -5.0625 C 3.09375 -7.484375 4.3125 -8.6875 5.84375 -8.6875 C 7.5625 -8.6875 8.0625 -7.125 8.0625 -5.78125 L 8.0625 0 L 9.515625 0 L 9.515625 -5.921875 C 9.515625 -8.078125 8.5625 -9.9375 6.234375 -9.9375 C 4.828125 -9.9375 3.734375 -9.203125 3.09375 -8.0625 L 3.09375 -9.75 L 1.640625 -9.75 Z M 1.640625 0 "/></g></g></g><g fill="#faf8f4" fill-opacity="1"><g transform="translate(356.573597, 165.828411)"><g/></g></g><g fill="#faf8f4" fill-opacity="1"><g transform="translate(371.757388, 165.828411)"><g><path d="M 5.28125 0.140625 C 6.84375 0.140625 7.953125 -0.3125 9.015625 -1.390625 L 8.015625 -2.1875 C 7.25 -1.375 6.390625 -1.140625 5.28125 -1.140625 C 3.375 -1.140625 2.40625 -2.640625 2.421875 -4.390625 L 9.21875 -4.390625 C 9.234375 -4.5625 9.265625 -4.890625 9.265625 -5.140625 C 9.265625 -7.390625 8.296875 -9.890625 5.125 -9.890625 C 2.296875 -9.890625 0.890625 -7.4375 0.890625 -4.828125 C 0.890625 -2.171875 2.3125 0.140625 5.28125 0.140625 Z M 2.421875 -5.578125 C 2.5 -7.234375 3.34375 -8.6875 5.125 -8.6875 C 7.125 -8.6875 7.828125 -7.140625 7.875 -5.578125 Z M 2.421875 -5.578125 "/></g></g></g><g fill="#faf8f4" fill-opacity="1"><g transform="translate(381.37015, 165.828411)"><g><path d="M 3.5625 -1.078125 C 3.125 -1.078125 3.09375 -1.609375 3.09375 -1.625 L 3.09375 -13.796875 L 1.609375 -13.796875 L 1.609375 -1.96875 C 1.609375 -0.796875 1.71875 0.203125 3.1875 0.203125 C 3.6875 0.203125 4.203125 0.09375 4.515625 0 L 4.515625 -1.171875 C 4.296875 -1.140625 3.90625 -1.078125 3.5625 -1.078125 Z M 3.5625 -1.078125 "/></g></g></g><g fill="#faf8f4" fill-opacity="1"><g transform="translate(30.583827, 193.57841)"><g><path d="M 4.359375 0.203125 C 4.953125 0.203125 5.453125 0.09375 5.671875 0 L 5.671875 -1.25 C 5.359375 -1.109375 5.015625 -1 4.6875 -1 C 3.96875 -1 3.453125 -1.5 3.453125 -2.578125 L 3.453125 -8.5625 L 5.921875 -8.5625 L 5.921875 -9.75 L 3.453125 -9.75 L 3.453125 -13.328125 L 2 -11.953125 L 2 -9.75 L 0.4375 -9.75 L 0.4375 -8.5625 L 2 -8.5625 L 2 -2.59375 C 2 -0.921875 2.625 0.203125 4.359375 0.203125 Z M 4.359375 0.203125 "/></g></g></g><g fill="#faf8f4" fill-opacity="1"><g transform="translate(36.633531, 193.57841)"><g><path d="M 1.640625 0 L 3.078125 0 L 3.078125 -4.875 C 3.078125 -7.234375 4.078125 -8.5625 5.75 -8.5625 C 6.203125 -8.5625 6.609375 -8.46875 6.9375 -8.1875 L 7.546875 -9.453125 C 7.1875 -9.734375 6.65625 -9.96875 5.984375 -9.96875 C 4.75 -9.96875 3.609375 -9.21875 3.09375 -8.03125 L 3.09375 -9.75 L 1.640625 -9.75 Z M 1.640625 0 "/></g></g></g><g fill="#faf8f4" fill-opacity="1"><g transform="translate(43.874175, 193.57841)"><g><path d="M 3.921875 0.203125 C 5.296875 0.203125 6.625 -0.421875 7.34375 -1.890625 L 7.375 0 L 8.609375 0 L 8.609375 -5.984375 C 8.609375 -8.359375 7.28125 -9.96875 4.796875 -9.96875 C 3.1875 -9.96875 2 -9.265625 1.109375 -8.046875 L 2.171875 -7.21875 C 2.640625 -7.890625 3.484375 -8.6875 4.890625 -8.6875 C 6.65625 -8.6875 7.28125 -7.40625 7.28125 -5.578125 L 5.046875 -5.578125 C 2.28125 -5.578125 0.75 -4.671875 0.75 -2.71875 C 0.75 -0.875 2.078125 0.203125 3.921875 0.203125 Z M 4.078125 -1.03125 C 3.0625 -1.03125 2.25 -1.515625 2.25 -2.671875 C 2.25 -3.96875 3.25 -4.46875 5.1875 -4.46875 L 7.28125 -4.46875 C 7.28125 -2.90625 6.078125 -1.03125 4.078125 -1.03125 Z M 4.078125 -1.03125 "/></g></g></g><g fill="#faf8f4" fill-opacity="1"><g transform="translate(53.360035, 193.57841)"><g><path d="M 1.640625 0 L 3.09375 0 L 3.09375 -5.0625 C 3.09375 -7.484375 4.3125 -8.6875 5.84375 -8.6875 C 7.5625 -8.6875 8.0625 -7.125 8.0625 -5.78125 L 8.0625 0 L 9.515625 0 L 9.515625 -5.921875 C 9.515625 -8.078125 8.5625 -9.9375 6.234375 -9.9375 C 4.828125 -9.9375 3.734375 -9.203125 3.09375 -8.0625 L 3.09375 -9.75 L 1.640625 -9.75 Z M 1.640625 0 "/></g></g></g><g fill="#faf8f4" fill-opacity="1"><g transform="translate(63.763507, 193.57841)"><g><path d="M 4.34375 0.203125 C 6.03125 0.203125 7.703125 -0.765625 7.703125 -2.78125 C 7.703125 -6.375 2.4375 -5.1875 2.4375 -7.4375 C 2.4375 -8.234375 3.09375 -8.78125 4.140625 -8.78125 C 5.1875 -8.78125 5.90625 -8.25 6.3125 -7.40625 L 7.390625 -8.015625 C 6.796875 -9.1875 5.6875 -9.96875 4.1875 -9.96875 C 2.53125 -9.96875 1.09375 -9.015625 1.09375 -7.25 C 1.09375 -3.953125 6.28125 -5.234375 6.28125 -2.609375 C 6.28125 -1.546875 5.46875 -1 4.359375 -1 C 3.0625 -1 2.28125 -1.8125 1.9375 -2.859375 L 0.703125 -2.21875 C 1.15625 -0.921875 2.515625 0.203125 4.34375 0.203125 Z M 4.34375 0.203125 "/></g></g></g><g fill="#faf8f4" fill-opacity="1"><g transform="translate(71.716764, 193.57841)"><g><path d="M 1.65625 4.28125 L 3.125 4.28125 L 3.125 -1.328125 C 3.796875 -0.359375 4.859375 0.203125 6.109375 0.203125 C 8.734375 0.203125 10.09375 -2.125 10.09375 -4.890625 C 10.09375 -7.671875 8.71875 -9.96875 6.109375 -9.96875 C 4.796875 -9.96875 3.765625 -9.359375 3.125 -8.421875 L 3.125 -9.75 L 1.65625 -9.75 Z M 5.796875 -1.03125 C 3.8125 -1.03125 2.984375 -2.890625 2.984375 -4.890625 C 2.984375 -6.859375 3.8125 -8.734375 5.796875 -8.734375 C 7.75 -8.734375 8.625 -6.859375 8.625 -4.890625 C 8.625 -2.890625 7.75 -1.03125 5.796875 -1.03125 Z M 5.796875 -1.03125 "/></g></g></g><g fill="#faf8f4" fill-opacity="1"><g transform="translate(82.217851, 193.57841)"><g><path d="M 5.4375 0.203125 C 8.1875 0.203125 10.09375 -2.125 10.09375 -4.90625 C 10.09375 -7.671875 8.1875 -9.96875 5.4375 -9.96875 C 2.6875 -9.96875 0.84375 -7.671875 0.84375 -4.90625 C 0.84375 -2.125 2.6875 0.203125 5.4375 0.203125 Z M 5.453125 -1.015625 C 3.296875 -1.015625 2.3125 -2.9375 2.3125 -4.90625 C 2.3125 -6.859375 3.296875 -8.75 5.46875 -8.75 C 7.640625 -8.75 8.609375 -6.859375 8.609375 -4.90625 C 8.609375 -2.96875 7.640625 -1.015625 5.453125 -1.015625 Z M 5.453125 -1.015625 "/></g></g></g><g fill="#faf8f4" fill-opacity="1"><g transform="translate(92.621319, 193.57841)"><g><path d="M 1.640625 0 L 3.078125 0 L 3.078125 -4.875 C 3.078125 -7.234375 4.078125 -8.5625 5.75 -8.5625 C 6.203125 -8.5625 6.609375 -8.46875 6.9375 -8.1875 L 7.546875 -9.453125 C 7.1875 -9.734375 6.65625 -9.96875 5.984375 -9.96875 C 4.75 -9.96875 3.609375 -9.21875 3.09375 -8.03125 L 3.09375 -9.75 L 1.640625 -9.75 Z M 1.640625 0 "/></g></g></g><g fill="#faf8f4" fill-opacity="1"><g transform="translate(99.861961, 193.57841)"><g><path d="M 4.359375 0.203125 C 4.953125 0.203125 5.453125 0.09375 5.671875 0 L 5.671875 -1.25 C 5.359375 -1.109375 5.015625 -1 4.6875 -1 C 3.96875 -1 3.453125 -1.5 3.453125 -2.578125 L 3.453125 -8.5625 L 5.921875 -8.5625 L 5.921875 -9.75 L 3.453125 -9.75 L 3.453125 -13.328125 L 2 -11.953125 L 2 -9.75 L 0.4375 -9.75 L 0.4375 -8.5625 L 2 -8.5625 L 2 -2.59375 C 2 -0.921875 2.625 0.203125 4.359375 0.203125 Z M 4.359375 0.203125 "/></g></g></g><g fill="#faf8f4" fill-opacity="1"><g transform="translate(105.911663, 193.57841)"><g><path d="M 5.28125 0.140625 C 6.84375 0.140625 7.953125 -0.3125 9.015625 -1.390625 L 8.015625 -2.1875 C 7.25 -1.375 6.390625 -1.140625 5.28125 -1.140625 C 3.375 -1.140625 2.40625 -2.640625 2.421875 -4.390625 L 9.21875 -4.390625 C 9.234375 -4.5625 9.265625 -4.890625 9.265625 -5.140625 C 9.265625 -7.390625 8.296875 -9.890625 5.125 -9.890625 C 2.296875 -9.890625 0.890625 -7.4375 0.890625 -4.828125 C 0.890625 -2.171875 2.3125 0.140625 5.28125 0.140625 Z M 2.421875 -5.578125 C 2.5 -7.234375 3.34375 -8.6875 5.125 -8.6875 C 7.125 -8.6875 7.828125 -7.140625 7.875 -5.578125 Z M 2.421875 -5.578125 "/></g></g></g><g fill="#faf8f4" fill-opacity="1"><g transform="translate(115.524425, 193.57841)"><g/></g></g><g fill="#faf8f4" fill-opacity="1"><g transform="translate(126.045333, 193.57841)"><g><path d="M 7.90625 -13.796875 L 7.90625 -8.421875 C 7.25 -9.359375 6.265625 -9.96875 4.84375 -9.96875 C 2.359375 -9.96875 0.9375 -7.671875 0.9375 -4.890625 C 0.9375 -2.09375 2.359375 0.203125 4.859375 0.203125 C 6.328125 0.203125 7.265625 -0.4375 7.90625 -1.359375 L 7.9375 0 L 9.359375 0 L 9.359375 -13.796875 Z M 5.21875 -1.03125 C 3.265625 -1.03125 2.4375 -2.890625 2.4375 -4.890625 C 2.4375 -6.859375 3.265625 -8.734375 5.21875 -8.734375 C 7.21875 -8.734375 8.015625 -6.859375 8.015625 -4.890625 C 8.015625 -2.875 7.21875 -1.03125 5.21875 -1.03125 Z M 5.21875 -1.03125 "/></g></g></g><g fill="#faf8f4" fill-opacity="1"><g transform="translate(136.54642, 193.57841)"><g><path d="M 5.28125 0.140625 C 6.84375 0.140625 7.953125 -0.3125 9.015625 -1.390625 L 8.015625 -2.1875 C 7.25 -1.375 6.390625 -1.140625 5.28125 -1.140625 C 3.375 -1.140625 2.40625 -2.640625 2.421875 -4.390625 L 9.21875 -4.390625 C 9.234375 -4.5625 9.265625 -4.890625 9.265625 -5.140625 C 9.265625 -7.390625 8.296875 -9.890625 5.125 -9.890625 C 2.296875 -9.890625 0.890625 -7.4375 0.890625 -4.828125 C 0.890625 -2.171875 2.3125 0.140625 5.28125 0.140625 Z M 2.421875 -5.578125 C 2.5 -7.234375 3.34375 -8.6875 5.125 -8.6875 C 7.125 -8.6875 7.828125 -7.140625 7.875 -5.578125 Z M 2.421875 -5.578125 "/></g></g></g><g fill="#faf8f4" fill-opacity="1"><g transform="translate(146.159182, 193.57841)"><g/></g></g><g fill="#faf8f4" fill-opacity="1"><g transform="translate(156.68009, 193.57841)"><g><path d="M 5.140625 0.203125 C 6.90625 0.203125 8.234375 -0.765625 8.8125 -2.390625 L 7.546875 -2.9375 C 7.25 -1.78125 6.296875 -1.03125 5.125 -1.03125 C 3.078125 -1.03125 2.390625 -3.078125 2.390625 -4.859375 C 2.390625 -6.625 3.09375 -8.734375 5.125 -8.734375 C 6.296875 -8.734375 7.25 -7.953125 7.546875 -6.78125 L 8.921875 -7.359375 C 8.234375 -8.96875 6.890625 -9.96875 5.125 -9.96875 C 2.3125 -9.96875 0.90625 -7.484375 0.90625 -4.859375 C 0.90625 -2.21875 2.328125 0.203125 5.140625 0.203125 Z M 5.140625 0.203125 "/></g></g></g><g fill="#faf8f4" fill-opacity="1"><g transform="translate(165.668096, 193.57841)"><g><path d="M 3.921875 0.203125 C 5.296875 0.203125 6.625 -0.421875 7.34375 -1.890625 L 7.375 0 L 8.609375 0 L 8.609375 -5.984375 C 8.609375 -8.359375 7.28125 -9.96875 4.796875 -9.96875 C 3.1875 -9.96875 2 -9.265625 1.109375 -8.046875 L 2.171875 -7.21875 C 2.640625 -7.890625 3.484375 -8.6875 4.890625 -8.6875 C 6.65625 -8.6875 7.28125 -7.40625 7.28125 -5.578125 L 5.046875 -5.578125 C 2.28125 -5.578125 0.75 -4.671875 0.75 -2.71875 C 0.75 -0.875 2.078125 0.203125 3.921875 0.203125 Z M 4.078125 -1.03125 C 3.0625 -1.03125 2.25 -1.515625 2.25 -2.671875 C 2.25 -3.96875 3.25 -4.46875 5.1875 -4.46875 L 7.28125 -4.46875 C 7.28125 -2.90625 6.078125 -1.03125 4.078125 -1.03125 Z M 4.078125 -1.03125 "/></g></g></g><g fill="#faf8f4" fill-opacity="1"><g transform="translate(175.153954, 193.57841)"><g><path d="M 1.640625 0 L 3.078125 0 L 3.078125 -4.875 C 3.078125 -7.234375 4.078125 -8.5625 5.75 -8.5625 C 6.203125 -8.5625 6.609375 -8.46875 6.9375 -8.1875 L 7.546875 -9.453125 C 7.1875 -9.734375 6.65625 -9.96875 5.984375 -9.96875 C 4.75 -9.96875 3.609375 -9.21875 3.09375 -8.03125 L 3.09375 -9.75 L 1.640625 -9.75 Z M 1.640625 0 "/></g></g></g><g fill="#faf8f4" fill-opacity="1"><g transform="translate(182.394597, 193.57841)"><g><path d="M 5.140625 -1.265625 C 3.765625 -1.453125 2.546875 -1.75 2.546875 -2.75 C 2.546875 -3.078125 2.703125 -3.3125 2.953125 -3.5 C 3.5 -3.25 4.125 -3.09375 4.796875 -3.09375 C 6.8125 -3.09375 8.40625 -4.359375 8.40625 -6.453125 C 8.40625 -7.03125 8.265625 -7.5625 8.03125 -8.03125 L 9.609375 -9.28125 L 8.78125 -10.3125 L 7.3125 -8.984375 C 6.6875 -9.546875 5.8125 -9.890625 4.796875 -9.890625 C 2.75 -9.890625 1.140625 -8.546875 1.140625 -6.46875 C 1.140625 -5.578125 1.453125 -4.828125 1.96875 -4.25 C 1.40625 -3.765625 1.25 -3.203125 1.25 -2.640625 C 1.25 -1.640625 1.765625 -1.03125 2.484375 -0.640625 L 1.078125 0.78125 C 1.0625 0.921875 1.0625 1.03125 1.0625 1.15625 C 1.0625 3.015625 2.71875 4.46875 5.265625 4.46875 C 7.3125 4.46875 9.171875 3.515625 9.171875 1.5 C 9.171875 -0.703125 7.125 -1 5.140625 -1.265625 Z M 4.78125 -8.734375 C 6.109375 -8.734375 6.9375 -7.734375 6.9375 -6.5 C 6.9375 -5.1875 6.09375 -4.3125 4.78125 -4.3125 C 3.453125 -4.3125 2.625 -5.1875 2.625 -6.5 C 2.625 -7.703125 3.453125 -8.734375 4.78125 -8.734375 Z M 5.375 3.1875 C 3.484375 3.1875 2.40625 2.1875 2.40625 1.1875 L 3.5625 -0.21875 C 3.9375 -0.109375 4.34375 -0.046875 4.71875 0.03125 C 6.390625 0.3125 7.875 0.359375 7.875 1.609375 C 7.875 2.671875 6.671875 3.1875 5.375 3.1875 Z M 5.375 3.1875 "/></g></g></g><g fill="#faf8f4" fill-opacity="1"><g transform="translate(191.870693, 193.57841)"><g><path d="M 3.921875 0.203125 C 5.296875 0.203125 6.625 -0.421875 7.34375 -1.890625 L 7.375 0 L 8.609375 0 L 8.609375 -5.984375 C 8.609375 -8.359375 7.28125 -9.96875 4.796875 -9.96875 C 3.1875 -9.96875 2 -9.265625 1.109375 -8.046875 L 2.171875 -7.21875 C 2.640625 -7.890625 3.484375 -8.6875 4.890625 -8.6875 C 6.65625 -8.6875 7.28125 -7.40625 7.28125 -5.578125 L 5.046875 -5.578125 C 2.28125 -5.578125 0.75 -4.671875 0.75 -2.71875 C 0.75 -0.875 2.078125 0.203125 3.921875 0.203125 Z M 4.078125 -1.03125 C 3.0625 -1.03125 2.25 -1.515625 2.25 -2.671875 C 2.25 -3.96875 3.25 -4.46875 5.1875 -4.46875 L 7.28125 -4.46875 C 7.28125 -2.90625 6.078125 -1.03125 4.078125 -1.03125 Z M 4.078125 -1.03125 "/></g></g></g><g fill="#faf8f4" fill-opacity="1"><g transform="translate(201.356552, 193.57841)"><g/></g></g><g fill="#faf8f4" fill-opacity="1"><g transform="translate(211.87746, 193.57841)"><g><path d="M 1.65625 4.28125 L 3.125 4.28125 L 3.125 -1.328125 C 3.796875 -0.359375 4.859375 0.203125 6.109375 0.203125 C 8.734375 0.203125 10.09375 -2.125 10.09375 -4.890625 C 10.09375 -7.671875 8.71875 -9.96875 6.109375 -9.96875 C 4.796875 -9.96875 3.765625 -9.359375 3.125 -8.421875 L 3.125 -9.75 L 1.65625 -9.75 Z M 5.796875 -1.03125 C 3.8125 -1.03125 2.984375 -2.890625 2.984375 -4.890625 C 2.984375 -6.859375 3.8125 -8.734375 5.796875 -8.734375 C 7.75 -8.734375 8.625 -6.859375 8.625 -4.890625 C 8.625 -2.890625 7.75 -1.03125 5.796875 -1.03125 Z M 5.796875 -1.03125 "/></g></g></g><g fill="#faf8f4" fill-opacity="1"><g transform="translate(222.378546, 193.57841)"><g><path d="M 5.28125 0.140625 C 6.84375 0.140625 7.953125 -0.3125 9.015625 -1.390625 L 8.015625 -2.1875 C 7.25 -1.375 6.390625 -1.140625 5.28125 -1.140625 C 3.375 -1.140625 2.40625 -2.640625 2.421875 -4.390625 L 9.21875 -4.390625 C 9.234375 -4.5625 9.265625 -4.890625 9.265625 -5.140625 C 9.265625 -7.390625 8.296875 -9.890625 5.125 -9.890625 C 2.296875 -9.890625 0.890625 -7.4375 0.890625 -4.828125 C 0.890625 -2.171875 2.3125 0.140625 5.28125 0.140625 Z M 2.421875 -5.578125 C 2.5 -7.234375 3.34375 -8.6875 5.125 -8.6875 C 7.125 -8.6875 7.828125 -7.140625 7.875 -5.578125 Z M 2.421875 -5.578125 "/></g></g></g><g fill="#faf8f4" fill-opacity="1"><g transform="translate(231.99132, 193.57841)"><g><path d="M 4.34375 0.203125 C 6.03125 0.203125 7.703125 -0.765625 7.703125 -2.78125 C 7.703125 -6.375 2.4375 -5.1875 2.4375 -7.4375 C 2.4375 -8.234375 3.09375 -8.78125 4.140625 -8.78125 C 5.1875 -8.78125 5.90625 -8.25 6.3125 -7.40625 L 7.390625 -8.015625 C 6.796875 -9.1875 5.6875 -9.96875 4.1875 -9.96875 C 2.53125 -9.96875 1.09375 -9.015625 1.09375 -7.25 C 1.09375 -3.953125 6.28125 -5.234375 6.28125 -2.609375 C 6.28125 -1.546875 5.46875 -1 4.359375 -1 C 3.0625 -1 2.28125 -1.8125 1.9375 -2.859375 L 0.703125 -2.21875 C 1.15625 -0.921875 2.515625 0.203125 4.34375 0.203125 Z M 4.34375 0.203125 "/></g></g></g><g fill="#faf8f4" fill-opacity="1"><g transform="translate(239.944574, 193.57841)"><g><path d="M 3.921875 0.203125 C 5.296875 0.203125 6.625 -0.421875 7.34375 -1.890625 L 7.375 0 L 8.609375 0 L 8.609375 -5.984375 C 8.609375 -8.359375 7.28125 -9.96875 4.796875 -9.96875 C 3.1875 -9.96875 2 -9.265625 1.109375 -8.046875 L 2.171875 -7.21875 C 2.640625 -7.890625 3.484375 -8.6875 4.890625 -8.6875 C 6.65625 -8.6875 7.28125 -7.40625 7.28125 -5.578125 L 5.046875 -5.578125 C 2.28125 -5.578125 0.75 -4.671875 0.75 -2.71875 C 0.75 -0.875 2.078125 0.203125 3.921875 0.203125 Z M 4.078125 -1.03125 C 3.0625 -1.03125 2.25 -1.515625 2.25 -2.671875 C 2.25 -3.96875 3.25 -4.46875 5.1875 -4.46875 L 7.28125 -4.46875 C 7.28125 -2.90625 6.078125 -1.03125 4.078125 -1.03125 Z M 4.078125 -1.03125 "/></g></g></g><g fill="#faf8f4" fill-opacity="1"><g transform="translate(249.430444, 193.57841)"><g><path d="M 7.90625 -13.796875 L 7.90625 -8.421875 C 7.25 -9.359375 6.265625 -9.96875 4.84375 -9.96875 C 2.359375 -9.96875 0.9375 -7.671875 0.9375 -4.890625 C 0.9375 -2.09375 2.359375 0.203125 4.859375 0.203125 C 6.328125 0.203125 7.265625 -0.4375 7.90625 -1.359375 L 7.9375 0 L 9.359375 0 L 9.359375 -13.796875 Z M 5.21875 -1.03125 C 3.265625 -1.03125 2.4375 -2.890625 2.4375 -4.890625 C 2.4375 -6.859375 3.265625 -8.734375 5.21875 -8.734375 C 7.21875 -8.734375 8.015625 -6.859375 8.015625 -4.890625 C 8.015625 -2.875 7.21875 -1.03125 5.21875 -1.03125 Z M 5.21875 -1.03125 "/></g></g></g><g fill="#faf8f4" fill-opacity="1"><g transform="translate(259.931542, 193.57841)"><g><path d="M 3.921875 0.203125 C 5.296875 0.203125 6.625 -0.421875 7.34375 -1.890625 L 7.375 0 L 8.609375 0 L 8.609375 -5.984375 C 8.609375 -8.359375 7.28125 -9.96875 4.796875 -9.96875 C 3.1875 -9.96875 2 -9.265625 1.109375 -8.046875 L 2.171875 -7.21875 C 2.640625 -7.890625 3.484375 -8.6875 4.890625 -8.6875 C 6.65625 -8.6875 7.28125 -7.40625 7.28125 -5.578125 L 5.046875 -5.578125 C 2.28125 -5.578125 0.75 -4.671875 0.75 -2.71875 C 0.75 -0.875 2.078125 0.203125 3.921875 0.203125 Z M 4.078125 -1.03125 C 3.0625 -1.03125 2.25 -1.515625 2.25 -2.671875 C 2.25 -3.96875 3.25 -4.46875 5.1875 -4.46875 L 7.28125 -4.46875 C 7.28125 -2.90625 6.078125 -1.03125 4.078125 -1.03125 Z M 4.078125 -1.03125 "/></g></g></g><g fill="#faf8f4" fill-opacity="1"><g transform="translate(269.417412, 193.57841)"><g><path d="M 1.390625 3.1875 L 2.3125 3.1875 L 4.6875 -2.578125 L 2.796875 -2.578125 Z M 1.390625 3.1875 "/></g></g></g><g fill="#faf8f4" fill-opacity="1"><g transform="translate(274.959511, 193.57841)"><g/></g></g><g fill="#faf8f4" fill-opacity="1"><g transform="translate(285.48043, 193.57841)"><g><path d="M 7.390625 0.203125 C 11.609375 0.203125 13.59375 -3.078125 13.59375 -6.90625 C 13.59375 -10.71875 11.609375 -14 7.390625 -14 C 3.1875 -14 1.203125 -10.71875 1.203125 -6.90625 C 1.203125 -3.078125 3.1875 0.203125 7.390625 0.203125 Z M 7.390625 -1.234375 C 4.078125 -1.234375 2.71875 -3.953125 2.71875 -6.90625 C 2.71875 -9.859375 4.078125 -12.5625 7.390625 -12.5625 C 10.75 -12.5625 12.09375 -9.859375 12.09375 -6.90625 C 12.09375 -3.953125 10.75 -1.234375 7.390625 -1.234375 Z M 7.390625 -1.234375 "/></g></g></g><g fill="#faf8f4" fill-opacity="1"><g transform="translate(299.749587, 193.57841)"><g><path d="M 2.078125 0 L 3.609375 0 L 3.609375 -6.234375 L 5.9375 -6.234375 C 8.609375 -6.234375 10.359375 -7.5625 10.359375 -9.984375 C 10.359375 -12.359375 8.609375 -13.796875 5.9375 -13.796875 L 2.078125 -13.796875 Z M 3.609375 -7.609375 L 3.609375 -12.421875 L 5.9375 -12.421875 C 7.78125 -12.421875 8.828125 -11.53125 8.828125 -9.984375 C 8.828125 -8.40625 7.78125 -7.609375 5.9375 -7.609375 Z M 3.609375 -7.609375 "/></g></g></g><g fill="#faf8f4" fill-opacity="1"><g transform="translate(310.436148, 193.57841)"><g><path d="M 5.25 0 L 6.8125 0 L 6.8125 -12.515625 L 11.46875 -12.515625 L 11.46875 -13.796875 L 0.59375 -13.796875 L 0.59375 -12.515625 L 5.25 -12.515625 Z M 5.25 0 "/></g></g></g><g fill="#faf8f4" fill-opacity="1"><g transform="translate(321.962225, 193.57841)"><g><path d="M 2.078125 0 L 3.625 0 L 3.625 -13.796875 L 2.078125 -13.796875 Z M 2.078125 0 "/></g></g></g><g fill="#faf8f4" fill-opacity="1"><g transform="translate(327.123602, 193.57841)"><g><path d="M 5.25 0 L 6.8125 0 L 6.8125 -12.515625 L 11.46875 -12.515625 L 11.46875 -13.796875 L 0.59375 -13.796875 L 0.59375 -12.515625 L 5.25 -12.515625 Z M 5.25 0 "/></g></g></g><g fill="#faf8f4" fill-opacity="1"><g transform="translate(338.649678, 193.57841)"><g><path d="M 2.078125 0.015625 L 3.625 0.015625 L 3.625 -6.171875 L 5.890625 -6.171875 L 9.34375 0.015625 L 11.15625 0.015625 L 7.40625 -6.375 C 9.1875 -6.75 10.359375 -8.09375 10.359375 -9.953125 C 10.359375 -12.328125 8.453125 -13.78125 6.015625 -13.78125 L 2.078125 -13.78125 Z M 3.640625 -7.59375 L 3.640625 -12.40625 L 6.03125 -12.40625 C 7.671875 -12.40625 8.828125 -11.53125 8.828125 -9.953125 C 8.828125 -8.46875 7.75 -7.671875 6.265625 -7.59375 Z M 3.640625 -7.59375 "/></g></g></g><g fill="#faf8f4" fill-opacity="1"><g transform="translate(350.03909, 193.57841)"><g><path d="M 0.609375 0 L 2.3125 0 L 3.359375 -3 L 9.421875 -3 L 10.484375 0 L 12.140625 0 L 7 -13.796875 L 5.796875 -13.796875 Z M 3.875 -4.421875 L 6.40625 -11.53125 L 8.890625 -4.421875 Z M 3.875 -4.421875 "/></g></g></g><g fill="#faf8f4" fill-opacity="1"><g transform="translate(362.268017, 193.57841)"><g><path d="M 2.078125 0 L 3.609375 0 L 3.609375 -12.171875 L 9.515625 0 L 11.78125 0 L 11.78125 -13.796875 L 10.25 -13.796875 L 10.25 -1.640625 L 4.3125 -13.796875 L 2.078125 -13.796875 Z M 2.078125 0 "/></g></g></g><g fill="#faf8f4" fill-opacity="1"><g transform="translate(375.590266, 193.57841)"><g><path d="M 5.578125 0.15625 C 8.03125 0.15625 9.890625 -1.390625 9.890625 -3.8125 C 9.890625 -8.265625 3.234375 -7.546875 3.234375 -10.640625 C 3.234375 -11.90625 4.296875 -12.671875 5.453125 -12.671875 C 6.546875 -12.671875 7.578125 -12.15625 8.140625 -11.078125 L 9.296875 -11.859375 C 8.4375 -13.328125 7.09375 -14 5.46875 -14 C 3.421875 -14 1.734375 -12.625 1.734375 -10.515625 C 1.734375 -6.3125 8.375 -7.25 8.375 -3.6875 C 8.375 -2.015625 7.234375 -1.21875 5.59375 -1.21875 C 3.953125 -1.21875 2.453125 -2.09375 2.25 -3.96875 L 0.8125 -3.53125 C 1.203125 -1.0625 3.328125 0.15625 5.578125 0.15625 Z M 5.578125 0.15625 "/></g></g></g><g fill="#faf8f4" fill-opacity="1"><g transform="translate(30.583827, 221.328409)"><g><path d="M 6.15625 0.203125 C 8.6875 0.203125 10.078125 -2.09375 10.078125 -4.890625 C 10.078125 -7.671875 8.6875 -9.96875 6.140625 -9.96875 C 4.71875 -9.96875 3.75 -9.34375 3.109375 -8.421875 L 3.109375 -13.796875 L 1.65625 -13.796875 L 1.65625 0 L 3.109375 0 L 3.109375 -1.328125 C 3.75 -0.40625 4.734375 0.203125 6.15625 0.203125 Z M 5.765625 -1.03125 C 3.8125 -1.03125 2.984375 -2.890625 2.984375 -4.890625 C 2.984375 -6.859375 3.8125 -8.734375 5.765625 -8.734375 C 7.734375 -8.734375 8.625 -6.859375 8.625 -4.890625 C 8.625 -2.890625 7.734375 -1.03125 5.765625 -1.03125 Z M 5.765625 -1.03125 "/></g></g></g><g fill="#faf8f4" fill-opacity="1"><g transform="translate(41.075154, 221.328409)"><g><path d="M 1.640625 0 L 3.078125 0 L 3.078125 -4.875 C 3.078125 -7.234375 4.078125 -8.5625 5.75 -8.5625 C 6.203125 -8.5625 6.609375 -8.46875 6.9375 -8.1875 L 7.546875 -9.453125 C 7.1875 -9.734375 6.65625 -9.96875 5.984375 -9.96875 C 4.75 -9.96875 3.609375 -9.21875 3.09375 -8.03125 L 3.09375 -9.75 L 1.640625 -9.75 Z M 1.640625 0 "/></g></g></g><g fill="#faf8f4" fill-opacity="1"><g transform="translate(48.315799, 221.328409)"><g><path d="M 1.546875 -11.921875 L 3.21875 -11.921875 L 3.21875 -13.796875 L 1.546875 -13.796875 Z M 1.65625 0 L 3.109375 0 L 3.109375 -9.75 L 1.65625 -9.75 Z M 1.65625 0 "/></g></g></g><g fill="#faf8f4" fill-opacity="1"><g transform="translate(52.559567, 221.328409)"><g><path d="M 1.640625 0 L 3.09375 0 L 3.09375 -5.0625 C 3.09375 -7.484375 4.3125 -8.6875 5.84375 -8.6875 C 7.5625 -8.6875 8.0625 -7.125 8.0625 -5.78125 L 8.0625 0 L 9.515625 0 L 9.515625 -5.921875 C 9.515625 -8.078125 8.5625 -9.9375 6.234375 -9.9375 C 4.828125 -9.9375 3.734375 -9.203125 3.09375 -8.0625 L 3.09375 -9.75 L 1.640625 -9.75 Z M 1.640625 0 "/></g></g></g><g fill="#faf8f4" fill-opacity="1"><g transform="translate(62.963038, 221.328409)"><g><path d="M 7.90625 -13.796875 L 7.90625 -8.421875 C 7.25 -9.359375 6.265625 -9.96875 4.84375 -9.96875 C 2.359375 -9.96875 0.9375 -7.671875 0.9375 -4.890625 C 0.9375 -2.09375 2.359375 0.203125 4.859375 0.203125 C 6.328125 0.203125 7.265625 -0.4375 7.90625 -1.359375 L 7.9375 0 L 9.359375 0 L 9.359375 -13.796875 Z M 5.21875 -1.03125 C 3.265625 -1.03125 2.4375 -2.890625 2.4375 -4.890625 C 2.4375 -6.859375 3.265625 -8.734375 5.21875 -8.734375 C 7.21875 -8.734375 8.015625 -6.859375 8.015625 -4.890625 C 8.015625 -2.875 7.21875 -1.03125 5.21875 -1.03125 Z M 5.21875 -1.03125 "/></g></g></g><g fill="#faf8f4" fill-opacity="1"><g transform="translate(73.464128, 221.328409)"><g><path d="M 3.921875 0.203125 C 5.296875 0.203125 6.625 -0.421875 7.34375 -1.890625 L 7.375 0 L 8.609375 0 L 8.609375 -5.984375 C 8.609375 -8.359375 7.28125 -9.96875 4.796875 -9.96875 C 3.1875 -9.96875 2 -9.265625 1.109375 -8.046875 L 2.171875 -7.21875 C 2.640625 -7.890625 3.484375 -8.6875 4.890625 -8.6875 C 6.65625 -8.6875 7.28125 -7.40625 7.28125 -5.578125 L 5.046875 -5.578125 C 2.28125 -5.578125 0.75 -4.671875 0.75 -2.71875 C 0.75 -0.875 2.078125 0.203125 3.921875 0.203125 Z M 4.078125 -1.03125 C 3.0625 -1.03125 2.25 -1.515625 2.25 -2.671875 C 2.25 -3.96875 3.25 -4.46875 5.1875 -4.46875 L 7.28125 -4.46875 C 7.28125 -2.90625 6.078125 -1.03125 4.078125 -1.03125 Z M 4.078125 -1.03125 "/></g></g></g><g fill="#faf8f4" fill-opacity="1"><g transform="translate(82.949986, 221.328409)"><g/></g></g><g fill="#faf8f4" fill-opacity="1"><g transform="translate(89.148633, 221.328409)"><g><path d="M 3.921875 0.203125 C 5.296875 0.203125 6.625 -0.421875 7.34375 -1.890625 L 7.375 0 L 8.609375 0 L 8.609375 -5.984375 C 8.609375 -8.359375 7.28125 -9.96875 4.796875 -9.96875 C 3.1875 -9.96875 2 -9.265625 1.109375 -8.046875 L 2.171875 -7.21875 C 2.640625 -7.890625 3.484375 -8.6875 4.890625 -8.6875 C 6.65625 -8.6875 7.28125 -7.40625 7.28125 -5.578125 L 5.046875 -5.578125 C 2.28125 -5.578125 0.75 -4.671875 0.75 -2.71875 C 0.75 -0.875 2.078125 0.203125 3.921875 0.203125 Z M 4.078125 -1.03125 C 3.0625 -1.03125 2.25 -1.515625 2.25 -2.671875 C 2.25 -3.96875 3.25 -4.46875 5.1875 -4.46875 L 7.28125 -4.46875 C 7.28125 -2.90625 6.078125 -1.03125 4.078125 -1.03125 Z M 4.078125 -1.03125 "/></g></g></g><g fill="#faf8f4" fill-opacity="1"><g transform="translate(98.634491, 221.328409)"><g><path d="M 4.34375 0.203125 C 6.03125 0.203125 7.703125 -0.765625 7.703125 -2.78125 C 7.703125 -6.375 2.4375 -5.1875 2.4375 -7.4375 C 2.4375 -8.234375 3.09375 -8.78125 4.140625 -8.78125 C 5.1875 -8.78125 5.90625 -8.25 6.3125 -7.40625 L 7.390625 -8.015625 C 6.796875 -9.1875 5.6875 -9.96875 4.1875 -9.96875 C 2.53125 -9.96875 1.09375 -9.015625 1.09375 -7.25 C 1.09375 -3.953125 6.28125 -5.234375 6.28125 -2.609375 C 6.28125 -1.546875 5.46875 -1 4.359375 -1 C 3.0625 -1 2.28125 -1.8125 1.9375 -2.859375 L 0.703125 -2.21875 C 1.15625 -0.921875 2.515625 0.203125 4.34375 0.203125 Z M 4.34375 0.203125 "/></g></g></g><g fill="#faf8f4" fill-opacity="1"><g transform="translate(106.587746, 221.328409)"><g><path d="M 5.28125 0.140625 C 6.84375 0.140625 7.953125 -0.3125 9.015625 -1.390625 L 8.015625 -2.1875 C 7.25 -1.375 6.390625 -1.140625 5.28125 -1.140625 C 3.375 -1.140625 2.40625 -2.640625 2.421875 -4.390625 L 9.21875 -4.390625 C 9.234375 -4.5625 9.265625 -4.890625 9.265625 -5.140625 C 9.265625 -7.390625 8.296875 -9.890625 5.125 -9.890625 C 2.296875 -9.890625 0.890625 -7.4375 0.890625 -4.828125 C 0.890625 -2.171875 2.3125 0.140625 5.28125 0.140625 Z M 2.421875 -5.578125 C 2.5 -7.234375 3.34375 -8.6875 5.125 -8.6875 C 7.125 -8.6875 7.828125 -7.140625 7.875 -5.578125 Z M 2.421875 -5.578125 "/></g></g></g><g fill="#faf8f4" fill-opacity="1"><g transform="translate(116.200508, 221.328409)"><g><path d="M 4.34375 0.203125 C 6.03125 0.203125 7.703125 -0.765625 7.703125 -2.78125 C 7.703125 -6.375 2.4375 -5.1875 2.4375 -7.4375 C 2.4375 -8.234375 3.09375 -8.78125 4.140625 -8.78125 C 5.1875 -8.78125 5.90625 -8.25 6.3125 -7.40625 L 7.390625 -8.015625 C 6.796875 -9.1875 5.6875 -9.96875 4.1875 -9.96875 C 2.53125 -9.96875 1.09375 -9.015625 1.09375 -7.25 C 1.09375 -3.953125 6.28125 -5.234375 6.28125 -2.609375 C 6.28125 -1.546875 5.46875 -1 4.359375 -1 C 3.0625 -1 2.28125 -1.8125 1.9375 -2.859375 L 0.703125 -2.21875 C 1.15625 -0.921875 2.515625 0.203125 4.34375 0.203125 Z M 4.34375 0.203125 "/></g></g></g><g fill="#faf8f4" fill-opacity="1"><g transform="translate(124.153762, 221.328409)"><g><path d="M 5.4375 0.203125 C 8.1875 0.203125 10.09375 -2.125 10.09375 -4.90625 C 10.09375 -7.671875 8.1875 -9.96875 5.4375 -9.96875 C 2.6875 -9.96875 0.84375 -7.671875 0.84375 -4.90625 C 0.84375 -2.125 2.6875 0.203125 5.4375 0.203125 Z M 5.453125 -1.015625 C 3.296875 -1.015625 2.3125 -2.9375 2.3125 -4.90625 C 2.3125 -6.859375 3.296875 -8.75 5.46875 -8.75 C 7.640625 -8.75 8.609375 -6.859375 8.609375 -4.90625 C 8.609375 -2.96875 7.640625 -1.015625 5.453125 -1.015625 Z M 5.453125 -1.015625 "/></g></g></g><g fill="#faf8f4" fill-opacity="1"><g transform="translate(134.557231, 221.328409)"><g><path d="M 1.640625 0 L 3.078125 0 L 3.078125 -4.875 C 3.078125 -7.234375 4.078125 -8.5625 5.75 -8.5625 C 6.203125 -8.5625 6.609375 -8.46875 6.9375 -8.1875 L 7.546875 -9.453125 C 7.1875 -9.734375 6.65625 -9.96875 5.984375 -9.96875 C 4.75 -9.96875 3.609375 -9.21875 3.09375 -8.03125 L 3.09375 -9.75 L 1.640625 -9.75 Z M 1.640625 0 "/></g></g></g><g fill="#faf8f4" fill-opacity="1"><g transform="translate(141.797873, 221.328409)"><g><path d="M 1.546875 -11.921875 L 3.21875 -11.921875 L 3.21875 -13.796875 L 1.546875 -13.796875 Z M 1.65625 0 L 3.109375 0 L 3.109375 -9.75 L 1.65625 -9.75 Z M 1.65625 0 "/></g></g></g><g fill="#faf8f4" fill-opacity="1"><g transform="translate(146.041639, 221.328409)"><g><path d="M 3.921875 0.203125 C 5.296875 0.203125 6.625 -0.421875 7.34375 -1.890625 L 7.375 0 L 8.609375 0 L 8.609375 -5.984375 C 8.609375 -8.359375 7.28125 -9.96875 4.796875 -9.96875 C 3.1875 -9.96875 2 -9.265625 1.109375 -8.046875 L 2.171875 -7.21875 C 2.640625 -7.890625 3.484375 -8.6875 4.890625 -8.6875 C 6.65625 -8.6875 7.28125 -7.40625 7.28125 -5.578125 L 5.046875 -5.578125 C 2.28125 -5.578125 0.75 -4.671875 0.75 -2.71875 C 0.75 -0.875 2.078125 0.203125 3.921875 0.203125 Z M 4.078125 -1.03125 C 3.0625 -1.03125 2.25 -1.515625 2.25 -2.671875 C 2.25 -3.96875 3.25 -4.46875 5.1875 -4.46875 L 7.28125 -4.46875 C 7.28125 -2.90625 6.078125 -1.03125 4.078125 -1.03125 Z M 4.078125 -1.03125 "/></g></g></g><g fill="#faf8f4" fill-opacity="1"><g transform="translate(155.527498, 221.328409)"><g><path d="M 5.28125 0.140625 C 6.84375 0.140625 7.953125 -0.3125 9.015625 -1.390625 L 8.015625 -2.1875 C 7.25 -1.375 6.390625 -1.140625 5.28125 -1.140625 C 3.375 -1.140625 2.40625 -2.640625 2.421875 -4.390625 L 9.21875 -4.390625 C 9.234375 -4.5625 9.265625 -4.890625 9.265625 -5.140625 C 9.265625 -7.390625 8.296875 -9.890625 5.125 -9.890625 C 2.296875 -9.890625 0.890625 -7.4375 0.890625 -4.828125 C 0.890625 -2.171875 2.3125 0.140625 5.28125 0.140625 Z M 2.421875 -5.578125 C 2.5 -7.234375 3.34375 -8.6875 5.125 -8.6875 C 7.125 -8.6875 7.828125 -7.140625 7.875 -5.578125 Z M 2.421875 -5.578125 "/></g></g></g><g fill="#faf8f4" fill-opacity="1"><g transform="translate(165.14026, 221.328409)"><g><path d="M 1.640625 0 L 3.09375 0 L 3.09375 -5.0625 C 3.09375 -7.484375 4.3125 -8.6875 5.84375 -8.6875 C 7.5625 -8.6875 8.0625 -7.125 8.0625 -5.78125 L 8.0625 0 L 9.515625 0 L 9.515625 -5.921875 C 9.515625 -8.078125 8.5625 -9.9375 6.234375 -9.9375 C 4.828125 -9.9375 3.734375 -9.203125 3.09375 -8.0625 L 3.09375 -9.75 L 1.640625 -9.75 Z M 1.640625 0 "/></g></g></g><g fill="#faf8f4" fill-opacity="1"><g transform="translate(175.543729, 221.328409)"><g/></g></g><g fill="#faf8f4" fill-opacity="1"><g transform="translate(181.742375, 221.328409)"><g><path d="M 7.90625 -13.796875 L 7.90625 -8.421875 C 7.25 -9.359375 6.265625 -9.96875 4.84375 -9.96875 C 2.359375 -9.96875 0.9375 -7.671875 0.9375 -4.890625 C 0.9375 -2.09375 2.359375 0.203125 4.859375 0.203125 C 6.328125 0.203125 7.265625 -0.4375 7.90625 -1.359375 L 7.9375 0 L 9.359375 0 L 9.359375 -13.796875 Z M 5.21875 -1.03125 C 3.265625 -1.03125 2.4375 -2.890625 2.4375 -4.890625 C 2.4375 -6.859375 3.265625 -8.734375 5.21875 -8.734375 C 7.21875 -8.734375 8.015625 -6.859375 8.015625 -4.890625 C 8.015625 -2.875 7.21875 -1.03125 5.21875 -1.03125 Z M 5.21875 -1.03125 "/></g></g></g><g fill="#faf8f4" fill-opacity="1"><g transform="translate(192.243462, 221.328409)"><g><path d="M 5.4375 0.203125 C 8.1875 0.203125 10.09375 -2.125 10.09375 -4.90625 C 10.09375 -7.671875 8.1875 -9.96875 5.4375 -9.96875 C 2.6875 -9.96875 0.84375 -7.671875 0.84375 -4.90625 C 0.84375 -2.125 2.6875 0.203125 5.4375 0.203125 Z M 5.453125 -1.015625 C 3.296875 -1.015625 2.3125 -2.9375 2.3125 -4.90625 C 2.3125 -6.859375 3.296875 -8.75 5.46875 -8.75 C 7.640625 -8.75 8.609375 -6.859375 8.609375 -4.90625 C 8.609375 -2.96875 7.640625 -1.015625 5.453125 -1.015625 Z M 5.453125 -1.015625 "/></g></g></g><g fill="#faf8f4" fill-opacity="1"><g transform="translate(202.64693, 221.328409)"><g><path d="M 5.140625 0.203125 C 6.90625 0.203125 8.234375 -0.765625 8.8125 -2.390625 L 7.546875 -2.9375 C 7.25 -1.78125 6.296875 -1.03125 5.125 -1.03125 C 3.078125 -1.03125 2.390625 -3.078125 2.390625 -4.859375 C 2.390625 -6.625 3.09375 -8.734375 5.125 -8.734375 C 6.296875 -8.734375 7.25 -7.953125 7.546875 -6.78125 L 8.921875 -7.359375 C 8.234375 -8.96875 6.890625 -9.96875 5.125 -9.96875 C 2.3125 -9.96875 0.90625 -7.484375 0.90625 -4.859375 C 0.90625 -2.21875 2.328125 0.203125 5.140625 0.203125 Z M 5.140625 0.203125 "/></g></g></g><g fill="#faf8f4" fill-opacity="1"><g transform="translate(211.634937, 221.328409)"><g><path d="M 4.75 0.21875 C 6.296875 0.21875 7.421875 -0.8125 7.8125 -1.65625 L 7.8125 0 L 9.265625 0 L 9.265625 -9.75 L 7.8125 -9.75 L 7.8125 -4.359375 C 7.8125 -2.4375 6.46875 -1.015625 4.90625 -1.015625 C 3.234375 -1.015625 2.859375 -2.59375 2.859375 -4 L 2.859375 -9.75 L 1.390625 -9.75 L 1.390625 -4.09375 C 1.390625 -1.65625 2.34375 0.21875 4.75 0.21875 Z M 4.75 0.21875 "/></g></g></g><g fill="#faf8f4" fill-opacity="1"><g transform="translate(222.018882, 221.328409)"><g><path d="M 1.640625 0 L 3.109375 0 L 3.109375 -5.09375 C 3.109375 -6.859375 3.984375 -8.71875 5.609375 -8.71875 C 7.28125 -8.71875 7.65625 -7.171875 7.65625 -5.828125 L 7.65625 0 L 9.140625 0 L 9.140625 -5.40625 C 9.140625 -7.015625 10.015625 -8.71875 11.609375 -8.71875 C 13.296875 -8.71875 13.703125 -7.109375 13.703125 -5.78125 L 13.703125 0 L 15.171875 0 L 15.171875 -5.921875 C 15.171875 -8.09375 14.203125 -9.96875 11.78125 -9.96875 C 10.40625 -9.96875 9.359375 -9.234375 8.75 -7.921875 C 8.265625 -9.3125 7.15625 -9.96875 5.765625 -9.96875 C 4.546875 -9.96875 3.515625 -9.1875 3.109375 -8.25 L 3.109375 -9.75 L 1.640625 -9.75 Z M 1.640625 0 "/></g></g></g><g fill="#faf8f4" fill-opacity="1"><g transform="translate(238.0842, 221.328409)"><g><path d="M 5.28125 0.140625 C 6.84375 0.140625 7.953125 -0.3125 9.015625 -1.390625 L 8.015625 -2.1875 C 7.25 -1.375 6.390625 -1.140625 5.28125 -1.140625 C 3.375 -1.140625 2.40625 -2.640625 2.421875 -4.390625 L 9.21875 -4.390625 C 9.234375 -4.5625 9.265625 -4.890625 9.265625 -5.140625 C 9.265625 -7.390625 8.296875 -9.890625 5.125 -9.890625 C 2.296875 -9.890625 0.890625 -7.4375 0.890625 -4.828125 C 0.890625 -2.171875 2.3125 0.140625 5.28125 0.140625 Z M 2.421875 -5.578125 C 2.5 -7.234375 3.34375 -8.6875 5.125 -8.6875 C 7.125 -8.6875 7.828125 -7.140625 7.875 -5.578125 Z M 2.421875 -5.578125 "/></g></g></g><g fill="#faf8f4" fill-opacity="1"><g transform="translate(247.696962, 221.328409)"><g><path d="M 1.640625 0 L 3.09375 0 L 3.09375 -5.0625 C 3.09375 -7.484375 4.3125 -8.6875 5.84375 -8.6875 C 7.5625 -8.6875 8.0625 -7.125 8.0625 -5.78125 L 8.0625 0 L 9.515625 0 L 9.515625 -5.921875 C 9.515625 -8.078125 8.5625 -9.9375 6.234375 -9.9375 C 4.828125 -9.9375 3.734375 -9.203125 3.09375 -8.0625 L 3.09375 -9.75 L 1.640625 -9.75 Z M 1.640625 0 "/></g></g></g><g fill="#faf8f4" fill-opacity="1"><g transform="translate(258.100442, 221.328409)"><g><path d="M 4.359375 0.203125 C 4.953125 0.203125 5.453125 0.09375 5.671875 0 L 5.671875 -1.25 C 5.359375 -1.109375 5.015625 -1 4.6875 -1 C 3.96875 -1 3.453125 -1.5 3.453125 -2.578125 L 3.453125 -8.5625 L 5.921875 -8.5625 L 5.921875 -9.75 L 3.453125 -9.75 L 3.453125 -13.328125 L 2 -11.953125 L 2 -9.75 L 0.4375 -9.75 L 0.4375 -8.5625 L 2 -8.5625 L 2 -2.59375 C 2 -0.921875 2.625 0.203125 4.359375 0.203125 Z M 4.359375 0.203125 "/></g></g></g><g fill="#faf8f4" fill-opacity="1"><g transform="translate(264.150155, 221.328409)"><g><path d="M 3.921875 0.203125 C 5.296875 0.203125 6.625 -0.421875 7.34375 -1.890625 L 7.375 0 L 8.609375 0 L 8.609375 -5.984375 C 8.609375 -8.359375 7.28125 -9.96875 4.796875 -9.96875 C 3.1875 -9.96875 2 -9.265625 1.109375 -8.046875 L 2.171875 -7.21875 C 2.640625 -7.890625 3.484375 -8.6875 4.890625 -8.6875 C 6.65625 -8.6875 7.28125 -7.40625 7.28125 -5.578125 L 5.046875 -5.578125 C 2.28125 -5.578125 0.75 -4.671875 0.75 -2.71875 C 0.75 -0.875 2.078125 0.203125 3.921875 0.203125 Z M 4.078125 -1.03125 C 3.0625 -1.03125 2.25 -1.515625 2.25 -2.671875 C 2.25 -3.96875 3.25 -4.46875 5.1875 -4.46875 L 7.28125 -4.46875 C 7.28125 -2.90625 6.078125 -1.03125 4.078125 -1.03125 Z M 4.078125 -1.03125 "/></g></g></g><g fill="#faf8f4" fill-opacity="1"><g transform="translate(273.636025, 221.328409)"><g><path d="M 5.140625 0.203125 C 6.90625 0.203125 8.234375 -0.765625 8.8125 -2.390625 L 7.546875 -2.9375 C 7.25 -1.78125 6.296875 -1.03125 5.125 -1.03125 C 3.078125 -1.03125 2.390625 -3.078125 2.390625 -4.859375 C 2.390625 -6.625 3.09375 -8.734375 5.125 -8.734375 C 6.296875 -8.734375 7.25 -7.953125 7.546875 -6.78125 L 8.921875 -7.359375 C 8.234375 -8.96875 6.890625 -9.96875 5.125 -9.96875 C 2.3125 -9.96875 0.90625 -7.484375 0.90625 -4.859375 C 0.90625 -2.21875 2.328125 0.203125 5.140625 0.203125 Z M 5.140625 0.203125 "/></g></g></g><g fill="#faf8f4" fill-opacity="1"><g transform="translate(282.624031, 221.328409)"><g><path d="M 1.546875 -11.921875 L 3.21875 -11.921875 L 3.21875 -13.796875 L 1.546875 -13.796875 Z M 1.65625 0 L 3.109375 0 L 3.109375 -9.75 L 1.65625 -9.75 Z M 1.65625 0 "/></g></g></g><g fill="#faf8f4" fill-opacity="1"><g transform="translate(286.867797, 221.328409)"><g><path d="M 4.515625 -10.984375 L 5.828125 -10.984375 L 8.53125 -13.796875 L 6.640625 -13.796875 Z M 5.4375 0.203125 C 8.1875 0.203125 10.09375 -2.125 10.09375 -4.90625 C 10.09375 -7.671875 8.1875 -9.96875 5.4375 -9.96875 C 2.6875 -9.96875 0.84375 -7.671875 0.84375 -4.90625 C 0.84375 -2.125 2.6875 0.203125 5.4375 0.203125 Z M 5.453125 -1.015625 C 3.296875 -1.015625 2.3125 -2.9375 2.3125 -4.90625 C 2.3125 -6.859375 3.296875 -8.75 5.46875 -8.75 C 7.640625 -8.75 8.609375 -6.859375 8.609375 -4.90625 C 8.609375 -2.96875 7.640625 -1.015625 5.453125 -1.015625 Z M 5.453125 -1.015625 "/></g></g></g><g fill="#faf8f4" fill-opacity="1"><g transform="translate(297.271277, 221.328409)"><g><path d="M 1.640625 0 L 3.09375 0 L 3.09375 -5.0625 C 3.09375 -7.484375 4.3125 -8.6875 5.84375 -8.6875 C 7.5625 -8.6875 8.0625 -7.125 8.0625 -5.78125 L 8.0625 0 L 9.515625 0 L 9.515625 -5.921875 C 9.515625 -8.078125 8.5625 -9.9375 6.234375 -9.9375 C 4.828125 -9.9375 3.734375 -9.203125 3.09375 -8.0625 L 3.09375 -9.75 L 1.640625 -9.75 Z M 1.640625 0 "/></g></g></g><g fill="#faf8f4" fill-opacity="1"><g transform="translate(307.674758, 221.328409)"><g><path d="M 1.390625 3.1875 L 2.3125 3.1875 L 4.6875 -2.578125 L 2.796875 -2.578125 Z M 1.390625 3.1875 "/></g></g></g><g fill="#faf8f4" fill-opacity="1"><g transform="translate(313.216856, 221.328409)"><g/></g></g><g fill="#faf8f4" fill-opacity="1"><g transform="translate(319.415503, 221.328409)"><g><path d="M 5.140625 0.203125 C 6.90625 0.203125 8.234375 -0.765625 8.8125 -2.390625 L 7.546875 -2.9375 C 7.25 -1.78125 6.296875 -1.03125 5.125 -1.03125 C 3.078125 -1.03125 2.390625 -3.078125 2.390625 -4.859375 C 2.390625 -6.625 3.09375 -8.734375 5.125 -8.734375 C 6.296875 -8.734375 7.25 -7.953125 7.546875 -6.78125 L 8.921875 -7.359375 C 8.234375 -8.96875 6.890625 -9.96875 5.125 -9.96875 C 2.3125 -9.96875 0.90625 -7.484375 0.90625 -4.859375 C 0.90625 -2.21875 2.328125 0.203125 5.140625 0.203125 Z M 5.140625 0.203125 "/></g></g></g><g fill="#faf8f4" fill-opacity="1"><g transform="translate(328.403509, 221.328409)"><g><path d="M 4.75 0.21875 C 6.296875 0.21875 7.421875 -0.8125 7.8125 -1.65625 L 7.8125 0 L 9.265625 0 L 9.265625 -9.75 L 7.8125 -9.75 L 7.8125 -4.359375 C 7.8125 -2.4375 6.46875 -1.015625 4.90625 -1.015625 C 3.234375 -1.015625 2.859375 -2.59375 2.859375 -4 L 2.859375 -9.75 L 1.390625 -9.75 L 1.390625 -4.09375 C 1.390625 -1.65625 2.34375 0.21875 4.75 0.21875 Z M 4.75 0.21875 "/></g></g></g><g fill="#faf8f4" fill-opacity="1"><g transform="translate(338.787465, 221.328409)"><g><path d="M 6.15625 0.203125 C 8.6875 0.203125 10.078125 -2.09375 10.078125 -4.890625 C 10.078125 -7.671875 8.6875 -9.96875 6.140625 -9.96875 C 4.71875 -9.96875 3.75 -9.34375 3.109375 -8.421875 L 3.109375 -13.796875 L 1.65625 -13.796875 L 1.65625 0 L 3.109375 0 L 3.109375 -1.328125 C 3.75 -0.40625 4.734375 0.203125 6.15625 0.203125 Z M 5.765625 -1.03125 C 3.8125 -1.03125 2.984375 -2.890625 2.984375 -4.890625 C 2.984375 -6.859375 3.8125 -8.734375 5.765625 -8.734375 C 7.734375 -8.734375 8.625 -6.859375 8.625 -4.890625 C 8.625 -2.890625 7.734375 -1.03125 5.765625 -1.03125 Z M 5.765625 -1.03125 "/></g></g></g><g fill="#faf8f4" fill-opacity="1"><g transform="translate(349.27879, 221.328409)"><g><path d="M 1.546875 -11.921875 L 3.21875 -11.921875 L 3.21875 -13.796875 L 1.546875 -13.796875 Z M 1.65625 0 L 3.109375 0 L 3.109375 -9.75 L 1.65625 -9.75 Z M 1.65625 0 "/></g></g></g><g fill="#faf8f4" fill-opacity="1"><g transform="translate(353.522557, 221.328409)"><g><path d="M 5.140625 0.203125 C 6.90625 0.203125 8.234375 -0.765625 8.8125 -2.390625 L 7.546875 -2.9375 C 7.25 -1.78125 6.296875 -1.03125 5.125 -1.03125 C 3.078125 -1.03125 2.390625 -3.078125 2.390625 -4.859375 C 2.390625 -6.625 3.09375 -8.734375 5.125 -8.734375 C 6.296875 -8.734375 7.25 -7.953125 7.546875 -6.78125 L 8.921875 -7.359375 C 8.234375 -8.96875 6.890625 -9.96875 5.125 -9.96875 C 2.3125 -9.96875 0.90625 -7.484375 0.90625 -4.859375 C 0.90625 -2.21875 2.328125 0.203125 5.140625 0.203125 Z M 5.140625 0.203125 "/></g></g></g><g fill="#faf8f4" fill-opacity="1"><g transform="translate(362.510563, 221.328409)"><g><path d="M 3.921875 0.203125 C 5.296875 0.203125 6.625 -0.421875 7.34375 -1.890625 L 7.375 0 L 8.609375 0 L 8.609375 -5.984375 C 8.609375 -8.359375 7.28125 -9.96875 4.796875 -9.96875 C 3.1875 -9.96875 2 -9.265625 1.109375 -8.046875 L 2.171875 -7.21875 C 2.640625 -7.890625 3.484375 -8.6875 4.890625 -8.6875 C 6.65625 -8.6875 7.28125 -7.40625 7.28125 -5.578125 L 5.046875 -5.578125 C 2.28125 -5.578125 0.75 -4.671875 0.75 -2.71875 C 0.75 -0.875 2.078125 0.203125 3.921875 0.203125 Z M 4.078125 -1.03125 C 3.0625 -1.03125 2.25 -1.515625 2.25 -2.671875 C 2.25 -3.96875 3.25 -4.46875 5.1875 -4.46875 L 7.28125 -4.46875 C 7.28125 -2.90625 6.078125 -1.03125 4.078125 -1.03125 Z M 4.078125 -1.03125 "/></g></g></g><g fill="#faf8f4" fill-opacity="1"><g transform="translate(371.996433, 221.328409)"><g><path d="M 1.578125 -11.984375 L 3.25 -11.984375 L 3.25 -13.796875 L 1.578125 -13.796875 Z M 0.65625 4.28125 C 2.421875 4.28125 3.15625 3.109375 3.15625 1.515625 L 3.15625 -9.75 L 1.671875 -9.75 L 1.671875 1.734375 C 1.671875 2.390625 1.4375 3.046875 0.609375 3.046875 C 0.28125 3.046875 -0.21875 2.96875 -0.515625 2.875 L -0.828125 3.96875 C -0.40625 4.140625 0.21875 4.28125 0.65625 4.28125 Z M 0.65625 4.28125 "/></g></g></g><g fill="#faf8f4" fill-opacity="1"><g transform="translate(376.28902, 221.328409)"><g><path d="M 5.28125 0.140625 C 6.84375 0.140625 7.953125 -0.3125 9.015625 -1.390625 L 8.015625 -2.1875 C 7.25 -1.375 6.390625 -1.140625 5.28125 -1.140625 C 3.375 -1.140625 2.40625 -2.640625 2.421875 -4.390625 L 9.21875 -4.390625 C 9.234375 -4.5625 9.265625 -4.890625 9.265625 -5.140625 C 9.265625 -7.390625 8.296875 -9.890625 5.125 -9.890625 C 2.296875 -9.890625 0.890625 -7.4375 0.890625 -4.828125 C 0.890625 -2.171875 2.3125 0.140625 5.28125 0.140625 Z M 2.421875 -5.578125 C 2.5 -7.234375 3.34375 -8.6875 5.125 -8.6875 C 7.125 -8.6875 7.828125 -7.140625 7.875 -5.578125 Z M 2.421875 -5.578125 "/></g></g></g><g fill="#faf8f4" fill-opacity="1"><g transform="translate(30.583827, 249.078408)"><g><path d="M 2.421875 4.203125 L 3.953125 4.203125 L 9.1875 -9.75 L 7.59375 -9.75 L 4.8125 -1.78125 L 1.953125 -9.75 L 0.34375 -9.75 L 4.09375 -0.046875 Z M 2.421875 4.203125 "/></g></g></g><g fill="#faf8f4" fill-opacity="1"><g transform="translate(39.581597, 249.078408)"><g/></g></g><g fill="#faf8f4" fill-opacity="1"><g transform="translate(44.342742, 249.078408)"><g><path d="M 1.65625 4.28125 L 3.125 4.28125 L 3.125 -1.328125 C 3.796875 -0.359375 4.859375 0.203125 6.109375 0.203125 C 8.734375 0.203125 10.09375 -2.125 10.09375 -4.890625 C 10.09375 -7.671875 8.71875 -9.96875 6.109375 -9.96875 C 4.796875 -9.96875 3.765625 -9.359375 3.125 -8.421875 L 3.125 -9.75 L 1.65625 -9.75 Z M 5.796875 -1.03125 C 3.8125 -1.03125 2.984375 -2.890625 2.984375 -4.890625 C 2.984375 -6.859375 3.8125 -8.734375 5.796875 -8.734375 C 7.75 -8.734375 8.625 -6.859375 8.625 -4.890625 C 8.625 -2.890625 7.75 -1.03125 5.796875 -1.03125 Z M 5.796875 -1.03125 "/></g></g></g><g fill="#faf8f4" fill-opacity="1"><g transform="translate(54.84383, 249.078408)"><g><path d="M 1.640625 0 L 3.078125 0 L 3.078125 -4.875 C 3.078125 -7.234375 4.078125 -8.5625 5.75 -8.5625 C 6.203125 -8.5625 6.609375 -8.46875 6.9375 -8.1875 L 7.546875 -9.453125 C 7.1875 -9.734375 6.65625 -9.96875 5.984375 -9.96875 C 4.75 -9.96875 3.609375 -9.21875 3.09375 -8.03125 L 3.09375 -9.75 L 1.640625 -9.75 Z M 1.640625 0 "/></g></g></g><g fill="#faf8f4" fill-opacity="1"><g transform="translate(62.084475, 249.078408)"><g><path d="M 5.4375 0.203125 C 8.1875 0.203125 10.09375 -2.125 10.09375 -4.90625 C 10.09375 -7.671875 8.1875 -9.96875 5.4375 -9.96875 C 2.6875 -9.96875 0.84375 -7.671875 0.84375 -4.90625 C 0.84375 -2.125 2.6875 0.203125 5.4375 0.203125 Z M 5.453125 -1.015625 C 3.296875 -1.015625 2.3125 -2.9375 2.3125 -4.90625 C 2.3125 -6.859375 3.296875 -8.75 5.46875 -8.75 C 7.640625 -8.75 8.609375 -6.859375 8.609375 -4.90625 C 8.609375 -2.96875 7.640625 -1.015625 5.453125 -1.015625 Z M 5.453125 -1.015625 "/></g></g></g><g fill="#faf8f4" fill-opacity="1"><g transform="translate(72.487947, 249.078408)"><g><path d="M 5.140625 0.203125 C 6.90625 0.203125 8.234375 -0.765625 8.8125 -2.390625 L 7.546875 -2.9375 C 7.25 -1.78125 6.296875 -1.03125 5.125 -1.03125 C 3.078125 -1.03125 2.390625 -3.078125 2.390625 -4.859375 C 2.390625 -6.625 3.09375 -8.734375 5.125 -8.734375 C 6.296875 -8.734375 7.25 -7.953125 7.546875 -6.78125 L 8.921875 -7.359375 C 8.234375 -8.96875 6.890625 -9.96875 5.125 -9.96875 C 2.3125 -9.96875 0.90625 -7.484375 0.90625 -4.859375 C 0.90625 -2.21875 2.328125 0.203125 5.140625 0.203125 Z M 5.140625 0.203125 "/></g></g></g><g fill="#faf8f4" fill-opacity="1"><g transform="translate(81.475953, 249.078408)"><g><path d="M 5.28125 0.140625 C 6.84375 0.140625 7.953125 -0.3125 9.015625 -1.390625 L 8.015625 -2.1875 C 7.25 -1.375 6.390625 -1.140625 5.28125 -1.140625 C 3.375 -1.140625 2.40625 -2.640625 2.421875 -4.390625 L 9.21875 -4.390625 C 9.234375 -4.5625 9.265625 -4.890625 9.265625 -5.140625 C 9.265625 -7.390625 8.296875 -9.890625 5.125 -9.890625 C 2.296875 -9.890625 0.890625 -7.4375 0.890625 -4.828125 C 0.890625 -2.171875 2.3125 0.140625 5.28125 0.140625 Z M 2.421875 -5.578125 C 2.5 -7.234375 3.34375 -8.6875 5.125 -8.6875 C 7.125 -8.6875 7.828125 -7.140625 7.875 -5.578125 Z M 2.421875 -5.578125 "/></g></g></g><g fill="#faf8f4" fill-opacity="1"><g transform="translate(91.088715, 249.078408)"><g><path d="M 4.34375 0.203125 C 6.03125 0.203125 7.703125 -0.765625 7.703125 -2.78125 C 7.703125 -6.375 2.4375 -5.1875 2.4375 -7.4375 C 2.4375 -8.234375 3.09375 -8.78125 4.140625 -8.78125 C 5.1875 -8.78125 5.90625 -8.25 6.3125 -7.40625 L 7.390625 -8.015625 C 6.796875 -9.1875 5.6875 -9.96875 4.1875 -9.96875 C 2.53125 -9.96875 1.09375 -9.015625 1.09375 -7.25 C 1.09375 -3.953125 6.28125 -5.234375 6.28125 -2.609375 C 6.28125 -1.546875 5.46875 -1 4.359375 -1 C 3.0625 -1 2.28125 -1.8125 1.9375 -2.859375 L 0.703125 -2.21875 C 1.15625 -0.921875 2.515625 0.203125 4.34375 0.203125 Z M 4.34375 0.203125 "/></g></g></g><g fill="#faf8f4" fill-opacity="1"><g transform="translate(99.04197, 249.078408)"><g><path d="M 5.4375 0.203125 C 8.1875 0.203125 10.09375 -2.125 10.09375 -4.90625 C 10.09375 -7.671875 8.1875 -9.96875 5.4375 -9.96875 C 2.6875 -9.96875 0.84375 -7.671875 0.84375 -4.90625 C 0.84375 -2.125 2.6875 0.203125 5.4375 0.203125 Z M 5.453125 -1.015625 C 3.296875 -1.015625 2.3125 -2.9375 2.3125 -4.90625 C 2.3125 -6.859375 3.296875 -8.75 5.46875 -8.75 C 7.640625 -8.75 8.609375 -6.859375 8.609375 -4.90625 C 8.609375 -2.96875 7.640625 -1.015625 5.453125 -1.015625 Z M 5.453125 -1.015625 "/></g></g></g><g fill="#faf8f4" fill-opacity="1"><g transform="translate(109.445438, 249.078408)"><g><path d="M 4.34375 0.203125 C 6.03125 0.203125 7.703125 -0.765625 7.703125 -2.78125 C 7.703125 -6.375 2.4375 -5.1875 2.4375 -7.4375 C 2.4375 -8.234375 3.09375 -8.78125 4.140625 -8.78125 C 5.1875 -8.78125 5.90625 -8.25 6.3125 -7.40625 L 7.390625 -8.015625 C 6.796875 -9.1875 5.6875 -9.96875 4.1875 -9.96875 C 2.53125 -9.96875 1.09375 -9.015625 1.09375 -7.25 C 1.09375 -3.953125 6.28125 -5.234375 6.28125 -2.609375 C 6.28125 -1.546875 5.46875 -1 4.359375 -1 C 3.0625 -1 2.28125 -1.8125 1.9375 -2.859375 L 0.703125 -2.21875 C 1.15625 -0.921875 2.515625 0.203125 4.34375 0.203125 Z M 4.34375 0.203125 "/></g></g></g><g fill="#faf8f4" fill-opacity="1"><g transform="translate(117.398693, 249.078408)"><g/></g></g><g fill="#faf8f4" fill-opacity="1"><g transform="translate(122.159835, 249.078408)"><g><path d="M 3.921875 0.203125 C 5.296875 0.203125 6.625 -0.421875 7.34375 -1.890625 L 7.375 0 L 8.609375 0 L 8.609375 -5.984375 C 8.609375 -8.359375 7.28125 -9.96875 4.796875 -9.96875 C 3.1875 -9.96875 2 -9.265625 1.109375 -8.046875 L 2.171875 -7.21875 C 2.640625 -7.890625 3.484375 -8.6875 4.890625 -8.6875 C 6.65625 -8.6875 7.28125 -7.40625 7.28125 -5.578125 L 5.046875 -5.578125 C 2.28125 -5.578125 0.75 -4.671875 0.75 -2.71875 C 0.75 -0.875 2.078125 0.203125 3.921875 0.203125 Z M 4.078125 -1.03125 C 3.0625 -1.03125 2.25 -1.515625 2.25 -2.671875 C 2.25 -3.96875 3.25 -4.46875 5.1875 -4.46875 L 7.28125 -4.46875 C 7.28125 -2.90625 6.078125 -1.03125 4.078125 -1.03125 Z M 4.078125 -1.03125 "/></g></g></g><g fill="#faf8f4" fill-opacity="1"><g transform="translate(131.645694, 249.078408)"><g><path d="M 7.90625 -13.796875 L 7.90625 -8.421875 C 7.25 -9.359375 6.265625 -9.96875 4.84375 -9.96875 C 2.359375 -9.96875 0.9375 -7.671875 0.9375 -4.890625 C 0.9375 -2.09375 2.359375 0.203125 4.859375 0.203125 C 6.328125 0.203125 7.265625 -0.4375 7.90625 -1.359375 L 7.9375 0 L 9.359375 0 L 9.359375 -13.796875 Z M 5.21875 -1.03125 C 3.265625 -1.03125 2.4375 -2.890625 2.4375 -4.890625 C 2.4375 -6.859375 3.265625 -8.734375 5.21875 -8.734375 C 7.21875 -8.734375 8.015625 -6.859375 8.015625 -4.890625 C 8.015625 -2.875 7.21875 -1.03125 5.21875 -1.03125 Z M 5.21875 -1.03125 "/></g></g></g><g fill="#faf8f4" fill-opacity="1"><g transform="translate(142.14678, 249.078408)"><g><path d="M 4.75 0.21875 C 6.296875 0.21875 7.421875 -0.8125 7.8125 -1.65625 L 7.8125 0 L 9.265625 0 L 9.265625 -9.75 L 7.8125 -9.75 L 7.8125 -4.359375 C 7.8125 -2.4375 6.46875 -1.015625 4.90625 -1.015625 C 3.234375 -1.015625 2.859375 -2.59375 2.859375 -4 L 2.859375 -9.75 L 1.390625 -9.75 L 1.390625 -4.09375 C 1.390625 -1.65625 2.34375 0.21875 4.75 0.21875 Z M 4.75 0.21875 "/></g></g></g><g fill="#faf8f4" fill-opacity="1"><g transform="translate(152.530725, 249.078408)"><g><path d="M 3.921875 0.203125 C 5.296875 0.203125 6.625 -0.421875 7.34375 -1.890625 L 7.375 0 L 8.609375 0 L 8.609375 -5.984375 C 8.609375 -8.359375 7.28125 -9.96875 4.796875 -9.96875 C 3.1875 -9.96875 2 -9.265625 1.109375 -8.046875 L 2.171875 -7.21875 C 2.640625 -7.890625 3.484375 -8.6875 4.890625 -8.6875 C 6.65625 -8.6875 7.28125 -7.40625 7.28125 -5.578125 L 5.046875 -5.578125 C 2.28125 -5.578125 0.75 -4.671875 0.75 -2.71875 C 0.75 -0.875 2.078125 0.203125 3.921875 0.203125 Z M 4.078125 -1.03125 C 3.0625 -1.03125 2.25 -1.515625 2.25 -2.671875 C 2.25 -3.96875 3.25 -4.46875 5.1875 -4.46875 L 7.28125 -4.46875 C 7.28125 -2.90625 6.078125 -1.03125 4.078125 -1.03125 Z M 4.078125 -1.03125 "/></g></g></g><g fill="#faf8f4" fill-opacity="1"><g transform="translate(162.016584, 249.078408)"><g><path d="M 1.640625 0 L 3.09375 0 L 3.09375 -5.0625 C 3.09375 -7.484375 4.3125 -8.6875 5.84375 -8.6875 C 7.5625 -8.6875 8.0625 -7.125 8.0625 -5.78125 L 8.0625 0 L 9.515625 0 L 9.515625 -5.921875 C 9.515625 -8.078125 8.5625 -9.9375 6.234375 -9.9375 C 4.828125 -9.9375 3.734375 -9.203125 3.09375 -8.0625 L 3.09375 -9.75 L 1.640625 -9.75 Z M 1.640625 0 "/></g></g></g><g fill="#faf8f4" fill-opacity="1"><g transform="translate(172.420052, 249.078408)"><g><path d="M 5.28125 0.140625 C 6.84375 0.140625 7.953125 -0.3125 9.015625 -1.390625 L 8.015625 -2.1875 C 7.25 -1.375 6.390625 -1.140625 5.28125 -1.140625 C 3.375 -1.140625 2.40625 -2.640625 2.421875 -4.390625 L 9.21875 -4.390625 C 9.234375 -4.5625 9.265625 -4.890625 9.265625 -5.140625 C 9.265625 -7.390625 8.296875 -9.890625 5.125 -9.890625 C 2.296875 -9.890625 0.890625 -7.4375 0.890625 -4.828125 C 0.890625 -2.171875 2.3125 0.140625 5.28125 0.140625 Z M 2.421875 -5.578125 C 2.5 -7.234375 3.34375 -8.6875 5.125 -8.6875 C 7.125 -8.6875 7.828125 -7.140625 7.875 -5.578125 Z M 2.421875 -5.578125 "/></g></g></g><g fill="#faf8f4" fill-opacity="1"><g transform="translate(182.032814, 249.078408)"><g><path d="M 1.640625 0 L 3.078125 0 L 3.078125 -4.875 C 3.078125 -7.234375 4.078125 -8.5625 5.75 -8.5625 C 6.203125 -8.5625 6.609375 -8.46875 6.9375 -8.1875 L 7.546875 -9.453125 C 7.1875 -9.734375 6.65625 -9.96875 5.984375 -9.96875 C 4.75 -9.96875 3.609375 -9.21875 3.09375 -8.03125 L 3.09375 -9.75 L 1.640625 -9.75 Z M 1.640625 0 "/></g></g></g><g fill="#faf8f4" fill-opacity="1"><g transform="translate(189.273457, 249.078408)"><g><path d="M 5.4375 0.203125 C 8.1875 0.203125 10.09375 -2.125 10.09375 -4.90625 C 10.09375 -7.671875 8.1875 -9.96875 5.4375 -9.96875 C 2.6875 -9.96875 0.84375 -7.671875 0.84375 -4.90625 C 0.84375 -2.125 2.6875 0.203125 5.4375 0.203125 Z M 5.453125 -1.015625 C 3.296875 -1.015625 2.3125 -2.9375 2.3125 -4.90625 C 2.3125 -6.859375 3.296875 -8.75 5.46875 -8.75 C 7.640625 -8.75 8.609375 -6.859375 8.609375 -4.90625 C 8.609375 -2.96875 7.640625 -1.015625 5.453125 -1.015625 Z M 5.453125 -1.015625 "/></g></g></g><g fill="#faf8f4" fill-opacity="1"><g transform="translate(199.676925, 249.078408)"><g><path d="M 4.34375 0.203125 C 6.03125 0.203125 7.703125 -0.765625 7.703125 -2.78125 C 7.703125 -6.375 2.4375 -5.1875 2.4375 -7.4375 C 2.4375 -8.234375 3.09375 -8.78125 4.140625 -8.78125 C 5.1875 -8.78125 5.90625 -8.25 6.3125 -7.40625 L 7.390625 -8.015625 C 6.796875 -9.1875 5.6875 -9.96875 4.1875 -9.96875 C 2.53125 -9.96875 1.09375 -9.015625 1.09375 -7.25 C 1.09375 -3.953125 6.28125 -5.234375 6.28125 -2.609375 C 6.28125 -1.546875 5.46875 -1 4.359375 -1 C 3.0625 -1 2.28125 -1.8125 1.9375 -2.859375 L 0.703125 -2.21875 C 1.15625 -0.921875 2.515625 0.203125 4.34375 0.203125 Z M 4.34375 0.203125 "/></g></g></g><g fill="#faf8f4" fill-opacity="1"><g transform="translate(207.63018, 249.078408)"><g/></g></g><g fill="#faf8f4" fill-opacity="1"><g transform="translate(212.391322, 249.078408)"><g><path d="M 5.28125 0.140625 C 6.84375 0.140625 7.953125 -0.3125 9.015625 -1.390625 L 8.015625 -2.1875 C 7.25 -1.375 6.390625 -1.140625 5.28125 -1.140625 C 3.375 -1.140625 2.40625 -2.640625 2.421875 -4.390625 L 9.21875 -4.390625 C 9.234375 -4.5625 9.265625 -4.890625 9.265625 -5.140625 C 9.265625 -7.390625 8.296875 -9.890625 5.125 -9.890625 C 2.296875 -9.890625 0.890625 -7.4375 0.890625 -4.828125 C 0.890625 -2.171875 2.3125 0.140625 5.28125 0.140625 Z M 2.421875 -5.578125 C 2.5 -7.234375 3.34375 -8.6875 5.125 -8.6875 C 7.125 -8.6875 7.828125 -7.140625 7.875 -5.578125 Z M 2.421875 -5.578125 "/></g></g></g><g fill="#faf8f4" fill-opacity="1"><g transform="translate(222.004084, 249.078408)"><g><path d="M 1.640625 0 L 3.09375 0 L 3.09375 -5.0625 C 3.09375 -7.484375 4.3125 -8.6875 5.84375 -8.6875 C 7.5625 -8.6875 8.0625 -7.125 8.0625 -5.78125 L 8.0625 0 L 9.515625 0 L 9.515625 -5.921875 C 9.515625 -8.078125 8.5625 -9.9375 6.234375 -9.9375 C 4.828125 -9.9375 3.734375 -9.203125 3.09375 -8.0625 L 3.09375 -9.75 L 1.640625 -9.75 Z M 1.640625 0 "/></g></g></g><g fill="#faf8f4" fill-opacity="1"><g transform="translate(232.407564, 249.078408)"><g/></g></g><g fill="#faf8f4" fill-opacity="1"><g transform="translate(237.168718, 249.078408)"><g><path d="M 5.28125 0.140625 C 6.84375 0.140625 7.953125 -0.3125 9.015625 -1.390625 L 8.015625 -2.1875 C 7.25 -1.375 6.390625 -1.140625 5.28125 -1.140625 C 3.375 -1.140625 2.40625 -2.640625 2.421875 -4.390625 L 9.21875 -4.390625 C 9.234375 -4.5625 9.265625 -4.890625 9.265625 -5.140625 C 9.265625 -7.390625 8.296875 -9.890625 5.125 -9.890625 C 2.296875 -9.890625 0.890625 -7.4375 0.890625 -4.828125 C 0.890625 -2.171875 2.3125 0.140625 5.28125 0.140625 Z M 2.421875 -5.578125 C 2.5 -7.234375 3.34375 -8.6875 5.125 -8.6875 C 7.125 -8.6875 7.828125 -7.140625 7.875 -5.578125 Z M 2.421875 -5.578125 "/></g></g></g><g fill="#faf8f4" fill-opacity="1"><g transform="translate(246.78148, 249.078408)"><g><path d="M 3.5625 -1.078125 C 3.125 -1.078125 3.09375 -1.609375 3.09375 -1.625 L 3.09375 -13.796875 L 1.609375 -13.796875 L 1.609375 -1.96875 C 1.609375 -0.796875 1.71875 0.203125 3.1875 0.203125 C 3.6875 0.203125 4.203125 0.09375 4.515625 0 L 4.515625 -1.171875 C 4.296875 -1.140625 3.90625 -1.078125 3.5625 -1.078125 Z M 3.5625 -1.078125 "/></g></g></g><g fill="#faf8f4" fill-opacity="1"><g transform="translate(251.318101, 249.078408)"><g/></g></g><g fill="#faf8f4" fill-opacity="1"><g transform="translate(256.079255, 249.078408)"><g><path d="M 2.078125 0 L 11 0 L 11 -1.421875 L 3.625 -1.421875 L 3.625 -6.265625 L 10.046875 -6.265625 L 10.046875 -7.5625 L 3.625 -7.5625 L 3.625 -12.46875 L 11 -12.46875 L 11 -13.796875 L 2.078125 -13.796875 Z M 2.078125 0 "/></g></g></g><g fill="#faf8f4" fill-opacity="1"><g transform="translate(267.654153, 249.078408)"><g><path d="M 5.140625 0.203125 C 6.90625 0.203125 8.234375 -0.765625 8.8125 -2.390625 L 7.546875 -2.9375 C 7.25 -1.78125 6.296875 -1.03125 5.125 -1.03125 C 3.078125 -1.03125 2.390625 -3.078125 2.390625 -4.859375 C 2.390625 -6.625 3.09375 -8.734375 5.125 -8.734375 C 6.296875 -8.734375 7.25 -7.953125 7.546875 -6.78125 L 8.921875 -7.359375 C 8.234375 -8.96875 6.890625 -9.96875 5.125 -9.96875 C 2.3125 -9.96875 0.90625 -7.484375 0.90625 -4.859375 C 0.90625 -2.21875 2.328125 0.203125 5.140625 0.203125 Z M 5.140625 0.203125 "/></g></g></g><g fill="#faf8f4" fill-opacity="1"><g transform="translate(276.642159, 249.078408)"><g><path d="M 4.75 0.21875 C 6.296875 0.21875 7.421875 -0.8125 7.8125 -1.65625 L 7.8125 0 L 9.265625 0 L 9.265625 -9.75 L 7.8125 -9.75 L 7.8125 -4.359375 C 7.8125 -2.4375 6.46875 -1.015625 4.90625 -1.015625 C 3.234375 -1.015625 2.859375 -2.59375 2.859375 -4 L 2.859375 -9.75 L 1.390625 -9.75 L 1.390625 -4.09375 C 1.390625 -1.65625 2.34375 0.21875 4.75 0.21875 Z M 4.75 0.21875 "/></g></g></g><g fill="#faf8f4" fill-opacity="1"><g transform="translate(287.026115, 249.078408)"><g><path d="M 3.921875 0.203125 C 5.296875 0.203125 6.625 -0.421875 7.34375 -1.890625 L 7.375 0 L 8.609375 0 L 8.609375 -5.984375 C 8.609375 -8.359375 7.28125 -9.96875 4.796875 -9.96875 C 3.1875 -9.96875 2 -9.265625 1.109375 -8.046875 L 2.171875 -7.21875 C 2.640625 -7.890625 3.484375 -8.6875 4.890625 -8.6875 C 6.65625 -8.6875 7.28125 -7.40625 7.28125 -5.578125 L 5.046875 -5.578125 C 2.28125 -5.578125 0.75 -4.671875 0.75 -2.71875 C 0.75 -0.875 2.078125 0.203125 3.921875 0.203125 Z M 4.078125 -1.03125 C 3.0625 -1.03125 2.25 -1.515625 2.25 -2.671875 C 2.25 -3.96875 3.25 -4.46875 5.1875 -4.46875 L 7.28125 -4.46875 C 7.28125 -2.90625 6.078125 -1.03125 4.078125 -1.03125 Z M 4.078125 -1.03125 "/></g></g></g><g fill="#faf8f4" fill-opacity="1"><g transform="translate(296.511985, 249.078408)"><g><path d="M 7.90625 -13.796875 L 7.90625 -8.421875 C 7.25 -9.359375 6.265625 -9.96875 4.84375 -9.96875 C 2.359375 -9.96875 0.9375 -7.671875 0.9375 -4.890625 C 0.9375 -2.09375 2.359375 0.203125 4.859375 0.203125 C 6.328125 0.203125 7.265625 -0.4375 7.90625 -1.359375 L 7.9375 0 L 9.359375 0 L 9.359375 -13.796875 Z M 5.21875 -1.03125 C 3.265625 -1.03125 2.4375 -2.890625 2.4375 -4.890625 C 2.4375 -6.859375 3.265625 -8.734375 5.21875 -8.734375 C 7.21875 -8.734375 8.015625 -6.859375 8.015625 -4.890625 C 8.015625 -2.875 7.21875 -1.03125 5.21875 -1.03125 Z M 5.21875 -1.03125 "/></g></g></g><g fill="#faf8f4" fill-opacity="1"><g transform="translate(307.013083, 249.078408)"><g><path d="M 5.4375 0.203125 C 8.1875 0.203125 10.09375 -2.125 10.09375 -4.90625 C 10.09375 -7.671875 8.1875 -9.96875 5.4375 -9.96875 C 2.6875 -9.96875 0.84375 -7.671875 0.84375 -4.90625 C 0.84375 -2.125 2.6875 0.203125 5.4375 0.203125 Z M 5.453125 -1.015625 C 3.296875 -1.015625 2.3125 -2.9375 2.3125 -4.90625 C 2.3125 -6.859375 3.296875 -8.75 5.46875 -8.75 C 7.640625 -8.75 8.609375 -6.859375 8.609375 -4.90625 C 8.609375 -2.96875 7.640625 -1.015625 5.453125 -1.015625 Z M 5.453125 -1.015625 "/></g></g></g><g fill="#faf8f4" fill-opacity="1"><g transform="translate(317.416563, 249.078408)"><g><path d="M 1.640625 0 L 3.078125 0 L 3.078125 -4.875 C 3.078125 -7.234375 4.078125 -8.5625 5.75 -8.5625 C 6.203125 -8.5625 6.609375 -8.46875 6.9375 -8.1875 L 7.546875 -9.453125 C 7.1875 -9.734375 6.65625 -9.96875 5.984375 -9.96875 C 4.75 -9.96875 3.609375 -9.21875 3.09375 -8.03125 L 3.09375 -9.75 L 1.640625 -9.75 Z M 1.640625 0 "/></g></g></g><g fill="#faf8f4" fill-opacity="1"><g transform="translate(324.657217, 249.078408)"><g><path d="M 2.265625 0 L 4.203125 0 L 4.203125 -1.890625 L 2.265625 -1.890625 Z M 2.265625 0 "/></g></g></g></svg>