<svg xmlns="http://www.w3.org/2000/svg" xmlns:xlink="http://www.w3.org/1999/xlink" width="1280" zoomAndPan="magnify" viewBox="0 0 960 599.999999" height="800" preserveAspectRatio="xMidYMid meet" version="1.0"><defs><g/><clipPath id="103f6a3fa9"><path d="M 246.195312 188.078125 L 734 188.078125 L 734 266.546875 L 246.195312 266.546875 Z M 246.195312 188.078125 " clip-rule="nonzero"/></clipPath><clipPath id="1afae9d736"><path d="M 283.695312 188.078125 L 696.375 188.078125 C 706.320312 188.078125 715.855469 192.03125 722.890625 199.0625 C 729.921875 206.09375 733.875 215.632812 733.875 225.578125 L 733.875 229.046875 C 733.875 238.992188 729.921875 248.53125 722.890625 255.5625 C 715.855469 262.59375 706.320312 266.546875 696.375 266.546875 L 283.695312 266.546875 C 273.75 266.546875 264.214844 262.59375 257.179688 255.5625 C 250.148438 248.53125 246.195312 238.992188 246.195312 229.046875 L 246.195312 225.578125 C 246.195312 215.632812 250.148438 206.09375 257.179688 199.0625 C 264.214844 192.03125 273.75 188.078125 283.695312 188.078125 Z M 283.695312 188.078125 " clip-rule="nonzero"/></clipPath><clipPath id="80daf7c54f"><path d="M 246.222656 188.078125 L 733.695312 188.078125 L 733.695312 266.828125 L 246.222656 266.828125 Z M 246.222656 188.078125 " clip-rule="nonzero"/></clipPath><clipPath id="9d48def5dd"><path d="M 283.71875 188.078125 L 696.347656 188.078125 C 706.292969 188.078125 715.832031 192.03125 722.863281 199.0625 C 729.894531 206.09375 733.84375 215.628906 733.84375 225.574219 L 733.84375 229.039062 C 733.84375 238.984375 729.894531 248.523438 722.863281 255.554688 C 715.832031 262.585938 706.292969 266.535156 696.347656 266.535156 L 283.71875 266.535156 C 273.777344 266.535156 264.238281 262.585938 257.207031 255.554688 C 250.175781 248.523438 246.222656 238.984375 246.222656 229.039062 L 246.222656 225.574219 C 246.222656 215.628906 250.175781 206.09375 257.207031 199.0625 C 264.238281 192.03125 273.777344 188.078125 283.71875 188.078125 Z M 283.71875 188.078125 " clip-rule="nonzero"/></clipPath></defs><g clip-path="url(#103f6a3fa9)"><g clip-path="url(#1afae9d736)"><path fill="#151d42" d="M 246.195312 188.078125 L 733.851562 188.078125 L 733.851562 266.546875 L 246.195312 266.546875 Z M 246.195312 188.078125 " fill-opacity="1" fill-rule="nonzero"/></g></g><g clip-path="url(#80daf7c54f)"><g clip-path="url(#9d48def5dd)"><path stroke-linecap="butt" transform="matrix(0.75, 0, 0, 0.75, 246.224404, 188.079475)" fill="none" stroke-linejoin="miter" d="M 49.992463 -0.00180023 L 600.164361 -0.00180023 C 613.424779 -0.00180023 626.143529 5.269033 635.51853 14.644034 C 644.89353 24.019034 650.159155 36.732576 650.159155 49.992994 L 650.159155 54.612785 C 650.159155 67.873203 644.89353 80.591953 635.51853 89.966954 C 626.143529 99.341954 613.424779 104.607579 600.164361 104.607579 L 49.992463 104.607579 C 36.737254 104.607579 24.018504 99.341954 14.643503 89.966954 C 5.268503 80.591953 -0.00233083 67.873203 -0.00233083 54.612785 L -0.00233083 49.992994 C -0.00233083 36.732576 5.268503 24.019034 14.643503 14.644034 C 24.018504 5.269033 36.737254 -0.00180023 49.992463 -0.00180023 Z M 49.992463 -0.00180023 " stroke="#faf8f4" stroke-width="2" stroke-opacity="1" stroke-miterlimit="4"/></g></g><g fill="#faf8f4" fill-opacity="1"><g transform="translate(393.42401, 240.406768)"><g><path d="M 15.359375 0.40625 C 19.125 0.40625 22.21875 -1.328125 23.734375 -3.984375 L 24.1875 0 L 28.203125 0 L 28.203125 -15.3125 L 16.84375 -15.3125 L 16.84375 -11.203125 L 23.28125 -11.203125 C 22.71875 -6.890625 19.421875 -4.15625 15.359375 -4.15625 C 9.28125 -4.15625 6.703125 -8.734375 6.703125 -14.375 C 6.703125 -19.625 9.28125 -24.34375 15.28125 -24.34375 C 18.890625 -24.34375 21.859375 -22.609375 23.15625 -18.765625 L 27.671875 -20.65625 C 25.390625 -25.9375 20.890625 -28.796875 15.3125 -28.796875 C 5.953125 -28.796875 1.640625 -21.9375 1.640625 -14.171875 C 1.640625 -6.390625 6.03125 0.40625 15.359375 0.40625 Z M 15.359375 0.40625 "/></g></g></g><g fill="#faf8f4" fill-opacity="1"><g transform="translate(422.034381, 240.406768)"><g><path d="M 9.609375 0.40625 C 11.984375 0.40625 14.078125 -0.46875 15.515625 -2.34375 L 15.515625 0 L 20.484375 0 L 20.484375 -20.03125 L 15.515625 -20.03125 L 15.515625 -11 C 15.515625 -5.21875 13.171875 -4.03125 10.890625 -4.03125 C 7.921875 -4.03125 7.265625 -6.03125 7.265625 -9.328125 L 7.265625 -20.03125 L 2.3125 -20.03125 L 2.3125 -9.484375 C 2.3125 -3.453125 4.546875 0.40625 9.609375 0.40625 Z M 9.609375 0.40625 "/></g></g></g><g fill="#faf8f4" fill-opacity="1"><g transform="translate(443.289036, 240.406768)"><g><path d="M 2.78125 -22.53125 L 6.359375 -22.53125 L 12.515625 -28.328125 L 7.296875 -28.328125 Z M 2.90625 0 L 7.4375 0 L 7.4375 -20.03125 L 2.90625 -20.03125 Z M 2.90625 0 "/></g></g></g><g fill="#faf8f4" fill-opacity="1"><g transform="translate(451.495777, 240.406768)"><g><path d="M 8.375 0.40625 C 10.765625 0.40625 12.890625 -0.359375 14.609375 -2.859375 L 14.9375 0 L 18.96875 0 L 18.96875 -12.15625 C 18.96875 -17.046875 15.765625 -20.453125 10.3125 -20.453125 C 6.359375 -20.453125 3.8125 -18.6875 1.890625 -16.0625 L 5.640625 -13.359375 C 6.5 -14.8125 8.046875 -16.1875 10.34375 -16.1875 C 12.9375 -16.1875 14.296875 -14.5 14.296875 -11.953125 L 9.078125 -11.953125 C 4.59375 -11.953125 1.109375 -10.5 1.109375 -6.15625 C 1.109375 -1.96875 4.265625 0.40625 8.375 0.40625 Z M 9.078125 -3.734375 C 7.171875 -3.734375 6.109375 -4.671875 6.109375 -6 C 6.109375 -7.265625 7.140625 -8.421875 9.359375 -8.421875 L 14.296875 -8.421875 C 14.21875 -5.921875 11.875 -3.734375 9.078125 -3.734375 Z M 9.078125 -3.734375 "/></g></g></g><g fill="#faf8f4" fill-opacity="1"><g transform="translate(470.625886, 240.406768)"><g/></g></g><g fill="#faf8f4" fill-opacity="1"><g transform="translate(478.3516, 240.406768)"><g><path d="M 15.5625 -28.328125 L 15.5625 -18.03125 C 14.171875 -19.75 11.953125 -20.453125 9.859375 -20.453125 C 4.3125 -20.453125 1.265625 -15.5625 1.265625 -10.03125 C 1.265625 -4.4375 4.3125 0.40625 9.9375 0.40625 C 12.171875 0.40625 14.375 -0.359375 15.765625 -2.25 L 15.984375 0 L 20.53125 0 L 20.53125 -28.328125 Z M 11.125 -4.03125 C 7.765625 -4.03125 6.234375 -6.65625 6.234375 -10.03125 C 6.234375 -13.359375 7.765625 -16.015625 11.125 -16.015625 C 14.5 -16.015625 15.984375 -13.390625 15.984375 -10.03125 C 15.984375 -6.609375 14.5 -4.03125 11.125 -4.03125 Z M 11.125 -4.03125 "/></g></g></g><g fill="#faf8f4" fill-opacity="1"><g transform="translate(499.686429, 240.406768)"><g><path d="M 11.25 0.40625 C 14.609375 0.40625 17.28125 -0.78125 19.46875 -3.203125 L 16.09375 -6.15625 C 14.703125 -4.59375 13.09375 -4.03125 11.28125 -4.03125 C 8.140625 -4.03125 6.703125 -5.796875 6.28125 -8.421875 L 20.03125 -8.421875 C 20.125 -8.703125 20.203125 -9.53125 20.203125 -10.34375 C 20.203125 -14.8125 17.9375 -20.453125 10.921875 -20.453125 C 4.15625 -20.453125 1.109375 -15.15625 1.109375 -9.9375 C 1.109375 -4.546875 4.34375 0.40625 11.25 0.40625 Z M 6.28125 -11.953125 C 6.734375 -14.453125 8 -16.34375 10.890625 -16.34375 C 13.4375 -16.34375 15.078125 -14.8125 15.40625 -11.953125 Z M 6.28125 -11.953125 "/></g></g></g><g fill="#faf8f4" fill-opacity="1"><g transform="translate(518.936802, 240.406768)"><g/></g></g><g fill="#faf8f4" fill-opacity="1"><g transform="translate(526.662521, 240.406768)"><g><path d="M 9.609375 0.40625 C 11.984375 0.40625 14.078125 -0.46875 15.515625 -2.34375 L 15.515625 0 L 20.484375 0 L 20.484375 -20.03125 L 15.515625 -20.03125 L 15.515625 -11 C 15.515625 -5.21875 13.171875 -4.03125 10.890625 -4.03125 C 7.921875 -4.03125 7.265625 -6.03125 7.265625 -9.328125 L 7.265625 -20.03125 L 2.3125 -20.03125 L 2.3125 -9.484375 C 2.3125 -3.453125 4.546875 0.40625 9.609375 0.40625 Z M 9.609375 0.40625 "/></g></g></g><g fill="#faf8f4" fill-opacity="1"><g transform="translate(547.917179, 240.406768)"><g><path d="M 8.9375 0.40625 C 12.734375 0.40625 16.765625 -1.640625 16.765625 -6.28125 C 16.765625 -13.640625 6.578125 -11.828125 6.578125 -14.859375 C 6.578125 -15.796875 7.5625 -16.578125 9.15625 -16.578125 C 11.328125 -16.578125 12.453125 -15.28125 13.125 -14.03125 L 16.921875 -16.09375 C 15.40625 -18.8125 12.765625 -20.453125 9.328125 -20.453125 C 5.453125 -20.453125 1.890625 -18.453125 1.890625 -14.21875 C 1.890625 -7.140625 11.953125 -9.40625 11.953125 -6.03125 C 11.953125 -4.96875 10.96875 -3.65625 8.703125 -3.65625 C 6.03125 -3.65625 4.96875 -5.5 4.4375 -6.9375 L 0.546875 -5.21875 C 1.53125 -2.125 4.734375 0.40625 8.9375 0.40625 Z M 8.9375 0.40625 "/></g></g></g><g fill="#faf8f4" fill-opacity="1"><g transform="translate(564.000781, 240.406768)"><g><path d="M 11.28125 0.40625 C 17.484375 0.40625 21.546875 -4.390625 21.546875 -10.0625 C 21.546875 -15.71875 17.484375 -20.453125 11.28125 -20.453125 C 5.09375 -20.453125 1.015625 -15.71875 1.015625 -10.0625 C 1.015625 -4.390625 5.09375 0.40625 11.28125 0.40625 Z M 11.28125 -3.8125 C 7.59375 -3.8125 6.109375 -6.78125 6.109375 -10.0625 C 6.109375 -13.359375 7.59375 -16.21875 11.28125 -16.21875 C 15 -16.21875 16.46875 -13.359375 16.46875 -10.0625 C 16.46875 -6.78125 15 -3.8125 11.28125 -3.8125 Z M 11.28125 -3.8125 "/></g></g></g></svg>