<svg xmlns="http://www.w3.org/2000/svg" xmlns:xlink="http://www.w3.org/1999/xlink" width="500" zoomAndPan="magnify" viewBox="0 0 375 374.999991" height="500" preserveAspectRatio="xMidYMid meet" version="1.0"><defs><g/><clipPath id="761b75bdf8"><path d="M 56.25 19.363281 L 318.75 19.363281 L 318.75 281.863281 L 56.25 281.863281 Z M 56.25 19.363281 " clip-rule="nonzero"/></clipPath></defs><g clip-path="url(#761b75bdf8)"><path fill="#ffffff" d="M 187.5 19.363281 C 115.011719 19.363281 56.25 78.125 56.25 150.613281 C 56.25 223.101562 115.011719 281.863281 187.5 281.863281 C 259.988281 281.863281 318.75 223.101562 318.75 150.613281 C 318.75 78.125 259.988281 19.363281 187.5 19.363281 Z M 263.820312 154.324219 C 260.078125 158.0625 254.558594 158.933594 249.984375 156.9375 L 249.984375 206.722656 C 249.984375 217.074219 241.59375 225.464844 231.238281 225.464844 L 143.761719 225.464844 C 133.40625 225.464844 125.015625 217.074219 125.015625 206.722656 L 125.015625 156.9375 C 120.441406 158.933594 114.921875 158.0625 111.179688 154.324219 C 106.300781 149.441406 106.300781 141.53125 111.179688 136.648438 L 178.664062 69.164062 C 183.542969 64.285156 191.457031 64.285156 196.335938 69.164062 L 263.820312 136.648438 C 268.699219 141.527344 268.699219 149.441406 263.820312 154.324219 Z M 263.820312 154.324219 " fill-opacity="1" fill-rule="nonzero"/></g><path fill="#ffffff" d="M 203.121094 156.734375 L 171.878906 156.734375 C 168.425781 156.734375 165.628906 159.53125 165.628906 162.980469 L 165.628906 200.472656 C 165.628906 203.921875 168.425781 206.722656 171.878906 206.722656 L 203.121094 206.722656 C 206.570312 206.722656 209.371094 203.921875 209.371094 200.472656 L 209.371094 162.980469 C 209.371094 159.53125 206.570312 156.734375 203.121094 156.734375 Z M 203.121094 156.734375 " fill-opacity="1" fill-rule="nonzero"/><g fill="#ffffff" fill-opacity="1"><g transform="translate(130.874996, 336.334108)"><g><path d="M 27 0 L 20.953125 0 L 20.953125 -12.328125 L 9.65625 -12.328125 L 9.65625 0 L 3.59375 0 L 3.59375 -28.5625 L 9.65625 -28.5625 L 9.65625 -17.359375 L 20.953125 -17.359375 L 20.953125 -28.5625 L 27 -28.5625 Z M 27 0 "/></g></g></g><g fill="#ffffff" fill-opacity="1"><g transform="translate(161.477479, 336.334108)"><g><path d="M 29.515625 -14.3125 C 29.515625 -9.59375 28.34375 -5.960938 26 -3.421875 C 23.65625 -0.878906 20.296875 0.390625 15.921875 0.390625 C 11.546875 0.390625 8.1875 -0.878906 5.84375 -3.421875 C 3.5 -5.960938 2.328125 -9.609375 2.328125 -14.359375 C 2.328125 -19.109375 3.5 -22.734375 5.84375 -25.234375 C 8.195312 -27.742188 11.566406 -29 15.953125 -29 C 20.347656 -29 23.707031 -27.734375 26.03125 -25.203125 C 28.351562 -22.679688 29.515625 -19.050781 29.515625 -14.3125 Z M 8.671875 -14.3125 C 8.671875 -11.125 9.273438 -8.722656 10.484375 -7.109375 C 11.703125 -5.492188 13.515625 -4.6875 15.921875 -4.6875 C 20.753906 -4.6875 23.171875 -7.894531 23.171875 -14.3125 C 23.171875 -20.75 20.765625 -23.96875 15.953125 -23.96875 C 13.546875 -23.96875 11.726562 -23.15625 10.5 -21.53125 C 9.28125 -19.914062 8.671875 -17.507812 8.671875 -14.3125 Z M 8.671875 -14.3125 "/></g></g></g><g fill="#ffffff" fill-opacity="1"><g transform="translate(193.310306, 336.334108)"><g><path d="M 15.6875 0 L 8.8125 -22.40625 L 8.640625 -22.40625 C 8.878906 -17.84375 9 -14.800781 9 -13.28125 L 9 0 L 3.59375 0 L 3.59375 -28.5625 L 11.84375 -28.5625 L 18.59375 -6.71875 L 18.71875 -6.71875 L 25.875 -28.5625 L 34.125 -28.5625 L 34.125 0 L 28.484375 0 L 28.484375 -13.515625 C 28.484375 -14.148438 28.488281 -14.882812 28.5 -15.71875 C 28.519531 -16.550781 28.609375 -18.765625 28.765625 -22.359375 L 28.59375 -22.359375 L 21.234375 0 Z M 15.6875 0 "/></g></g></g><g fill="#ffffff" fill-opacity="1"><g transform="translate(231.021469, 336.334108)"><g><path d="M 20.046875 0 L 3.59375 0 L 3.59375 -28.5625 L 20.046875 -28.5625 L 20.046875 -23.59375 L 9.65625 -23.59375 L 9.65625 -17.328125 L 19.3125 -17.328125 L 19.3125 -12.359375 L 9.65625 -12.359375 L 9.65625 -5 L 20.046875 -5 Z M 20.046875 0 "/></g></g></g></svg>