<svg xmlns="http://www.w3.org/2000/svg" xmlns:xlink="http://www.w3.org/1999/xlink" width="500" zoomAndPan="magnify" viewBox="0 0 375 374.999991" height="500" preserveAspectRatio="xMidYMid meet" version="1.0"><defs><clipPath id="d23de4912f"><path d="M 192.9375 103.046875 L 209.824219 103.046875 L 209.824219 183 L 192.9375 183 Z M 192.9375 103.046875 " clip-rule="nonzero"/></clipPath><clipPath id="e4e8ba25ff"><path d="M 201.4375 103.132812 C 199.214844 103.40625 196.988281 103.667969 194.769531 103.933594 C 198.628906 125.847656 197.988281 148.070312 192.984375 169.386719 C 195.003906 173.785156 196.878906 178.289062 198.539062 182.886719 C 202.1875 179.230469 205.683594 175.421875 209.058594 171.472656 C 211.160156 148.421875 208.511719 125.222656 201.4375 103.132812 Z M 201.4375 103.132812 " clip-rule="nonzero"/></clipPath><clipPath id="8046fe03ce"><path d="M 201.4375 103.132812 C 199.214844 103.402344 196.988281 103.667969 194.769531 103.933594 C 198.628906 125.847656 197.988281 148.070312 192.984375 169.386719 C 195.003906 173.785156 196.878906 178.289062 198.539062 182.886719 C 202.1875 179.230469 205.683594 175.421875 209.058594 171.472656 C 211.160156 148.421875 208.511719 125.222656 201.4375 103.132812 " clip-rule="nonzero"/></clipPath><clipPath id="694720984b"><path d="M 191.9375 182.871094 L 211.15625 183.125 L 212.207031 103.148438 L 192.988281 102.898438 Z M 191.9375 182.871094 " clip-rule="nonzero"/></clipPath><linearGradient x1="-0.000762966" gradientTransform="matrix(1.049206, -79.774633, 79.935804, 1.047091, 201.13098, 182.931566)" y1="0" x2="1.001534" gradientUnits="userSpaceOnUse" y2="0" id="4e9d7682fd"><stop stop-opacity="1" stop-color="rgb(68.598938%, 20.799255%, 21.199036%)" offset="0"/><stop stop-opacity="1" stop-color="rgb(68.598938%, 20.799255%, 21.199036%)" offset="0.5"/><stop stop-opacity="1" stop-color="rgb(68.598938%, 20.799255%, 21.199036%)" offset="0.625"/><stop stop-opacity="1" stop-color="rgb(68.499756%, 20.799255%, 21.199036%)" offset="0.640625"/><stop stop-opacity="1" stop-color="rgb(68.299866%, 20.799255%, 21.199036%)" offset="0.65625"/><stop stop-opacity="1" stop-color="rgb(68.199158%, 20.799255%, 21.199036%)" offset="0.671875"/><stop stop-opacity="1" stop-color="rgb(68.199158%, 20.799255%, 21.199036%)" offset="0.679687"/><stop stop-opacity="1" stop-color="rgb(68.199158%, 20.599365%, 21.199036%)" offset="0.683594"/><stop stop-opacity="1" stop-color="rgb(68.199158%, 20.399475%, 21.199036%)" offset="0.6875"/><stop stop-opacity="1" stop-color="rgb(68.196106%, 20.399475%, 21.195984%)" offset="0.695312"/><stop stop-opacity="1" stop-color="rgb(67.996216%, 20.399475%, 20.996094%)" offset="0.699219"/><stop stop-opacity="1" stop-color="rgb(67.799377%, 20.399475%, 20.799255%)" offset="0.703125"/><stop stop-opacity="1" stop-color="rgb(67.668152%, 20.225525%, 20.799255%)" offset="0.71875"/><stop stop-opacity="1" stop-color="rgb(67.518616%, 20.207214%, 20.799255%)" offset="0.726562"/><stop stop-opacity="1" stop-color="rgb(67.298889%, 20.181274%, 20.799255%)" offset="0.730469"/><stop stop-opacity="1" stop-color="rgb(67.098999%, 19.999695%, 20.799255%)" offset="0.734375"/><stop stop-opacity="1" stop-color="rgb(67.098999%, 19.999695%, 20.605469%)" offset="0.75"/><stop stop-opacity="1" stop-color="rgb(66.923523%, 19.999695%, 20.405579%)" offset="0.757812"/><stop stop-opacity="1" stop-color="rgb(66.723633%, 19.816589%, 20.399475%)" offset="0.765625"/><stop stop-opacity="1" stop-color="rgb(66.696167%, 19.616699%, 20.396423%)" offset="0.773438"/><stop stop-opacity="1" stop-color="rgb(66.497803%, 19.599915%, 20.198059%)" offset="0.78125"/><stop stop-opacity="1" stop-color="rgb(66.113281%, 19.599915%, 20.001221%)" offset="0.789062"/><stop stop-opacity="1" stop-color="rgb(65.911865%, 19.410706%, 19.999695%)" offset="0.796875"/><stop stop-opacity="1" stop-color="rgb(65.731812%, 19.20929%, 19.831848%)" offset="0.804688"/><stop stop-opacity="1" stop-color="rgb(65.531921%, 19.198608%, 19.631958%)" offset="0.8125"/><stop stop-opacity="1" stop-color="rgb(65.499878%, 18.998718%, 19.599915%)" offset="0.816406"/><stop stop-opacity="1" stop-color="rgb(65.499878%, 18.800354%, 19.599915%)" offset="0.820312"/><stop stop-opacity="1" stop-color="rgb(65.298462%, 18.798828%, 19.410706%)" offset="0.824219"/><stop stop-opacity="1" stop-color="rgb(65.098572%, 18.798828%, 19.221497%)" offset="0.828125"/><stop stop-opacity="1" stop-color="rgb(65.098572%, 18.798828%, 19.20929%)" offset="0.835938"/><stop stop-opacity="1" stop-color="rgb(64.898682%, 18.629456%, 19.198608%)" offset="0.839844"/><stop stop-opacity="1" stop-color="rgb(64.698792%, 18.460083%, 19.198608%)" offset="0.84375"/><stop stop-opacity="1" stop-color="rgb(64.698792%, 18.429565%, 19.198608%)" offset="0.851562"/><stop stop-opacity="1" stop-color="rgb(64.299011%, 18.199158%, 18.998718%)" offset="0.855469"/><stop stop-opacity="1" stop-color="rgb(63.899231%, 17.999268%, 18.798828%)" offset="0.859375"/><stop stop-opacity="1" stop-color="rgb(63.899231%, 17.999268%, 18.617249%)" offset="0.875"/><stop stop-opacity="1" stop-color="rgb(63.713074%, 17.81311%, 18.417358%)" offset="0.882812"/><stop stop-opacity="1" stop-color="rgb(63.513184%, 17.61322%, 18.399048%)" offset="0.890625"/><stop stop-opacity="1" stop-color="rgb(63.09967%, 17.448425%, 18.199158%)" offset="0.894531"/><stop stop-opacity="1" stop-color="rgb(62.69989%, 17.298889%, 17.999268%)" offset="0.898438"/><stop stop-opacity="1" stop-color="rgb(62.69989%, 17.298889%, 17.999268%)" offset="0.90625"/><stop stop-opacity="1" stop-color="rgb(62.548828%, 17.298889%, 17.816162%)" offset="0.914062"/><stop stop-opacity="1" stop-color="rgb(62.399292%, 17.098999%, 17.616272%)" offset="0.917969"/><stop stop-opacity="1" stop-color="rgb(62.399292%, 16.899109%, 17.599487%)" offset="0.921875"/><stop stop-opacity="1" stop-color="rgb(62.034607%, 16.73584%, 17.448425%)" offset="0.925781"/><stop stop-opacity="1" stop-color="rgb(61.671448%, 16.572571%, 17.298889%)" offset="0.929688"/><stop stop-opacity="1" stop-color="rgb(61.634827%, 16.53595%, 17.298889%)" offset="0.9375"/><stop stop-opacity="1" stop-color="rgb(61.402893%, 16.499329%, 17.298889%)" offset="0.941406"/><stop stop-opacity="1" stop-color="rgb(61.206055%, 16.499329%, 17.298889%)" offset="0.945313"/><stop stop-opacity="1" stop-color="rgb(61.016846%, 16.499329%, 17.098999%)" offset="0.949219"/><stop stop-opacity="1" stop-color="rgb(60.829163%, 16.499329%, 16.899109%)" offset="0.953125"/><stop stop-opacity="1" stop-color="rgb(60.813904%, 16.311646%, 16.899109%)" offset="0.960938"/><stop stop-opacity="1" stop-color="rgb(60.598755%, 16.111755%, 16.699219%)" offset="0.964844"/><stop stop-opacity="1" stop-color="rgb(60.398865%, 16.099548%, 16.499329%)" offset="0.96875"/><stop stop-opacity="1" stop-color="rgb(60.198975%, 15.943909%, 16.343689%)" offset="0.972656"/><stop stop-opacity="1" stop-color="rgb(59.999084%, 15.788269%, 16.188049%)" offset="0.976563"/><stop stop-opacity="1" stop-color="rgb(59.799194%, 15.744019%, 16.143799%)" offset="0.980469"/><stop stop-opacity="1" stop-color="rgb(59.599304%, 15.699768%, 16.099548%)" offset="0.984375"/><stop stop-opacity="1" stop-color="rgb(59.405518%, 15.505981%, 16.099548%)" offset="0.992188"/><stop stop-opacity="1" stop-color="rgb(59.205627%, 15.306091%, 16.099548%)" offset="1"/></linearGradient><clipPath id="5bd5b4ad50"><path d="M 134.136719 97 L 174 97 L 174 171 L 134.136719 171 Z M 134.136719 97 " clip-rule="nonzero"/></clipPath><clipPath id="edc38fce11"><path d="M 243 119 L 273.636719 119 L 273.636719 167 L 243 167 Z M 243 119 " clip-rule="nonzero"/></clipPath><clipPath id="698fe7f9bc"><path d="M 244 122 L 273.636719 122 L 273.636719 170 L 244 170 Z M 244 122 " clip-rule="nonzero"/></clipPath></defs><path fill="#232323" d="M 257.820312 144.496094 C 254.753906 130.59375 244.929688 108.050781 240.6875 101.421875 C 238.027344 97.257812 226.179688 93.472656 223.6875 94.441406 C 216.875 99.523438 233.992188 141.136719 239.253906 148.847656 C 245.140625 157.476562 258.957031 149.644531 257.820312 144.496094 " fill-opacity="1" fill-rule="evenodd"/><path fill="#d4dadd" d="M 205.820312 352.527344 L 205.820312 340.703125 L 193.132812 340.703125 L 193.132812 353.957031 C 193.132812 353.957031 203.9375 355.527344 205.820312 352.527344 " fill-opacity="1" fill-rule="nonzero"/><path fill="#312522" d="M 192.226562 365.757812 C 192.226562 365.757812 192.210938 367.566406 193.320312 367.984375 C 194.429688 368.402344 199.546875 368.503906 203.144531 368.839844 C 206.742188 369.171875 210.25 370.824219 213.28125 372.347656 C 216.3125 373.867188 222.773438 374.792969 226.847656 374.550781 C 231.398438 374.28125 235.847656 372.40625 236.625 371.222656 C 237.402344 370.039062 236.535156 368.433594 236.535156 368.433594 L 192.226562 365.757812 " fill-opacity="1" fill-rule="nonzero"/><path fill="#574640" d="M 201.585938 348.886719 C 201.585938 348.886719 202.042969 350.554688 201.523438 351.238281 C 201.007812 351.925781 199.675781 353.566406 196.808594 352.339844 C 193.941406 351.117188 194.164062 348.953125 193.707031 348.503906 C 193.253906 348.054688 192.230469 349 192.203125 349.96875 C 192.171875 350.941406 190.945312 354.585938 190.699219 357.226562 C 190.265625 361.875 191.894531 365.265625 192.226562 365.757812 C 192.554688 366.246094 196.214844 367.273438 199.980469 367.082031 C 203.507812 366.902344 207.363281 367.84375 209.199219 368.90625 C 211.035156 369.964844 219.039062 372.746094 223.902344 372.996094 C 228.769531 373.242188 235.800781 371.066406 236.574219 369.984375 C 237.351562 368.902344 237.03125 366.773438 234.992188 365.792969 C 232.953125 364.816406 227.175781 361.070312 224.703125 359.546875 C 222.230469 358.023438 210.011719 351.875 208.632812 349.171875 C 207.257812 346.464844 207.492188 346.75 206.742188 346.199219 C 205.996094 345.652344 201.429688 347.09375 201.585938 348.886719 " fill-opacity="1" fill-rule="nonzero"/><path fill="#6b544b" d="M 232.65625 365.4375 C 232.65625 365.4375 229.289062 366.402344 226.195312 366.480469 C 223.101562 366.554688 219.199219 365.746094 218.925781 364.859375 C 218.65625 363.972656 222.328125 363.816406 224.84375 363.351562 C 227.355469 362.890625 228.867188 362.386719 228.867188 362.386719 L 233.273438 365.167969 L 232.65625 365.4375 " fill-opacity="1" fill-rule="nonzero"/><path fill="#d4dadd" d="M 170.84375 349.160156 L 170.84375 343.289062 L 157.8125 343.289062 L 157.8125 349.871094 C 157.8125 349.871094 168.910156 350.652344 170.84375 349.160156 " fill-opacity="1" fill-rule="nonzero"/><path fill="#312522" d="M 172.546875 360.277344 C 172.546875 360.277344 172.765625 361.070312 172.546875 361.234375 C 172.324219 361.398438 169.875 362.78125 169.453125 364.210938 C 169.03125 365.640625 168.632812 367.796875 167.457031 370.121094 C 166.285156 372.449219 163.148438 374.980469 155.851562 374.957031 C 146.761719 374.925781 144.640625 374.078125 143.972656 370.695312 C 143.300781 367.308594 172.546875 360.277344 172.546875 360.277344 " fill-opacity="1" fill-rule="nonzero"/><path fill="#574640" d="M 171.59375 349.511719 C 171.59375 349.511719 172.910156 351.894531 173.085938 354.34375 C 173.261719 356.789062 173 360.09375 172.339844 360.519531 C 171.679688 360.949219 169.394531 361.988281 169.042969 363.945312 C 168.691406 365.902344 167.457031 369.878906 163.414062 372.265625 C 159.367188 374.648438 149.339844 374.527344 145.734375 372.628906 C 142.128906 370.734375 143.710938 365.535156 147.40625 361.011719 C 151.101562 356.484375 156.421875 352.019531 156.246094 350.367188 C 156.070312 348.714844 156.023438 347.433594 156.90625 346.941406 C 157.785156 346.453125 162.386719 346.605469 165.640625 346.390625 C 167.25 346.285156 166.910156 348.367188 167.261719 348.980469 C 167.613281 349.59375 171.101562 348.480469 171.59375 349.511719 " fill-opacity="1" fill-rule="nonzero"/><path fill="#6b544b" d="M 162.503906 365.964844 C 162.503906 365.964844 159.808594 368.164062 153.121094 368.042969 C 146.4375 367.921875 145.03125 365.800781 146.027344 364.453125 C 147.023438 363.109375 164.792969 362.78125 162.503906 365.964844 " fill-opacity="1" fill-rule="nonzero"/><path fill="#2c3657" d="M 211.421875 282.914062 C 213.136719 269.117188 219.203125 243.59375 221.386719 225.253906 C 221.75 222.203125 224.046875 196.519531 223.769531 195.148438 C 222.511719 188.949219 189.949219 194.003906 185.300781 193.09375 C 181.25 192.292969 183.320312 222.210938 183.65625 227.410156 C 184.800781 245.152344 188.957031 268.339844 190.269531 282.222656 C 191.269531 292.714844 209.640625 297.242188 211.421875 282.914062 " fill-opacity="1" fill-rule="evenodd"/><path fill="#323d68" d="M 154.21875 346.734375 C 156.734375 349.53125 170.929688 349.015625 173.882812 347.777344 C 174.226562 337.6875 178.488281 311.449219 180.605469 298.574219 C 187.125 258.984375 159.046875 262.851562 157.511719 289.53125 C 156.464844 307.792969 155.398438 337.117188 154.21875 346.734375 " fill-opacity="1" fill-rule="evenodd"/><path fill="#323d68" d="M 180.640625 282.914062 C 182.917969 274.46875 187.457031 261.628906 191.75 248.730469 C 197.738281 230.734375 203.402344 210.203125 205.070312 192.171875 C 205.222656 190.5 161.589844 188.652344 160.734375 192.464844 C 159.375 198.550781 160.730469 228.023438 160.371094 236.703125 C 159.71875 252.648438 160.171875 270.660156 159.589844 282.222656 C 159.066406 292.714844 176.777344 297.242188 180.640625 282.914062 " fill-opacity="1" fill-rule="evenodd"/><path fill="#2c3657" d="M 209.160156 346.734375 C 206.320312 349.53125 192.183594 349.015625 189.371094 347.777344 C 190.1875 337.6875 188.933594 311.449219 188.289062 298.574219 C 186.3125 258.984375 213.949219 262.851562 212.425781 289.53125 C 211.378906 307.792969 209.078125 337.117188 209.160156 346.734375 " fill-opacity="1" fill-rule="evenodd"/><path fill="#384776" d="M 210.164062 282.554688 C 209.84375 285.113281 208.773438 287.8125 205.902344 288.621094 C 201.457031 289.878906 196.035156 286.308594 195.625 281.949219 C 194.910156 274.410156 193.816406 266.835938 192.738281 259.289062 C 191.859375 253.125 194.597656 248.34375 196.546875 242.320312 C 197.242188 240.167969 197.921875 238.03125 198.566406 235.933594 C 203.898438 218.664062 222.234375 214.425781 218.089844 238.550781 C 217.542969 241.730469 216.960938 244.90625 216.363281 248.078125 C 215.183594 254.355469 213.941406 260.625 212.761719 266.898438 C 211.785156 272.078125 210.8125 277.324219 210.164062 282.554688 " fill-opacity="1" fill-rule="evenodd"/><path fill="#384776" d="M 207.878906 344.953125 C 205.109375 345.753906 198.515625 345.800781 194.890625 345.367188 C 195.027344 342.398438 195.015625 339.382812 194.992188 336.4375 C 194.957031 331.429688 194.820312 326.417969 194.652344 321.410156 C 194.386719 313.75 194.03125 306.089844 193.652344 298.433594 C 193.324219 291.898438 193.683594 283.328125 196.839844 277.335938 C 197.980469 275.175781 200.203125 272.179688 203.140625 272.28125 C 205.53125 272.371094 207.449219 274.449219 208.542969 276.246094 C 210.863281 280.054688 211.390625 285.066406 211.144531 289.363281 C 210.714844 296.871094 210.203125 304.378906 209.703125 311.882812 C 209.253906 318.675781 208.796875 325.476562 208.414062 332.273438 C 208.179688 336.453125 207.914062 340.742188 207.878906 344.953125 " fill-opacity="1" fill-rule="evenodd"/><path fill="#384776" d="M 159.417969 345.042969 C 159.84375 340.929688 160.066406 336.71875 160.308594 332.613281 C 160.707031 325.820312 161.03125 319.023438 161.359375 312.230469 C 161.722656 304.71875 162.070312 297.207031 162.5 289.695312 C 162.769531 285.03125 164.035156 279.765625 167.050781 275.945312 C 168.433594 274.191406 170.875 272.027344 173.421875 272.304688 C 176.125 272.597656 177.738281 275.640625 178.5 277.75 C 180.667969 283.761719 180.003906 291.957031 178.992188 298.101562 C 177.738281 305.714844 176.511719 313.335938 175.375 320.964844 C 174.628906 325.984375 173.910156 331.019531 173.300781 336.054688 C 172.925781 339.105469 172.554688 342.230469 172.351562 345.324219 C 168.875 345.785156 162.308594 345.789062 159.417969 345.042969 " fill-opacity="1" fill-rule="evenodd"/><path fill="#384776" d="M 179.085938 282.152344 C 178.328125 284.976562 176.65625 287.792969 173.472656 288.628906 C 171.164062 289.234375 168.566406 288.621094 166.769531 287.148438 C 165.265625 285.925781 164.484375 284.234375 164.582031 282.371094 C 165.144531 271.160156 164.886719 259.777344 165.054688 248.546875 C 165.148438 242.308594 165.3125 236.054688 165.742188 229.832031 C 166.675781 216.246094 199.261719 218.574219 195.476562 231.382812 C 193.835938 236.929688 192.03125 242.445312 190.203125 247.933594 C 188.128906 254.167969 185.992188 260.386719 183.917969 266.621094 C 182.210938 271.75 180.488281 276.941406 179.085938 282.152344 " fill-opacity="1" fill-rule="evenodd"/><path fill="#384776" d="M 165.644531 214.773438 C 164.230469 225.800781 163.117188 236.75 162.417969 247.59375 C 161.722656 258.429688 161.4375 269.171875 161.671875 279.785156 C 160.402344 290.933594 159.40625 302.042969 158.703125 313.105469 C 158 324.171875 157.585938 335.203125 157.46875 346.195312 L 157.894531 346.199219 C 158.011719 335.226562 158.425781 324.199219 159.128906 313.128906 C 159.832031 302.066406 160.828125 290.960938 162.097656 279.820312 L 162.097656 279.792969 C 161.867188 269.191406 162.152344 258.457031 162.847656 247.621094 C 163.542969 236.78125 164.652344 225.839844 166.066406 214.828125 L 165.644531 214.773438 " fill-opacity="1" fill-rule="evenodd"/><path fill="#384776" d="M 168.902344 203.023438 C 168.417969 206.894531 167.484375 209.800781 166.074219 211.648438 C 164.683594 213.46875 162.808594 214.261719 160.414062 213.941406 L 160.363281 214.332031 C 162.90625 214.667969 164.902344 213.824219 166.382812 211.890625 C 167.839844 209.976562 168.796875 207.007812 169.289062 203.070312 L 168.902344 203.023438 " fill-opacity="1" fill-rule="evenodd"/><path fill="#252f49" d="M 212.132812 203.070312 C 212.625 207.007812 213.582031 209.976562 215.039062 211.890625 C 216.519531 213.824219 218.515625 214.667969 221.058594 214.332031 L 221.007812 213.941406 C 218.613281 214.261719 216.742188 213.46875 215.351562 211.648438 C 213.9375 209.800781 213.003906 206.894531 212.523438 203.023438 L 212.132812 203.070312 " fill-opacity="1" fill-rule="evenodd"/><path fill="#e9b38b" d="M 204.492188 87.988281 C 204.492188 87.988281 196.925781 96.75 193.902344 101.265625 C 190.054688 94.601562 181.980469 87.453125 181.980469 87.453125 L 204.492188 87.988281 " fill-opacity="1" fill-rule="nonzero"/><path fill="#d59585" d="M 177.96875 71.542969 L 193.847656 79.636719 L 209.722656 71.542969 C 209.722656 71.542969 209.898438 77.027344 211.320312 85.664062 C 208.710938 90.898438 193.847656 92.8125 193.847656 92.8125 C 193.847656 92.8125 178.984375 90.898438 176.375 85.664062 C 177.796875 77.027344 177.96875 71.542969 177.96875 71.542969 " fill-opacity="1" fill-rule="nonzero"/><path fill="#e9a58c" d="M 177.363281 78.648438 C 177.363281 78.648438 180.429688 85.425781 185.109375 88.40625 C 189.789062 91.382812 193.847656 91.734375 193.847656 91.734375 C 193.847656 91.734375 197.90625 91.382812 202.582031 88.40625 C 207.261719 85.425781 210.328125 78.648438 210.328125 78.648438 C 210.328125 78.648438 211.207031 85.617188 213.203125 86.257812 C 213.203125 86.257812 212.226562 102.101562 193.847656 102.101562 C 175.464844 102.101562 174.488281 86.257812 174.488281 86.257812 C 176.484375 85.617188 177.363281 78.648438 177.363281 78.648438 " fill-opacity="1" fill-rule="nonzero"/><path fill="#ebedf4" d="M 234.96875 96.804688 C 227.457031 91.851562 212.828125 85.796875 212.828125 85.796875 L 203.054688 91.832031 L 197.699219 101.621094 L 191.1875 94.125 L 174.113281 85.796875 C 174.113281 85.796875 146.921875 94.800781 144.75 99.621094 C 152.96875 132.148438 161.308594 191.3125 161.308594 191.3125 C 161.308594 191.3125 177.527344 196.472656 196.371094 196.472656 C 215.214844 196.472656 223.640625 192.039062 223.640625 192.039062 C 223.640625 192.039062 233.023438 154.429688 239.15625 104.75 C 239.546875 101.585938 237.636719 98.566406 234.96875 96.804688 " fill-opacity="1" fill-rule="nonzero"/><g clip-path="url(#d23de4912f)"><g clip-path="url(#e4e8ba25ff)"><g clip-path="url(#8046fe03ce)"><g clip-path="url(#694720984b)"><path fill="url(#4e9d7682fd)" d="M 191.9375 182.871094 L 209.820312 183.105469 L 210.871094 103.148438 L 192.988281 102.914062 Z M 191.9375 182.871094 " fill-rule="nonzero"/></g></g></g></g><path fill="#333437" d="M 192.238281 199.234375 C 208.710938 199.242188 224.054688 197.941406 225.109375 194.078125 C 225.308594 192.675781 225.660156 190.371094 226.109375 187.40625 C 221.828125 190.472656 207.5 191.554688 192.253906 191.546875 C 177.1875 191.542969 163.289062 189.351562 158.570312 186.054688 C 158.875 189.289062 159.101562 191.625 159.210938 192.6875 C 160.769531 196.527344 175.757812 199.226562 192.238281 199.234375 " fill-opacity="1" fill-rule="evenodd"/><path fill="#d3d6e7" d="M 185.964844 91.578125 C 179.265625 91.578125 179.113281 86.289062 174.429688 85.796875 C 174.429688 85.796875 172.902344 86.214844 171.457031 86.742188 C 174.867188 97.378906 180.632812 102.257812 188.15625 105.316406 C 192.074219 97.480469 190.765625 103.4375 191.972656 94.765625 C 191.167969 93.890625 185.964844 91.578125 185.964844 91.578125 " fill-opacity="1" fill-rule="nonzero"/><path fill="#d3d6e7" d="M 201.960938 92.816406 C 207.929688 90.738281 210.132812 87.347656 214.140625 85.425781 C 214.140625 85.425781 214.167969 87.894531 215.628906 87.945312 C 217.6875 95.542969 214.59375 98.203125 208.84375 103.800781 C 202.765625 97.621094 207.03125 92.816406 201.304688 99.839844 C 201.359375 99.820312 201.960938 92.816406 201.960938 92.816406 " fill-opacity="1" fill-rule="nonzero"/><path fill="#121111" d="M 238.558594 98.144531 C 235.734375 95.652344 219.9375 88.761719 219.9375 88.761719 C 219.9375 88.761719 217.566406 106.886719 214.957031 112.882812 C 211.402344 121.050781 198.347656 144.714844 198.347656 144.714844 L 202.761719 191.855469 L 209.246094 208.453125 C 210.140625 210.746094 212.542969 212.070312 214.964844 211.613281 L 228.941406 208.96875 C 231.515625 208.480469 233.347656 206.183594 233.242188 203.574219 C 232.84375 193.890625 232.058594 164.5 232.894531 155.746094 C 236.582031 117.199219 242.792969 101.886719 238.558594 98.144531 " fill-opacity="1" fill-rule="nonzero"/><path fill="#3c3b41" d="M 197.707031 144.371094 L 220.660156 115.269531 L 218.386719 109.625 L 224.148438 109.234375 C 224.148438 109.234375 222.515625 89.441406 221.617188 88.761719 C 220.597656 87.992188 215.453125 87.328125 215.453125 87.328125 C 215.453125 87.328125 215.996094 97.355469 211.164062 112.152344 C 206.839844 125.394531 197.707031 144.371094 197.707031 144.371094 " fill-opacity="1" fill-rule="nonzero"/><path fill="#232323" d="M 145.027344 96.792969 C 149.15625 94.269531 166.890625 86.902344 166.890625 86.902344 C 166.890625 86.902344 175.710938 105.644531 179.519531 111.71875 C 184.71875 119.988281 203.796875 143.949219 203.796875 143.949219 L 202.761719 191.855469 L 187.167969 209.652344 C 186.234375 211.316406 184.378906 212.25 182.480469 212.011719 L 155.007812 208.554688 C 152.867188 208.285156 151.351562 206.339844 151.628906 204.207031 C 152.832031 194.824219 155.5625 163.996094 153.304688 155.121094 C 150.460938 143.949219 138.839844 100.582031 145.027344 96.792969 " fill-opacity="1" fill-rule="nonzero"/><path fill="#3c3b41" d="M 203.796875 143.945312 C 203.796875 143.945312 174.324219 114.949219 173.652344 113.492188 C 174.210938 112.9375 176.144531 108.957031 176.144531 108.957031 L 167.582031 108.367188 C 167.582031 108.367188 164.359375 88.355469 165.625 87.667969 C 167.058594 86.886719 174.65625 85.796875 174.65625 85.796875 C 174.65625 85.796875 179.039062 96.339844 185.832031 111.324219 C 191.910156 124.730469 203.796875 143.945312 203.796875 143.945312 " fill-opacity="1" fill-rule="nonzero"/><path fill="#3c3b41" d="M 179.296875 174.371094 L 177.539062 177.445312 L 155.175781 177.394531 L 155.351562 173.484375 L 179.296875 174.371094 " fill-opacity="1" fill-rule="nonzero"/><path fill="#3c3b41" d="M 213.859375 174.769531 L 215.058594 177.804688 L 231.070312 177.75 L 230.777344 173.964844 L 213.859375 174.769531 " fill-opacity="1" fill-rule="nonzero"/><path fill="#201d1e" d="M 197.113281 149.28125 C 197.113281 150.433594 198.050781 151.371094 199.203125 151.371094 C 200.359375 151.371094 201.296875 150.433594 201.296875 149.28125 C 201.296875 148.128906 200.359375 147.195312 199.203125 147.195312 C 198.050781 147.195312 197.113281 148.128906 197.113281 149.28125 " fill-opacity="1" fill-rule="nonzero"/><path fill="#3c3b41" d="M 199.582031 150.046875 C 199.582031 150.261719 199.757812 150.433594 199.96875 150.433594 C 200.183594 150.433594 200.355469 150.261719 200.355469 150.046875 C 200.355469 149.835938 200.183594 149.664062 199.96875 149.664062 C 199.757812 149.664062 199.582031 149.835938 199.582031 150.046875 " fill-opacity="1" fill-rule="nonzero"/><path fill="#3c3b41" d="M 198.054688 150.046875 C 198.054688 150.261719 198.226562 150.433594 198.441406 150.433594 C 198.652344 150.433594 198.828125 150.261719 198.828125 150.046875 C 198.828125 149.835938 198.652344 149.664062 198.441406 149.664062 C 198.226562 149.664062 198.054688 149.835938 198.054688 150.046875 " fill-opacity="1" fill-rule="nonzero"/><path fill="#3c3b41" d="M 198.441406 148.902344 C 198.652344 148.902344 198.828125 148.730469 198.828125 148.515625 C 198.828125 148.304688 198.652344 148.132812 198.441406 148.132812 C 198.226562 148.132812 198.054688 148.304688 198.054688 148.515625 C 198.054688 148.730469 198.226562 148.902344 198.441406 148.902344 " fill-opacity="1" fill-rule="nonzero"/><path fill="#3c3b41" d="M 199.96875 148.902344 C 200.183594 148.902344 200.355469 148.730469 200.355469 148.515625 C 200.355469 148.304688 200.183594 148.132812 199.96875 148.132812 C 199.757812 148.132812 199.582031 148.304688 199.582031 148.515625 C 199.582031 148.730469 199.757812 148.902344 199.96875 148.902344 " fill-opacity="1" fill-rule="nonzero"/><path fill="#201d1e" d="M 197.113281 165.519531 C 197.113281 166.667969 198.050781 167.605469 199.203125 167.605469 C 200.359375 167.605469 201.296875 166.667969 201.296875 165.519531 C 201.296875 164.363281 200.359375 163.429688 199.203125 163.429688 C 198.050781 163.429688 197.113281 164.363281 197.113281 165.519531 " fill-opacity="1" fill-rule="nonzero"/><path fill="#3c3b41" d="M 199.582031 166.28125 C 199.582031 166.496094 199.757812 166.667969 199.96875 166.667969 C 200.183594 166.667969 200.355469 166.496094 200.355469 166.28125 C 200.355469 166.070312 200.183594 165.898438 199.96875 165.898438 C 199.757812 165.898438 199.582031 166.070312 199.582031 166.28125 " fill-opacity="1" fill-rule="nonzero"/><path fill="#3c3b41" d="M 198.054688 166.28125 C 198.054688 166.496094 198.226562 166.667969 198.441406 166.667969 C 198.652344 166.667969 198.828125 166.496094 198.828125 166.28125 C 198.828125 166.070312 198.652344 165.898438 198.441406 165.898438 C 198.226562 165.898438 198.054688 166.070312 198.054688 166.28125 " fill-opacity="1" fill-rule="nonzero"/><path fill="#3c3b41" d="M 198.441406 165.136719 C 198.652344 165.136719 198.828125 164.964844 198.828125 164.75 C 198.828125 164.539062 198.652344 164.367188 198.441406 164.367188 C 198.226562 164.367188 198.054688 164.539062 198.054688 164.75 C 198.054688 164.964844 198.226562 165.136719 198.441406 165.136719 " fill-opacity="1" fill-rule="nonzero"/><path fill="#3c3b41" d="M 199.96875 165.136719 C 200.183594 165.136719 200.355469 164.964844 200.355469 164.75 C 200.355469 164.539062 200.183594 164.367188 199.96875 164.367188 C 199.757812 164.367188 199.582031 164.539062 199.582031 164.75 C 199.582031 164.964844 199.757812 165.136719 199.96875 165.136719 " fill-opacity="1" fill-rule="nonzero"/><path fill="#9a2929" d="M 180.339844 89.0625 C 180.339844 89.0625 188.183594 96.609375 192.816406 97.375 L 194.246094 103.496094 C 194.246094 103.496094 182.257812 99.414062 180.339844 89.0625 " fill-opacity="1" fill-rule="nonzero"/><path fill="#9a2929" d="M 210.765625 84.859375 C 210.765625 84.859375 205.5625 94.410156 201.371094 96.53125 L 201.859375 102.792969 C 201.859375 102.792969 212.058594 95.308594 210.765625 84.859375 " fill-opacity="1" fill-rule="nonzero"/><path fill="#f3f2f2" d="M 192.085938 93.765625 L 198.441406 102.796875 L 190.140625 94.554688 L 192.085938 93.765625 " fill-opacity="1" fill-rule="nonzero"/><path fill="#f3f2f2" d="M 201.960938 92.109375 L 204.027344 92.375 L 198.441406 102.800781 L 201.960938 92.109375 " fill-opacity="1" fill-rule="nonzero"/><path fill="#ae3536" d="M 202.609375 105.640625 C 201.25 106.203125 197.003906 106.691406 194.101562 106.667969 C 193.878906 105.226562 190.484375 94.984375 193.085938 95.464844 C 195 95.6875 197.164062 96.597656 200.070312 94.539062 C 203.054688 92.746094 203.242188 104.511719 202.609375 105.640625 " fill-opacity="1" fill-rule="nonzero"/><path fill="#f3f2f2" d="M 173.855469 86.707031 L 176.742188 80.871094 C 176.742188 80.871094 181.953125 89.90625 192.085938 93.761719 C 187.140625 95.292969 186.59375 102.796875 186.59375 102.796875 C 186.59375 102.796875 175.738281 100.144531 173.855469 86.707031 " fill-opacity="1" fill-rule="nonzero"/><path fill="#f3f2f2" d="M 215.457031 87.324219 L 210.953125 80.871094 C 210.953125 80.871094 208.558594 88.792969 201.960938 92.109375 C 208.425781 92.109375 209.414062 100.035156 209.414062 100.035156 C 209.414062 100.035156 215.605469 94.769531 215.457031 87.324219 " fill-opacity="1" fill-rule="nonzero"/><path fill="#c55b47" d="M 149.992188 201.542969 C 160.003906 204.230469 171.21875 205.675781 188.84375 205.769531 C 192.585938 205.792969 195.632812 202.753906 195.582031 199.023438 L 194.785156 138.453125 C 185.636719 130.558594 180.832031 120.785156 175.792969 107.394531 C 172.941406 99.816406 172.527344 85.613281 172.527344 85.613281 L 155.488281 90.117188 C 154.550781 86.390625 157.824219 105.308594 158.726562 112.9375 C 160.761719 130.058594 159.386719 139.785156 151.101562 149.101562 L 149.992188 201.542969 " fill-opacity="1" fill-rule="nonzero"/><path fill="#fefaeb" d="M 195.277344 193.824219 L 195.117188 181.742188 C 183.636719 181.976562 164.214844 181.644531 150.4375 180.488281 L 150.570312 192.640625 C 149.839844 192.609375 178.003906 193.992188 189.050781 193.90625 C 190.054688 193.902344 194.289062 193.84375 195.277344 193.824219 Z M 150.261719 169.855469 L 150.929688 157.375 C 164.710938 158.511719 183.335938 158.796875 194.8125 158.53125 L 194.972656 170.617188 C 193.742188 170.644531 189.253906 170.699219 188 170.710938 C 177.472656 170.816406 162.488281 170.835938 150.261719 169.855469 " fill-opacity="1" fill-rule="nonzero"/><path fill="#30203a" d="M 189.523438 152.773438 L 190.59375 152.761719 C 191.140625 152.757812 191.582031 152.371094 191.574219 151.898438 L 191.472656 144.15625 C 191.464844 143.683594 191.015625 143.308594 190.46875 143.3125 L 189.398438 143.324219 C 188.851562 143.328125 188.410156 143.714844 188.417969 144.1875 L 188.519531 151.929688 C 188.527344 152.398438 188.976562 152.777344 189.523438 152.773438 " fill-opacity="1" fill-rule="nonzero"/><path fill="#30203a" d="M 189.890625 180.628906 L 190.960938 180.617188 C 191.507812 180.613281 191.945312 180.226562 191.941406 179.753906 L 191.839844 172.011719 C 191.832031 171.542969 191.382812 171.164062 190.835938 171.167969 L 189.765625 171.179688 C 189.214844 171.183594 188.777344 171.570312 188.785156 172.042969 L 188.886719 179.785156 C 188.890625 180.257812 189.339844 180.632812 189.890625 180.628906 " fill-opacity="1" fill-rule="nonzero"/><path fill="#c55b47" d="M 235.867188 202.867188 C 231.472656 205.269531 220.902344 206.285156 212.261719 206.558594 C 208.640625 206.671875 205.6875 203.675781 205.816406 200.0625 L 207.972656 140.277344 C 213.449219 130.378906 214.535156 125.226562 217.066406 106.035156 C 217.71875 101.097656 216.472656 85.96875 216.472656 85.96875 L 234.441406 93.894531 L 234.660156 119.949219 C 234.707031 127.71875 233.890625 146.246094 236.472656 153.117188 L 235.867188 202.867188 " fill-opacity="1" fill-rule="nonzero"/><path fill="#fefaeb" d="M 236.144531 180.070312 C 229.574219 182.09375 214.605469 182.699219 206.429688 183.0625 L 205.992188 195.15625 C 214.007812 194.839844 229.707031 194.28125 236.347656 192.46875 Z M 236.316406 156.503906 C 229.691406 158.605469 215.550781 159.445312 207.265625 159.839844 L 206.832031 171.941406 C 214.945312 171.59375 229.574219 171.089844 236.277344 169.207031 L 236.316406 156.503906 " fill-opacity="1" fill-rule="nonzero"/><path fill="#30203a" d="M 210.171875 154.027344 C 210.640625 154.054688 211.042969 153.5625 211.070312 152.925781 L 211.402344 145.734375 C 211.433594 145.101562 211.078125 144.558594 210.609375 144.53125 C 210.140625 144.503906 209.734375 144.996094 209.707031 145.632812 L 209.375 152.820312 C 209.347656 153.457031 209.703125 153.996094 210.171875 154.027344 " fill-opacity="1" fill-rule="nonzero"/><path fill="#30203a" d="M 208.890625 181.84375 C 209.359375 181.875 209.761719 181.378906 209.792969 180.742188 L 210.121094 173.554688 C 210.152344 172.917969 209.796875 172.378906 209.328125 172.351562 C 208.859375 172.320312 208.457031 172.816406 208.425781 173.453125 L 208.097656 180.640625 C 208.066406 181.277344 208.421875 181.816406 208.890625 181.84375 " fill-opacity="1" fill-rule="nonzero"/><g clip-path="url(#5bd5b4ad50)"><path fill="#121111" d="M 151.449219 167.152344 C 143.546875 151.496094 135.671875 123.34375 134.738281 114.296875 C 134.144531 108.617188 143.21875 98.082031 146.519531 97.632812 C 157.503906 98.84375 173.078125 150.226562 173.828125 160.941406 C 174.671875 172.925781 154.375 172.953125 151.449219 167.152344 " fill-opacity="1" fill-rule="evenodd"/></g><path fill="#e9a58c" d="M 173.988281 56.269531 C 174.039062 56.050781 173.242188 51.785156 169.960938 51.726562 C 166.679688 51.664062 165.988281 55.476562 167.027344 59.617188 C 168.0625 63.757812 170.511719 65.769531 172.675781 65.378906 C 174.84375 64.988281 175.292969 63.769531 175.292969 63.769531 L 173.988281 56.269531 " fill-opacity="1" fill-rule="nonzero"/><path fill="#de8f77" d="M 167.648438 56.710938 C 167.648438 56.710938 167.851562 52.492188 170.09375 53.800781 C 172.335938 55.105469 172.90625 62.285156 171.273438 62.777344 C 169.640625 63.269531 168.625 61.011719 169.339844 59.171875 C 170.054688 57.332031 170.796875 57.390625 170.796875 57.390625 C 170.796875 57.390625 170.542969 54.832031 169.429688 54.503906 C 168.316406 54.175781 167.90625 55.886719 167.648438 56.710938 " fill-opacity="1" fill-rule="nonzero"/><path fill="#e9b38b" d="M 172.636719 38.445312 C 172.6875 28.039062 180.300781 21.078125 193.847656 21.078125 C 207.390625 21.078125 215.007812 28.039062 215.054688 38.445312 C 215.097656 47.34375 216.675781 68.214844 215.582031 70.425781 C 214.058594 73.5 207.960938 81.117188 203.113281 84.152344 C 199.886719 86.171875 195.789062 86.171875 192.5625 84.152344 C 187.714844 81.117188 177.066406 75.523438 175.542969 72.449219 C 174.449219 70.238281 172.59375 47.34375 172.636719 38.445312 " fill-opacity="1" fill-rule="nonzero"/><path fill="#ffffff" d="M 207.046875 50.765625 C 207.046875 52.582031 208.277344 54.054688 209.792969 54.054688 C 211.308594 54.054688 212.539062 52.582031 212.539062 50.765625 C 212.539062 48.949219 211.308594 47.476562 209.792969 47.476562 C 208.277344 47.476562 207.046875 48.949219 207.046875 50.765625 " fill-opacity="1" fill-rule="nonzero"/><path fill="#ffffff" d="M 190.210938 50.765625 C 190.210938 52.582031 188.980469 54.054688 187.464844 54.054688 C 185.949219 54.054688 184.71875 52.582031 184.71875 50.765625 C 184.71875 48.949219 185.949219 47.476562 187.464844 47.476562 C 188.980469 47.476562 190.210938 48.949219 190.210938 50.765625 " fill-opacity="1" fill-rule="nonzero"/><path fill="#2c1d1c" d="M 207.25 50.765625 C 207.25 52.582031 208.160156 54.054688 209.285156 54.054688 C 210.410156 54.054688 211.320312 52.582031 211.320312 50.765625 C 211.320312 48.949219 210.410156 47.476562 209.285156 47.476562 C 208.160156 47.476562 207.25 48.949219 207.25 50.765625 " fill-opacity="1" fill-rule="nonzero"/><path fill="#2c1d1c" d="M 212.441406 50.179688 C 212.378906 50.089844 211.765625 47.894531 209.84375 47.941406 C 207.921875 47.996094 207.046875 50.066406 207.046875 50.066406 C 207.046875 50.066406 207.316406 47.375 209.949219 47.03125 C 212.582031 46.691406 213.234375 49.800781 213.105469 50.019531 C 212.976562 50.230469 212.441406 50.179688 212.441406 50.179688 " fill-opacity="1" fill-rule="nonzero"/><path fill="#ffffff" d="M 207.753906 49.457031 C 207.753906 49.179688 207.976562 48.960938 208.25 48.960938 C 208.523438 48.960938 208.746094 49.179688 208.746094 49.457031 C 208.746094 49.730469 208.523438 49.949219 208.25 49.949219 C 207.976562 49.949219 207.753906 49.730469 207.753906 49.457031 " fill-opacity="1" fill-rule="nonzero"/><path fill="#322622" d="M 214.039062 45.605469 C 214.039062 45.605469 210.792969 44.367188 209.289062 44.523438 C 207.789062 44.675781 206.125 44.871094 205.800781 44.15625 C 205.476562 43.441406 205.519531 40.550781 206.855469 40.242188 C 208.195312 39.929688 211.035156 40.136719 212.984375 41.890625 C 214.933594 43.644531 214.972656 45.660156 214.039062 45.605469 " fill-opacity="1" fill-rule="nonzero"/><path fill="#2c1d1c" d="M 188.792969 50.765625 C 188.792969 52.582031 187.878906 54.054688 186.753906 54.054688 C 185.628906 54.054688 184.71875 52.582031 184.71875 50.765625 C 184.71875 48.949219 185.628906 47.476562 186.753906 47.476562 C 187.878906 47.476562 188.792969 48.949219 188.792969 50.765625 " fill-opacity="1" fill-rule="nonzero"/><path fill="#2c1d1c" d="M 184.816406 50.179688 C 184.882812 50.089844 185.492188 47.894531 187.414062 47.941406 C 189.335938 47.996094 190.210938 50.066406 190.210938 50.066406 C 190.210938 50.066406 189.941406 47.375 187.308594 47.03125 C 184.675781 46.691406 184.027344 49.800781 184.152344 50.019531 C 184.28125 50.230469 184.816406 50.179688 184.816406 50.179688 " fill-opacity="1" fill-rule="nonzero"/><path fill="#ffffff" d="M 186.152344 49.457031 C 186.152344 49.179688 185.929688 48.960938 185.65625 48.960938 C 185.382812 48.960938 185.160156 49.179688 185.160156 49.457031 C 185.160156 49.730469 185.382812 49.949219 185.65625 49.949219 C 185.929688 49.949219 186.152344 49.730469 186.152344 49.457031 " fill-opacity="1" fill-rule="nonzero"/><path fill="#322622" d="M 182.167969 45.605469 C 182.167969 45.605469 186.441406 44.367188 188.417969 44.523438 C 190.394531 44.675781 192.582031 44.871094 193.011719 44.15625 C 193.4375 43.441406 193.382812 40.550781 191.621094 40.242188 C 189.859375 39.929688 186.121094 40.136719 183.554688 41.890625 C 180.992188 43.644531 180.9375 45.660156 182.167969 45.605469 " fill-opacity="1" fill-rule="nonzero"/><path fill="#cc8e71" d="M 203.644531 57.601562 C 203.644531 57.601562 201.539062 54.644531 201.183594 52.441406 C 200.828125 50.242188 199.976562 48.386719 199.511719 48.417969 C 199.046875 48.449219 198.453125 50.402344 198.398438 52.628906 C 198.339844 54.855469 196.796875 58.910156 196.796875 58.910156 C 196.796875 58.910156 195.390625 59.554688 196.125 61.210938 C 196.855469 62.867188 200.464844 62.574219 200.464844 62.574219 C 200.464844 62.574219 204.59375 62.898438 205.097656 61.160156 C 205.605469 59.417969 203.644531 57.601562 203.644531 57.601562 " fill-opacity="1" fill-rule="nonzero"/><path fill="#7c1f35" d="M 200.125 66.609375 C 196.441406 66.609375 192.9375 65.59375 192.007812 67.550781 C 191.347656 68.9375 193.074219 74.417969 199.679688 74.277344 C 204.296875 74.179688 207.417969 70.203125 206.984375 67.605469 C 206.644531 65.644531 203.8125 66.601562 200.125 66.609375 " fill-opacity="1" fill-rule="nonzero"/><path fill="#b3313b" d="M 191.992188 69.171875 C 192.496094 71.296875 194.703125 74.386719 199.683594 74.277344 C 201.945312 74.230469 203.855469 73.234375 205.164062 71.941406 C 202.105469 68.207031 196.542969 66.925781 191.992188 69.171875 " fill-opacity="1" fill-rule="nonzero"/><path fill="#a72932" d="M 191.992188 69.171875 C 192.015625 69.269531 192.046875 69.375 192.085938 69.480469 C 195.457031 71.253906 199.257812 71.78125 203.417969 70.28125 C 200.257812 67.882812 195.777344 67.304688 191.992188 69.171875 " fill-opacity="1" fill-rule="nonzero"/><path fill="#ffffff" d="M 192.007812 67.550781 C 191.945312 67.683594 191.914062 67.871094 191.902344 68.066406 C 197.132812 71.296875 204.179688 70.683594 205.632812 66.429688 C 204.398438 66.234375 202.421875 66.605469 200.125 66.609375 C 196.441406 66.609375 192.9375 65.59375 192.007812 67.550781 " fill-opacity="1" fill-rule="nonzero"/><path fill="#cee6db" d="M 192.007812 67.550781 C 191.945312 67.683594 191.914062 67.871094 191.902344 68.066406 C 192.351562 68.351562 192.8125 68.589844 193.296875 68.808594 C 196.714844 66.523438 203.898438 67.035156 204.167969 68.507812 C 204.832031 67.960938 205.347656 67.265625 205.632812 66.429688 C 204.398438 66.234375 202.421875 66.605469 200.125 66.609375 C 196.441406 66.609375 192.9375 65.59375 192.007812 67.550781 " fill-opacity="1" fill-rule="nonzero"/><path fill="#dce0ef" d="M 258.539062 128.582031 L 270.128906 118.511719 L 254.378906 159.558594 L 240.847656 165.71875 L 258.539062 128.582031 " fill-opacity="1" fill-rule="evenodd"/><g clip-path="url(#edc38fce11)"><path fill="#c0c4dc" d="M 258.539062 128.582031 L 273.109375 119.707031 L 257.359375 160.753906 L 243.828125 166.910156 L 258.539062 128.582031 " fill-opacity="1" fill-rule="evenodd"/></g><path fill="#dce0ef" d="M 231.820312 117.640625 L 258.53125 128.582031 L 243.558594 166.914062 L 216.070312 158.6875 L 231.820312 117.640625 " fill-opacity="1" fill-rule="evenodd"/><path fill="#547b45" d="M 260.109375 128.640625 L 255.914062 128.476562 L 240.164062 169.523438 L 244.355469 169.691406 L 260.109375 128.640625 " fill-opacity="1" fill-rule="evenodd"/><g clip-path="url(#698fe7f9bc)"><path fill="#547b45" d="M 260.109375 128.640625 L 273.636719 122.484375 L 257.886719 163.535156 L 244.355469 169.691406 L 260.109375 128.640625 " fill-opacity="1" fill-rule="evenodd"/></g><path fill="#547b45" d="M 228.429688 120.25 L 255.914062 128.476562 L 240.164062 169.523438 L 212.679688 161.296875 L 228.429688 120.25 " fill-opacity="1" fill-rule="evenodd"/><path fill="#e9b38b" d="M 223.539062 147.144531 C 224.042969 146.535156 224.542969 145.863281 224.988281 145.167969 C 226.898438 142.144531 228.3125 139.5 227.253906 138.726562 C 226.050781 137.851562 224.566406 139.828125 221.714844 143.507812 C 220.183594 146.035156 215.589844 147.914062 214.171875 153.148438 C 212.441406 159.515625 215.542969 165.703125 223.402344 163.542969 C 225.265625 163.03125 227.550781 162.15625 230.386719 160.8125 C 232.816406 160 237.492188 157.566406 239.132812 156.785156 C 243.527344 154.703125 243.664062 153.976562 243.527344 153.21875 C 243.394531 152.472656 243.007812 151.695312 238.515625 153.246094 C 238.007812 153.417969 237.054688 153.753906 235.976562 154.136719 L 235.957031 154.074219 C 237.945312 153.140625 239.957031 152.113281 240.917969 151.65625 C 245.3125 149.574219 245.445312 148.839844 245.316406 148.089844 C 245.179688 147.34375 244.792969 146.558594 240.300781 148.117188 C 239.226562 148.488281 236.195312 149.539062 234.195312 150.351562 C 236.304688 149.132812 238.601562 147.667969 239.632812 147.046875 C 243.792969 144.570312 243.867188 143.828125 243.667969 143.082031 C 243.464844 142.34375 243.011719 141.59375 238.707031 143.558594 C 237.675781 144.023438 234.738281 145.355469 232.832031 146.351562 C 234.246094 145.285156 235.554688 144.257812 236.25 143.742188 C 240.164062 140.828125 240.148438 140.09375 239.867188 139.386719 C 239.582031 138.683594 239.042969 138.003906 234.929688 140.417969 C 234.011719 140.957031 228.820312 144.5 225.34375 146.960938 C 224.535156 147.535156 223.953125 147.386719 223.539062 147.144531 " fill-opacity="1" fill-rule="evenodd"/><path fill="#e9b38b" d="M 264.859375 145.246094 C 264.605469 145.074219 264.351562 144.851562 264.132812 144.558594 C 263.183594 143.296875 262.492188 142.011719 263.074219 140.597656 C 263.734375 139.011719 264.480469 139.675781 265.914062 140.839844 C 266.675781 141.941406 269.078125 140.347656 269.710938 143.855469 C 270.488281 148.121094 268.582031 155 264.445312 158.640625 C 263.660156 159.328125 261.050781 160.195312 258.871094 159.335938 C 256.828125 158.527344 253.921875 155.726562 254.140625 153.898438 C 254.292969 152.632812 254.652344 151.269531 255.046875 150.019531 C 256.765625 144.628906 257.636719 144.148438 258.519531 144.933594 C 259.535156 145.828125 259.957031 146.960938 261.378906 147.050781 C 262.703125 147.128906 264.332031 146.414062 264.859375 145.246094 " fill-opacity="1" fill-rule="evenodd"/><path fill="#121111" d="M 213.859375 151.371094 C 210.554688 147.484375 173.6875 151.832031 167.058594 152.230469 C 160.507812 152.625 155.769531 153.507812 154.035156 155.707031 C 152.878906 157.171875 152.328125 158.933594 151.929688 161.042969 C 151.195312 164.914062 151.175781 164.71875 152.734375 168.339844 C 153.585938 170.3125 154.507812 171.910156 155.957031 173.089844 C 158.128906 174.859375 164.058594 176.285156 170.375 176.222656 C 176.6875 176.160156 218.269531 166.992188 218.96875 165.109375 C 219.570312 163.484375 214.984375 152.699219 213.859375 151.371094 " fill-opacity="1" fill-rule="evenodd"/><path fill="#322521" d="M 217.171875 32.84375 L 219.078125 34.25 C 217.734375 28.414062 211.351562 25.894531 210.289062 25.519531 C 210.1875 25.480469 210.136719 25.460938 210.136719 25.460938 C 209.121094 21.492188 170.855469 24.25 168.976562 28.007812 C 167.101562 31.757812 168.652344 34.613281 168.742188 34.332031 L 168.625 35.003906 L 168.597656 35.175781 C 168.246094 39.464844 168.003906 47.554688 168.191406 51.714844 C 168.191406 51.714844 171.324219 51.230469 171.957031 51.742188 C 174.324219 53.679688 174.136719 56.375 174.957031 57.773438 C 175.699219 59.039062 176.816406 57.773438 176.816406 57.773438 C 177.136719 49.804688 178.511719 39.667969 178.511719 39.667969 C 180.257812 42.847656 185.855469 43.695312 186.207031 43.742188 C 185.464844 43.449219 184.773438 42.941406 184.167969 42.28125 L 184.144531 42.261719 C 181.839844 39.734375 178.847656 38.605469 180.296875 35.933594 C 182.136719 32.539062 188.636719 33.929688 195.457031 34.074219 C 202.277344 34.214844 205.519531 32.292969 206.683594 32.933594 C 207.851562 33.570312 213.261719 35.730469 214.171875 37.902344 C 215.09375 40.066406 215.578125 53.175781 215.578125 53.175781 L 217.019531 41.601562 C 218.546875 44.421875 218.316406 46.523438 218.316406 46.523438 C 218.316406 46.523438 219.128906 43.015625 218.578125 39.054688 C 218.039062 35.214844 217.222656 32.980469 217.171875 32.84375 " fill-opacity="1" fill-rule="nonzero"/><path fill="#ca7233" d="M 219.09375 32.574219 C 219.09375 32.574219 216.203125 3.300781 187.535156 9.628906 C 160.007812 15.703125 166.496094 44.570312 166.496094 44.570312 C 166.496094 44.570312 186.984375 28.636719 219.09375 32.574219 " fill-opacity="1" fill-rule="nonzero"/><path fill="#bb5529" d="M 166.28125 46.257812 C 166.28125 46.257812 174.566406 40.203125 190.695312 39.644531 C 195.035156 39.492188 208.820312 37.304688 225.789062 40.960938 C 226.890625 41.199219 227.371094 39.855469 226.988281 39.363281 C 224.167969 35.707031 221.671875 33.933594 219.003906 31.90625 C 215.246094 29.695312 204.285156 29.777344 194.339844 30.550781 C 174.027344 32.132812 164.921875 42.894531 164.921875 42.894531 C 164.921875 42.894531 164.421875 46.789062 166.28125 46.257812 " fill-opacity="1" fill-rule="nonzero"/><path fill="#d08d3f" d="M 165.007812 45.246094 C 165.007812 45.246094 173.382812 37.972656 188.597656 37.949219 C 191.296875 37.949219 202.785156 36.832031 212.328125 37.289062 C 220.253906 37.667969 227.160156 39.589844 226.988281 39.363281 C 224.167969 35.707031 221.671875 33.933594 219.003906 31.90625 C 215.246094 29.695312 204.285156 29.777344 194.339844 30.550781 C 174.027344 32.132812 165.765625 41.859375 165.765625 41.859375 C 165.765625 41.859375 164.023438 42.894531 165.007812 45.246094 " fill-opacity="1" fill-rule="nonzero"/><path fill="#d08d3f" d="M 199.492188 30.210938 C 199.492188 30.210938 198.453125 6.164062 177.679688 13.867188 L 175.558594 14.960938 C 175.558594 14.960938 176.652344 12.859375 181.292969 10.136719 C 185.089844 7.90625 210.289062 0.0273438 215.574219 32.03125 L 201.324219 31.578125 L 199.492188 30.210938 " fill-opacity="1" fill-rule="nonzero"/><path fill="#d08d3f" d="M 180.402344 33.433594 C 180.402344 33.433594 180.859375 17.546875 172.59375 19.609375 C 164.328125 21.675781 166.054688 41.832031 166.054688 41.832031 C 166.054688 41.832031 170.019531 36.746094 179.335938 34.992188 L 180.402344 33.433594 " fill-opacity="1" fill-rule="nonzero"/><path fill="#ca7233" d="M 168.820312 25.234375 C 166.941406 27.09375 165.910156 35.191406 166.753906 40.917969 C 166.753906 40.917969 170.15625 38.03125 172.828125 36.429688 C 175.234375 34.988281 173.820312 20.285156 168.820312 25.234375 " fill-opacity="1" fill-rule="nonzero"/><path fill="#d29e53" d="M 197.09375 15.136719 C 197.09375 15.136719 199.246094 18.441406 203.109375 18.398438 C 206.972656 18.351562 210.886719 18.757812 208.300781 15.234375 C 208.300781 15.234375 211.457031 18.355469 212.359375 22.726562 C 213.261719 27.097656 201.816406 27.695312 200.476562 23.199219 C 199.136719 18.703125 197.09375 15.136719 197.09375 15.136719 " fill-opacity="1" fill-rule="nonzero"/><path fill="#ffffff" d="M 201.191406 30.339844 C 201.191406 30.339844 200.550781 11.085938 185.875 10.128906 C 185.875 10.128906 202.0625 9.335938 201.191406 30.339844 " fill-opacity="1" fill-rule="nonzero"/><path fill="#d29e53" d="M 177.632812 22.0625 C 177.632812 22.0625 177.890625 26.488281 172.949219 24.074219 C 172.949219 24.074219 173.828125 25.339844 174.386719 28.644531 C 174.949219 31.945312 180.582031 29.722656 179.765625 27.035156 C 179.324219 25.578125 179.640625 25.714844 177.632812 22.0625 " fill-opacity="1" fill-rule="nonzero"/><path fill="#d29e53" d="M 180.375 32.195312 C 180.375 32.195312 180.621094 17.382812 172.675781 19.589844 C 172.675781 19.589844 179.160156 18.320312 180.375 32.195312 " fill-opacity="1" fill-rule="nonzero"/><path fill="#d29e53" d="M 187.359375 32.058594 C 191.511719 31.542969 193.507812 31.230469 196.726562 31.164062 C 196.726562 31.164062 189.898438 35.621094 206.875 36.988281 C 202.300781 36.835938 194.554688 37.472656 192.425781 37.527344 C 190.300781 37.574219 184.460938 38.011719 182.761719 38.273438 C 191.824219 36.894531 196.441406 32.046875 187.359375 32.058594 " fill-opacity="1" fill-rule="nonzero"/><path fill="#ffffff" d="M 172.902344 40.742188 C 172.902344 40.742188 180.03125 38.460938 189.039062 37.84375 C 195.164062 37.417969 209.15625 35.394531 224.207031 38.871094 C 224.207031 38.871094 209.617188 34.695312 192.316406 36.496094 C 183.445312 37.417969 183.410156 36.699219 172.902344 40.742188 " fill-opacity="1" fill-rule="nonzero"/><path fill="#bb5529" d="M 175.558594 14.964844 C 175.558594 14.964844 177.335938 11.238281 183.964844 10.789062 C 190.589844 10.339844 199.839844 14.714844 200.394531 32.152344 L 198.714844 30.113281 C 199.253906 18.910156 187.894531 4.894531 175.558594 14.964844 " fill-opacity="1" fill-rule="nonzero"/><path fill="#bb5529" d="M 167.773438 27.035156 C 167.773438 27.035156 168.53125 24.4375 170.460938 24.21875 C 172.390625 24 173.316406 27.347656 173.589844 31.121094 C 173.589844 31.121094 172.875 26.460938 171.421875 25.453125 C 169.964844 24.449219 168.574219 25.566406 167.773438 27.035156 " fill-opacity="1" fill-rule="nonzero"/><path fill="#d29e53" d="M 201.472656 32.300781 C 201.472656 32.300781 208.476562 31.664062 216.207031 32.632812 C 216.207031 32.632812 207.511719 29.351562 201.472656 32.300781 " fill-opacity="1" fill-rule="nonzero"/><path fill="#d29e53" d="M 165.496094 42.074219 C 166.582031 40.59375 169.191406 38.164062 172.851562 36.421875 C 172.851562 36.421875 167.289062 39.613281 170.054688 41.675781 C 166.882812 43.554688 163.316406 45.039062 165.496094 42.074219 " fill-opacity="1" fill-rule="nonzero"/><path fill="#d29e53" d="M 180.449219 33.972656 C 180.449219 33.972656 180.554688 36.40625 179.519531 36.972656 C 178.484375 37.539062 174.132812 37.445312 173.183594 37.488281 C 178.386719 37 179.765625 36.285156 180.449219 33.972656 " fill-opacity="1" fill-rule="nonzero"/><path fill="#ffffff" d="M 174.769531 35.320312 C 174.769531 35.320312 175.597656 24.113281 172.046875 22.78125 C 170.148438 22.070312 168.542969 24.003906 168.542969 24.003906 C 168.542969 24.003906 170.304688 22.25 172.449219 24.039062 C 174.589844 25.832031 174.769531 35.320312 174.769531 35.320312 " fill-opacity="1" fill-rule="nonzero"/></svg>