<svg id="svg" version="1.1" xmlns="http://www.w3.org/2000/svg" xmlns:xlink="http://www.w3.org/1999/xlink" width="400" height="250" viewBox="0, 0, 400,250"><g id="svgg"><path id="path0" d="M199.500 75.154 C 164.245 79.382,140.825 110.592,147.276 144.750 C 154.100 180.884,192.736 202.147,226.677 188.446 C 269.213 171.277,277.029 116.038,241.000 87.221 C 233.905 81.547,224.476 77.449,214.500 75.705 C 211.728 75.220,201.946 74.861,199.500 75.154 M207.000 92.497 C 215.566 96.837,215.566 108.007,207.000 112.206 C 199.646 115.811,190.884 109.729,191.574 101.499 C 192.202 94.016,200.473 89.189,207.000 92.497 M206.412 118.233 C 209.729 118.862,212.658 120.846,214.050 123.408 C 215.455 125.993,215.500 126.617,215.500 143.524 C 215.500 161.344,215.158 159.706,218.275 156.795 C 220.344 154.863,221.270 154.489,222.461 155.105 C 226.020 156.945,220.584 167.759,213.557 172.819 C 207.723 177.019,201.814 177.040,197.715 172.875 C 194.786 169.900,194.750 169.629,194.750 150.841 C 194.750 142.266,194.662 135.250,194.554 135.250 C 194.264 135.250,191.000 138.003,191.000 138.249 C 191.000 138.726,189.249 139.539,188.551 139.386 C 182.051 137.959,192.395 121.531,201.531 118.772 C 204.328 117.927,204.624 117.894,206.412 118.233 " stroke="none" fill="#fbab24" fill-rule="evenodd"></path><path id="path1" d="M199.546 92.141 C 191.842 94.214,189.250 104.119,194.912 109.853 C 199.787 114.790,208.458 113.625,211.724 107.594 C 216.233 99.270,208.678 89.683,199.546 92.141 M202.375 118.668 C 196.306 120.321,189.395 127.536,187.243 134.464 C 185.802 139.104,188.135 140.557,191.693 137.235 C 192.732 136.264,193.902 135.305,194.291 135.104 L 195.000 134.737 195.000 151.001 C 195.000 169.090,194.975 168.794,196.752 171.378 C 203.170 180.706,218.793 173.497,223.033 159.250 C 224.288 155.033,221.876 153.632,218.661 156.709 C 216.912 158.383,215.819 159.250,215.458 159.250 C 215.358 159.250,215.242 151.853,215.201 142.813 L 215.125 126.375 214.393 124.643 C 212.527 120.226,206.908 117.433,202.375 118.668 " stroke="none" fill="#f4f3f3" fill-rule="evenodd"></path><path id="path2" d="M195.529 65.631 C 193.826 65.807,192.195 66.065,191.904 66.204 C 191.613 66.343,190.363 66.646,189.125 66.877 C 187.887 67.108,186.762 67.385,186.625 67.491 C 186.488 67.597,185.756 67.824,185.000 67.995 C 184.244 68.166,183.400 68.442,183.125 68.607 C 182.850 68.773,181.866 69.110,180.938 69.357 C 180.009 69.604,179.250 69.885,179.250 69.982 C 179.250 70.079,178.631 70.354,177.875 70.592 C 177.119 70.831,176.500 71.120,176.500 71.235 C 176.500 71.350,176.118 71.516,175.650 71.604 C 175.183 71.691,174.367 72.057,173.838 72.416 C 173.309 72.776,172.566 73.177,172.188 73.309 C 171.809 73.441,171.500 73.646,171.500 73.764 C 171.500 73.883,171.038 74.118,170.474 74.287 C 169.910 74.456,169.391 74.742,169.322 74.922 C 169.253 75.103,169.091 75.250,168.961 75.250 C 168.681 75.250,165.662 77.292,165.542 77.563 C 165.496 77.666,165.339 77.750,165.192 77.750 C 165.046 77.750,164.446 78.144,163.859 78.625 C 163.271 79.106,162.729 79.500,162.654 79.500 C 162.506 79.500,162.019 79.919,160.173 81.633 C 159.512 82.247,158.911 82.750,158.837 82.750 C 158.710 82.750,155.721 85.775,153.188 88.467 C 152.534 89.161,152.000 89.843,152.000 89.984 C 152.000 90.124,151.719 90.423,151.375 90.648 C 151.031 90.873,150.750 91.166,150.750 91.299 C 150.750 91.432,150.356 92.021,149.875 92.609 C 149.394 93.196,149.000 93.806,149.000 93.963 C 149.000 94.121,148.893 94.250,148.762 94.250 C 148.631 94.250,148.337 94.644,148.108 95.125 C 147.880 95.606,147.610 96.000,147.509 96.000 C 147.409 96.000,147.123 96.450,146.875 97.000 C 146.627 97.550,146.357 98.001,146.275 98.003 C 146.192 98.004,145.901 98.483,145.627 99.065 C 145.353 99.648,144.987 100.274,144.814 100.455 C 144.641 100.637,144.500 100.896,144.500 101.031 C 144.500 101.166,144.216 101.692,143.870 102.201 C 143.523 102.709,143.120 103.564,142.975 104.100 C 142.829 104.636,142.565 105.221,142.387 105.399 C 142.209 105.577,141.912 106.235,141.727 106.861 C 141.542 107.488,141.317 108.000,141.226 108.000 C 141.136 108.000,140.857 108.787,140.608 109.750 C 140.358 110.713,140.072 111.500,139.973 111.500 C 139.874 111.500,139.591 112.372,139.344 113.438 C 139.097 114.503,138.835 115.431,138.760 115.500 C 138.578 115.668,138.495 116.018,138.045 118.500 C 137.833 119.669,137.584 120.681,137.492 120.750 C 136.348 121.602,136.352 144.266,137.496 146.470 C 137.612 146.693,137.904 148.028,138.145 149.438 C 138.386 150.847,138.654 152.000,138.740 152.000 C 138.826 152.000,139.048 152.703,139.234 153.563 C 139.419 154.422,139.717 155.406,139.896 155.750 C 140.074 156.094,140.411 156.994,140.643 157.750 C 140.876 158.506,141.149 159.238,141.250 159.375 C 141.352 159.512,141.576 160.075,141.749 160.625 C 141.922 161.175,142.204 161.794,142.377 162.000 C 142.679 162.361,143.028 163.246,143.156 163.975 C 143.189 164.167,143.323 164.392,143.452 164.475 C 143.581 164.557,143.940 165.216,144.249 165.938 C 144.559 166.659,144.889 167.250,144.984 167.250 C 145.079 167.250,145.311 167.644,145.500 168.125 C 145.689 168.606,145.941 169.000,146.061 169.000 C 146.181 169.000,146.210 169.113,146.125 169.250 C 146.040 169.387,146.062 169.501,146.173 169.503 C 146.284 169.504,146.590 169.954,146.853 170.503 C 147.115 171.051,147.412 171.500,147.512 171.500 C 147.611 171.500,147.880 171.894,148.108 172.375 C 148.337 172.856,148.631 173.250,148.762 173.250 C 148.893 173.250,149.000 173.383,149.000 173.546 C 149.000 173.709,149.450 174.376,150.000 175.029 C 150.550 175.681,151.000 176.308,151.000 176.422 C 151.000 176.536,151.225 176.770,151.500 176.942 C 151.775 177.114,152.000 177.357,152.000 177.482 C 152.000 177.608,152.450 178.165,153.000 178.720 C 153.550 179.276,154.000 179.826,154.000 179.943 C 154.000 180.059,154.741 180.823,155.646 181.640 C 156.551 182.457,158.066 183.884,159.012 184.813 C 159.959 185.741,160.841 186.500,160.973 186.500 C 161.105 186.500,161.435 186.781,161.705 187.125 C 161.976 187.469,162.275 187.750,162.371 187.750 C 162.467 187.750,163.006 188.144,163.568 188.625 C 164.130 189.106,164.689 189.500,164.810 189.500 C 165.024 189.500,166.993 190.949,167.259 191.303 C 167.332 191.401,167.810 191.655,168.321 191.869 C 168.832 192.082,169.250 192.358,169.250 192.483 C 169.250 192.607,169.756 192.902,170.375 193.138 C 170.994 193.375,171.500 193.654,171.500 193.759 C 171.500 193.864,172.063 194.152,172.750 194.399 C 173.438 194.647,174.000 194.928,174.000 195.024 C 174.000 195.121,174.563 195.402,175.250 195.649 C 175.938 195.897,176.500 196.174,176.500 196.265 C 176.500 196.357,177.034 196.627,177.688 196.865 C 178.341 197.103,179.333 197.503,179.893 197.754 C 180.453 198.005,181.325 198.288,181.830 198.383 C 182.336 198.478,182.750 198.637,182.750 198.736 C 182.750 198.835,182.891 198.928,183.063 198.943 C 183.745 199.000,186.633 199.844,186.753 200.022 C 186.823 200.126,188.004 200.409,189.378 200.651 C 190.751 200.893,191.931 201.168,192.000 201.262 C 192.601 202.082,209.924 202.460,215.000 201.763 C 216.444 201.565,217.709 201.425,217.813 201.451 C 217.916 201.478,218.000 201.408,218.000 201.295 C 218.000 201.182,218.928 200.944,220.063 200.765 C 221.197 200.586,222.463 200.295,222.875 200.118 C 223.287 199.941,224.441 199.605,225.438 199.371 C 226.434 199.137,227.250 198.871,227.250 198.778 C 227.250 198.686,228.037 198.408,229.000 198.160 C 229.963 197.912,230.750 197.606,230.750 197.480 C 230.750 197.353,230.947 197.249,231.188 197.247 C 231.428 197.245,232.115 196.964,232.713 196.622 C 233.311 196.280,233.907 196.000,234.037 196.000 C 234.381 196.000,238.110 194.158,238.207 193.940 C 238.253 193.839,238.759 193.532,239.332 193.259 C 240.430 192.736,240.742 192.547,242.337 191.438 C 242.880 191.059,243.471 190.750,243.648 190.750 C 243.826 190.750,244.119 190.553,244.298 190.313 C 244.478 190.072,245.006 189.663,245.472 189.403 C 245.938 189.143,246.512 188.750,246.747 188.528 C 247.198 188.104,248.081 187.371,249.640 186.125 C 250.476 185.457,255.616 180.386,257.523 178.348 C 257.923 177.921,258.250 177.447,258.250 177.294 C 258.250 177.142,258.475 176.897,258.750 176.750 C 259.025 176.603,259.250 176.338,259.250 176.162 C 259.250 175.985,259.644 175.399,260.125 174.858 C 260.606 174.317,261.000 173.740,261.000 173.575 C 261.000 173.410,261.145 173.185,261.321 173.075 C 261.647 172.873,263.500 170.165,263.500 169.893 C 263.500 169.811,263.874 169.212,264.331 168.560 C 264.788 167.908,265.372 166.897,265.629 166.313 C 265.886 165.728,266.187 165.250,266.298 165.250 C 266.409 165.250,266.501 165.109,266.503 164.938 C 266.505 164.766,266.818 164.006,267.198 163.250 C 267.578 162.494,268.045 161.397,268.235 160.813 C 268.425 160.228,268.658 159.750,268.753 159.750 C 268.848 159.750,269.130 158.991,269.379 158.063 C 269.627 157.134,269.973 156.150,270.147 155.875 C 270.321 155.600,270.607 154.672,270.782 153.813 C 270.957 152.953,271.171 152.250,271.258 152.250 C 271.345 152.250,271.434 152.109,271.455 151.938 C 271.620 150.608,272.381 147.100,272.527 146.998 C 272.870 146.758,273.787 137.204,273.774 134.000 C 273.765 131.792,273.290 125.288,272.989 123.250 C 272.836 122.219,272.696 121.178,272.677 120.938 C 272.658 120.697,272.575 120.500,272.491 120.500 C 272.408 120.500,272.194 119.572,272.015 118.438 C 271.836 117.303,271.544 116.037,271.365 115.625 C 271.186 115.213,270.842 114.003,270.599 112.938 C 270.357 111.872,270.083 111.000,269.991 111.000 C 269.899 111.000,269.626 110.269,269.384 109.375 C 269.142 108.481,268.853 107.750,268.742 107.750 C 268.631 107.750,268.462 107.394,268.366 106.959 C 268.270 106.523,267.812 105.427,267.347 104.521 C 266.883 103.616,266.502 102.734,266.501 102.563 C 266.501 102.391,266.402 102.250,266.283 102.250 C 266.164 102.250,265.821 101.716,265.520 101.063 C 264.915 99.746,264.439 98.893,263.428 97.317 C 263.055 96.736,262.750 96.157,262.750 96.032 C 262.750 95.906,262.581 95.739,262.375 95.660 C 262.169 95.580,262.000 95.343,262.000 95.133 C 262.000 94.922,261.912 94.750,261.804 94.750 C 261.696 94.750,261.392 94.384,261.129 93.938 C 260.702 93.214,259.729 91.874,258.723 90.622 C 258.532 90.384,258.066 89.876,257.688 89.494 C 257.309 89.112,257.000 88.710,257.000 88.601 C 257.000 88.346,251.490 82.936,249.894 81.625 C 249.225 81.075,248.384 80.361,248.026 80.037 C 247.668 79.714,247.066 79.289,246.688 79.093 C 246.309 78.897,246.000 78.640,246.000 78.522 C 246.000 78.404,245.606 78.120,245.125 77.892 C 244.644 77.663,244.250 77.367,244.250 77.232 C 244.250 77.098,243.969 76.881,243.625 76.750 C 243.281 76.619,243.000 76.397,243.000 76.256 C 243.000 76.115,242.916 76.020,242.813 76.045 C 242.538 76.111,241.003 75.160,241.002 74.923 C 241.001 74.812,240.887 74.790,240.750 74.875 C 240.613 74.960,240.500 74.928,240.500 74.805 C 240.500 74.681,240.050 74.432,239.500 74.250 C 238.950 74.068,238.500 73.839,238.500 73.740 C 238.500 73.507,232.588 70.574,231.685 70.359 C 231.306 70.269,230.938 70.102,230.868 69.989 C 230.798 69.875,230.096 69.596,229.308 69.368 C 228.520 69.140,227.762 68.862,227.625 68.751 C 227.488 68.641,226.588 68.364,225.625 68.137 C 224.662 67.910,223.594 67.571,223.250 67.385 C 222.906 67.198,221.669 66.907,220.500 66.738 C 219.331 66.569,218.315 66.338,218.242 66.226 C 217.693 65.383,201.919 64.970,195.529 65.631 M214.500 75.705 C 262.030 84.016,280.436 141.305,246.544 175.439 C 218.333 203.850,169.921 195.731,152.255 159.625 C 134.147 122.613,157.901 80.143,199.500 75.154 C 201.946 74.861,211.728 75.220,214.500 75.705 " stroke="none" fill="#ec7c2b" fill-rule="evenodd"></path><path id="path3" d="M194.613 94.813 L 193.625 95.875 194.688 94.887 C 195.676 93.968,195.865 93.750,195.676 93.750 C 195.635 93.750,195.157 94.228,194.613 94.813 M212.785 99.250 C 212.785 99.456,212.882 99.850,213.000 100.125 C 213.135 100.440,213.215 100.486,213.215 100.250 C 213.215 100.044,213.118 99.650,213.000 99.375 C 212.865 99.060,212.785 99.014,212.785 99.250 M191.558 101.500 C 191.558 101.981,191.609 102.178,191.672 101.938 C 191.735 101.697,191.735 101.303,191.672 101.063 C 191.609 100.822,191.558 101.019,191.558 101.500 M213.313 102.375 C 213.316 102.925,213.367 103.121,213.427 102.810 C 213.487 102.499,213.484 102.049,213.422 101.810 C 213.359 101.571,213.310 101.825,213.313 102.375 M191.558 103.250 C 191.558 103.731,191.609 103.928,191.672 103.688 C 191.735 103.447,191.735 103.053,191.672 102.813 C 191.609 102.572,191.558 102.769,191.558 103.250 M194.750 110.125 C 195.216 110.606,195.654 111.000,195.723 111.000 C 195.792 111.000,195.466 110.606,195.000 110.125 C 194.534 109.644,194.096 109.250,194.027 109.250 C 193.958 109.250,194.284 109.644,194.750 110.125 M204.440 118.177 C 204.751 118.237,205.201 118.234,205.440 118.172 C 205.679 118.109,205.425 118.060,204.875 118.063 C 204.325 118.066,204.129 118.117,204.440 118.177 M215.368 143.250 C 215.368 151.981,215.399 155.553,215.437 151.188 C 215.476 146.822,215.476 139.678,215.437 135.313 C 215.399 130.947,215.368 134.519,215.368 143.250 M216.116 170.563 L 214.875 171.875 216.188 170.634 C 217.407 169.482,217.615 169.250,217.428 169.250 C 217.389 169.250,216.798 169.841,216.116 170.563 " stroke="none" fill="#f8c169" fill-rule="evenodd"></path><path id="path4" d="M201.692 91.681 C 202.141 91.737,202.816 91.736,203.192 91.679 C 203.568 91.622,203.200 91.576,202.375 91.577 C 201.550 91.579,201.243 91.626,201.692 91.681 M209.875 94.750 C 210.412 95.300,210.908 95.750,210.976 95.750 C 211.045 95.750,210.662 95.300,210.125 94.750 C 209.588 94.200,209.092 93.750,209.024 93.750 C 208.955 93.750,209.338 94.200,209.875 94.750 M211.924 97.622 C 212.153 98.101,212.384 98.449,212.438 98.395 C 212.553 98.281,211.794 96.750,211.623 96.750 C 211.560 96.750,211.695 97.142,211.924 97.622 M213.086 102.375 C 213.087 103.475,213.131 103.894,213.183 103.306 C 213.236 102.718,213.235 101.818,213.182 101.306 C 213.128 100.794,213.085 101.275,213.086 102.375 M211.875 107.250 C 211.662 107.662,211.543 108.000,211.612 108.000 C 211.681 108.000,211.912 107.662,212.125 107.250 C 212.338 106.838,212.457 106.500,212.388 106.500 C 212.319 106.500,212.088 106.838,211.875 107.250 M209.863 110.063 L 208.875 111.125 209.938 110.137 C 210.926 109.218,211.115 109.000,210.926 109.000 C 210.885 109.000,210.407 109.478,209.863 110.063 M197.000 111.623 C 197.000 111.794,198.531 112.553,198.645 112.438 C 198.699 112.384,198.351 112.153,197.872 111.924 C 197.392 111.695,197.000 111.560,197.000 111.623 M201.816 113.179 C 202.196 113.237,202.758 113.235,203.066 113.176 C 203.373 113.117,203.063 113.070,202.375 113.072 C 201.688 113.073,201.436 113.122,201.816 113.179 M204.192 118.431 C 204.641 118.487,205.316 118.486,205.692 118.429 C 206.068 118.372,205.700 118.326,204.875 118.327 C 204.050 118.329,203.743 118.376,204.192 118.431 M200.000 119.375 C 199.656 119.572,199.488 119.732,199.625 119.732 C 199.762 119.732,200.156 119.572,200.500 119.375 C 200.844 119.178,201.012 119.018,200.875 119.018 C 200.738 119.018,200.344 119.178,200.000 119.375 M193.867 123.813 L 192.375 125.375 193.938 123.883 C 194.797 123.062,195.500 122.359,195.500 122.320 C 195.500 122.136,195.253 122.361,193.867 123.813 M194.868 150.250 C 194.868 158.844,194.899 162.359,194.937 158.063 C 194.976 153.766,194.976 146.734,194.937 142.438 C 194.899 138.141,194.868 141.656,194.868 150.250 M186.531 136.785 C 186.512 137.340,186.671 137.881,186.938 138.172 C 187.178 138.434,187.269 138.493,187.139 138.303 C 187.009 138.112,186.826 137.488,186.733 136.916 L 186.563 135.875 186.531 136.785 M191.366 137.563 L 190.125 138.875 191.438 137.634 C 192.657 136.482,192.865 136.250,192.678 136.250 C 192.639 136.250,192.048 136.841,191.366 137.563 M188.563 139.172 C 188.803 139.235,189.197 139.235,189.438 139.172 C 189.678 139.109,189.481 139.058,189.000 139.058 C 188.519 139.058,188.322 139.109,188.563 139.172 M218.243 156.938 L 216.625 158.625 218.313 157.007 C 219.241 156.117,220.000 155.358,220.000 155.320 C 220.000 155.136,219.745 155.370,218.243 156.938 M221.791 162.386 C 221.372 163.305,221.452 163.501,221.905 162.665 C 222.116 162.275,222.242 161.909,222.185 161.852 C 222.128 161.795,221.950 162.035,221.791 162.386 M217.359 169.063 L 216.625 169.875 217.438 169.141 C 217.884 168.737,218.250 168.371,218.250 168.328 C 218.250 168.135,218.044 168.305,217.359 169.063 M215.109 171.313 L 214.375 172.125 215.188 171.391 C 215.634 170.987,216.000 170.621,216.000 170.578 C 216.000 170.385,215.794 170.555,215.109 171.313 M197.000 172.078 C 197.000 172.121,197.366 172.487,197.813 172.891 L 198.625 173.625 197.891 172.813 C 197.206 172.055,197.000 171.885,197.000 172.078 M202.250 175.489 C 202.456 175.628,202.841 175.744,203.104 175.746 C 203.744 175.751,203.544 175.608,202.625 175.403 C 202.077 175.280,201.976 175.303,202.250 175.489 M204.313 175.929 C 204.691 175.986,205.309 175.986,205.688 175.929 C 206.066 175.872,205.756 175.825,205.000 175.825 C 204.244 175.825,203.934 175.872,204.313 175.929 " stroke="none" fill="#f4cc86" fill-rule="evenodd"></path></g></svg>