<svg xmlns="http://www.w3.org/2000/svg" xmlns:xlink="http://www.w3.org/1999/xlink" width="1280" zoomAndPan="magnify" viewBox="0 0 960 599.999999" height="800" preserveAspectRatio="xMidYMid meet" version="1.0"><defs><g/><clipPath id="6d65df1621"><path d="M 285.917969 118.324219 L 717.703125 118.324219 L 717.703125 207.828125 L 285.917969 207.828125 Z M 285.917969 118.324219 " clip-rule="nonzero"/></clipPath><clipPath id="af597d55e2"><path d="M 323.417969 118.324219 L 680.128906 118.324219 C 690.074219 118.324219 699.613281 122.273438 706.644531 129.304688 C 713.679688 136.339844 717.628906 145.875 717.628906 155.824219 L 717.628906 170.328125 C 717.628906 180.273438 713.679688 189.808594 706.644531 196.84375 C 699.613281 203.875 690.074219 207.828125 680.128906 207.828125 L 323.417969 207.828125 C 313.472656 207.828125 303.933594 203.875 296.898438 196.84375 C 289.867188 189.808594 285.917969 180.273438 285.917969 170.328125 L 285.917969 155.824219 C 285.917969 145.875 289.867188 136.339844 296.898438 129.304688 C 303.933594 122.273438 313.472656 118.324219 323.417969 118.324219 Z M 323.417969 118.324219 " clip-rule="nonzero"/></clipPath><clipPath id="49385fbd01"><path d="M 285.933594 118.324219 L 717.917969 118.324219 L 717.917969 207.574219 L 285.933594 207.574219 Z M 285.933594 118.324219 " clip-rule="nonzero"/></clipPath><clipPath id="9f104c2dee"><path d="M 323.429688 118.324219 L 680.109375 118.324219 C 690.054688 118.324219 699.59375 122.273438 706.625 129.304688 C 713.65625 136.335938 717.609375 145.875 717.609375 155.820312 L 717.609375 170.320312 C 717.609375 180.265625 713.65625 189.804688 706.625 196.835938 C 699.59375 203.867188 690.054688 207.820312 680.109375 207.820312 L 323.429688 207.820312 C 313.484375 207.820312 303.949219 203.867188 296.914062 196.835938 C 289.882812 189.804688 285.933594 180.265625 285.933594 170.320312 L 285.933594 155.820312 C 285.933594 145.875 289.882812 136.335938 296.914062 129.304688 C 303.949219 122.273438 313.484375 118.324219 323.429688 118.324219 Z M 323.429688 118.324219 " clip-rule="nonzero"/></clipPath><clipPath id="67db75b594"><path d="M 638.671875 131.375 L 702.074219 131.375 L 702.074219 194.773438 L 638.671875 194.773438 Z M 638.671875 131.375 " clip-rule="nonzero"/></clipPath><clipPath id="48a2bc593a"><path d="M 670.375 131.375 C 652.867188 131.375 638.671875 145.566406 638.671875 163.074219 C 638.671875 180.582031 652.867188 194.773438 670.375 194.773438 C 687.882812 194.773438 702.074219 180.582031 702.074219 163.074219 C 702.074219 145.566406 687.882812 131.375 670.375 131.375 Z M 670.375 131.375 " clip-rule="nonzero"/></clipPath><clipPath id="8df7b77a42"><path d="M 655 144 L 688 144 L 688 180 L 655 180 Z M 655 144 " clip-rule="nonzero"/></clipPath><clipPath id="0839e58f74"><path d="M 670.371094 144.765625 L 687.875 162.265625 L 670.371094 179.769531 L 652.871094 162.265625 Z M 670.371094 144.765625 " clip-rule="nonzero"/></clipPath><clipPath id="7a49da506a"><path d="M 670.371094 144.765625 L 687.875 162.265625 L 670.371094 179.769531 L 652.871094 162.265625 Z M 670.371094 144.765625 " clip-rule="nonzero"/></clipPath></defs><g clip-path="url(#6d65df1621)"><g clip-path="url(#af597d55e2)"><path fill="#5271ff" d="M 285.917969 118.324219 L 717.703125 118.324219 L 717.703125 207.828125 L 285.917969 207.828125 Z M 285.917969 118.324219 " fill-opacity="1" fill-rule="nonzero"/></g></g><g clip-path="url(#49385fbd01)"><g clip-path="url(#9f104c2dee)"><path stroke-linecap="butt" transform="matrix(0.75, 0, 0, 0.75, 285.933211, 118.322417)" fill="none" stroke-linejoin="miter" d="M 49.995303 0.00240186 L 525.56824 0.00240186 C 538.828658 0.00240186 551.547408 5.268027 560.922409 14.643027 C 570.297409 24.018028 575.568243 36.736778 575.568243 49.997196 L 575.568243 69.33053 C 575.568243 82.590947 570.297409 95.309698 560.922409 104.684698 C 551.547408 114.059698 538.828658 119.330532 525.56824 119.330532 L 49.995303 119.330532 C 36.734886 119.330532 24.021344 114.059698 14.641135 104.684698 C 5.266135 95.309698 0.000509693 82.590947 0.000509693 69.33053 L 0.000509693 49.997196 C 0.000509693 36.736778 5.266135 24.018028 14.641135 14.643027 C 24.021344 5.268027 36.734886 0.00240186 49.995303 0.00240186 Z M 49.995303 0.00240186 " stroke="#faf8f4" stroke-width="2" stroke-opacity="1" stroke-miterlimit="4"/></g></g><g clip-path="url(#67db75b594)"><g clip-path="url(#48a2bc593a)"><path fill="#faf8f4" d="M 638.671875 131.375 L 702.074219 131.375 L 702.074219 194.773438 L 638.671875 194.773438 Z M 638.671875 131.375 " fill-opacity="1" fill-rule="nonzero"/></g></g><g fill="#faf8f4" fill-opacity="1"><g transform="translate(388.76485, 177.545642)"><g><path d="M 3.390625 0 L 8.109375 0 L 8.109375 -26.296875 L 3.390625 -26.296875 Z M 3.390625 0 "/></g></g></g><g fill="#faf8f4" fill-opacity="1"><g transform="translate(398.285646, 177.545642)"><g><path d="M 2.703125 0 L 7.203125 0 L 7.203125 -10.1875 C 7.203125 -13.421875 8.84375 -14.796875 11.390625 -14.796875 C 13.71875 -14.796875 14.953125 -13.03125 14.953125 -10.59375 L 14.953125 0 L 19.4375 0 L 19.4375 -11.171875 C 19.4375 -15.0625 17.578125 -18.984375 12.703125 -18.984375 C 10.875 -18.984375 8.6875 -18.265625 7.203125 -16.4375 L 7.203125 -18.59375 L 2.703125 -18.59375 Z M 2.703125 0 "/></g></g></g><g fill="#faf8f4" fill-opacity="1"><g transform="translate(417.914436, 177.545642)"><g><path d="M 2.59375 -22.109375 L 7.3125 -22.109375 L 7.3125 -26.296875 L 2.59375 -26.296875 Z M 2.703125 0 L 7.203125 0 L 7.203125 -18.59375 L 2.703125 -18.59375 Z M 2.703125 0 "/></g></g></g><g fill="#faf8f4" fill-opacity="1"><g transform="translate(425.834336, 177.545642)"><g><path d="M 10.078125 0.375 C 13.75 0.375 16.65625 -1.671875 17.890625 -5.140625 L 13.75 -6.703125 C 13.265625 -4.953125 11.859375 -3.734375 10.03125 -3.734375 C 6.875 -3.734375 5.671875 -6.4375 5.671875 -9.265625 C 5.671875 -12.046875 6.90625 -14.875 10.03125 -14.875 C 11.890625 -14.875 13.265625 -13.609375 13.75 -11.828125 L 18.078125 -13.5 C 16.65625 -17.203125 13.71875 -18.984375 10.03125 -18.984375 C 3.96875 -18.984375 1.0625 -14.140625 1.0625 -9.265625 C 1.0625 -4.34375 4 0.375 10.078125 0.375 Z M 10.078125 0.375 "/></g></g></g><g fill="#faf8f4" fill-opacity="1"><g transform="translate(442.540557, 177.545642)"><g><path d="M 2.59375 -22.109375 L 7.3125 -22.109375 L 7.3125 -26.296875 L 2.59375 -26.296875 Z M 2.703125 0 L 7.203125 0 L 7.203125 -18.59375 L 2.703125 -18.59375 Z M 2.703125 0 "/></g></g></g><g fill="#faf8f4" fill-opacity="1"><g transform="translate(450.460456, 177.545642)"><g><path d="M 7.78125 0.375 C 10 0.375 11.96875 -0.328125 13.578125 -2.65625 L 13.875 0 L 17.609375 0 L 17.609375 -11.28125 C 17.609375 -15.828125 14.625 -18.984375 9.5625 -18.984375 C 5.90625 -18.984375 3.53125 -17.34375 1.75 -14.90625 L 5.234375 -12.390625 C 6.03125 -13.75 7.46875 -15.015625 9.609375 -15.015625 C 12 -15.015625 13.265625 -13.453125 13.265625 -11.09375 L 8.4375 -11.09375 C 4.265625 -11.09375 1.03125 -9.75 1.03125 -5.71875 C 1.03125 -1.828125 3.96875 0.375 7.78125 0.375 Z M 8.4375 -3.46875 C 6.671875 -3.46875 5.671875 -4.34375 5.671875 -5.5625 C 5.671875 -6.734375 6.625 -7.8125 8.6875 -7.8125 L 13.265625 -7.8125 C 13.203125 -5.484375 11.015625 -3.46875 8.4375 -3.46875 Z M 8.4375 -3.46875 "/></g></g></g><g fill="#faf8f4" fill-opacity="1"><g transform="translate(468.227738, 177.545642)"><g><path d="M 2.703125 0 L 7.09375 0 L 7.09375 -7.859375 C 7.09375 -12.578125 9.3125 -14.5625 11.4375 -14.5625 C 12.15625 -14.5625 12.84375 -14.328125 13.453125 -13.921875 L 15.53125 -17.640625 C 14.625 -18.5625 13.34375 -18.984375 12.125 -18.984375 C 10.03125 -18.984375 7.9375 -17.71875 7.125 -15.46875 L 7.125 -18.59375 L 2.703125 -18.59375 Z M 2.703125 0 "/></g></g></g><g fill="#faf8f4" fill-opacity="1"><g transform="translate(481.415707, 177.545642)"><g/></g></g><g fill="#faf8f4" fill-opacity="1"><g transform="translate(488.591003, 177.545642)"><g><path d="M 8.296875 0.375 C 11.828125 0.375 15.5625 -1.53125 15.5625 -5.828125 C 15.5625 -12.65625 6.109375 -10.984375 6.109375 -13.796875 C 6.109375 -14.671875 7.015625 -15.390625 8.5 -15.390625 C 10.515625 -15.390625 11.5625 -14.1875 12.1875 -13.03125 L 15.71875 -14.953125 C 14.296875 -17.46875 11.859375 -18.984375 8.65625 -18.984375 C 5.0625 -18.984375 1.75 -17.125 1.75 -13.203125 C 1.75 -6.625 11.09375 -8.734375 11.09375 -5.609375 C 11.09375 -4.609375 10.1875 -3.390625 8.078125 -3.390625 C 5.609375 -3.390625 4.609375 -5.09375 4.109375 -6.4375 L 0.5 -4.84375 C 1.421875 -1.96875 4.390625 0.375 8.296875 0.375 Z M 8.296875 0.375 "/></g></g></g><g fill="#faf8f4" fill-opacity="1"><g transform="translate(503.528791, 177.545642)"><g><path d="M 10.4375 0.375 C 13.578125 0.375 16.046875 -0.71875 18.078125 -2.984375 L 14.953125 -5.71875 C 13.640625 -4.265625 12.15625 -3.734375 10.484375 -3.734375 C 7.5625 -3.734375 6.21875 -5.375 5.828125 -7.8125 L 18.59375 -7.8125 C 18.6875 -8.078125 18.765625 -8.84375 18.765625 -9.609375 C 18.765625 -13.75 16.65625 -18.984375 10.140625 -18.984375 C 3.859375 -18.984375 1.03125 -14.078125 1.03125 -9.234375 C 1.03125 -4.21875 4.046875 0.375 10.4375 0.375 Z M 5.828125 -11.09375 C 6.25 -13.421875 7.421875 -15.171875 10.109375 -15.171875 C 12.46875 -15.171875 14 -13.75 14.296875 -11.09375 Z M 5.828125 -11.09375 "/></g></g></g><g fill="#faf8f4" fill-opacity="1"><g transform="translate(521.407763, 177.545642)"><g><path d="M 8.296875 0.375 C 11.828125 0.375 15.5625 -1.53125 15.5625 -5.828125 C 15.5625 -12.65625 6.109375 -10.984375 6.109375 -13.796875 C 6.109375 -14.671875 7.015625 -15.390625 8.5 -15.390625 C 10.515625 -15.390625 11.5625 -14.1875 12.1875 -13.03125 L 15.71875 -14.953125 C 14.296875 -17.46875 11.859375 -18.984375 8.65625 -18.984375 C 5.0625 -18.984375 1.75 -17.125 1.75 -13.203125 C 1.75 -6.625 11.09375 -8.734375 11.09375 -5.609375 C 11.09375 -4.609375 10.1875 -3.390625 8.078125 -3.390625 C 5.609375 -3.390625 4.609375 -5.09375 4.109375 -6.4375 L 0.5 -4.84375 C 1.421875 -1.96875 4.390625 0.375 8.296875 0.375 Z M 8.296875 0.375 "/></g></g></g><g fill="#faf8f4" fill-opacity="1"><g transform="translate(536.345551, 177.545642)"><g><path d="M 2.59375 -22.109375 L 7.3125 -22.109375 L 7.3125 -26.296875 L 2.59375 -26.296875 Z M 2.703125 0 L 7.203125 0 L 7.203125 -18.59375 L 2.703125 -18.59375 Z M 2.703125 0 "/></g></g></g><g fill="#faf8f4" fill-opacity="1"><g transform="translate(544.26545, 177.545642)"><g><path d="M 8.265625 -20.921875 L 11.578125 -20.921875 L 17.296875 -26.296875 L 12.453125 -26.296875 Z M 10.484375 0.375 C 16.234375 0.375 20.015625 -4.078125 20.015625 -9.34375 C 20.015625 -14.59375 16.234375 -18.984375 10.484375 -18.984375 C 4.734375 -18.984375 0.953125 -14.59375 0.953125 -9.34375 C 0.953125 -4.078125 4.734375 0.375 10.484375 0.375 Z M 10.484375 -3.53125 C 7.0625 -3.53125 5.671875 -6.296875 5.671875 -9.34375 C 5.671875 -12.390625 7.0625 -15.0625 10.484375 -15.0625 C 13.921875 -15.0625 15.28125 -12.390625 15.28125 -9.34375 C 15.28125 -6.296875 13.921875 -3.53125 10.484375 -3.53125 Z M 10.484375 -3.53125 "/></g></g></g><g fill="#faf8f4" fill-opacity="1"><g transform="translate(563.279942, 177.545642)"><g><path d="M 2.703125 0 L 7.203125 0 L 7.203125 -10.1875 C 7.203125 -13.421875 8.84375 -14.796875 11.390625 -14.796875 C 13.71875 -14.796875 14.953125 -13.03125 14.953125 -10.59375 L 14.953125 0 L 19.4375 0 L 19.4375 -11.171875 C 19.4375 -15.0625 17.578125 -18.984375 12.703125 -18.984375 C 10.875 -18.984375 8.6875 -18.265625 7.203125 -16.4375 L 7.203125 -18.59375 L 2.703125 -18.59375 Z M 2.703125 0 "/></g></g></g><g clip-path="url(#8df7b77a42)"><g clip-path="url(#0839e58f74)"><g clip-path="url(#7a49da506a)"><path fill="#0d221b" d="M 687.863281 162.257812 L 670.390625 179.734375 L 666.890625 176.234375 L 678.394531 164.730469 L 655.355469 164.730469 L 655.355469 159.785156 L 678.394531 159.785156 L 666.890625 148.28125 L 670.390625 144.785156 Z M 687.863281 162.257812 " fill-opacity="1" fill-rule="nonzero"/></g></g></g></svg>