<svg xmlns="http://www.w3.org/2000/svg" xmlns:xlink="http://www.w3.org/1999/xlink" width="500" zoomAndPan="magnify" viewBox="0 0 375 374.999991" height="500" preserveAspectRatio="xMidYMid meet" version="1.0"><defs><clipPath id="837710546f"><path d="M 114.878906 128.699219 L 254.378906 128.699219 L 254.378906 222.449219 L 114.878906 222.449219 Z M 114.878906 128.699219 " clip-rule="nonzero"/></clipPath></defs><path fill="#5271ff" d="M 237.628906 115.359375 C 237.476562 115.359375 237.3125 115.394531 237.175781 115.472656 L 230.457031 119.210938 L 237.628906 123.117188 L 244.824219 119.238281 L 238.078125 115.472656 C 237.941406 115.394531 237.777344 115.359375 237.628906 115.359375 Z M 229.53125 120.757812 L 229.53125 123.316406 L 220.984375 128.066406 C 220.683594 128.242188 220.53125 128.503906 220.535156 128.851562 L 220.535156 136.609375 L 217.808594 138.128906 L 225.035156 142.007812 L 232.175781 138.101562 L 225.484375 134.363281 C 225.210938 134.210938 224.855469 134.210938 224.582031 134.363281 L 222.335938 135.597656 L 222.335938 129.386719 L 229.53125 125.394531 L 229.53125 128.261719 C 229.53125 128.589844 229.695312 128.890625 229.980469 129.050781 L 236.726562 132.789062 L 236.726562 124.691406 Z M 245.722656 120.8125 L 238.527344 124.691406 L 238.527344 132.789062 L 245.273438 129.050781 C 245.558594 128.890625 245.722656 128.589844 245.722656 128.261719 L 245.722656 125.394531 L 252.917969 129.386719 L 252.917969 135.625 L 250.671875 134.363281 C 250.398438 134.210938 250.042969 134.210938 249.769531 134.363281 L 243.050781 138.101562 L 250.21875 142.007812 L 257.359375 138.101562 L 254.71875 136.609375 L 254.71875 128.851562 C 254.71875 128.527344 254.554688 128.222656 254.269531 128.066406 L 245.722656 123.316406 Z M 233.128906 139.617188 L 225.933594 143.582031 L 225.933594 151.675781 L 227.113281 151.03125 L 237.175781 156.625 C 237.476562 156.796875 237.777344 156.796875 238.078125 156.625 L 248.140625 151.03125 L 249.320312 151.675781 L 249.320312 143.582031 L 242.125 139.644531 L 242.125 147.152344 C 242.125 147.480469 242.289062 147.78125 242.574219 147.9375 L 246.285156 149.992188 L 237.628906 154.796875 L 228.96875 149.992188 L 232.679688 147.9375 C 232.964844 147.78125 233.128906 147.480469 233.128906 147.152344 Z M 258.316406 139.617188 L 251.121094 143.582031 L 251.121094 151.675781 L 257.867188 147.9375 C 258.152344 147.78125 258.316406 147.480469 258.316406 147.152344 Z M 216.9375 139.703125 L 216.9375 147.152344 C 216.9375 147.480469 217.101562 147.78125 217.386719 147.9375 L 224.132812 151.675781 L 224.132812 143.582031 Z M 216.9375 139.703125 " fill-opacity="1" fill-rule="nonzero"/><g clip-path="url(#837710546f)"><path fill="#5271ff" d="M 244.191406 212.171875 C 245.039062 212.171875 245.726562 213.839844 245.726562 215.894531 C 245.726562 217.949219 245.039062 219.617188 244.191406 219.617188 C 243.34375 219.617188 242.65625 217.949219 242.65625 215.894531 C 242.65625 213.839844 243.34375 212.171875 244.191406 212.171875 M 247.308594 213.851562 C 247.765625 213.851562 248.136719 214.863281 248.136719 216.113281 C 248.136719 217.367188 247.765625 218.378906 247.308594 218.378906 C 247.199219 218.378906 247.058594 218.34375 247 218.21875 C 247.046875 218.242188 247.117188 218.277344 247.199219 218.25 C 247.460938 218.15625 247.890625 217.214844 247.890625 216.105469 C 247.890625 215.082031 247.53125 214.25 247.261719 214.0625 C 247.132812 213.972656 247.03125 214.027344 246.925781 214.105469 C 247 213.933594 247.167969 213.851562 247.308594 213.851562 M 244.03125 213.335938 C 244.539062 213.335938 244.949219 214.460938 244.949219 215.847656 C 244.949219 217.238281 244.539062 218.363281 244.03125 218.363281 C 243.910156 218.363281 243.769531 218.316406 243.691406 218.183594 C 243.753906 218.214844 243.910156 218.21875 243.984375 218.199219 C 244.382812 218.089844 244.675781 217.027344 244.675781 215.839844 C 244.675781 214.765625 244.363281 213.871094 244.074219 213.597656 C 243.921875 213.457031 243.75 213.515625 243.605469 213.621094 C 243.695312 213.445312 243.878906 213.335938 244.03125 213.335938 M 244.117188 214.4375 C 244.332031 214.4375 244.503906 215.070312 244.503906 215.847656 C 244.503906 216.628906 244.332031 217.257812 244.117188 217.257812 C 243.902344 217.257812 243.730469 216.628906 243.730469 215.847656 C 243.730469 215.070312 243.902344 214.4375 244.117188 214.4375 M 247.386719 214.84375 C 247.578125 214.84375 247.734375 215.414062 247.734375 216.113281 C 247.734375 216.816406 247.578125 217.386719 247.386719 217.386719 C 247.191406 217.386719 247.035156 216.816406 247.035156 216.113281 C 247.035156 215.414062 247.191406 214.84375 247.386719 214.84375 M 220.199219 205.917969 L 237.460938 210.308594 L 237.460938 216.957031 L 220.261719 215.851562 Z M 203.8125 206.1875 C 205.5625 206.1875 206.984375 209.628906 206.984375 213.878906 C 206.984375 218.125 205.5625 221.566406 203.8125 221.566406 C 202.0625 221.566406 200.640625 218.125 200.640625 213.878906 C 200.640625 209.628906 202.0625 206.1875 203.8125 206.1875 M 170.746094 203.390625 C 170.769531 203.367188 170.792969 203.347656 170.816406 203.328125 Z M 172.886719 206.390625 C 174.066406 206.390625 175.027344 209.003906 175.027344 212.230469 C 175.027344 215.460938 174.066406 218.074219 172.886719 218.074219 C 172.605469 218.074219 172.296875 217.933594 172.09375 217.660156 C 172.316406 217.769531 172.660156 217.824219 172.886719 217.703125 C 173.710938 217.261719 174.386719 214.875 174.386719 212.210938 C 174.386719 209.3125 173.640625 207.144531 172.761719 206.894531 C 172.539062 206.832031 172.09375 206.875 171.894531 207.050781 C 172.089844 206.660156 172.53125 206.390625 172.886719 206.390625 M 210.257812 209.652344 C 211.203125 209.652344 211.96875 211.746094 211.96875 214.332031 C 211.96875 216.914062 211.203125 219.011719 210.257812 219.011719 C 210.03125 219.011719 209.742188 218.9375 209.621094 218.679688 C 209.714844 218.726562 209.863281 218.800781 210.027344 218.742188 C 210.570312 218.550781 211.457031 216.609375 211.457031 214.316406 C 211.457031 212.195312 210.71875 210.476562 210.164062 210.089844 C 209.894531 209.902344 209.679688 210.019531 209.460938 210.183594 C 209.621094 209.824219 209.96875 209.652344 210.257812 209.652344 M 203.484375 208.589844 C 204.53125 208.589844 205.386719 210.914062 205.386719 213.78125 C 205.386719 216.652344 204.53125 218.976562 203.484375 218.976562 C 203.234375 218.976562 202.941406 218.878906 202.777344 218.609375 C 202.90625 218.671875 203.234375 218.683594 203.386719 218.640625 C 204.214844 218.414062 204.816406 216.214844 204.816406 213.765625 C 204.816406 211.542969 204.171875 209.691406 203.570312 209.128906 C 203.261719 208.839844 202.898438 208.957031 202.601562 209.179688 C 202.789062 208.816406 203.164062 208.589844 203.484375 208.589844 M 203.664062 210.867188 C 204.105469 210.867188 204.464844 212.171875 204.464844 213.78125 C 204.464844 215.390625 204.105469 216.695312 203.664062 216.695312 C 203.21875 216.695312 202.859375 215.390625 202.859375 213.78125 C 202.859375 212.171875 203.21875 210.867188 203.664062 210.867188 M 210.417969 211.707031 C 210.816406 211.707031 211.140625 212.882812 211.140625 214.332031 C 211.140625 215.78125 210.816406 216.957031 210.417969 216.957031 C 210.019531 216.957031 209.695312 215.78125 209.695312 214.332031 C 209.695312 212.882812 210.019531 211.707031 210.417969 211.707031 M 173.089844 208.953125 C 173.585938 208.953125 173.988281 210.421875 173.988281 212.230469 C 173.988281 214.042969 173.585938 215.511719 173.089844 215.511719 C 172.589844 215.511719 172.1875 214.042969 172.1875 212.230469 C 172.1875 210.421875 172.589844 208.953125 173.089844 208.953125 M 166.753906 221.292969 L 165.988281 207.792969 L 166.769531 221.292969 Z M 151.863281 195.285156 L 151.605469 182.910156 L 167.796875 179.515625 L 153.042969 183.722656 Z M 193.992188 160.972656 L 193.164062 160.890625 L 193.429688 179.515625 Z M 175.339844 166.648438 L 176.664062 166.863281 L 176.511719 170.117188 L 176.980469 170.160156 C 177.0625 170.164062 177.136719 170.179688 177.210938 170.207031 L 177.359375 166.976562 L 182.390625 167.792969 L 182.066406 178.9375 L 177.742188 178.980469 L 177.726562 179.605469 L 182.253906 179.554688 L 177.710938 180.121094 L 177.6875 180.917969 C 177.671875 181.492188 177.21875 182.222656 176.582031 182.136719 L 174.835938 181.988281 L 173.992188 193.828125 L 173.859375 181.902344 C 173.292969 181.820312 173.125 181.304688 173.15625 180.765625 L 173.703125 171.042969 C 173.734375 170.511719 173.9375 169.894531 174.589844 169.953125 L 174.925781 169.980469 Z M 197.941406 151.824219 L 194.734375 150.425781 L 197.785156 151.863281 L 197.5625 158.167969 L 194.78125 157.628906 L 197.796875 158.316406 Z M 198.292969 151.484375 L 194.390625 149.933594 L 194.214844 157.738281 L 198.113281 158.640625 Z M 174.480469 170.269531 L 176.324219 170.402344 C 176.675781 170.425781 176.957031 170.847656 176.945312 171.355469 L 176.714844 180.949219 C 176.703125 181.457031 176.40625 181.644531 176.050781 181.644531 L 173.976562 181.648438 C 173.625 181.648438 173.496094 181.359375 173.519531 180.851562 L 173.96875 171.128906 C 173.992188 170.625 174.125 170.246094 174.480469 170.269531 M 152.085938 197.03125 L 160.089844 197.03125 L 160.050781 202.863281 L 152.121094 202.570312 Z M 125.464844 190.050781 L 149.144531 190.082031 L 149.144531 191.746094 L 125.464844 191.613281 Z M 125.464844 193.039062 L 149.144531 193.261719 L 149.144531 194.925781 L 125.464844 194.601562 Z M 125.464844 196.03125 L 149.144531 196.449219 L 149.144531 198.109375 L 125.464844 197.589844 Z M 125.464844 199.019531 L 149.144531 199.628906 L 149.144531 201.292969 L 125.464844 200.582031 Z M 125.464844 202.007812 L 149.144531 202.808594 L 149.144531 204.472656 L 125.464844 203.570312 Z M 125.464844 184.070312 L 149.136719 183.714844 L 149.136719 185.382812 L 125.464844 185.636719 Z M 125.464844 187.066406 L 149.144531 186.902344 L 149.144531 188.566406 L 125.464844 188.628906 Z M 123.660156 202.382812 L 116.96875 201.882812 L 116.96875 197.632812 L 123.660156 197.582031 Z M 191.082031 212.101562 C 192.179688 210.621094 192.734375 208.792969 192.324219 206.898438 C 192.160156 206.144531 191.855469 205.460938 191.4375 204.859375 L 191.691406 204.921875 C 195.382812 205.839844 194.316406 210.898438 192.75 212.128906 Z M 186.867188 212.027344 C 187.726562 210.21875 188.085938 208.152344 187.679688 206.023438 C 187.519531 205.195312 187.253906 204.429688 186.898438 203.730469 L 190.675781 204.667969 C 191.242188 205.324219 191.652344 206.109375 191.847656 207.003906 C 192.253906 208.875 191.628906 210.671875 190.476562 212.089844 Z M 181.832031 202.46875 L 186.066406 203.523438 C 186.546875 204.300781 186.898438 205.1875 187.089844 206.171875 C 187.488281 208.253906 187.082031 210.277344 186.183594 212.015625 L 182.125 211.945312 C 184.25 209.066406 184.351562 204.363281 181.832031 202.46875 M 194.996094 213.117188 C 195.011719 210.746094 195.148438 209.335938 195.496094 208.105469 C 195.894531 206.703125 197.554688 205.113281 199.34375 205.117188 C 201.007812 205.117188 202.191406 205.152344 203.535156 205.28125 C 202.140625 205.480469 201.644531 206.265625 201.382812 206.695312 C 200.714844 207.78125 199.773438 209.03125 199.8125 213.414062 Z M 151.421875 176.988281 L 153.226562 165.730469 L 171.464844 166.660156 L 168.367188 178.914062 Z M 254.628906 214.546875 L 254.320312 185.863281 L 203.878906 141.699219 L 189.414062 141.699219 L 189.414062 129.832031 L 190.816406 128.734375 L 187.902344 128.734375 L 187.902344 141.699219 L 159.363281 141.699219 L 159.363281 143.214844 L 187.902344 143.214844 L 187.902344 143.957031 L 156.773438 144.023438 C 155.613281 144.152344 152.898438 143.949219 150.148438 145.660156 C 148.230469 146.855469 146.9375 147.945312 145.777344 149.453125 L 176.726562 149.539062 L 176.28125 150.488281 L 145.042969 150.488281 C 144.847656 150.785156 144.652344 151.097656 144.457031 151.425781 L 144.457031 130.03125 L 140.613281 130.03125 L 140.613281 157.925781 L 135.445312 166.660156 L 135.335938 170.039062 L 133.960938 170.039062 C 133.542969 170.039062 133.199219 170.378906 133.199219 170.796875 L 133.199219 178.253906 L 124.078125 182.457031 L 124.070312 195.625 L 119.269531 195.628906 C 120.308594 194.164062 121.691406 192.730469 123.390625 191.410156 C 120.355469 192.632812 118.277344 194.246094 116.941406 196.28125 L 115.972656 196.769531 L 115.972656 198.121094 C 115.238281 199.910156 114.925781 201.96875 114.925781 204.304688 L 159.4375 205.824219 C 161.085938 200.921875 165.015625 195.152344 171.78125 193.085938 C 164.582031 190.949219 157.34375 191.179688 151.273438 196.503906 L 150.871094 182.9375 L 138.382812 179.734375 L 128.804688 181.421875 L 136.550781 177.695312 L 147.742188 177.089844 L 151.175781 165.628906 L 138.691406 165.996094 L 141.976562 160.742188 L 170.5 160.5 C 172.527344 160.480469 176.601562 159.671875 177.960938 155.585938 C 179.46875 151.070312 179.984375 147.992188 184.753906 146.730469 C 185.683594 146.484375 186.761719 146.25 187.902344 146.128906 L 187.902344 159.253906 C 187.089844 159.484375 186.335938 160.269531 186.296875 161.046875 L 185.910156 197.492188 C 179.660156 195.890625 174.347656 195.316406 171.171875 196.777344 C 167.792969 198.328125 165.230469 200.703125 162.976562 207.660156 L 114.890625 205.527344 L 114.878906 207.21875 L 161.984375 209.570312 L 162.539062 216.648438 L 135.894531 216.691406 L 114.925781 213.519531 L 115.054688 214.539062 L 118.851562 215.367188 C 119.789062 218.488281 122.21875 220.386719 124.046875 220.421875 L 166.753906 221.292969 L 172.535156 221.417969 C 170.113281 221.417969 168.148438 217.199219 168.148438 211.996094 C 168.148438 209.335938 168.660156 206.933594 169.488281 205.21875 C 169.511719 205.171875 169.535156 205.121094 169.558594 205.074219 L 169.5625 205.066406 C 169.613281 204.96875 169.660156 204.875 169.714844 204.78125 L 169.71875 204.773438 C 169.742188 204.726562 169.769531 204.683594 169.792969 204.636719 L 169.796875 204.636719 C 169.820312 204.597656 169.84375 204.558594 169.863281 204.523438 L 169.886719 204.488281 L 169.941406 204.398438 L 169.96875 204.355469 C 169.992188 204.320312 170.011719 204.285156 170.035156 204.253906 L 170.050781 204.226562 C 170.074219 204.199219 170.09375 204.167969 170.113281 204.140625 L 170.148438 204.09375 L 170.199219 204.019531 L 170.230469 203.980469 C 170.25 203.953125 170.269531 203.925781 170.292969 203.898438 L 170.324219 203.859375 L 170.378906 203.789062 L 170.421875 203.742188 L 170.46875 203.683594 L 170.511719 203.632812 L 170.566406 203.574219 L 170.613281 203.527344 L 170.65625 203.480469 C 170.675781 203.460938 170.695312 203.441406 170.714844 203.421875 L 170.75 203.386719 C 170.769531 203.367188 170.792969 203.34375 170.816406 203.324219 L 170.847656 203.296875 C 170.871094 203.277344 170.894531 203.257812 170.917969 203.234375 L 170.945312 203.214844 C 170.96875 203.195312 170.992188 203.175781 171.015625 203.15625 L 171.042969 203.132812 C 171.070312 203.113281 171.09375 203.09375 171.121094 203.074219 L 171.140625 203.058594 C 171.167969 203.039062 171.195312 203.023438 171.21875 203.003906 L 171.246094 202.984375 C 171.273438 202.96875 171.296875 202.953125 171.324219 202.9375 L 171.347656 202.921875 C 171.375 202.90625 171.402344 202.890625 171.429688 202.875 L 171.449219 202.863281 C 171.480469 202.847656 171.507812 202.832031 171.535156 202.820312 L 171.554688 202.808594 C 171.582031 202.796875 171.613281 202.78125 171.644531 202.769531 L 171.660156 202.761719 C 171.691406 202.746094 171.722656 202.734375 171.753906 202.722656 L 171.765625 202.71875 C 171.796875 202.707031 171.828125 202.695312 171.859375 202.683594 L 171.875 202.679688 C 171.90625 202.667969 171.9375 202.660156 171.96875 202.652344 L 171.984375 202.648438 C 172.015625 202.636719 172.050781 202.628906 172.082031 202.621094 L 172.09375 202.621094 C 172.125 202.613281 172.160156 202.605469 172.191406 202.601562 L 172.203125 202.597656 C 172.238281 202.59375 172.273438 202.585938 172.3125 202.582031 C 172.347656 202.578125 172.386719 202.578125 172.421875 202.574219 L 172.429688 202.574219 C 172.464844 202.570312 172.503906 202.570312 172.539062 202.570312 C 172.578125 202.570312 172.613281 202.570312 172.648438 202.574219 L 172.65625 202.574219 C 172.691406 202.578125 172.726562 202.578125 172.761719 202.582031 L 172.769531 202.582031 C 172.804688 202.585938 172.835938 202.589844 172.871094 202.597656 L 172.882812 202.597656 C 172.917969 202.605469 172.949219 202.613281 172.984375 202.617188 L 172.988281 202.617188 C 173.027344 202.625 173.0625 202.636719 173.097656 202.644531 L 173.101562 202.644531 C 173.136719 202.65625 173.171875 202.664062 173.207031 202.675781 L 173.214844 202.679688 C 173.246094 202.691406 173.277344 202.703125 173.3125 202.714844 L 173.324219 202.71875 C 173.355469 202.730469 173.386719 202.746094 173.417969 202.757812 L 173.429688 202.761719 C 173.460938 202.777344 173.496094 202.792969 173.527344 202.808594 L 173.535156 202.8125 C 173.566406 202.828125 173.601562 202.84375 173.632812 202.863281 L 173.636719 202.867188 L 173.644531 202.871094 C 173.675781 202.886719 173.707031 202.90625 173.738281 202.925781 L 173.75 202.933594 C 173.777344 202.949219 173.808594 202.96875 173.835938 202.988281 L 173.855469 203 C 173.882812 203.019531 173.914062 203.042969 173.945312 203.0625 L 173.949219 203.066406 C 173.980469 203.089844 174.011719 203.113281 174.042969 203.136719 L 174.050781 203.140625 L 174.054688 203.144531 C 174.085938 203.171875 174.117188 203.195312 174.148438 203.222656 L 174.15625 203.226562 C 174.183594 203.253906 174.210938 203.277344 174.242188 203.304688 L 174.257812 203.320312 C 174.285156 203.34375 174.3125 203.371094 174.34375 203.398438 L 174.351562 203.40625 C 174.378906 203.433594 174.410156 203.464844 174.4375 203.492188 L 174.449219 203.503906 C 174.476562 203.53125 174.503906 203.5625 174.53125 203.59375 L 174.546875 203.613281 C 174.574219 203.640625 174.601562 203.675781 174.632812 203.707031 L 174.636719 203.710938 C 174.664062 203.746094 174.691406 203.777344 174.71875 203.8125 L 174.730469 203.828125 C 174.757812 203.859375 174.78125 203.890625 174.808594 203.921875 L 174.824219 203.945312 C 174.851562 203.980469 174.875 204.011719 174.902344 204.046875 L 174.910156 204.058594 C 174.9375 204.097656 174.964844 204.136719 174.992188 204.175781 L 174.992188 204.179688 L 174.996094 204.179688 L 175.003906 204.1875 C 175.027344 204.226562 175.054688 204.265625 175.078125 204.300781 L 175.09375 204.324219 C 175.117188 204.359375 175.140625 204.398438 175.164062 204.433594 L 175.171875 204.453125 C 175.199219 204.492188 175.222656 204.53125 175.246094 204.570312 L 175.257812 204.589844 C 175.28125 204.628906 175.304688 204.667969 175.328125 204.710938 L 175.339844 204.730469 C 175.363281 204.773438 175.386719 204.816406 175.410156 204.859375 L 175.410156 204.863281 C 176.339844 206.589844 176.929688 209.144531 176.929688 211.996094 C 176.929688 212.789062 176.886719 213.558594 176.800781 214.292969 C 176.789062 214.382812 176.777344 214.472656 176.765625 214.5625 L 176.761719 214.597656 L 176.761719 214.605469 L 176.753906 214.652344 C 176.742188 214.753906 176.726562 214.855469 176.710938 214.960938 L 176.695312 215.046875 L 176.691406 215.089844 L 176.675781 215.175781 L 176.671875 215.207031 L 176.667969 215.21875 L 176.660156 215.261719 L 176.65625 215.292969 L 176.652344 215.304688 L 176.613281 215.519531 L 176.589844 215.644531 L 176.582031 215.6875 L 176.574219 215.71875 L 176.570312 215.730469 L 176.5625 215.773438 L 176.546875 215.855469 L 176.539062 215.882812 L 176.539062 215.898438 L 176.527344 215.9375 L 176.523438 215.964844 L 176.519531 215.980469 L 176.511719 216.019531 L 176.5 216.0625 L 176.492188 216.105469 L 176.484375 216.128906 L 176.484375 216.144531 L 176.472656 216.183594 L 176.46875 216.210938 L 176.464844 216.226562 L 176.453125 216.265625 L 176.449219 216.292969 L 176.445312 216.304688 L 176.433594 216.347656 L 176.429688 216.371094 L 176.425781 216.386719 L 176.414062 216.425781 L 176.410156 216.453125 L 176.40625 216.46875 L 176.394531 216.507812 L 176.390625 216.53125 L 176.386719 216.546875 L 176.375 216.585938 L 176.367188 216.609375 L 176.363281 216.625 L 176.355469 216.664062 L 176.347656 216.6875 L 176.34375 216.707031 L 176.332031 216.746094 L 176.328125 216.765625 L 176.320312 216.785156 L 176.3125 216.820312 L 176.304688 216.84375 L 176.300781 216.859375 L 176.289062 216.898438 L 176.285156 216.921875 L 176.277344 216.9375 L 176.265625 216.976562 C 176.214844 217.164062 176.15625 217.34375 176.097656 217.519531 L 176.101562 217.515625 L 176.375 217.523438 C 176.835938 219.3125 178.410156 220.664062 179.566406 220.6875 C 180.964844 220.714844 182.390625 220.722656 183.785156 220.777344 C 183.84375 220.777344 183.898438 220.773438 183.945312 220.765625 C 185.476562 220.621094 186.765625 219.511719 187.246094 217.90625 L 195.589844 218.199219 C 195.964844 219.375 196.078125 219.976562 197 221.058594 C 197.488281 221.632812 198.78125 222.417969 200.253906 222.445312 C 201.875 222.472656 206.015625 222.296875 207.742188 222.210938 C 209.574219 222.121094 210.667969 222.042969 211.285156 221.460938 C 211.050781 221.625 210.804688 221.710938 210.550781 221.710938 C 208.992188 221.710938 207.730469 218.402344 207.730469 214.316406 C 207.730469 210.234375 208.992188 206.921875 210.550781 206.921875 C 212.109375 206.921875 213.375 210.234375 213.375 214.316406 C 213.375 215.726562 213.222656 217.042969 212.960938 218.164062 L 215.429688 218.105469 L 215.484375 210.757812 C 215.621094 207.566406 213.023438 205.992188 211.941406 205.652344 L 199.988281 201.890625 L 200.804688 148.566406 L 193.351562 143.941406 L 189.421875 143.949219 L 189.421875 143.214844 L 203.847656 143.214844 L 203.730469 147.753906 L 252.304688 189.261719 L 203.6875 149.316406 L 202.542969 193.460938 L 253.410156 211.230469 L 202.5 195.074219 L 202.371094 200.035156 L 240.769531 210.695312 C 238.679688 212.015625 238.761719 215.117188 239.085938 217.945312 L 240.214844 217.984375 C 240.398438 218.554688 240.453125 218.84375 240.898438 219.371094 C 241.132812 219.648438 241.757812 220.027344 242.472656 220.039062 C 243.253906 220.054688 245.257812 219.96875 246.097656 219.925781 C 246.980469 219.882812 247.511719 219.84375 247.808594 219.5625 C 247.695312 219.644531 247.578125 219.683594 247.457031 219.683594 C 246.703125 219.683594 246.089844 218.082031 246.089844 216.105469 C 246.089844 214.191406 246.664062 212.625 247.386719 212.53125 L 247.808594 212.648438 C 248.390625 213.058594 248.820312 214.453125 248.820312 216.105469 C 248.820312 216.328125 248.8125 216.542969 248.796875 216.753906 L 249.824219 216.753906 L 249.84375 214.382812 C 249.863281 213.890625 249.75 213.476562 249.566406 213.136719 Z M 199.480469 149.929688 L 199.085938 182.601562 C 198.972656 192.058594 195.511719 190.246094 194.386719 200.042969 C 192.066406 199.261719 189.792969 198.550781 187.617188 197.949219 L 188.308594 162.558594 C 191.40625 162.96875 192.132812 160.8125 193.992188 160.972656 C 193.40625 159.988281 192.625 159.507812 191.421875 159.289062 C 190.984375 159.441406 189.957031 159.714844 189.414062 159.496094 L 189.414062 146.042969 C 191.03125 146.03125 192.699219 146.304688 194.207031 147.109375 Z M 199.480469 149.929688 " fill-opacity="1" fill-rule="evenodd"/></g></svg>