<svg xmlns="http://www.w3.org/2000/svg" xmlns:xlink="http://www.w3.org/1999/xlink" width="1280" zoomAndPan="magnify" viewBox="0 0 960 599.999999" height="800" preserveAspectRatio="xMidYMid meet" version="1.0"><path fill="#5271ff" d="M 520.367188 163.664062 C 519.058594 163.664062 517.628906 163.984375 516.445312 164.640625 L 457.886719 197.226562 L 520.367188 231.285156 L 583.089844 197.472656 L 524.285156 164.640625 C 523.101562 163.984375 521.675781 163.664062 520.367188 163.664062 Z M 449.804688 210.703125 L 449.804688 233.003906 L 375.320312 274.40625 C 374.71875 274.753906 374.175781 275.171875 373.683594 275.664062 C 373.195312 276.15625 372.777344 276.703125 372.433594 277.308594 C 372.089844 277.910156 371.828125 278.546875 371.652344 279.21875 C 371.480469 279.890625 371.394531 280.574219 371.398438 281.265625 L 371.398438 348.890625 L 347.632812 362.117188 L 410.601562 395.929688 L 472.839844 361.875 L 414.523438 329.289062 C 412.144531 327.972656 409.058594 327.972656 406.683594 329.289062 L 387.082031 340.070312 L 387.082031 285.925781 L 449.804688 251.128906 L 449.804688 276.125 C 449.804688 278.96875 451.238281 281.605469 453.722656 282.984375 L 512.527344 315.566406 L 512.527344 245.003906 Z M 590.929688 211.195312 L 528.207031 245.003906 L 528.207031 315.566406 L 587.007812 282.984375 C 589.503906 281.605469 590.929688 278.96875 590.929688 276.125 L 590.929688 251.128906 L 653.652344 285.925781 L 653.652344 340.3125 L 634.050781 329.289062 C 631.691406 327.972656 628.570312 327.972656 626.210938 329.289062 L 567.652344 361.875 L 630.128906 395.929688 L 692.367188 361.875 L 669.332031 348.890625 L 669.332031 281.265625 C 669.332031 278.421875 667.90625 275.785156 665.410156 274.40625 L 590.929688 233.003906 Z M 481.164062 375.105469 L 418.441406 409.648438 L 418.441406 480.210938 L 428.730469 474.574219 L 516.445312 523.332031 C 517.042969 523.675781 517.671875 523.9375 518.335938 524.117188 C 519 524.292969 519.679688 524.382812 520.367188 524.382812 C 521.054688 524.382812 521.730469 524.292969 522.394531 524.117188 C 523.058594 523.9375 523.691406 523.675781 524.285156 523.332031 L 612.003906 474.574219 L 622.289062 480.210938 L 622.289062 409.648438 L 559.566406 375.347656 L 559.566406 440.765625 C 559.566406 443.613281 560.996094 446.238281 563.488281 447.625 L 595.828125 465.511719 L 520.367188 507.410156 L 444.902344 465.511719 L 477.246094 447.625 C 479.730469 446.246094 481.164062 443.613281 481.164062 440.765625 Z M 700.695312 375.105469 L 637.972656 409.648438 L 637.972656 480.210938 L 696.773438 447.625 C 699.265625 446.238281 700.695312 443.613281 700.695312 440.765625 Z M 340.039062 375.832031 L 340.039062 440.765625 C 340.039062 443.613281 341.472656 446.238281 343.960938 447.625 L 402.761719 480.210938 L 402.761719 409.648438 Z M 340.039062 375.832031 " fill-opacity="1" fill-rule="nonzero"/></svg>