<svg xmlns="http://www.w3.org/2000/svg" xmlns:xlink="http://www.w3.org/1999/xlink" width="500" zoomAndPan="magnify" viewBox="0 0 375 374.999991" height="500" preserveAspectRatio="xMidYMid meet" version="1.0"><defs><g/><clipPath id="8580f787ac"><path d="M 225.664062 122.042969 L 365.164062 122.042969 L 365.164062 215.792969 L 225.664062 215.792969 Z M 225.664062 122.042969 " clip-rule="nonzero"/></clipPath></defs><path fill="#5271ff" d="M 348.414062 108.703125 C 348.261719 108.703125 348.097656 108.738281 347.960938 108.816406 L 341.242188 112.554688 L 348.414062 116.460938 L 355.609375 112.582031 L 348.863281 108.816406 C 348.726562 108.738281 348.5625 108.703125 348.414062 108.703125 Z M 340.316406 114.101562 L 340.316406 116.65625 L 331.769531 121.410156 C 331.46875 121.582031 331.316406 121.847656 331.320312 122.195312 L 331.320312 129.953125 L 328.59375 131.472656 L 335.820312 135.351562 L 342.960938 131.445312 L 336.269531 127.707031 C 335.996094 127.554688 335.640625 127.554688 335.371094 127.707031 L 333.121094 128.941406 L 333.121094 122.730469 L 340.316406 118.738281 L 340.316406 121.605469 C 340.316406 121.933594 340.480469 122.234375 340.765625 122.394531 L 347.511719 126.132812 L 347.511719 118.035156 Z M 356.507812 114.15625 L 349.3125 118.035156 L 349.3125 126.132812 L 356.058594 122.394531 C 356.34375 122.234375 356.507812 121.933594 356.507812 121.605469 L 356.507812 118.738281 L 363.703125 122.730469 L 363.703125 128.96875 L 361.457031 127.707031 C 361.183594 127.554688 360.828125 127.554688 360.554688 127.707031 L 353.835938 131.445312 L 361.007812 135.351562 L 368.144531 131.445312 L 365.503906 129.953125 L 365.503906 122.195312 C 365.503906 121.867188 365.339844 121.566406 365.054688 121.410156 L 356.507812 116.65625 Z M 343.914062 132.960938 L 336.71875 136.925781 L 336.71875 145.019531 L 337.898438 144.375 L 347.960938 149.96875 C 348.261719 150.140625 348.5625 150.140625 348.863281 149.96875 L 358.925781 144.375 L 360.105469 145.019531 L 360.105469 136.925781 L 352.910156 132.988281 L 352.910156 140.496094 C 352.910156 140.820312 353.074219 141.125 353.359375 141.28125 L 357.070312 143.335938 L 348.414062 148.140625 L 339.753906 143.335938 L 343.464844 141.28125 C 343.75 141.125 343.914062 140.820312 343.914062 140.496094 Z M 369.101562 132.960938 L 361.90625 136.925781 L 361.90625 145.019531 L 368.652344 141.28125 C 368.9375 141.125 369.101562 140.820312 369.101562 140.496094 Z M 327.722656 133.046875 L 327.722656 140.496094 C 327.722656 140.820312 327.886719 141.125 328.171875 141.28125 L 334.917969 145.019531 L 334.917969 136.925781 Z M 327.722656 133.046875 " fill-opacity="1" fill-rule="nonzero"/><g fill="#5271ff" fill-opacity="1"><g transform="translate(56.382796, 204.182816)"><g><path d="M 6.84375 0 L 28.5625 0 L 28.5625 -1.75 C 24.40625 -2.953125 23.1875 -6.03125 23.1875 -17.03125 L 23.1875 -37.140625 L 32.71875 -37.140625 C 57.640625 -37.140625 70.65625 -49.609375 70.65625 -67.4375 C 70.65625 -80.4375 61.796875 -93.84375 34.046875 -93.84375 L 6.84375 -93.84375 L 6.84375 -92.09375 C 10.859375 -90.890625 12.203125 -87.8125 12.203125 -76.8125 L 12.203125 -17.03125 C 12.203125 -6.03125 10.859375 -2.953125 6.84375 -1.75 Z M 23.1875 -39.140625 L 23.1875 -91.5625 C 24.796875 -91.703125 26.953125 -91.828125 28.828125 -91.828125 C 50.40625 -91.828125 58.859375 -78.6875 58.859375 -64.34375 C 58.859375 -48.53125 49.609375 -39.140625 32.4375 -39.140625 Z M 23.1875 -39.140625 "/></g></g></g><g fill="#5271ff" fill-opacity="1"><g transform="translate(130.383836, 204.182816)"><g><path d="M 6.84375 0 L 34.1875 0 C 66.765625 0 78.03125 -15.8125 77.75 -30.828125 C 77.625 -43.96875 67.96875 -54.828125 46.125 -55.90625 C 61.40625 -58.71875 67.296875 -67.03125 67.296875 -76.140625 C 67.296875 -87 58.859375 -93.84375 38.203125 -93.84375 L 6.84375 -93.84375 L 6.84375 -92.09375 C 10.859375 -90.890625 12.203125 -87.8125 12.203125 -76.8125 L 12.203125 -17.03125 C 12.203125 -6.03125 10.859375 -2.953125 6.84375 -1.75 Z M 23.1875 -13.671875 L 23.1875 -54.15625 L 36.875 -54.15625 C 56.984375 -54.15625 65.5625 -42.90625 65.5625 -27.484375 C 65.5625 -12.609375 57.25 -2.015625 35.390625 -2.015625 L 30.171875 -2.015625 C 24.40625 -2.015625 23.1875 -4.015625 23.1875 -13.671875 Z M 23.1875 -56.171875 L 23.1875 -91.828125 L 33.375 -91.828125 C 47.1875 -91.828125 55.09375 -84.859375 55.09375 -73.734375 C 55.09375 -63.953125 48.9375 -56.171875 35.65625 -56.171875 Z M 23.1875 -56.171875 "/></g></g></g><g fill="#000000" fill-opacity="1"><g transform="translate(19.188011, 175.880504)"><g><path d="M 73.109375 -18.953125 C 73.347656 -18.898438 73.535156 -18.796875 73.671875 -18.640625 C 73.816406 -18.492188 73.851562 -18.347656 73.78125 -18.203125 C 73.6875 -18.078125 73.582031 -18 73.46875 -17.96875 C 73.363281 -17.9375 73.242188 -17.929688 73.109375 -17.953125 C 72.953125 -17.953125 72.785156 -17.960938 72.609375 -17.984375 C 70.222656 -18.054688 67.0625 -17.914062 63.125 -17.5625 C 59.195312 -17.21875 56.03125 -16.882812 53.625 -16.5625 C 51.769531 -16.320312 49.914062 -16.0625 48.0625 -15.78125 C 48.019531 -15.78125 47.960938 -15.765625 47.890625 -15.734375 C 47.117188 -15.617188 46.414062 -15.332031 45.78125 -14.875 C 43.414062 -13.269531 40.972656 -11.816406 38.453125 -10.515625 C 35.941406 -9.210938 33.378906 -8 30.765625 -6.875 C 26.523438 -5 22.191406 -3.363281 17.765625 -1.96875 C 16.859375 -1.726562 16.195312 -1.175781 15.78125 -0.3125 C 13.8125 3.601562 11.757812 7.4375 9.625 11.1875 C 7.726562 14.53125 5.910156 17.910156 4.171875 21.328125 C 4.171875 21.347656 4.160156 21.367188 4.140625 21.390625 C 4.066406 21.566406 3.972656 21.707031 3.859375 21.8125 C 3.679688 21.96875 3.472656 22.023438 3.234375 21.984375 C 3.097656 22.023438 2.96875 22.023438 2.84375 21.984375 C 2.570312 21.867188 2.4375 21.671875 2.4375 21.390625 C 2.46875 20.898438 2.625 20.445312 2.90625 20.03125 C 2.925781 20.007812 2.9375 19.984375 2.9375 19.953125 C 4.695312 16.785156 6.429688 13.617188 8.140625 10.453125 C 9.847656 7.285156 11.5 4.070312 13.09375 0.8125 C 13.226562 0.539062 13.359375 0.265625 13.484375 -0.015625 C 13.535156 -0.148438 13.59375 -0.296875 13.65625 -0.453125 C 13.5 -0.492188 13.359375 -0.53125 13.234375 -0.5625 C 12.984375 -0.507812 12.738281 -0.4375 12.5 -0.34375 C 12.40625 -0.320312 12.316406 -0.289062 12.234375 -0.25 C 9.148438 0.625 6.03125 1.375 2.875 2 C 0.6875 2.394531 -1.507812 2.671875 -3.71875 2.828125 C -3.820312 2.847656 -3.921875 2.859375 -4.015625 2.859375 C -4.234375 2.878906 -4.453125 2.890625 -4.671875 2.890625 C -5.523438 2.890625 -6.351562 2.757812 -7.15625 2.5 C -7.769531 2.28125 -8.132812 1.929688 -8.25 1.453125 C -8.375 0.972656 -8.226562 0.457031 -7.8125 -0.09375 C -7.269531 -0.726562 -6.617188 -1.253906 -5.859375 -1.671875 C -4.160156 -2.734375 -2.375 -3.601562 -0.5 -4.28125 C 4.5 -6.175781 9.570312 -7.84375 14.71875 -9.28125 C 15 -9.363281 15.296875 -9.441406 15.609375 -9.515625 C 16.265625 -9.648438 16.878906 -9.84375 17.453125 -10.09375 C 18.023438 -10.351562 18.457031 -10.796875 18.75 -11.421875 C 19.832031 -13.921875 20.875 -16.421875 21.875 -18.921875 C 22.882812 -21.421875 23.816406 -23.96875 24.671875 -26.5625 C 24.671875 -26.582031 24.679688 -26.609375 24.703125 -26.640625 C 24.835938 -27.117188 25.015625 -27.5625 25.234375 -27.96875 C 25.328125 -28.113281 25.441406 -28.210938 25.578125 -28.265625 C 25.722656 -28.316406 25.875 -28.328125 26.03125 -28.296875 C 26.144531 -28.328125 26.265625 -28.328125 26.390625 -28.296875 C 26.722656 -28.222656 26.914062 -28.003906 26.96875 -27.640625 C 26.96875 -26.953125 26.84375 -26.289062 26.59375 -25.65625 C 26.59375 -25.632812 26.582031 -25.601562 26.5625 -25.5625 C 25.476562 -22.25 24.265625 -18.992188 22.921875 -15.796875 C 22.566406 -14.921875 22.203125 -14.050781 21.828125 -13.1875 C 21.691406 -12.875 21.554688 -12.550781 21.421875 -12.21875 C 21.253906 -11.832031 21.1875 -11.566406 21.21875 -11.421875 C 21.25 -11.273438 21.351562 -11.207031 21.53125 -11.21875 C 21.707031 -11.226562 21.921875 -11.28125 22.171875 -11.375 C 22.242188 -11.394531 22.328125 -11.410156 22.421875 -11.421875 C 23.390625 -11.671875 24.363281 -11.921875 25.34375 -12.171875 C 27.101562 -12.609375 28.875 -13.046875 30.65625 -13.484375 C 35.03125 -14.515625 39.429688 -15.398438 43.859375 -16.140625 C 44.648438 -16.265625 45.34375 -16.566406 45.9375 -17.046875 C 47.195312 -18.003906 48.441406 -19.125 49.671875 -20.40625 C 50.910156 -21.695312 51.929688 -23.085938 52.734375 -24.578125 C 53.546875 -26.066406 53.910156 -27.59375 53.828125 -29.15625 C 53.753906 -30.726562 53.035156 -32.285156 51.671875 -33.828125 C 50.785156 -34.753906 49.78125 -35.53125 48.65625 -36.15625 C 46.289062 -37.425781 43.445312 -38.359375 40.125 -38.953125 C 36.8125 -39.546875 33.257812 -39.859375 29.46875 -39.890625 C 25.675781 -39.929688 21.875 -39.738281 18.0625 -39.3125 C 14.257812 -38.894531 10.695312 -38.3125 7.375 -37.5625 C 4.0625 -36.820312 1.21875 -35.972656 -1.15625 -35.015625 C -3.207031 -34.203125 -5.160156 -33.203125 -7.015625 -32.015625 C -7.773438 -31.554688 -8.484375 -31.050781 -9.140625 -30.5 C -9.804688 -29.945312 -10.398438 -29.3125 -10.921875 -28.59375 C -11.117188 -28.289062 -11.382812 -28.128906 -11.71875 -28.109375 C -11.78125 -28.109375 -11.859375 -28.109375 -11.953125 -28.109375 C -11.972656 -28.109375 -11.992188 -28.109375 -12.015625 -28.109375 C -12.140625 -28.109375 -12.265625 -28.125 -12.390625 -28.15625 C -12.515625 -28.1875 -12.609375 -28.257812 -12.671875 -28.375 C -12.710938 -28.46875 -12.734375 -28.5625 -12.734375 -28.65625 C -12.734375 -28.75 -12.722656 -28.832031 -12.703125 -28.90625 C -12.535156 -29.300781 -12.304688 -29.648438 -12.015625 -29.953125 C -11.722656 -30.265625 -11.425781 -30.566406 -11.125 -30.859375 C -10.320312 -31.535156 -9.488281 -32.148438 -8.625 -32.703125 C -7.757812 -33.253906 -6.867188 -33.769531 -5.953125 -34.25 C -3.617188 -35.5 -0.632812 -36.617188 3 -37.609375 C 6.644531 -38.597656 10.644531 -39.394531 15 -40 C 19.351562 -40.613281 23.738281 -40.945312 28.15625 -41 C 32.582031 -41.050781 36.722656 -40.753906 40.578125 -40.109375 C 44.441406 -39.472656 47.734375 -38.40625 50.453125 -36.90625 C 51.660156 -36.238281 52.75 -35.390625 53.71875 -34.359375 C 55.070312 -32.835938 55.835938 -31.332031 56.015625 -29.84375 C 56.203125 -28.351562 56 -26.90625 55.40625 -25.5 C 54.8125 -24.101562 53.988281 -22.769531 52.9375 -21.5 C 51.894531 -20.238281 50.820312 -19.054688 49.71875 -17.953125 C 49.582031 -17.847656 49.445312 -17.710938 49.3125 -17.546875 C 49.1875 -17.378906 49.132812 -17.238281 49.15625 -17.125 C 49.175781 -17.019531 49.34375 -16.984375 49.65625 -17.015625 C 53.351562 -17.617188 57.039062 -18.070312 60.71875 -18.375 C 64.40625 -18.6875 68.113281 -18.894531 71.84375 -19 C 71.957031 -19 72.0625 -19 72.15625 -19 L 72.1875 -19 C 72.488281 -19 72.796875 -18.984375 73.109375 -18.953125 Z M 14.890625 -2.90625 C 14.960938 -3.101562 15.113281 -3.390625 15.34375 -3.765625 C 15.644531 -4.347656 15.96875 -5 16.3125 -5.71875 C 16.65625 -6.4375 16.90625 -7.066406 17.0625 -7.609375 C 17.21875 -8.148438 17.140625 -8.445312 16.828125 -8.5 C 16.640625 -8.46875 16.453125 -8.421875 16.265625 -8.359375 C 16.222656 -8.359375 16.171875 -8.347656 16.109375 -8.328125 C 15.398438 -8.109375 14.691406 -7.898438 13.984375 -7.703125 C 12.285156 -7.210938 10.585938 -6.691406 8.890625 -6.140625 C 8.804688 -6.117188 8.71875 -6.085938 8.625 -6.046875 C 5.582031 -5.109375 2.582031 -4.035156 -0.375 -2.828125 C -1.863281 -2.210938 -3.28125 -1.46875 -4.625 -0.59375 C -5.144531 -0.300781 -5.566406 0.0859375 -5.890625 0.578125 C -6.023438 0.773438 -6.0625 0.957031 -6 1.125 C -5.945312 1.289062 -5.8125 1.414062 -5.59375 1.5 C -5.132812 1.65625 -4.664062 1.734375 -4.1875 1.734375 C -3.757812 1.734375 -3.335938 1.710938 -2.921875 1.671875 C -2.898438 1.671875 -2.890625 1.671875 -2.890625 1.671875 C -0.703125 1.453125 1.445312 1.09375 3.5625 0.59375 C 6.914062 -0.144531 10.234375 -1.007812 13.515625 -2 C 13.566406 -2.03125 13.601562 -2.046875 13.625 -2.046875 C 13.882812 -2.109375 14.125 -2.195312 14.34375 -2.3125 C 14.5625 -2.4375 14.742188 -2.632812 14.890625 -2.90625 Z M 17.703125 -3.484375 C 19.679688 -3.992188 22.378906 -4.945312 25.796875 -6.34375 C 29.222656 -7.75 32.507812 -9.226562 35.65625 -10.78125 C 38.8125 -12.34375 40.960938 -13.628906 42.109375 -14.640625 C 41.953125 -14.640625 41.820312 -14.640625 41.71875 -14.640625 C 41.664062 -14.640625 41.628906 -14.640625 41.609375 -14.640625 C 34.679688 -13.273438 27.820312 -11.644531 21.03125 -9.75 C 20.4375 -9.570312 20.023438 -9.207031 19.796875 -8.65625 C 19.390625 -7.78125 18.988281 -6.910156 18.59375 -6.046875 C 18.28125 -5.398438 17.96875 -4.75 17.65625 -4.09375 C 17.613281 -4 17.585938 -3.894531 17.578125 -3.78125 C 17.566406 -3.675781 17.609375 -3.578125 17.703125 -3.484375 Z M 17.703125 -3.484375 "/></g></g></g><g fill="#000000" fill-opacity="1"><g transform="translate(60.732086, 175.880504)"><g><path d="M 8.5625 -5.765625 C 7.988281 -5.203125 7.316406 -4.71875 6.546875 -4.3125 C 5.773438 -3.90625 5.125 -3.640625 4.59375 -3.515625 C 4.070312 -3.390625 3.539062 -3.316406 3 -3.296875 C 2.113281 -3.253906 1.300781 -3.375 0.5625 -3.65625 C -0.65625 -4.144531 -1.078125 -5.082031 -0.703125 -6.46875 C -0.359375 -7.65625 0.347656 -8.582031 1.421875 -9.25 C 2.492188 -9.925781 3.601562 -10.253906 4.75 -10.234375 C 4.75 -10.234375 4.757812 -10.234375 4.78125 -10.234375 C 5.070312 -10.253906 5.347656 -10.238281 5.609375 -10.1875 C 6.046875 -10.019531 6.320312 -9.753906 6.4375 -9.390625 C 6.5625 -9.035156 6.484375 -8.640625 6.203125 -8.203125 C 5.566406 -7.222656 4.695312 -6.679688 3.59375 -6.578125 C 2.863281 -6.503906 2.15625 -6.535156 1.46875 -6.671875 C 1.34375 -6.691406 1.226562 -6.65625 1.125 -6.5625 C 1.03125 -6.476562 0.972656 -6.367188 0.953125 -6.234375 C 0.742188 -5.378906 1.007812 -4.832031 1.75 -4.59375 C 2.644531 -4.28125 3.582031 -4.28125 4.5625 -4.59375 C 5.675781 -4.9375 6.738281 -5.59375 7.75 -6.5625 C 8.769531 -7.539062 9.359375 -7.992188 9.515625 -7.921875 C 9.671875 -7.859375 9.71875 -7.675781 9.65625 -7.375 C 9.507812 -6.875 9.144531 -6.335938 8.5625 -5.765625 Z M 2.171875 -8.203125 C 2.109375 -8.128906 2.0625 -8.046875 2.03125 -7.953125 C 2.007812 -7.867188 2.046875 -7.796875 2.140625 -7.734375 C 2.484375 -7.523438 2.859375 -7.445312 3.265625 -7.5 C 3.679688 -7.5625 4.03125 -7.71875 4.3125 -7.96875 C 4.601562 -8.226562 4.726562 -8.546875 4.6875 -8.921875 C 4.65625 -9.046875 4.582031 -9.125 4.46875 -9.15625 C 4.363281 -9.195312 4.257812 -9.207031 4.15625 -9.1875 C 3.40625 -9.0625 2.742188 -8.734375 2.171875 -8.203125 Z M 2.171875 -8.203125 "/></g></g></g><g fill="#000000" fill-opacity="1"><g transform="translate(68.866808, 175.880504)"><g><path d="M 13.34375 -7.90625 C 13.5625 -7.851562 13.675781 -7.773438 13.6875 -7.671875 C 13.695312 -7.578125 13.703125 -7.53125 13.703125 -7.53125 C 13.460938 -7.113281 13.1875 -6.726562 12.875 -6.375 C 12.15625 -5.582031 11.328125 -4.953125 10.390625 -4.484375 C 9.929688 -4.222656 9.410156 -4.082031 8.828125 -4.0625 C 7.484375 -4.039062 6.867188 -4.691406 6.984375 -6.015625 C 7.023438 -6.296875 7.085938 -6.570312 7.171875 -6.84375 C 7.222656 -6.96875 7.257812 -7.097656 7.28125 -7.234375 C 7.40625 -7.710938 7.441406 -7.976562 7.390625 -8.03125 C 7.335938 -8.09375 7.179688 -7.957031 6.921875 -7.625 C 6.847656 -7.5625 6.78125 -7.492188 6.71875 -7.421875 C 6.320312 -6.941406 5.910156 -6.472656 5.484375 -6.015625 C 4.710938 -5.128906 3.832031 -4.390625 2.84375 -3.796875 C 2.25 -3.441406 1.625 -3.253906 0.96875 -3.234375 C -0.113281 -3.179688 -0.722656 -3.675781 -0.859375 -4.71875 C -0.910156 -5.144531 -0.890625 -5.5625 -0.796875 -5.96875 C -0.359375 -7.675781 0.519531 -8.972656 1.84375 -9.859375 C 3.164062 -10.753906 4.679688 -11.070312 6.390625 -10.8125 C 6.867188 -10.664062 7.21875 -10.796875 7.4375 -11.203125 C 7.53125 -11.347656 7.625 -11.503906 7.71875 -11.671875 C 8.175781 -12.460938 8.625 -13.253906 9.0625 -14.046875 C 9.894531 -15.566406 10.734375 -17.097656 11.578125 -18.640625 C 12.253906 -19.859375 12.9375 -21.082031 13.625 -22.3125 C 13.820312 -22.695312 14.039062 -23.0625 14.28125 -23.40625 C 14.394531 -23.582031 14.535156 -23.6875 14.703125 -23.71875 C 14.867188 -23.757812 15.039062 -23.78125 15.21875 -23.78125 C 15.257812 -23.78125 15.304688 -23.78125 15.359375 -23.78125 C 15.554688 -23.78125 15.710938 -23.726562 15.828125 -23.625 C 15.953125 -23.519531 15.976562 -23.382812 15.90625 -23.21875 C 15.78125 -22.800781 15.625 -22.398438 15.4375 -22.015625 C 14.519531 -20.171875 13.648438 -18.300781 12.828125 -16.40625 C 12.015625 -14.519531 11.210938 -12.617188 10.421875 -10.703125 C 10.160156 -10.046875 9.894531 -9.382812 9.625 -8.71875 C 9.289062 -7.945312 9.015625 -7.15625 8.796875 -6.34375 C 8.734375 -6.164062 8.703125 -5.988281 8.703125 -5.8125 C 8.703125 -5.632812 8.789062 -5.484375 8.96875 -5.359375 C 9.070312 -5.285156 9.179688 -5.269531 9.296875 -5.3125 C 9.421875 -5.363281 9.554688 -5.414062 9.703125 -5.46875 C 9.722656 -5.5 9.753906 -5.523438 9.796875 -5.546875 C 10.742188 -6.097656 11.613281 -6.757812 12.40625 -7.53125 C 12.53125 -7.664062 12.664062 -7.773438 12.8125 -7.859375 C 12.957031 -7.953125 13.132812 -7.96875 13.34375 -7.90625 Z M 5.921875 -8.890625 C 6.035156 -9.066406 6.066406 -9.238281 6.015625 -9.40625 C 5.972656 -9.570312 5.863281 -9.695312 5.6875 -9.78125 C 5.3125 -9.976562 4.914062 -10 4.5 -9.84375 C 3.46875 -9.539062 2.601562 -8.953125 1.90625 -8.078125 C 1.207031 -7.203125 0.828125 -6.238281 0.765625 -5.1875 C 0.785156 -5.132812 0.796875 -5.097656 0.796875 -5.078125 C 0.796875 -4.992188 0.796875 -4.90625 0.796875 -4.8125 C 0.890625 -4.332031 1.1875 -4.238281 1.6875 -4.53125 C 2.195312 -4.832031 2.765625 -5.3125 3.390625 -5.96875 C 4.015625 -6.632812 4.570312 -7.265625 5.0625 -7.859375 C 5.5625 -8.453125 5.847656 -8.796875 5.921875 -8.890625 Z M 5.921875 -8.890625 "/></g></g></g><g fill="#000000" fill-opacity="1"><g transform="translate(80.820601, 175.880504)"><g><path d="M 7.21875 -9.234375 C 7.125 -8.546875 6.796875 -8.09375 6.234375 -7.875 C 5.679688 -7.664062 5.5 -7.941406 5.6875 -8.703125 C 5.882812 -9.460938 5.539062 -9.65625 4.65625 -9.28125 C 3.78125 -8.90625 3.054688 -8.429688 2.484375 -7.859375 C 1.597656 -6.960938 0.816406 -5.992188 0.140625 -4.953125 C 0.0664062 -4.859375 0.0078125 -4.78125 -0.03125 -4.71875 C -0.226562 -4.425781 -0.425781 -4.148438 -0.625 -3.890625 C -0.757812 -3.710938 -0.914062 -3.597656 -1.09375 -3.546875 C -1.269531 -3.503906 -1.445312 -3.5 -1.625 -3.53125 C -1.789062 -3.550781 -1.921875 -3.613281 -2.015625 -3.71875 C -2.109375 -3.832031 -2.117188 -3.96875 -2.046875 -4.125 C -1.929688 -4.394531 -1.800781 -4.671875 -1.65625 -4.953125 C -0.75 -6.617188 0.164062 -8.296875 1.09375 -9.984375 C 1.113281 -10.003906 1.125 -10.023438 1.125 -10.046875 C 1.257812 -10.304688 1.414062 -10.546875 1.59375 -10.765625 C 1.789062 -10.984375 2.019531 -11.070312 2.28125 -11.03125 C 2.539062 -11 2.71875 -10.847656 2.8125 -10.578125 C 2.925781 -10.222656 3.019531 -10.019531 3.09375 -9.96875 C 3.175781 -9.925781 3.359375 -9.960938 3.640625 -10.078125 C 4.242188 -10.296875 4.828125 -10.445312 5.390625 -10.53125 C 5.960938 -10.625 6.429688 -10.601562 6.796875 -10.46875 C 7.171875 -10.332031 7.3125 -9.921875 7.21875 -9.234375 Z M 7.21875 -9.234375 "/></g></g></g><g fill="#000000" fill-opacity="1"><g transform="translate(87.722394, 175.880504)"><g><path d="M 2.390625 -3.5625 L 2.34375 -3.5625 C 0.894531 -3.582031 -0.0546875 -3.90625 -0.515625 -4.53125 C -0.984375 -5.15625 -0.96875 -5.988281 -0.46875 -7.03125 C -0.0390625 -7.820312 0.488281 -8.515625 1.125 -9.109375 C 1.34375 -9.304688 1.566406 -9.46875 1.796875 -9.59375 C 2.035156 -9.71875 2.300781 -9.78125 2.59375 -9.78125 C 2.757812 -9.800781 2.953125 -9.769531 3.171875 -9.6875 C 3.242188 -9.664062 3.316406 -9.640625 3.390625 -9.609375 C 3.554688 -9.640625 3.71875 -9.695312 3.875 -9.78125 C 3.914062 -9.800781 3.972656 -9.820312 4.046875 -9.84375 C 4.378906 -9.976562 4.726562 -10.035156 5.09375 -10.015625 C 5.25 -10.015625 5.40625 -10.015625 5.5625 -10.015625 C 6.15625 -9.921875 6.601562 -9.671875 6.90625 -9.265625 C 7.207031 -8.859375 7.3125 -8.367188 7.21875 -7.796875 C 7.164062 -7.441406 7.054688 -7.109375 6.890625 -6.796875 C 5.734375 -4.734375 4.265625 -3.65625 2.484375 -3.5625 Z M 4.765625 -8.953125 C 3.972656 -8.984375 3.269531 -8.753906 2.65625 -8.265625 C 2.039062 -7.773438 1.582031 -7.210938 1.28125 -6.578125 C 0.976562 -5.953125 0.894531 -5.4375 1.03125 -5.03125 C 1.164062 -4.625 1.582031 -4.507812 2.28125 -4.6875 C 3.070312 -4.925781 3.769531 -5.375 4.375 -6.03125 C 4.988281 -6.695312 5.363281 -7.328125 5.5 -7.921875 C 5.632812 -8.523438 5.390625 -8.867188 4.765625 -8.953125 Z M 4.765625 -8.953125 "/></g></g></g><g fill="#000000" fill-opacity="1"><g transform="translate(95.090295, 175.880504)"><g/></g></g><g fill="#000000" fill-opacity="1"><g transform="translate(105.841227, 175.880504)"><g><path d="M 107.328125 10 C 107.367188 10.019531 107.394531 10.0625 107.40625 10.125 C 107.414062 10.195312 107.421875 10.253906 107.421875 10.296875 C 107.398438 10.367188 107.367188 10.425781 107.328125 10.46875 C 107.285156 10.507812 107.238281 10.546875 107.1875 10.578125 C 106.988281 10.648438 106.789062 10.675781 106.59375 10.65625 C 106.394531 10.65625 106.207031 10.644531 106.03125 10.625 C 105.9375 10.601562 105.859375 10.59375 105.796875 10.59375 C 104.867188 10.507812 103.941406 10.410156 103.015625 10.296875 C 100.859375 10.078125 98.710938 9.867188 96.578125 9.671875 C 92.421875 9.296875 88.265625 8.953125 84.109375 8.640625 C 78.285156 8.242188 72.445312 7.9375 66.59375 7.71875 C 62.40625 7.5625 58.21875 7.453125 54.03125 7.390625 C 53.570312 7.367188 53.101562 7.359375 52.625 7.359375 C 52.144531 7.359375 51.675781 7.347656 51.21875 7.328125 C 48.375 7.253906 45.523438 7.21875 42.671875 7.21875 L 42.609375 7.21875 C 40.941406 7.21875 39.28125 7.253906 37.625 7.328125 C 37 7.347656 36.390625 7.359375 35.796875 7.359375 C 35.046875 7.378906 34.285156 7.523438 33.515625 7.796875 C 27.734375 9.816406 21.890625 11.300781 15.984375 12.25 C 14.273438 12.53125 12.570312 12.765625 10.875 12.953125 C 9.1875 13.148438 7.492188 13.25 5.796875 13.25 C 5.242188 13.25 4.691406 13.238281 4.140625 13.21875 C 3.304688 13.21875 2.503906 13.109375 1.734375 12.890625 C 1.421875 12.816406 1.128906 12.71875 0.859375 12.59375 C 0.617188 12.5 0.414062 12.367188 0.25 12.203125 C 0.0820312 12.035156 0.0078125 11.804688 0.03125 11.515625 C 0.0820312 11.234375 0.203125 10.992188 0.390625 10.796875 C 0.585938 10.597656 0.8125 10.429688 1.0625 10.296875 C 1.832031 9.859375 2.644531 9.5625 3.5 9.40625 C 3.925781 9.300781 4.359375 9.203125 4.796875 9.109375 C 6.234375 8.773438 7.675781 8.5 9.125 8.28125 C 14.945312 7.425781 20.753906 6.863281 26.546875 6.59375 C 26.890625 6.570312 27.226562 6.550781 27.5625 6.53125 C 29.34375 6.4375 31.128906 6.359375 32.921875 6.296875 C 33.554688 6.273438 34.195312 6.15625 34.84375 5.9375 C 37.050781 5.113281 39.222656 4.195312 41.359375 3.1875 C 43.503906 2.175781 45.597656 1.03125 47.640625 -0.25 C 49.335938 -1.28125 50.90625 -2.503906 52.34375 -3.921875 C 53.15625 -4.691406 53.816406 -5.566406 54.328125 -6.546875 C 55.015625 -7.953125 54.890625 -9.171875 53.953125 -10.203125 C 53.296875 -10.890625 52.515625 -11.421875 51.609375 -11.796875 C 50.410156 -12.347656 49.164062 -12.789062 47.875 -13.125 C 46.59375 -13.457031 45.289062 -13.742188 43.96875 -13.984375 C 40.21875 -14.597656 36.394531 -14.972656 32.5 -15.109375 C 32.351562 -15.109375 32.21875 -15.109375 32.09375 -15.109375 C 31.9375 -15.109375 31.78125 -15.109375 31.625 -15.109375 C 31.289062 -15.054688 31.039062 -14.859375 30.875 -14.515625 C 30.78125 -14.359375 30.695312 -14.210938 30.625 -14.078125 C 30.457031 -13.742188 30.285156 -13.410156 30.109375 -13.078125 C 28.722656 -10.285156 27.34375 -7.5 25.96875 -4.71875 C 24.820312 -2.351562 23.664062 -0.00390625 22.5 2.328125 C 22.476562 2.421875 22.445312 2.5 22.40625 2.5625 C 22.269531 2.851562 22.113281 3.128906 21.9375 3.390625 C 21.738281 3.609375 21.507812 3.695312 21.25 3.65625 C 21.082031 3.675781 20.925781 3.664062 20.78125 3.625 C 20.507812 3.476562 20.421875 3.269531 20.515625 3 C 20.753906 2.375 21.019531 1.765625 21.3125 1.171875 C 23.050781 -2.535156 24.796875 -6.226562 26.546875 -9.90625 C 27.109375 -11.082031 27.664062 -12.25 28.21875 -13.40625 C 28.257812 -13.519531 28.304688 -13.625 28.359375 -13.71875 C 28.492188 -13.988281 28.613281 -14.253906 28.71875 -14.515625 C 28.875 -14.910156 28.753906 -15.117188 28.359375 -15.140625 C 28.160156 -15.160156 27.960938 -15.171875 27.765625 -15.171875 C 27.503906 -15.191406 27.25 -15.210938 27 -15.234375 C 26.957031 -15.234375 26.898438 -15.234375 26.828125 -15.234375 C 26.523438 -15.265625 26.238281 -15.316406 25.96875 -15.390625 C 25.707031 -15.460938 25.550781 -15.664062 25.5 -16 C 25.5 -16.375 25.625 -16.648438 25.875 -16.828125 C 26.132812 -17.003906 26.421875 -17.148438 26.734375 -17.265625 C 26.847656 -17.304688 26.945312 -17.335938 27.03125 -17.359375 C 27.863281 -17.703125 28.710938 -18.007812 29.578125 -18.28125 C 29.671875 -18.320312 29.769531 -18.351562 29.875 -18.375 C 30.539062 -18.570312 31.039062 -18.992188 31.375 -19.640625 C 32.84375 -22.429688 34.316406 -25.222656 35.796875 -28.015625 C 36.304688 -28.972656 36.828125 -29.953125 37.359375 -30.953125 C 37.421875 -31.085938 37.484375 -31.222656 37.546875 -31.359375 C 37.679688 -31.640625 37.835938 -31.914062 38.015625 -32.1875 C 38.234375 -32.507812 38.519531 -32.640625 38.875 -32.578125 C 39.03125 -32.585938 39.1875 -32.578125 39.34375 -32.546875 C 39.664062 -32.390625 39.765625 -32.132812 39.640625 -31.78125 C 39.640625 -31.757812 39.628906 -31.75 39.609375 -31.75 C 39.359375 -30.988281 39.054688 -30.257812 38.703125 -29.5625 C 37.835938 -27.863281 36.957031 -26.164062 36.0625 -24.46875 C 35.78125 -23.894531 35.484375 -23.320312 35.171875 -22.75 C 35.015625 -22.457031 34.859375 -22.171875 34.703125 -21.890625 C 34.441406 -21.398438 34.1875 -20.90625 33.9375 -20.40625 C 33.9375 -20.40625 33.925781 -20.390625 33.90625 -20.359375 C 33.863281 -20.273438 33.832031 -20.1875 33.8125 -20.09375 C 33.789062 -20.007812 33.832031 -19.945312 33.9375 -19.90625 C 34.007812 -19.875 34.082031 -19.847656 34.15625 -19.828125 L 34.203125 -19.859375 C 34.335938 -19.890625 34.484375 -19.925781 34.640625 -19.96875 C 34.679688 -19.988281 34.722656 -20.007812 34.765625 -20.03125 C 39.597656 -21.550781 44.425781 -23.128906 49.25 -24.765625 C 54.070312 -26.398438 58.863281 -28.15625 63.625 -30.03125 C 63.738281 -30.070312 63.835938 -30.101562 63.921875 -30.125 C 65.378906 -30.71875 66.828125 -31.316406 68.265625 -31.921875 C 69.710938 -32.535156 71.144531 -33.191406 72.5625 -33.890625 C 73.613281 -34.398438 74.601562 -35.007812 75.53125 -35.71875 C 77.519531 -37.332031 77.609375 -38.773438 75.796875 -40.046875 C 74.941406 -40.628906 74.007812 -41.070312 73 -41.375 C 71.988281 -41.675781 70.957031 -41.894531 69.90625 -42.03125 C 67.394531 -42.40625 64.847656 -42.59375 62.265625 -42.59375 L 62.21875 -42.59375 C 59.738281 -42.582031 57.226562 -42.460938 54.6875 -42.234375 C 49.0625 -41.742188 43.445312 -40.796875 37.84375 -39.390625 C 32.6875 -38.109375 27.625 -36.367188 22.65625 -34.171875 C 21.351562 -33.597656 20.085938 -32.941406 18.859375 -32.203125 C 18.503906 -31.984375 18.148438 -31.785156 17.796875 -31.609375 C 17.597656 -31.523438 17.410156 -31.503906 17.234375 -31.546875 C 16.992188 -31.503906 16.796875 -31.570312 16.640625 -31.75 C 16.535156 -31.90625 16.53125 -32.046875 16.625 -32.171875 C 16.726562 -32.304688 16.851562 -32.421875 17 -32.515625 C 18.0625 -33.265625 19.164062 -33.890625 20.3125 -34.390625 C 20.332031 -34.390625 20.351562 -34.398438 20.375 -34.421875 C 25.050781 -36.628906 29.835938 -38.394531 34.734375 -39.71875 C 41.796875 -41.65625 48.890625 -42.867188 56.015625 -43.359375 C 58.222656 -43.515625 60.414062 -43.59375 62.59375 -43.59375 C 64.976562 -43.613281 67.335938 -43.492188 69.671875 -43.234375 C 71.878906 -43.015625 73.972656 -42.503906 75.953125 -41.703125 C 76.890625 -41.347656 77.695312 -40.820312 78.375 -40.125 C 78.945312 -39.5 79.195312 -38.8125 79.125 -38.0625 C 79.0625 -37.320312 78.703125 -36.582031 78.046875 -35.84375 C 77.203125 -35.007812 76.265625 -34.316406 75.234375 -33.765625 C 73.984375 -33.054688 72.703125 -32.414062 71.390625 -31.84375 C 70.085938 -31.28125 68.773438 -30.734375 67.453125 -30.203125 C 67.410156 -30.179688 67.359375 -30.15625 67.296875 -30.125 C 62.679688 -28.226562 58.03125 -26.46875 53.34375 -24.84375 C 48.65625 -23.226562 43.953125 -21.671875 39.234375 -20.171875 C 38.441406 -19.910156 37.648438 -19.644531 36.859375 -19.375 C 35.753906 -19 34.648438 -18.632812 33.546875 -18.28125 C 33.066406 -18.175781 32.679688 -17.910156 32.390625 -17.484375 C 32.148438 -17.085938 32.046875 -16.773438 32.078125 -16.546875 C 32.109375 -16.328125 32.359375 -16.210938 32.828125 -16.203125 C 34.078125 -16.160156 35.332031 -16.09375 36.59375 -16 C 36.675781 -16 36.753906 -16 36.828125 -16 C 39.203125 -15.851562 41.546875 -15.597656 43.859375 -15.234375 C 46.179688 -14.878906 48.441406 -14.363281 50.640625 -13.6875 C 51.597656 -13.375 52.515625 -13.019531 53.390625 -12.625 C 53.984375 -12.351562 54.546875 -12.023438 55.078125 -11.640625 C 57.359375 -9.878906 57.523438 -7.660156 55.578125 -4.984375 C 54.929688 -4.097656 54.195312 -3.296875 53.375 -2.578125 C 51.3125 -0.804688 49.101562 0.71875 46.75 2 C 44.71875 3.125 42.65625 4.160156 40.5625 5.109375 C 40.320312 5.191406 40.066406 5.300781 39.796875 5.4375 C 39.671875 5.5 39.53125 5.566406 39.375 5.640625 C 39.5 5.835938 39.613281 5.957031 39.71875 6 C 39.832031 6.039062 39.960938 6.050781 40.109375 6.03125 C 40.109375 6.03125 40.117188 6.03125 40.140625 6.03125 C 40.503906 6.050781 40.863281 6.0625 41.21875 6.0625 L 41.265625 6.0625 C 41.503906 6.0625 41.742188 6.050781 41.984375 6.03125 C 43.085938 6.03125 44.191406 6.03125 45.296875 6.03125 C 51.835938 6.050781 58.351562 6.195312 64.84375 6.46875 C 71.894531 6.707031 78.921875 7.140625 85.921875 7.765625 C 88.148438 7.953125 90.375 8.144531 92.59375 8.34375 C 95.28125 8.5625 97.960938 8.789062 100.640625 9.03125 C 102.203125 9.195312 103.757812 9.390625 105.3125 9.609375 C 105.675781 9.648438 106.0625 9.695312 106.46875 9.75 C 106.75 9.78125 107.035156 9.863281 107.328125 10 Z M 29.546875 -16.4375 C 29.585938 -16.457031 29.628906 -16.5 29.671875 -16.5625 C 29.722656 -16.625 29.757812 -16.675781 29.78125 -16.71875 C 29.78125 -16.769531 29.769531 -16.804688 29.75 -16.828125 C 29.726562 -16.847656 29.691406 -16.882812 29.640625 -16.9375 C 29.640625 -16.9375 29.628906 -16.945312 29.609375 -16.96875 C 29.367188 -16.914062 29.148438 -16.789062 28.953125 -16.59375 C 28.910156 -16.550781 28.894531 -16.5 28.90625 -16.4375 C 28.914062 -16.382812 28.953125 -16.359375 29.015625 -16.359375 C 29.191406 -16.359375 29.367188 -16.382812 29.546875 -16.4375 Z M 27.890625 8.25 C 27.929688 8.21875 27.976562 8.203125 28.03125 8.203125 C 28.113281 8.191406 28.195312 8.15625 28.28125 8.09375 C 28.375 8.039062 28.441406 7.957031 28.484375 7.84375 C 28.441406 7.757812 28.398438 7.707031 28.359375 7.6875 C 28.328125 7.6875 28.300781 7.6875 28.28125 7.6875 C 22.945312 7.925781 17.597656 8.375 12.234375 9.03125 C 9.585938 9.34375 6.953125 9.84375 4.328125 10.53125 C 4.265625 10.5625 4.203125 10.582031 4.140625 10.59375 C 3.671875 10.6875 3.253906 10.875 2.890625 11.15625 C 2.796875 11.226562 2.734375 11.304688 2.703125 11.390625 C 2.679688 11.472656 2.726562 11.550781 2.84375 11.625 C 3.0625 11.71875 3.296875 11.789062 3.546875 11.84375 C 4.398438 12.007812 5.269531 12.09375 6.15625 12.09375 C 6.90625 12.09375 7.65625 12.054688 8.40625 11.984375 C 14.9375 11.429688 21.429688 10.1875 27.890625 8.25 Z M 27.890625 8.25 "/></g></g></g><g fill="#000000" fill-opacity="1"><g transform="translate(164.901907, 175.880504)"><g><path d="M 8.5625 -5.765625 C 7.988281 -5.203125 7.316406 -4.71875 6.546875 -4.3125 C 5.773438 -3.90625 5.125 -3.640625 4.59375 -3.515625 C 4.070312 -3.390625 3.539062 -3.316406 3 -3.296875 C 2.113281 -3.253906 1.300781 -3.375 0.5625 -3.65625 C -0.65625 -4.144531 -1.078125 -5.082031 -0.703125 -6.46875 C -0.359375 -7.65625 0.347656 -8.582031 1.421875 -9.25 C 2.492188 -9.925781 3.601562 -10.253906 4.75 -10.234375 C 4.75 -10.234375 4.757812 -10.234375 4.78125 -10.234375 C 5.070312 -10.253906 5.347656 -10.238281 5.609375 -10.1875 C 6.046875 -10.019531 6.320312 -9.753906 6.4375 -9.390625 C 6.5625 -9.035156 6.484375 -8.640625 6.203125 -8.203125 C 5.566406 -7.222656 4.695312 -6.679688 3.59375 -6.578125 C 2.863281 -6.503906 2.15625 -6.535156 1.46875 -6.671875 C 1.34375 -6.691406 1.226562 -6.65625 1.125 -6.5625 C 1.03125 -6.476562 0.972656 -6.367188 0.953125 -6.234375 C 0.742188 -5.378906 1.007812 -4.832031 1.75 -4.59375 C 2.644531 -4.28125 3.582031 -4.28125 4.5625 -4.59375 C 5.675781 -4.9375 6.738281 -5.59375 7.75 -6.5625 C 8.769531 -7.539062 9.359375 -7.992188 9.515625 -7.921875 C 9.671875 -7.859375 9.71875 -7.675781 9.65625 -7.375 C 9.507812 -6.875 9.144531 -6.335938 8.5625 -5.765625 Z M 2.171875 -8.203125 C 2.109375 -8.128906 2.0625 -8.046875 2.03125 -7.953125 C 2.007812 -7.867188 2.046875 -7.796875 2.140625 -7.734375 C 2.484375 -7.523438 2.859375 -7.445312 3.265625 -7.5 C 3.679688 -7.5625 4.03125 -7.71875 4.3125 -7.96875 C 4.601562 -8.226562 4.726562 -8.546875 4.6875 -8.921875 C 4.65625 -9.046875 4.582031 -9.125 4.46875 -9.15625 C 4.363281 -9.195312 4.257812 -9.207031 4.15625 -9.1875 C 3.40625 -9.0625 2.742188 -8.734375 2.171875 -8.203125 Z M 2.171875 -8.203125 "/></g></g></g><g fill="#000000" fill-opacity="1"><g transform="translate(173.036633, 175.880504)"><g><path d="M 7.28125 -7.171875 C 7.613281 -7.503906 7.890625 -7.691406 8.109375 -7.734375 C 8.328125 -7.773438 8.46875 -7.738281 8.53125 -7.625 C 8.59375 -7.507812 8.550781 -7.359375 8.40625 -7.171875 C 7.519531 -6.109375 6.53125 -5.191406 5.4375 -4.421875 C 4.34375 -3.648438 3.21875 -3.203125 2.0625 -3.078125 C 0.90625 -2.960938 0.207031 -3.597656 -0.03125 -4.984375 C -0.207031 -6.347656 0.625 -9.140625 2.46875 -13.359375 C 4.3125 -17.585938 5.769531 -21.050781 6.84375 -23.75 C 6.9375 -23.988281 7.070312 -24.195312 7.25 -24.375 C 7.488281 -24.613281 7.773438 -24.671875 8.109375 -24.546875 C 8.210938 -24.492188 8.316406 -24.410156 8.421875 -24.296875 C 8.535156 -24.191406 8.578125 -24 8.546875 -23.71875 C 3.796875 -12.46875 1.492188 -6.347656 1.640625 -5.359375 C 1.796875 -4.378906 2.429688 -4.140625 3.546875 -4.640625 C 4.671875 -5.140625 5.535156 -5.644531 6.140625 -6.15625 C 6.742188 -6.675781 7.125 -7.015625 7.28125 -7.171875 Z M 7.28125 -7.171875 "/></g></g></g><g fill="#000000" fill-opacity="1"><g transform="translate(179.923391, 175.880504)"><g><path d="M 10.90625 -7.65625 C 11.144531 -7.519531 11.164062 -7.191406 10.96875 -6.671875 C 10.675781 -6.296875 10.363281 -5.941406 10.03125 -5.609375 C 9.695312 -5.273438 9.335938 -4.976562 8.953125 -4.71875 C 8.921875 -4.71875 8.90625 -4.707031 8.90625 -4.6875 C 8.644531 -4.507812 8.367188 -4.351562 8.078125 -4.21875 C 5.679688 -3.363281 4.457031 -3.875 4.40625 -5.75 C 3.4375 -4.90625 2.785156 -4.390625 2.453125 -4.203125 C 1.660156 -3.722656 0.800781 -3.507812 -0.125 -3.5625 C -0.800781 -3.601562 -1.257812 -3.8125 -1.5 -4.1875 C -1.75 -4.5625 -1.726562 -5.070312 -1.4375 -5.71875 C -1 -6.726562 -0.375 -7.628906 0.4375 -8.421875 C 1.382812 -9.304688 2.441406 -10.015625 3.609375 -10.546875 C 4.234375 -10.847656 4.882812 -10.96875 5.5625 -10.90625 C 6.25 -10.863281 6.660156 -10.476562 6.796875 -9.75 C 6.859375 -9.519531 6.800781 -9.320312 6.625 -9.15625 C 6.40625 -8.957031 6.148438 -8.910156 5.859375 -9.015625 C 5.835938 -9.015625 5.8125 -9.019531 5.78125 -9.03125 C 5.75 -9.039062 5.722656 -9.054688 5.703125 -9.078125 C 5.410156 -9.484375 5.113281 -9.648438 4.8125 -9.578125 C 4.519531 -9.515625 4.207031 -9.382812 3.875 -9.1875 C 2.332031 -8.28125 1.1875 -7.019531 0.4375 -5.40625 C 0.394531 -5.34375 0.367188 -5.265625 0.359375 -5.171875 C 0.347656 -5.085938 0.375 -5.023438 0.4375 -4.984375 C 0.613281 -4.921875 0.8125 -4.929688 1.03125 -5.015625 C 1.257812 -5.097656 1.484375 -5.222656 1.703125 -5.390625 C 1.921875 -5.554688 2.101562 -5.691406 2.25 -5.796875 C 2.269531 -5.828125 2.28125 -5.84375 2.28125 -5.84375 C 3.019531 -6.457031 3.738281 -7.085938 4.4375 -7.734375 C 4.75 -8.054688 5.132812 -8.238281 5.59375 -8.28125 C 6.257812 -8.28125 6.535156 -7.988281 6.421875 -7.40625 C 6.359375 -7.175781 6.289062 -6.953125 6.21875 -6.734375 C 5.957031 -5.785156 5.945312 -5.226562 6.1875 -5.0625 C 6.4375 -4.894531 6.804688 -4.894531 7.296875 -5.0625 C 7.796875 -5.226562 8.289062 -5.539062 8.78125 -6 C 9.28125 -6.46875 9.703125 -6.894531 10.046875 -7.28125 C 10.390625 -7.664062 10.675781 -7.789062 10.90625 -7.65625 Z M 10.90625 -7.65625 "/></g></g></g><g fill="#000000" fill-opacity="1"><g transform="translate(189.276006, 175.880504)"><g><path d="M 7.28125 -7.171875 C 7.613281 -7.503906 7.890625 -7.691406 8.109375 -7.734375 C 8.328125 -7.773438 8.46875 -7.738281 8.53125 -7.625 C 8.59375 -7.507812 8.550781 -7.359375 8.40625 -7.171875 C 7.519531 -6.109375 6.53125 -5.191406 5.4375 -4.421875 C 4.34375 -3.648438 3.21875 -3.203125 2.0625 -3.078125 C 0.90625 -2.960938 0.207031 -3.597656 -0.03125 -4.984375 C -0.207031 -6.347656 0.625 -9.140625 2.46875 -13.359375 C 4.3125 -17.585938 5.769531 -21.050781 6.84375 -23.75 C 6.9375 -23.988281 7.070312 -24.195312 7.25 -24.375 C 7.488281 -24.613281 7.773438 -24.671875 8.109375 -24.546875 C 8.210938 -24.492188 8.316406 -24.410156 8.421875 -24.296875 C 8.535156 -24.191406 8.578125 -24 8.546875 -23.71875 C 3.796875 -12.46875 1.492188 -6.347656 1.640625 -5.359375 C 1.796875 -4.378906 2.429688 -4.140625 3.546875 -4.640625 C 4.671875 -5.140625 5.535156 -5.644531 6.140625 -6.15625 C 6.742188 -6.675781 7.125 -7.015625 7.28125 -7.171875 Z M 7.28125 -7.171875 "/></g></g></g><g fill="#000000" fill-opacity="1"><g transform="translate(196.162764, 175.880504)"><g><path d="M 10.84375 -7.828125 C 10.894531 -7.828125 10.953125 -7.816406 11.015625 -7.796875 C 11.078125 -7.773438 11.128906 -7.742188 11.171875 -7.703125 C 11.316406 -7.566406 11.332031 -7.410156 11.21875 -7.234375 C 11.070312 -7.078125 10.9375 -6.945312 10.8125 -6.84375 C 10.039062 -6.132812 9.179688 -5.535156 8.234375 -5.046875 C 6.753906 -4.296875 5.125 -3.910156 3.34375 -3.890625 C 2.675781 -3.867188 1.992188 -3.976562 1.296875 -4.21875 C 0.015625 -4.726562 -0.503906 -5.65625 -0.265625 -7 C 0.0234375 -8.257812 0.726562 -9.300781 1.84375 -10.125 C 2.96875 -10.957031 4.171875 -11.316406 5.453125 -11.203125 C 5.691406 -11.160156 5.9375 -11.101562 6.1875 -11.03125 C 6.40625 -10.945312 6.566406 -10.816406 6.671875 -10.640625 C 6.785156 -10.460938 6.796875 -10.316406 6.703125 -10.203125 C 6.460938 -9.941406 6.1875 -9.878906 5.875 -10.015625 C 5.414062 -10.210938 4.992188 -10.265625 4.609375 -10.171875 C 4.222656 -10.085938 3.832031 -9.878906 3.4375 -9.546875 C 3.0625 -9.253906 2.648438 -8.832031 2.203125 -8.28125 C 1.765625 -7.726562 1.484375 -7.171875 1.359375 -6.609375 C 1.242188 -6.054688 1.5 -5.601562 2.125 -5.25 C 2.820312 -4.9375 3.535156 -4.859375 4.265625 -5.015625 C 6.085938 -5.390625 7.785156 -6.082031 9.359375 -7.09375 C 9.492188 -7.164062 9.617188 -7.25 9.734375 -7.34375 C 9.898438 -7.46875 10.070312 -7.570312 10.25 -7.65625 C 10.425781 -7.75 10.625 -7.804688 10.84375 -7.828125 Z M 10.84375 -7.828125 "/></g></g></g><g fill="#000000" fill-opacity="1"><g transform="translate(205.575521, 175.880504)"><g><path d="M 10.90625 -7.65625 C 11.144531 -7.519531 11.164062 -7.191406 10.96875 -6.671875 C 10.675781 -6.296875 10.363281 -5.941406 10.03125 -5.609375 C 9.695312 -5.273438 9.335938 -4.976562 8.953125 -4.71875 C 8.921875 -4.71875 8.90625 -4.707031 8.90625 -4.6875 C 8.644531 -4.507812 8.367188 -4.351562 8.078125 -4.21875 C 5.679688 -3.363281 4.457031 -3.875 4.40625 -5.75 C 3.4375 -4.90625 2.785156 -4.390625 2.453125 -4.203125 C 1.660156 -3.722656 0.800781 -3.507812 -0.125 -3.5625 C -0.800781 -3.601562 -1.257812 -3.8125 -1.5 -4.1875 C -1.75 -4.5625 -1.726562 -5.070312 -1.4375 -5.71875 C -1 -6.726562 -0.375 -7.628906 0.4375 -8.421875 C 1.382812 -9.304688 2.441406 -10.015625 3.609375 -10.546875 C 4.234375 -10.847656 4.882812 -10.96875 5.5625 -10.90625 C 6.25 -10.863281 6.660156 -10.476562 6.796875 -9.75 C 6.859375 -9.519531 6.800781 -9.320312 6.625 -9.15625 C 6.40625 -8.957031 6.148438 -8.910156 5.859375 -9.015625 C 5.835938 -9.015625 5.8125 -9.019531 5.78125 -9.03125 C 5.75 -9.039062 5.722656 -9.054688 5.703125 -9.078125 C 5.410156 -9.484375 5.113281 -9.648438 4.8125 -9.578125 C 4.519531 -9.515625 4.207031 -9.382812 3.875 -9.1875 C 2.332031 -8.28125 1.1875 -7.019531 0.4375 -5.40625 C 0.394531 -5.34375 0.367188 -5.265625 0.359375 -5.171875 C 0.347656 -5.085938 0.375 -5.023438 0.4375 -4.984375 C 0.613281 -4.921875 0.8125 -4.929688 1.03125 -5.015625 C 1.257812 -5.097656 1.484375 -5.222656 1.703125 -5.390625 C 1.921875 -5.554688 2.101562 -5.691406 2.25 -5.796875 C 2.269531 -5.828125 2.28125 -5.84375 2.28125 -5.84375 C 3.019531 -6.457031 3.738281 -7.085938 4.4375 -7.734375 C 4.75 -8.054688 5.132812 -8.238281 5.59375 -8.28125 C 6.257812 -8.28125 6.535156 -7.988281 6.421875 -7.40625 C 6.359375 -7.175781 6.289062 -6.953125 6.21875 -6.734375 C 5.957031 -5.785156 5.945312 -5.226562 6.1875 -5.0625 C 6.4375 -4.894531 6.804688 -4.894531 7.296875 -5.0625 C 7.796875 -5.226562 8.289062 -5.539062 8.78125 -6 C 9.28125 -6.46875 9.703125 -6.894531 10.046875 -7.28125 C 10.390625 -7.664062 10.675781 -7.789062 10.90625 -7.65625 Z M 5.859375 -15.03125 C 5.929688 -15.144531 6.03125 -15.21875 6.15625 -15.25 C 6.289062 -15.289062 6.425781 -15.3125 6.5625 -15.3125 C 6.601562 -15.289062 6.632812 -15.28125 6.65625 -15.28125 C 6.695312 -15.28125 6.753906 -15.265625 6.828125 -15.234375 C 7.160156 -15.171875 7.335938 -15.070312 7.359375 -14.9375 C 7.390625 -14.800781 7.347656 -14.65625 7.234375 -14.5 C 7.128906 -14.351562 7.015625 -14.210938 6.890625 -14.078125 C 6.554688 -13.722656 6.234375 -13.328125 5.921875 -12.890625 C 5.660156 -12.515625 5.425781 -12.21875 5.21875 -12 C 5.007812 -11.78125 4.847656 -11.742188 4.734375 -11.890625 C 4.628906 -11.984375 4.570312 -12.085938 4.5625 -12.203125 C 4.550781 -12.328125 4.5625 -12.457031 4.59375 -12.59375 C 4.6875 -12.988281 4.832031 -13.359375 5.03125 -13.703125 C 5.238281 -14.054688 5.453125 -14.398438 5.671875 -14.734375 C 5.734375 -14.828125 5.796875 -14.925781 5.859375 -15.03125 Z M 5.859375 -15.03125 "/></g></g></g><g fill="#000000" fill-opacity="1"><g transform="translate(214.928136, 175.880504)"><g><path d="M 2.234375 -6.015625 C 1.867188 -5.742188 1.6875 -5.550781 1.6875 -5.4375 C 1.6875 -5.332031 1.804688 -5.269531 2.046875 -5.25 C 2.285156 -5.226562 2.550781 -5.21875 2.84375 -5.21875 C 2.9375 -5.238281 3.007812 -5.25 3.0625 -5.25 C 4.019531 -5.226562 4.9375 -5.097656 5.8125 -4.859375 C 6.070312 -4.765625 6.332031 -4.640625 6.59375 -4.484375 C 6.601562 -4.460938 6.609375 -4.453125 6.609375 -4.453125 C 6.648438 -4.429688 6.679688 -4.382812 6.703125 -4.3125 C 6.734375 -4.25 6.734375 -4.195312 6.703125 -4.15625 C 6.703125 -4.113281 6.675781 -4.070312 6.625 -4.03125 C 6.570312 -4 6.523438 -3.972656 6.484375 -3.953125 C 6.296875 -3.910156 6.117188 -3.898438 5.953125 -3.921875 C 4.097656 -4.140625 2.242188 -4.238281 0.390625 -4.21875 C 0.0351562 -4.21875 -0.320312 -4.21875 -0.6875 -4.21875 C -0.800781 -4.21875 -0.925781 -4.210938 -1.0625 -4.203125 C -1.320312 -4.171875 -1.5625 -4.175781 -1.78125 -4.21875 C -2.007812 -4.257812 -2.15625 -4.425781 -2.21875 -4.71875 C -2.257812 -4.9375 -2.203125 -5.097656 -2.046875 -5.203125 C -1.890625 -5.304688 -1.703125 -5.382812 -1.484375 -5.4375 C -1.335938 -5.488281 -1.195312 -5.554688 -1.0625 -5.640625 C 0.507812 -6.523438 2.019531 -7.5 3.46875 -8.5625 C 4.0625 -8.976562 4.578125 -9.460938 5.015625 -10.015625 C 5.148438 -10.179688 5.179688 -10.335938 5.109375 -10.484375 C 5.035156 -10.628906 4.882812 -10.710938 4.65625 -10.734375 C 3.976562 -10.804688 3.316406 -10.753906 2.671875 -10.578125 C 2.648438 -10.578125 2.640625 -10.578125 2.640625 -10.578125 C 2.179688 -10.441406 1.707031 -10.316406 1.21875 -10.203125 C 0.976562 -10.171875 0.769531 -10.25 0.59375 -10.4375 C 0.53125 -10.539062 0.53125 -10.65625 0.59375 -10.78125 C 0.65625 -10.914062 0.789062 -11.019531 1 -11.09375 C 2.425781 -11.695312 3.921875 -11.910156 5.484375 -11.734375 C 5.859375 -11.671875 6.210938 -11.5625 6.546875 -11.40625 C 7.179688 -11.070312 7.332031 -10.597656 7 -9.984375 C 6.632812 -9.328125 6.117188 -8.757812 5.453125 -8.28125 C 4.597656 -7.65625 3.71875 -7.03125 2.8125 -6.40625 C 2.613281 -6.269531 2.421875 -6.140625 2.234375 -6.015625 Z M 2.234375 -6.015625 "/></g></g></g><g fill="#000000" fill-opacity="1"><g transform="translate(221.814894, 175.880504)"><g><path d="M 10.90625 -7.65625 C 11.144531 -7.519531 11.164062 -7.191406 10.96875 -6.671875 C 10.675781 -6.296875 10.363281 -5.941406 10.03125 -5.609375 C 9.695312 -5.273438 9.335938 -4.976562 8.953125 -4.71875 C 8.921875 -4.71875 8.90625 -4.707031 8.90625 -4.6875 C 8.644531 -4.507812 8.367188 -4.351562 8.078125 -4.21875 C 5.679688 -3.363281 4.457031 -3.875 4.40625 -5.75 C 3.4375 -4.90625 2.785156 -4.390625 2.453125 -4.203125 C 1.660156 -3.722656 0.800781 -3.507812 -0.125 -3.5625 C -0.800781 -3.601562 -1.257812 -3.8125 -1.5 -4.1875 C -1.75 -4.5625 -1.726562 -5.070312 -1.4375 -5.71875 C -1 -6.726562 -0.375 -7.628906 0.4375 -8.421875 C 1.382812 -9.304688 2.441406 -10.015625 3.609375 -10.546875 C 4.234375 -10.847656 4.882812 -10.96875 5.5625 -10.90625 C 6.25 -10.863281 6.660156 -10.476562 6.796875 -9.75 C 6.859375 -9.519531 6.800781 -9.320312 6.625 -9.15625 C 6.40625 -8.957031 6.148438 -8.910156 5.859375 -9.015625 C 5.835938 -9.015625 5.8125 -9.019531 5.78125 -9.03125 C 5.75 -9.039062 5.722656 -9.054688 5.703125 -9.078125 C 5.410156 -9.484375 5.113281 -9.648438 4.8125 -9.578125 C 4.519531 -9.515625 4.207031 -9.382812 3.875 -9.1875 C 2.332031 -8.28125 1.1875 -7.019531 0.4375 -5.40625 C 0.394531 -5.34375 0.367188 -5.265625 0.359375 -5.171875 C 0.347656 -5.085938 0.375 -5.023438 0.4375 -4.984375 C 0.613281 -4.921875 0.8125 -4.929688 1.03125 -5.015625 C 1.257812 -5.097656 1.484375 -5.222656 1.703125 -5.390625 C 1.921875 -5.554688 2.101562 -5.691406 2.25 -5.796875 C 2.269531 -5.828125 2.28125 -5.84375 2.28125 -5.84375 C 3.019531 -6.457031 3.738281 -7.085938 4.4375 -7.734375 C 4.75 -8.054688 5.132812 -8.238281 5.59375 -8.28125 C 6.257812 -8.28125 6.535156 -7.988281 6.421875 -7.40625 C 6.359375 -7.175781 6.289062 -6.953125 6.21875 -6.734375 C 5.957031 -5.785156 5.945312 -5.226562 6.1875 -5.0625 C 6.4375 -4.894531 6.804688 -4.894531 7.296875 -5.0625 C 7.796875 -5.226562 8.289062 -5.539062 8.78125 -6 C 9.28125 -6.46875 9.703125 -6.894531 10.046875 -7.28125 C 10.390625 -7.664062 10.675781 -7.789062 10.90625 -7.65625 Z M 10.90625 -7.65625 "/></g></g></g><g fill="#000000" fill-opacity="1"><g transform="translate(231.167508, 175.880504)"><g><path d="M 7.21875 -9.234375 C 7.125 -8.546875 6.796875 -8.09375 6.234375 -7.875 C 5.679688 -7.664062 5.5 -7.941406 5.6875 -8.703125 C 5.882812 -9.460938 5.539062 -9.65625 4.65625 -9.28125 C 3.78125 -8.90625 3.054688 -8.429688 2.484375 -7.859375 C 1.597656 -6.960938 0.816406 -5.992188 0.140625 -4.953125 C 0.0664062 -4.859375 0.0078125 -4.78125 -0.03125 -4.71875 C -0.226562 -4.425781 -0.425781 -4.148438 -0.625 -3.890625 C -0.757812 -3.710938 -0.914062 -3.597656 -1.09375 -3.546875 C -1.269531 -3.503906 -1.445312 -3.5 -1.625 -3.53125 C -1.789062 -3.550781 -1.921875 -3.613281 -2.015625 -3.71875 C -2.109375 -3.832031 -2.117188 -3.96875 -2.046875 -4.125 C -1.929688 -4.394531 -1.800781 -4.671875 -1.65625 -4.953125 C -0.75 -6.617188 0.164062 -8.296875 1.09375 -9.984375 C 1.113281 -10.003906 1.125 -10.023438 1.125 -10.046875 C 1.257812 -10.304688 1.414062 -10.546875 1.59375 -10.765625 C 1.789062 -10.984375 2.019531 -11.070312 2.28125 -11.03125 C 2.539062 -11 2.71875 -10.847656 2.8125 -10.578125 C 2.925781 -10.222656 3.019531 -10.019531 3.09375 -9.96875 C 3.175781 -9.925781 3.359375 -9.960938 3.640625 -10.078125 C 4.242188 -10.296875 4.828125 -10.445312 5.390625 -10.53125 C 5.960938 -10.625 6.429688 -10.601562 6.796875 -10.46875 C 7.171875 -10.332031 7.3125 -9.921875 7.21875 -9.234375 Z M 7.21875 -9.234375 "/></g></g></g><g fill="#000000" fill-opacity="1"><g transform="translate(54.154243, 218.497439)"><g><path d="M 0.734375 -6.15625 L 2.15625 -6.15625 L 2.15625 -1.15625 L 5.25 -1.15625 L 5.25 0 L 0.734375 0 Z M 0.734375 -6.15625 "/></g></g></g><g fill="#000000" fill-opacity="1"><g transform="translate(61.230032, 218.497439)"><g><path d="M 3.71875 0.109375 C 3.070312 0.109375 2.492188 -0.0234375 1.984375 -0.296875 C 1.472656 -0.578125 1.070312 -0.957031 0.78125 -1.4375 C 0.488281 -1.925781 0.34375 -2.472656 0.34375 -3.078125 C 0.34375 -3.679688 0.488281 -4.222656 0.78125 -4.703125 C 1.070312 -5.191406 1.472656 -5.570312 1.984375 -5.84375 C 2.492188 -6.125 3.070312 -6.265625 3.71875 -6.265625 C 4.351562 -6.265625 4.925781 -6.125 5.4375 -5.84375 C 5.945312 -5.570312 6.347656 -5.191406 6.640625 -4.703125 C 6.929688 -4.222656 7.078125 -3.679688 7.078125 -3.078125 C 7.078125 -2.472656 6.929688 -1.925781 6.640625 -1.4375 C 6.347656 -0.957031 5.945312 -0.578125 5.4375 -0.296875 C 4.925781 -0.0234375 4.351562 0.109375 3.71875 0.109375 Z M 3.71875 -1.109375 C 4.070312 -1.109375 4.394531 -1.191406 4.6875 -1.359375 C 4.988281 -1.523438 5.222656 -1.753906 5.390625 -2.046875 C 5.554688 -2.347656 5.640625 -2.691406 5.640625 -3.078125 C 5.640625 -3.460938 5.554688 -3.800781 5.390625 -4.09375 C 5.222656 -4.394531 4.988281 -4.628906 4.6875 -4.796875 C 4.394531 -4.960938 4.070312 -5.046875 3.71875 -5.046875 C 3.351562 -5.046875 3.019531 -4.960938 2.71875 -4.796875 C 2.425781 -4.628906 2.195312 -4.394531 2.03125 -4.09375 C 1.863281 -3.800781 1.78125 -3.460938 1.78125 -3.078125 C 1.78125 -2.691406 1.863281 -2.347656 2.03125 -2.046875 C 2.195312 -1.753906 2.425781 -1.523438 2.71875 -1.359375 C 3.019531 -1.191406 3.351562 -1.109375 3.71875 -1.109375 Z M 3.71875 -1.109375 "/></g></g></g><g fill="#000000" fill-opacity="1"><g transform="translate(70.417683, 218.497439)"><g><path d="M 4.890625 -3.171875 L 6.1875 -3.171875 L 6.1875 -0.671875 C 5.851562 -0.421875 5.46875 -0.226562 5.03125 -0.09375 C 4.59375 0.0390625 4.148438 0.109375 3.703125 0.109375 C 3.066406 0.109375 2.492188 -0.0234375 1.984375 -0.296875 C 1.472656 -0.578125 1.070312 -0.957031 0.78125 -1.4375 C 0.488281 -1.914062 0.34375 -2.460938 0.34375 -3.078125 C 0.34375 -3.691406 0.488281 -4.238281 0.78125 -4.71875 C 1.070312 -5.195312 1.472656 -5.570312 1.984375 -5.84375 C 2.503906 -6.125 3.085938 -6.265625 3.734375 -6.265625 C 4.273438 -6.265625 4.765625 -6.171875 5.203125 -5.984375 C 5.640625 -5.804688 6.007812 -5.546875 6.3125 -5.203125 L 5.390625 -4.359375 C 4.953125 -4.816406 4.421875 -5.046875 3.796875 -5.046875 C 3.398438 -5.046875 3.050781 -4.960938 2.75 -4.796875 C 2.445312 -4.640625 2.207031 -4.410156 2.03125 -4.109375 C 1.863281 -3.804688 1.78125 -3.460938 1.78125 -3.078125 C 1.78125 -2.691406 1.863281 -2.347656 2.03125 -2.046875 C 2.207031 -1.753906 2.445312 -1.523438 2.75 -1.359375 C 3.050781 -1.191406 3.394531 -1.109375 3.78125 -1.109375 C 4.195312 -1.109375 4.566406 -1.195312 4.890625 -1.375 Z M 4.890625 -3.171875 "/></g></g></g><g fill="#000000" fill-opacity="1"><g transform="translate(78.962972, 218.497439)"><g><path d="M 0.734375 -6.15625 L 2.15625 -6.15625 L 2.15625 0 L 0.734375 0 Z M 1.828125 -7.921875 L 3.296875 -7.921875 L 1.71875 -6.65625 L 0.640625 -6.65625 Z M 1.828125 -7.921875 "/></g></g></g><g fill="#000000" fill-opacity="1"><g transform="translate(83.610112, 218.497439)"><g><path d="M 2.75 0.109375 C 2.257812 0.109375 1.785156 0.0390625 1.328125 -0.09375 C 0.878906 -0.226562 0.519531 -0.398438 0.25 -0.609375 L 0.734375 -1.6875 C 0.992188 -1.488281 1.304688 -1.328125 1.671875 -1.203125 C 2.035156 -1.085938 2.398438 -1.03125 2.765625 -1.03125 C 3.171875 -1.03125 3.46875 -1.09375 3.65625 -1.21875 C 3.851562 -1.34375 3.953125 -1.503906 3.953125 -1.703125 C 3.953125 -1.847656 3.894531 -1.96875 3.78125 -2.0625 C 3.664062 -2.15625 3.515625 -2.234375 3.328125 -2.296875 C 3.148438 -2.359375 2.910156 -2.421875 2.609375 -2.484375 C 2.140625 -2.597656 1.753906 -2.707031 1.453125 -2.8125 C 1.160156 -2.925781 0.90625 -3.109375 0.6875 -3.359375 C 0.476562 -3.609375 0.375 -3.9375 0.375 -4.34375 C 0.375 -4.695312 0.46875 -5.019531 0.65625 -5.3125 C 0.851562 -5.601562 1.144531 -5.832031 1.53125 -6 C 1.925781 -6.175781 2.40625 -6.265625 2.96875 -6.265625 C 3.351562 -6.265625 3.734375 -6.21875 4.109375 -6.125 C 4.492188 -6.03125 4.828125 -5.894531 5.109375 -5.71875 L 4.65625 -4.640625 C 4.09375 -4.960938 3.523438 -5.125 2.953125 -5.125 C 2.554688 -5.125 2.257812 -5.054688 2.0625 -4.921875 C 1.875 -4.796875 1.78125 -4.628906 1.78125 -4.421875 C 1.78125 -4.203125 1.890625 -4.039062 2.109375 -3.9375 C 2.335938 -3.84375 2.675781 -3.742188 3.125 -3.640625 C 3.59375 -3.523438 3.972656 -3.410156 4.265625 -3.296875 C 4.566406 -3.191406 4.820312 -3.019531 5.03125 -2.78125 C 5.25 -2.539062 5.359375 -2.210938 5.359375 -1.796875 C 5.359375 -1.453125 5.257812 -1.132812 5.0625 -0.84375 C 4.875 -0.550781 4.582031 -0.316406 4.1875 -0.140625 C 3.789062 0.0234375 3.3125 0.109375 2.75 0.109375 Z M 2.75 0.109375 "/></g></g></g><g fill="#000000" fill-opacity="1"><g transform="translate(90.98508, 218.497439)"><g><path d="M 2 -5 L 0.03125 -5 L 0.03125 -6.15625 L 5.40625 -6.15625 L 5.40625 -5 L 3.4375 -5 L 3.4375 0 L 2 0 Z M 2 -5 "/></g></g></g><g fill="#000000" fill-opacity="1"><g transform="translate(98.184063, 218.497439)"><g><path d="M 0.734375 -6.15625 L 2.15625 -6.15625 L 2.15625 0 L 0.734375 0 Z M 0.734375 -6.15625 "/></g></g></g><g fill="#000000" fill-opacity="1"><g transform="translate(102.831203, 218.497439)"><g><path d="M 3.671875 0.109375 C 3.046875 0.109375 2.476562 -0.0234375 1.96875 -0.296875 C 1.46875 -0.578125 1.070312 -0.957031 0.78125 -1.4375 C 0.488281 -1.914062 0.34375 -2.460938 0.34375 -3.078125 C 0.34375 -3.691406 0.488281 -4.238281 0.78125 -4.71875 C 1.070312 -5.195312 1.46875 -5.570312 1.96875 -5.84375 C 2.476562 -6.125 3.050781 -6.265625 3.6875 -6.265625 C 4.21875 -6.265625 4.695312 -6.171875 5.125 -5.984375 C 5.5625 -5.796875 5.925781 -5.523438 6.21875 -5.171875 L 5.296875 -4.328125 C 4.890625 -4.804688 4.375 -5.046875 3.75 -5.046875 C 3.375 -5.046875 3.035156 -4.960938 2.734375 -4.796875 C 2.429688 -4.628906 2.195312 -4.394531 2.03125 -4.09375 C 1.863281 -3.800781 1.78125 -3.460938 1.78125 -3.078125 C 1.78125 -2.691406 1.863281 -2.347656 2.03125 -2.046875 C 2.195312 -1.753906 2.429688 -1.523438 2.734375 -1.359375 C 3.035156 -1.191406 3.375 -1.109375 3.75 -1.109375 C 4.375 -1.109375 4.890625 -1.351562 5.296875 -1.84375 L 6.21875 -1 C 5.925781 -0.632812 5.5625 -0.359375 5.125 -0.171875 C 4.695312 0.015625 4.210938 0.109375 3.671875 0.109375 Z M 3.671875 0.109375 "/></g></g></g><g fill="#000000" fill-opacity="1"><g transform="translate(111.042116, 218.497439)"><g><path d="M 4.78125 -1.3125 L 1.921875 -1.3125 L 1.375 0 L -0.078125 0 L 2.671875 -6.15625 L 4.078125 -6.15625 L 6.828125 0 L 5.328125 0 Z M 4.34375 -2.40625 L 3.359375 -4.765625 L 2.390625 -2.40625 Z M 4.34375 -2.40625 "/></g></g></g><g fill="#000000" fill-opacity="1"><g transform="translate(119.543412, 218.497439)"><g/></g></g><g fill="#000000" fill-opacity="1"><g transform="translate(123.794577, 218.497439)"><g><path d="M 3.6875 -2.1875 L 3.6875 0 L 2.265625 0 L 2.265625 -2.203125 L -0.125 -6.15625 L 1.390625 -6.15625 L 3.03125 -3.421875 L 4.6875 -6.15625 L 6.078125 -6.15625 Z M 3.6875 -2.1875 "/></g></g></g><g fill="#000000" fill-opacity="1"><g transform="translate(131.503923, 218.497439)"><g/></g></g><g fill="#000000" fill-opacity="1"><g transform="translate(135.755088, 218.497439)"><g><path d="M 2 -5 L 0.03125 -5 L 0.03125 -6.15625 L 5.40625 -6.15625 L 5.40625 -5 L 3.4375 -5 L 3.4375 0 L 2 0 Z M 2 -5 "/></g></g></g><g fill="#000000" fill-opacity="1"><g transform="translate(142.954071, 218.497439)"><g><path d="M 4.65625 0 L 3.46875 -1.71875 L 2.15625 -1.71875 L 2.15625 0 L 0.734375 0 L 0.734375 -6.15625 L 3.390625 -6.15625 C 3.941406 -6.15625 4.414062 -6.0625 4.8125 -5.875 C 5.21875 -5.695312 5.523438 -5.441406 5.734375 -5.109375 C 5.953125 -4.773438 6.0625 -4.378906 6.0625 -3.921875 C 6.0625 -3.460938 5.953125 -3.066406 5.734375 -2.734375 C 5.515625 -2.410156 5.203125 -2.160156 4.796875 -1.984375 L 6.1875 0 Z M 4.625 -3.921875 C 4.625 -4.265625 4.507812 -4.53125 4.28125 -4.71875 C 4.0625 -4.90625 3.738281 -5 3.3125 -5 L 2.15625 -5 L 2.15625 -2.84375 L 3.3125 -2.84375 C 3.738281 -2.84375 4.0625 -2.9375 4.28125 -3.125 C 4.507812 -3.3125 4.625 -3.578125 4.625 -3.921875 Z M 4.625 -3.921875 "/></g></g></g><g fill="#000000" fill-opacity="1"><g transform="translate(151.18258, 218.497439)"><g><path d="M 4.78125 -1.3125 L 1.921875 -1.3125 L 1.375 0 L -0.078125 0 L 2.671875 -6.15625 L 4.078125 -6.15625 L 6.828125 0 L 5.328125 0 Z M 4.34375 -2.40625 L 3.359375 -4.765625 L 2.390625 -2.40625 Z M 4.34375 -2.40625 "/></g></g></g><g fill="#000000" fill-opacity="1"><g transform="translate(159.683871, 218.497439)"><g><path d="M 6.375 -6.15625 L 6.375 0 L 5.203125 0 L 2.140625 -3.734375 L 2.140625 0 L 0.734375 0 L 0.734375 -6.15625 L 1.90625 -6.15625 L 4.96875 -2.421875 L 4.96875 -6.15625 Z M 6.375 -6.15625 "/></g></g></g><g fill="#000000" fill-opacity="1"><g transform="translate(168.55474, 218.497439)"><g><path d="M 2.75 0.109375 C 2.257812 0.109375 1.785156 0.0390625 1.328125 -0.09375 C 0.878906 -0.226562 0.519531 -0.398438 0.25 -0.609375 L 0.734375 -1.6875 C 0.992188 -1.488281 1.304688 -1.328125 1.671875 -1.203125 C 2.035156 -1.085938 2.398438 -1.03125 2.765625 -1.03125 C 3.171875 -1.03125 3.46875 -1.09375 3.65625 -1.21875 C 3.851562 -1.34375 3.953125 -1.503906 3.953125 -1.703125 C 3.953125 -1.847656 3.894531 -1.96875 3.78125 -2.0625 C 3.664062 -2.15625 3.515625 -2.234375 3.328125 -2.296875 C 3.148438 -2.359375 2.910156 -2.421875 2.609375 -2.484375 C 2.140625 -2.597656 1.753906 -2.707031 1.453125 -2.8125 C 1.160156 -2.925781 0.90625 -3.109375 0.6875 -3.359375 C 0.476562 -3.609375 0.375 -3.9375 0.375 -4.34375 C 0.375 -4.695312 0.46875 -5.019531 0.65625 -5.3125 C 0.851562 -5.601562 1.144531 -5.832031 1.53125 -6 C 1.925781 -6.175781 2.40625 -6.265625 2.96875 -6.265625 C 3.351562 -6.265625 3.734375 -6.21875 4.109375 -6.125 C 4.492188 -6.03125 4.828125 -5.894531 5.109375 -5.71875 L 4.65625 -4.640625 C 4.09375 -4.960938 3.523438 -5.125 2.953125 -5.125 C 2.554688 -5.125 2.257812 -5.054688 2.0625 -4.921875 C 1.875 -4.796875 1.78125 -4.628906 1.78125 -4.421875 C 1.78125 -4.203125 1.890625 -4.039062 2.109375 -3.9375 C 2.335938 -3.84375 2.675781 -3.742188 3.125 -3.640625 C 3.59375 -3.523438 3.972656 -3.410156 4.265625 -3.296875 C 4.566406 -3.191406 4.820312 -3.019531 5.03125 -2.78125 C 5.25 -2.539062 5.359375 -2.210938 5.359375 -1.796875 C 5.359375 -1.453125 5.257812 -1.132812 5.0625 -0.84375 C 4.875 -0.550781 4.582031 -0.316406 4.1875 -0.140625 C 3.789062 0.0234375 3.3125 0.109375 2.75 0.109375 Z M 2.75 0.109375 "/></g></g></g><g fill="#000000" fill-opacity="1"><g transform="translate(175.929703, 218.497439)"><g><path d="M 3.390625 -6.15625 C 3.941406 -6.15625 4.414062 -6.0625 4.8125 -5.875 C 5.21875 -5.695312 5.523438 -5.441406 5.734375 -5.109375 C 5.953125 -4.773438 6.0625 -4.378906 6.0625 -3.921875 C 6.0625 -3.472656 5.953125 -3.078125 5.734375 -2.734375 C 5.523438 -2.398438 5.21875 -2.144531 4.8125 -1.96875 C 4.414062 -1.789062 3.941406 -1.703125 3.390625 -1.703125 L 2.15625 -1.703125 L 2.15625 0 L 0.734375 0 L 0.734375 -6.15625 Z M 3.3125 -2.859375 C 3.738281 -2.859375 4.0625 -2.945312 4.28125 -3.125 C 4.507812 -3.3125 4.625 -3.578125 4.625 -3.921875 C 4.625 -4.265625 4.507812 -4.53125 4.28125 -4.71875 C 4.0625 -4.90625 3.738281 -5 3.3125 -5 L 2.15625 -5 L 2.15625 -2.859375 Z M 3.3125 -2.859375 "/></g></g></g><g fill="#000000" fill-opacity="1"><g transform="translate(184.131816, 218.497439)"><g><path d="M 3.71875 0.109375 C 3.070312 0.109375 2.492188 -0.0234375 1.984375 -0.296875 C 1.472656 -0.578125 1.070312 -0.957031 0.78125 -1.4375 C 0.488281 -1.925781 0.34375 -2.472656 0.34375 -3.078125 C 0.34375 -3.679688 0.488281 -4.222656 0.78125 -4.703125 C 1.070312 -5.191406 1.472656 -5.570312 1.984375 -5.84375 C 2.492188 -6.125 3.070312 -6.265625 3.71875 -6.265625 C 4.351562 -6.265625 4.925781 -6.125 5.4375 -5.84375 C 5.945312 -5.570312 6.347656 -5.191406 6.640625 -4.703125 C 6.929688 -4.222656 7.078125 -3.679688 7.078125 -3.078125 C 7.078125 -2.472656 6.929688 -1.925781 6.640625 -1.4375 C 6.347656 -0.957031 5.945312 -0.578125 5.4375 -0.296875 C 4.925781 -0.0234375 4.351562 0.109375 3.71875 0.109375 Z M 3.71875 -1.109375 C 4.070312 -1.109375 4.394531 -1.191406 4.6875 -1.359375 C 4.988281 -1.523438 5.222656 -1.753906 5.390625 -2.046875 C 5.554688 -2.347656 5.640625 -2.691406 5.640625 -3.078125 C 5.640625 -3.460938 5.554688 -3.800781 5.390625 -4.09375 C 5.222656 -4.394531 4.988281 -4.628906 4.6875 -4.796875 C 4.394531 -4.960938 4.070312 -5.046875 3.71875 -5.046875 C 3.351562 -5.046875 3.019531 -4.960938 2.71875 -4.796875 C 2.425781 -4.628906 2.195312 -4.394531 2.03125 -4.09375 C 1.863281 -3.800781 1.78125 -3.460938 1.78125 -3.078125 C 1.78125 -2.691406 1.863281 -2.347656 2.03125 -2.046875 C 2.195312 -1.753906 2.425781 -1.523438 2.71875 -1.359375 C 3.019531 -1.191406 3.351562 -1.109375 3.71875 -1.109375 Z M 3.71875 -1.109375 "/></g></g></g><g fill="#000000" fill-opacity="1"><g transform="translate(193.319463, 218.497439)"><g><path d="M 4.65625 0 L 3.46875 -1.71875 L 2.15625 -1.71875 L 2.15625 0 L 0.734375 0 L 0.734375 -6.15625 L 3.390625 -6.15625 C 3.941406 -6.15625 4.414062 -6.0625 4.8125 -5.875 C 5.21875 -5.695312 5.523438 -5.441406 5.734375 -5.109375 C 5.953125 -4.773438 6.0625 -4.378906 6.0625 -3.921875 C 6.0625 -3.460938 5.953125 -3.066406 5.734375 -2.734375 C 5.515625 -2.410156 5.203125 -2.160156 4.796875 -1.984375 L 6.1875 0 Z M 4.625 -3.921875 C 4.625 -4.265625 4.507812 -4.53125 4.28125 -4.71875 C 4.0625 -4.90625 3.738281 -5 3.3125 -5 L 2.15625 -5 L 2.15625 -2.84375 L 3.3125 -2.84375 C 3.738281 -2.84375 4.0625 -2.9375 4.28125 -3.125 C 4.507812 -3.3125 4.625 -3.578125 4.625 -3.921875 Z M 4.625 -3.921875 "/></g></g></g><g fill="#000000" fill-opacity="1"><g transform="translate(201.547972, 218.497439)"><g><path d="M 2 -5 L 0.03125 -5 L 0.03125 -6.15625 L 5.40625 -6.15625 L 5.40625 -5 L 3.4375 -5 L 3.4375 0 L 2 0 Z M 2 -5 "/></g></g></g><g fill="#000000" fill-opacity="1"><g transform="translate(208.74695, 218.497439)"><g><path d="M 5.5 -1.140625 L 5.5 0 L 0.734375 0 L 0.734375 -6.15625 L 5.390625 -6.15625 L 5.390625 -5.015625 L 2.140625 -5.015625 L 2.140625 -3.671875 L 5 -3.671875 L 5 -2.5625 L 2.140625 -2.5625 L 2.140625 -1.140625 Z M 5.5 -1.140625 "/></g></g></g><g clip-path="url(#8580f787ac)"><path fill="#5271ff" d="M 354.976562 205.515625 C 355.824219 205.515625 356.511719 207.183594 356.511719 209.238281 C 356.511719 211.292969 355.824219 212.960938 354.976562 212.960938 C 354.128906 212.960938 353.441406 211.292969 353.441406 209.238281 C 353.441406 207.183594 354.128906 205.515625 354.976562 205.515625 M 358.09375 207.191406 C 358.550781 207.191406 358.921875 208.207031 358.921875 209.457031 C 358.921875 210.707031 358.550781 211.722656 358.09375 211.722656 C 357.984375 211.722656 357.84375 211.6875 357.785156 211.5625 C 357.832031 211.585938 357.90625 211.621094 357.984375 211.59375 C 358.246094 211.5 358.675781 210.558594 358.675781 209.449219 C 358.675781 208.425781 358.316406 207.59375 358.050781 207.40625 C 357.917969 207.316406 357.816406 207.371094 357.710938 207.449219 C 357.785156 207.277344 357.957031 207.191406 358.09375 207.191406 M 354.816406 206.679688 C 355.324219 206.679688 355.734375 207.804688 355.734375 209.191406 C 355.734375 210.582031 355.324219 211.707031 354.816406 211.707031 C 354.695312 211.707031 354.554688 211.660156 354.476562 211.527344 C 354.539062 211.558594 354.695312 211.5625 354.769531 211.542969 C 355.167969 211.433594 355.460938 210.371094 355.460938 209.183594 C 355.460938 208.109375 355.148438 207.210938 354.859375 206.941406 C 354.707031 206.800781 354.535156 206.859375 354.390625 206.964844 C 354.480469 206.789062 354.664062 206.679688 354.816406 206.679688 M 354.902344 207.78125 C 355.117188 207.78125 355.289062 208.414062 355.289062 209.191406 C 355.289062 209.972656 355.117188 210.601562 354.902344 210.601562 C 354.6875 210.601562 354.515625 209.972656 354.515625 209.191406 C 354.515625 208.414062 354.6875 207.78125 354.902344 207.78125 M 358.171875 208.1875 C 358.363281 208.1875 358.519531 208.757812 358.519531 209.457031 C 358.519531 210.160156 358.363281 210.730469 358.171875 210.730469 C 357.976562 210.730469 357.820312 210.160156 357.820312 209.457031 C 357.820312 208.757812 357.976562 208.1875 358.171875 208.1875 M 330.984375 199.261719 L 348.246094 203.652344 L 348.246094 210.300781 L 331.046875 209.195312 Z M 314.597656 199.53125 C 316.347656 199.53125 317.769531 202.972656 317.769531 207.21875 C 317.769531 211.46875 316.347656 214.910156 314.597656 214.910156 C 312.847656 214.910156 311.425781 211.46875 311.425781 207.21875 C 311.425781 202.972656 312.847656 199.53125 314.597656 199.53125 M 281.53125 196.734375 C 281.554688 196.710938 281.578125 196.691406 281.601562 196.667969 Z M 283.671875 199.730469 C 284.851562 199.730469 285.8125 202.347656 285.8125 205.574219 C 285.8125 208.800781 284.851562 211.417969 283.671875 211.417969 C 283.390625 211.417969 283.082031 211.277344 282.878906 211.003906 C 283.101562 211.113281 283.445312 211.167969 283.671875 211.046875 C 284.5 210.601562 285.171875 208.21875 285.171875 205.554688 C 285.171875 202.65625 284.425781 200.488281 283.546875 200.238281 C 283.324219 200.175781 282.878906 200.214844 282.679688 200.394531 C 282.875 200.003906 283.316406 199.730469 283.671875 199.730469 M 321.042969 202.992188 C 321.988281 202.992188 322.753906 205.089844 322.753906 207.675781 C 322.753906 210.257812 321.988281 212.355469 321.042969 212.355469 C 320.816406 212.355469 320.527344 212.277344 320.40625 212.023438 C 320.5 212.070312 320.648438 212.144531 320.8125 212.085938 C 321.355469 211.894531 322.242188 209.953125 322.242188 207.660156 C 322.242188 205.539062 321.503906 203.820312 320.949219 203.433594 C 320.679688 203.246094 320.464844 203.363281 320.25 203.523438 C 320.40625 203.167969 320.753906 202.992188 321.042969 202.992188 M 314.269531 201.929688 C 315.320312 201.929688 316.171875 204.257812 316.171875 207.125 C 316.171875 209.992188 315.320312 212.320312 314.269531 212.320312 C 314.019531 212.320312 313.726562 212.222656 313.566406 211.953125 C 313.691406 212.015625 314.019531 212.027344 314.171875 211.984375 C 315 211.757812 315.601562 209.558594 315.601562 207.109375 C 315.601562 204.886719 314.957031 203.035156 314.355469 202.472656 C 314.046875 202.183594 313.683594 202.300781 313.386719 202.519531 C 313.574219 202.160156 313.949219 201.929688 314.269531 201.929688 M 314.449219 204.210938 C 314.890625 204.210938 315.25 205.515625 315.25 207.125 C 315.25 208.734375 314.890625 210.039062 314.449219 210.039062 C 314.003906 210.039062 313.644531 208.734375 313.644531 207.125 C 313.644531 205.515625 314.003906 204.210938 314.449219 204.210938 M 321.203125 205.046875 C 321.601562 205.046875 321.925781 206.226562 321.925781 207.675781 C 321.925781 209.125 321.601562 210.300781 321.203125 210.300781 C 320.804688 210.300781 320.480469 209.125 320.480469 207.675781 C 320.480469 206.226562 320.804688 205.046875 321.203125 205.046875 M 283.875 202.296875 C 284.371094 202.296875 284.777344 203.765625 284.777344 205.574219 C 284.777344 207.386719 284.371094 208.851562 283.875 208.851562 C 283.375 208.851562 282.972656 207.386719 282.972656 205.574219 C 282.972656 203.765625 283.375 202.296875 283.875 202.296875 M 277.539062 214.636719 L 276.773438 201.136719 L 277.554688 214.636719 Z M 262.648438 188.628906 L 262.390625 176.253906 L 278.582031 172.859375 L 263.828125 177.066406 Z M 304.777344 154.316406 L 303.949219 154.234375 L 304.214844 172.859375 Z M 286.125 159.992188 L 287.449219 160.207031 L 287.296875 163.460938 L 287.769531 163.5 C 287.847656 163.507812 287.925781 163.523438 287.996094 163.546875 L 288.144531 160.320312 L 293.175781 161.136719 L 292.855469 172.28125 L 288.527344 172.324219 L 288.511719 172.949219 L 293.039062 172.898438 L 288.496094 173.460938 L 288.472656 174.261719 C 288.457031 174.832031 288.003906 175.566406 287.367188 175.480469 L 285.621094 175.328125 L 284.777344 187.171875 L 284.648438 175.246094 C 284.078125 175.164062 283.910156 174.648438 283.941406 174.109375 L 284.488281 164.386719 C 284.519531 163.855469 284.722656 163.238281 285.375 163.296875 L 285.710938 163.324219 Z M 308.726562 145.167969 L 305.519531 143.769531 L 308.570312 145.207031 L 308.347656 151.511719 L 305.566406 150.96875 L 308.582031 151.660156 Z M 309.078125 144.828125 L 305.175781 143.277344 L 305 151.082031 L 308.898438 151.984375 Z M 285.265625 163.613281 L 287.109375 163.746094 C 287.460938 163.769531 287.742188 164.191406 287.730469 164.695312 L 287.503906 174.292969 C 287.488281 174.796875 287.191406 174.988281 286.835938 174.988281 L 284.761719 174.992188 C 284.410156 174.992188 284.28125 174.703125 284.304688 174.195312 L 284.753906 164.472656 C 284.777344 163.96875 284.910156 163.585938 285.265625 163.613281 M 262.871094 190.375 L 270.875 190.375 L 270.835938 196.207031 L 262.90625 195.914062 Z M 236.25 183.394531 L 259.929688 183.425781 L 259.929688 185.089844 L 236.25 184.957031 Z M 236.25 186.382812 L 259.929688 186.605469 L 259.929688 188.269531 L 236.25 187.945312 Z M 236.25 189.375 L 259.929688 189.789062 L 259.929688 191.453125 L 236.25 190.933594 Z M 236.25 192.363281 L 259.929688 192.972656 L 259.929688 194.636719 L 236.25 193.925781 Z M 236.25 195.351562 L 259.929688 196.152344 L 259.929688 197.816406 L 236.25 196.914062 Z M 236.25 177.414062 L 259.925781 177.058594 L 259.925781 178.726562 L 236.25 178.980469 Z M 236.25 180.40625 L 259.929688 180.246094 L 259.929688 181.910156 L 236.25 181.96875 Z M 234.445312 195.726562 L 227.753906 195.226562 L 227.753906 190.976562 L 234.445312 190.925781 Z M 301.867188 205.445312 C 302.964844 203.964844 303.519531 202.136719 303.109375 200.242188 C 302.945312 199.488281 302.640625 198.804688 302.222656 198.203125 L 302.476562 198.265625 C 306.167969 199.183594 305.101562 204.242188 303.535156 205.472656 Z M 297.652344 205.371094 C 298.511719 203.5625 298.871094 201.496094 298.464844 199.367188 C 298.304688 198.539062 298.039062 197.773438 297.683594 197.070312 L 301.460938 198.011719 C 302.027344 198.667969 302.4375 199.453125 302.632812 200.347656 C 303.039062 202.21875 302.414062 204.015625 301.261719 205.433594 Z M 292.617188 195.8125 L 296.851562 196.863281 C 297.332031 197.644531 297.683594 198.53125 297.875 199.511719 C 298.273438 201.597656 297.867188 203.621094 296.96875 205.359375 L 292.914062 205.289062 C 295.035156 202.410156 295.136719 197.707031 292.617188 195.8125 M 305.785156 206.460938 C 305.796875 204.089844 305.933594 202.675781 306.28125 201.449219 C 306.679688 200.046875 308.339844 198.457031 310.128906 198.457031 C 311.792969 198.460938 312.976562 198.496094 314.320312 198.621094 C 312.925781 198.820312 312.429688 199.609375 312.167969 200.039062 C 311.5 201.125 310.558594 202.375 310.597656 206.757812 Z M 262.210938 170.332031 L 264.011719 159.074219 L 282.25 160.003906 L 279.152344 172.257812 Z M 365.414062 207.890625 L 365.105469 179.207031 L 314.664062 135.042969 L 300.199219 135.042969 L 300.199219 123.175781 L 301.601562 122.078125 L 298.6875 122.078125 L 298.6875 135.042969 L 270.148438 135.042969 L 270.148438 136.558594 L 298.6875 136.558594 L 298.6875 137.300781 L 267.558594 137.367188 C 266.398438 137.496094 263.683594 137.289062 260.933594 139.003906 C 259.015625 140.199219 257.722656 141.289062 256.5625 142.792969 L 287.511719 142.882812 L 287.066406 143.832031 L 255.828125 143.832031 C 255.632812 144.128906 255.441406 144.441406 255.246094 144.769531 L 255.246094 123.375 L 251.398438 123.375 L 251.398438 151.269531 L 246.230469 160.003906 L 246.121094 163.378906 L 244.746094 163.378906 C 244.328125 163.378906 243.984375 163.722656 243.984375 164.140625 L 243.984375 171.597656 L 234.863281 175.800781 L 234.855469 188.96875 L 230.054688 188.972656 C 231.09375 187.507812 232.476562 186.074219 234.175781 184.753906 C 231.140625 185.976562 229.0625 187.589844 227.726562 189.625 L 226.757812 190.113281 L 226.757812 191.464844 C 226.023438 193.253906 225.710938 195.3125 225.710938 197.648438 L 270.222656 199.164062 C 271.871094 194.265625 275.800781 188.496094 282.566406 186.429688 C 275.367188 184.292969 268.128906 184.523438 262.058594 189.847656 L 261.65625 176.28125 L 249.167969 173.078125 L 239.589844 174.765625 L 247.335938 171.039062 L 258.527344 170.433594 L 261.960938 158.96875 L 249.476562 159.339844 L 252.761719 154.085938 L 281.285156 153.84375 C 283.3125 153.824219 287.386719 153.015625 288.746094 148.929688 C 290.253906 144.414062 290.769531 141.335938 295.539062 140.074219 C 296.46875 139.824219 297.546875 139.59375 298.6875 139.472656 L 298.6875 152.597656 C 297.875 152.828125 297.121094 153.613281 297.082031 154.386719 L 296.695312 190.835938 C 290.445312 189.234375 285.132812 188.660156 281.957031 190.121094 C 278.578125 191.671875 276.015625 194.046875 273.761719 201.003906 L 225.675781 198.871094 L 225.664062 200.558594 L 272.769531 202.914062 L 273.324219 209.992188 L 246.679688 210.035156 L 225.710938 206.863281 L 225.839844 207.882812 L 229.636719 208.710938 C 230.574219 211.832031 233.003906 213.730469 234.832031 213.765625 L 277.539062 214.636719 L 283.320312 214.761719 C 280.898438 214.761719 278.933594 210.542969 278.933594 205.339844 C 278.933594 202.679688 279.445312 200.277344 280.273438 198.5625 C 280.296875 198.515625 280.320312 198.464844 280.34375 198.417969 L 280.347656 198.410156 C 280.398438 198.3125 280.445312 198.21875 280.5 198.125 L 280.503906 198.117188 C 280.527344 198.070312 280.554688 198.027344 280.578125 197.980469 L 280.582031 197.976562 C 280.605469 197.941406 280.628906 197.902344 280.648438 197.863281 L 280.671875 197.832031 L 280.726562 197.742188 L 280.753906 197.699219 C 280.777344 197.664062 280.796875 197.628906 280.820312 197.597656 L 280.835938 197.570312 C 280.859375 197.542969 280.878906 197.511719 280.898438 197.484375 L 280.933594 197.4375 L 280.984375 197.363281 L 281.015625 197.324219 C 281.035156 197.296875 281.054688 197.269531 281.078125 197.242188 L 281.109375 197.203125 L 281.164062 197.132812 L 281.207031 197.082031 L 281.253906 197.023438 L 281.296875 196.976562 L 281.351562 196.917969 L 281.398438 196.871094 L 281.441406 196.824219 C 281.460938 196.804688 281.480469 196.785156 281.5 196.765625 L 281.535156 196.730469 C 281.558594 196.710938 281.578125 196.6875 281.601562 196.667969 L 281.632812 196.640625 C 281.65625 196.621094 281.679688 196.597656 281.703125 196.578125 L 281.730469 196.558594 C 281.753906 196.539062 281.777344 196.515625 281.800781 196.5 L 281.828125 196.476562 C 281.855469 196.457031 281.878906 196.4375 281.90625 196.417969 L 281.925781 196.402344 C 281.953125 196.382812 281.980469 196.367188 282.003906 196.347656 L 282.03125 196.328125 C 282.058594 196.3125 282.082031 196.296875 282.109375 196.28125 L 282.132812 196.265625 C 282.160156 196.25 282.1875 196.234375 282.214844 196.21875 L 282.234375 196.207031 C 282.265625 196.191406 282.292969 196.175781 282.320312 196.160156 L 282.339844 196.152344 C 282.367188 196.140625 282.398438 196.125 282.429688 196.113281 L 282.445312 196.105469 C 282.476562 196.089844 282.507812 196.078125 282.539062 196.066406 L 282.550781 196.0625 C 282.582031 196.050781 282.613281 196.039062 282.644531 196.027344 L 282.660156 196.023438 C 282.691406 196.011719 282.722656 196.003906 282.753906 195.996094 L 282.769531 195.988281 C 282.800781 195.980469 282.835938 195.972656 282.867188 195.964844 L 282.878906 195.964844 C 282.910156 195.957031 282.945312 195.949219 282.976562 195.945312 L 282.988281 195.941406 C 283.023438 195.933594 283.058594 195.929688 283.097656 195.925781 C 283.136719 195.921875 283.171875 195.917969 283.207031 195.917969 L 283.214844 195.917969 C 283.25 195.914062 283.289062 195.914062 283.324219 195.914062 C 283.363281 195.914062 283.398438 195.914062 283.433594 195.917969 L 283.441406 195.917969 C 283.476562 195.921875 283.511719 195.921875 283.546875 195.925781 L 283.554688 195.925781 C 283.589844 195.929688 283.621094 195.933594 283.65625 195.941406 L 283.667969 195.941406 C 283.703125 195.949219 283.734375 195.953125 283.769531 195.960938 L 283.773438 195.960938 C 283.8125 195.96875 283.847656 195.980469 283.882812 195.988281 L 283.886719 195.988281 C 283.921875 196 283.957031 196.007812 283.992188 196.019531 L 284 196.023438 C 284.03125 196.035156 284.0625 196.046875 284.097656 196.058594 L 284.109375 196.0625 C 284.140625 196.074219 284.171875 196.089844 284.207031 196.101562 L 284.214844 196.105469 C 284.246094 196.121094 284.28125 196.136719 284.3125 196.152344 L 284.320312 196.15625 C 284.351562 196.171875 284.386719 196.1875 284.417969 196.207031 L 284.421875 196.210938 L 284.429688 196.214844 C 284.460938 196.230469 284.492188 196.25 284.523438 196.265625 L 284.535156 196.277344 C 284.566406 196.292969 284.59375 196.3125 284.621094 196.332031 L 284.640625 196.34375 C 284.671875 196.363281 284.699219 196.382812 284.730469 196.40625 L 284.738281 196.410156 C 284.765625 196.433594 284.796875 196.457031 284.828125 196.480469 L 284.835938 196.484375 L 284.839844 196.488281 C 284.871094 196.511719 284.902344 196.539062 284.933594 196.566406 L 284.941406 196.570312 C 284.96875 196.597656 284.996094 196.621094 285.027344 196.648438 L 285.042969 196.664062 C 285.070312 196.6875 285.097656 196.714844 285.128906 196.742188 L 285.136719 196.75 C 285.164062 196.777344 285.195312 196.808594 285.222656 196.835938 L 285.234375 196.847656 C 285.261719 196.875 285.289062 196.90625 285.316406 196.9375 L 285.332031 196.953125 C 285.359375 196.984375 285.390625 197.015625 285.417969 197.050781 L 285.421875 197.054688 C 285.449219 197.089844 285.476562 197.121094 285.503906 197.15625 L 285.515625 197.171875 C 285.542969 197.203125 285.566406 197.234375 285.59375 197.265625 L 285.609375 197.289062 C 285.636719 197.320312 285.660156 197.355469 285.6875 197.390625 L 285.695312 197.402344 C 285.722656 197.441406 285.75 197.480469 285.777344 197.519531 L 285.789062 197.53125 C 285.8125 197.570312 285.839844 197.609375 285.863281 197.644531 L 285.878906 197.667969 C 285.902344 197.703125 285.925781 197.742188 285.949219 197.777344 L 285.957031 197.796875 C 285.984375 197.832031 286.007812 197.871094 286.03125 197.914062 L 286.042969 197.933594 C 286.066406 197.972656 286.089844 198.011719 286.113281 198.054688 L 286.125 198.074219 C 286.148438 198.117188 286.171875 198.160156 286.195312 198.203125 L 286.195312 198.207031 C 287.125 199.933594 287.714844 202.488281 287.714844 205.339844 C 287.714844 206.128906 287.671875 206.902344 287.585938 207.636719 C 287.574219 207.726562 287.5625 207.816406 287.550781 207.90625 L 287.546875 207.941406 L 287.546875 207.949219 L 287.539062 207.996094 C 287.527344 208.097656 287.511719 208.199219 287.496094 208.300781 L 287.488281 208.347656 L 287.480469 208.390625 L 287.476562 208.433594 L 287.460938 208.519531 L 287.457031 208.550781 L 287.453125 208.5625 L 287.445312 208.605469 L 287.441406 208.636719 L 287.4375 208.648438 L 287.398438 208.863281 L 287.375 208.988281 L 287.367188 209.03125 L 287.359375 209.058594 L 287.355469 209.074219 L 287.347656 209.117188 L 287.332031 209.199219 L 287.324219 209.226562 L 287.324219 209.242188 L 287.3125 209.28125 L 287.308594 209.308594 L 287.304688 209.324219 L 287.296875 209.363281 L 287.285156 209.40625 L 287.277344 209.445312 L 287.273438 209.472656 L 287.269531 209.488281 L 287.257812 209.527344 L 287.253906 209.554688 L 287.25 209.570312 L 287.238281 209.609375 L 287.234375 209.632812 L 287.230469 209.648438 L 287.21875 209.691406 L 287.214844 209.714844 L 287.210938 209.730469 L 287.199219 209.769531 L 287.195312 209.792969 L 287.191406 209.8125 L 287.179688 209.851562 L 287.175781 209.875 L 287.171875 209.890625 L 287.160156 209.929688 L 287.152344 209.953125 L 287.148438 209.96875 L 287.140625 210.007812 L 287.132812 210.03125 L 287.128906 210.046875 L 287.117188 210.085938 L 287.113281 210.109375 L 287.109375 210.125 L 287.097656 210.164062 L 287.089844 210.1875 L 287.085938 210.203125 L 287.074219 210.242188 L 287.070312 210.265625 L 287.0625 210.28125 L 287.054688 210.320312 C 287 210.503906 286.941406 210.6875 286.882812 210.863281 L 286.886719 210.859375 L 287.160156 210.867188 C 287.621094 212.65625 289.195312 214.003906 290.351562 214.03125 C 291.75 214.058594 293.175781 214.066406 294.570312 214.117188 C 294.628906 214.121094 294.683594 214.117188 294.730469 214.109375 C 296.261719 213.964844 297.550781 212.855469 298.03125 211.25 L 306.375 211.539062 C 306.75 212.71875 306.863281 213.316406 307.785156 214.402344 C 308.273438 214.976562 309.566406 215.761719 311.039062 215.789062 C 312.660156 215.816406 316.800781 215.640625 318.527344 215.554688 C 320.359375 215.460938 321.453125 215.382812 322.070312 214.804688 C 321.835938 214.96875 321.589844 215.054688 321.335938 215.054688 C 319.777344 215.054688 318.515625 211.746094 318.515625 207.660156 C 318.515625 203.578125 319.777344 200.265625 321.335938 200.265625 C 322.894531 200.265625 324.160156 203.578125 324.160156 207.660156 C 324.160156 209.070312 324.007812 210.386719 323.746094 211.503906 L 326.214844 211.449219 L 326.273438 204.101562 C 326.40625 200.910156 323.808594 199.335938 322.726562 198.996094 L 310.773438 195.234375 L 311.589844 141.910156 L 304.136719 137.285156 L 300.207031 137.292969 L 300.207031 136.554688 L 314.632812 136.554688 L 314.515625 141.09375 L 363.089844 182.605469 L 314.476562 142.660156 L 313.328125 186.804688 L 364.195312 204.574219 L 313.285156 188.417969 L 313.15625 193.378906 L 351.554688 204.039062 C 349.464844 205.359375 349.546875 208.460938 349.871094 211.289062 L 351 211.328125 C 351.183594 211.898438 351.238281 212.1875 351.683594 212.714844 C 351.917969 212.988281 352.546875 213.371094 353.257812 213.382812 C 354.039062 213.398438 356.046875 213.3125 356.882812 213.269531 C 357.765625 213.226562 358.296875 213.1875 358.59375 212.90625 C 358.480469 212.984375 358.363281 213.027344 358.242188 213.027344 C 357.488281 213.027344 356.875 211.425781 356.875 209.449219 C 356.875 207.535156 357.449219 205.96875 358.171875 205.875 L 358.59375 205.992188 C 359.175781 206.402344 359.605469 207.792969 359.605469 209.449219 C 359.605469 209.671875 359.597656 209.886719 359.582031 210.097656 L 360.609375 210.097656 L 360.628906 207.726562 C 360.648438 207.234375 360.535156 206.820312 360.351562 206.480469 Z M 310.265625 143.269531 L 309.871094 175.945312 C 309.757812 185.402344 306.296875 183.589844 305.171875 193.386719 C 302.851562 192.605469 300.578125 191.894531 298.402344 191.289062 L 299.09375 155.902344 C 302.191406 156.3125 302.917969 154.15625 304.777344 154.316406 C 304.191406 153.332031 303.410156 152.851562 302.207031 152.632812 C 301.769531 152.785156 300.742188 153.058594 300.199219 152.839844 L 300.199219 139.386719 C 301.816406 139.375 303.484375 139.648438 304.992188 140.453125 Z M 310.265625 143.269531 " fill-opacity="1" fill-rule="evenodd"/></g></svg>