<svg xmlns="http://www.w3.org/2000/svg" xmlns:xlink="http://www.w3.org/1999/xlink" width="500" zoomAndPan="magnify" viewBox="0 0 375 374.999991" height="500" preserveAspectRatio="xMidYMid meet" version="1.0"><defs><g/><clipPath id="a1238caccd"><path d="M 101 18.734375 L 200 18.734375 L 200 70 L 101 70 Z M 101 18.734375 " clip-rule="nonzero"/></clipPath><clipPath id="423c20ab3d"><path d="M 65.871094 50 L 136 50 L 136 270 L 65.871094 270 Z M 65.871094 50 " clip-rule="nonzero"/></clipPath><clipPath id="7e172d257d"><path d="M 167 252 L 198 252 L 198 281.984375 L 167 281.984375 Z M 167 252 " clip-rule="nonzero"/></clipPath><clipPath id="d82a51681d"><path d="M 286 252 L 317 252 L 317 281.984375 L 286 281.984375 Z M 286 252 " clip-rule="nonzero"/></clipPath><clipPath id="e82ac72e7d"><path d="M 142 177 L 337.371094 177 L 337.371094 272 L 142 272 Z M 142 177 " clip-rule="nonzero"/></clipPath></defs><g clip-path="url(#a1238caccd)"><path fill="#000000" d="M 108.292969 69.6875 L 193.136719 69.6875 C 196.742188 69.6875 199.5 66.714844 199.5 63.105469 L 199.5 53.550781 C 199.5 46.121094 193.773438 39.964844 186.773438 39.964844 L 171.925781 39.964844 C 171.925781 39.753906 171.925781 39.539062 171.925781 39.328125 C 171.925781 28.5 161.957031 18.734375 150.929688 18.734375 C 139.261719 18.734375 129.503906 28.289062 129.503906 39.328125 C 129.503906 39.539062 129.503906 39.753906 129.503906 39.964844 L 114.65625 39.964844 C 107.65625 39.964844 101.929688 46.121094 101.929688 53.550781 L 101.929688 63.105469 C 101.929688 66.714844 104.6875 69.6875 108.292969 69.6875 Z M 150.714844 44.210938 C 153.050781 44.210938 154.957031 46.121094 154.957031 48.457031 C 154.957031 50.792969 153.050781 52.703125 150.714844 52.703125 C 148.382812 52.703125 146.472656 50.792969 146.472656 48.457031 C 146.472656 46.121094 148.382812 44.210938 150.714844 44.210938 Z M 150.714844 44.210938 " fill-opacity="1" fill-rule="nonzero"/></g><path fill="#000000" d="M 88.992188 96.433594 C 87.082031 97.707031 86.660156 100.46875 87.933594 102.378906 C 87.933594 102.378906 90.902344 106.414062 90.902344 106.414062 C 92.175781 108.109375 94.296875 108.75 96.203125 107.898438 L 105.960938 103.226562 C 108.082031 102.167969 108.929688 99.621094 107.871094 97.496094 C 106.808594 95.375 104.265625 94.523438 102.144531 95.585938 L 95.566406 98.769531 L 94.71875 97.496094 C 93.445312 95.585938 90.902344 95.160156 88.992188 96.433594 Z M 88.992188 96.433594 " fill-opacity="1" fill-rule="nonzero"/><path fill="#000000" d="M 210.105469 95.160156 L 121.019531 95.160156 C 118.6875 95.160156 116.777344 97.070312 116.777344 99.40625 C 116.777344 101.742188 118.6875 103.652344 121.019531 103.652344 L 210.105469 103.652344 C 212.441406 103.652344 214.347656 101.742188 214.347656 99.40625 C 214.347656 97.070312 212.441406 95.160156 210.105469 95.160156 Z M 210.105469 95.160156 " fill-opacity="1" fill-rule="nonzero"/><path fill="#000000" d="M 107.871094 118.726562 C 106.808594 116.601562 104.265625 115.753906 102.144531 116.816406 L 95.566406 120 L 94.71875 118.726562 C 93.445312 116.816406 90.6875 116.390625 88.78125 117.664062 C 86.871094 118.9375 86.445312 121.699219 87.71875 123.609375 C 87.71875 123.609375 90.6875 127.640625 90.6875 127.640625 C 91.75 129.339844 94.082031 129.976562 95.992188 129.128906 L 105.75 124.457031 C 108.082031 123.398438 108.929688 120.847656 107.871094 118.726562 Z M 107.871094 118.726562 " fill-opacity="1" fill-rule="nonzero"/><path fill="#000000" d="M 210.105469 116.390625 L 121.019531 116.390625 C 118.6875 116.390625 116.777344 118.300781 116.777344 120.636719 C 116.777344 122.972656 118.6875 124.882812 121.019531 124.882812 L 210.105469 124.882812 C 212.441406 124.882812 214.347656 122.972656 214.347656 120.636719 C 214.347656 118.300781 212.441406 116.390625 210.105469 116.390625 Z M 210.105469 116.390625 " fill-opacity="1" fill-rule="nonzero"/><path fill="#000000" d="M 107.871094 139.957031 C 106.808594 137.832031 104.265625 136.984375 102.144531 138.042969 L 95.566406 141.230469 L 94.71875 139.957031 C 93.445312 138.042969 90.6875 137.621094 88.78125 138.894531 C 86.871094 140.167969 86.445312 142.925781 87.71875 144.839844 C 87.71875 144.839844 90.6875 148.871094 90.6875 148.871094 C 91.75 150.570312 94.082031 151.207031 95.992188 150.359375 L 105.75 145.6875 C 108.082031 144.625 108.929688 142.078125 107.871094 139.957031 Z M 107.871094 139.957031 " fill-opacity="1" fill-rule="nonzero"/><path fill="#000000" d="M 210.105469 137.621094 L 121.019531 137.621094 C 118.6875 137.621094 116.777344 139.53125 116.777344 141.867188 C 116.777344 144.203125 118.6875 146.113281 121.019531 146.113281 L 210.105469 146.113281 C 212.441406 146.113281 214.347656 144.203125 214.347656 141.867188 C 214.347656 139.53125 212.441406 137.621094 210.105469 137.621094 Z M 210.105469 137.621094 " fill-opacity="1" fill-rule="nonzero"/><path fill="#000000" d="M 107.871094 161.183594 C 106.808594 159.0625 104.265625 158.214844 102.144531 159.273438 L 95.566406 162.457031 L 94.71875 161.183594 C 93.445312 159.273438 90.6875 158.851562 88.78125 160.125 C 86.871094 161.398438 86.445312 164.15625 87.71875 166.066406 C 87.71875 166.066406 90.6875 170.101562 90.6875 170.101562 C 91.75 171.800781 94.082031 172.4375 95.992188 171.585938 L 105.75 166.917969 C 108.082031 165.855469 108.929688 163.308594 107.871094 161.183594 Z M 107.871094 161.183594 " fill-opacity="1" fill-rule="nonzero"/><path fill="#000000" d="M 210.105469 158.851562 L 121.019531 158.851562 C 118.6875 158.851562 116.777344 160.761719 116.777344 163.097656 C 116.777344 165.429688 118.6875 167.339844 121.019531 167.339844 L 210.105469 167.339844 C 212.441406 167.339844 214.347656 165.429688 214.347656 163.097656 C 214.347656 160.761719 212.441406 158.851562 210.105469 158.851562 Z M 210.105469 158.851562 " fill-opacity="1" fill-rule="nonzero"/><path fill="#000000" d="M 107.871094 182.414062 C 106.808594 180.292969 104.265625 179.441406 102.144531 180.503906 L 95.566406 183.6875 L 94.71875 182.414062 C 93.445312 180.503906 90.6875 180.078125 88.78125 181.351562 C 86.871094 182.625 86.445312 185.386719 87.71875 187.296875 C 87.71875 187.296875 90.6875 191.332031 90.6875 191.332031 C 91.75 193.03125 94.082031 193.667969 95.992188 192.816406 L 105.75 188.148438 C 108.082031 187.085938 108.929688 184.539062 107.871094 182.414062 Z M 107.871094 182.414062 " fill-opacity="1" fill-rule="nonzero"/><path fill="#000000" d="M 107.871094 203.644531 C 106.808594 201.519531 104.265625 200.671875 102.144531 201.734375 L 95.566406 204.917969 L 94.71875 203.644531 C 93.445312 201.734375 90.6875 201.308594 88.78125 202.582031 C 86.871094 203.855469 86.445312 206.617188 87.71875 208.527344 C 87.71875 208.527344 90.6875 212.5625 90.6875 212.5625 C 91.75 214.257812 94.082031 214.894531 95.992188 214.046875 L 105.75 209.375 C 108.082031 208.316406 108.929688 205.765625 107.871094 203.644531 Z M 107.871094 203.644531 " fill-opacity="1" fill-rule="nonzero"/><path fill="#000000" d="M 102.144531 222.964844 L 95.566406 226.148438 L 94.71875 224.875 C 93.445312 222.964844 90.6875 222.539062 88.78125 223.8125 C 86.871094 225.085938 86.445312 227.847656 87.71875 229.757812 C 87.71875 229.757812 90.6875 233.789062 90.6875 233.789062 C 91.960938 235.488281 94.082031 236.125 95.992188 235.277344 L 105.75 230.605469 C 107.871094 229.542969 108.71875 226.996094 107.65625 224.875 C 106.597656 222.75 104.265625 221.902344 102.144531 222.964844 Z M 102.144531 222.964844 " fill-opacity="1" fill-rule="nonzero"/><path fill="#000000" d="M 116.777344 184.324219 C 116.777344 186.660156 118.6875 188.570312 121.019531 188.570312 L 133.746094 188.570312 C 133.746094 185.597656 134.597656 182.625 135.867188 180.078125 L 121.019531 180.078125 C 118.6875 180.078125 116.777344 181.988281 116.777344 184.324219 Z M 116.777344 184.324219 " fill-opacity="1" fill-rule="nonzero"/><path fill="#000000" d="M 207.984375 59.070312 L 222.832031 59.070312 C 225.167969 59.070312 227.074219 60.980469 227.074219 63.316406 L 227.074219 169.464844 L 235.558594 169.464844 L 235.558594 63.316406 C 235.558594 56.3125 229.832031 50.578125 222.832031 50.578125 L 207.773438 50.578125 C 207.984375 51.640625 207.984375 52.488281 207.984375 53.550781 Z M 207.984375 59.070312 " fill-opacity="1" fill-rule="nonzero"/><g clip-path="url(#423c20ab3d)"><path fill="#000000" d="M 78.597656 260.75 C 76.265625 260.75 74.355469 258.839844 74.355469 256.503906 L 74.355469 63.316406 C 74.355469 60.980469 76.265625 59.070312 78.597656 59.070312 L 93.445312 59.070312 L 93.445312 53.550781 C 93.445312 52.488281 93.445312 51.429688 93.660156 50.578125 L 78.597656 50.578125 C 71.597656 50.578125 65.871094 56.3125 65.871094 63.316406 L 65.871094 256.503906 C 65.871094 263.511719 71.597656 269.242188 78.597656 269.242188 L 135.867188 269.242188 C 134.597656 266.695312 133.746094 263.722656 133.746094 260.75 Z M 78.597656 260.75 " fill-opacity="1" fill-rule="nonzero"/></g><g clip-path="url(#7e172d257d)"><path fill="#000000" d="M 182.53125 252.261719 C 174.261719 252.261719 167.683594 258.839844 167.683594 267.121094 C 167.683594 275.398438 174.261719 281.980469 182.53125 281.980469 C 190.804688 281.980469 197.378906 275.398438 197.378906 267.121094 C 197.378906 258.839844 190.804688 252.261719 182.53125 252.261719 Z M 182.53125 273.488281 C 178.925781 273.488281 176.167969 270.730469 176.167969 267.121094 C 176.167969 263.511719 178.925781 260.75 182.53125 260.75 C 186.136719 260.75 188.894531 263.511719 188.894531 267.121094 C 188.894531 270.730469 186.136719 273.488281 182.53125 273.488281 Z M 182.53125 273.488281 " fill-opacity="1" fill-rule="nonzero"/></g><g clip-path="url(#d82a51681d)"><path fill="#000000" d="M 301.3125 252.261719 C 293.042969 252.261719 286.464844 258.839844 286.464844 267.121094 C 286.464844 275.398438 293.042969 281.980469 301.3125 281.980469 C 309.585938 281.980469 316.160156 275.398438 316.160156 267.121094 C 316.160156 258.839844 309.585938 252.261719 301.3125 252.261719 Z M 301.3125 273.488281 C 297.707031 273.488281 294.949219 270.730469 294.949219 267.121094 C 294.949219 263.511719 297.707031 260.75 301.3125 260.75 C 304.917969 260.75 307.675781 263.511719 307.675781 267.121094 C 307.675781 270.730469 304.917969 273.488281 301.3125 273.488281 Z M 301.3125 273.488281 " fill-opacity="1" fill-rule="nonzero"/></g><path fill="#000000" d="M 303.433594 243.769531 C 305.769531 243.769531 307.675781 241.855469 307.675781 239.523438 C 307.675781 237.1875 305.769531 235.277344 303.433594 235.277344 L 299.191406 235.277344 C 296.859375 235.277344 294.949219 237.1875 294.949219 239.523438 C 294.949219 241.855469 296.859375 243.769531 299.191406 243.769531 Z M 303.433594 243.769531 " fill-opacity="1" fill-rule="nonzero"/><path fill="#000000" d="M 133.746094 201.308594 L 121.019531 201.308594 C 118.6875 201.308594 116.777344 203.21875 116.777344 205.554688 C 116.777344 207.890625 118.6875 209.800781 121.019531 209.800781 L 133.746094 209.800781 Z M 133.746094 201.308594 " fill-opacity="1" fill-rule="nonzero"/><path fill="#000000" d="M 116.777344 226.785156 C 116.777344 229.121094 118.6875 231.03125 121.019531 231.03125 L 133.746094 231.03125 L 133.746094 222.539062 L 121.019531 222.539062 C 118.6875 222.539062 116.777344 224.449219 116.777344 226.785156 Z M 116.777344 226.785156 " fill-opacity="1" fill-rule="nonzero"/><g clip-path="url(#e82ac72e7d)"><path fill="#000000" d="M 335.675781 229.332031 C 335.675781 229.332031 320.617188 208.953125 320.191406 208.316406 C 317.222656 204.28125 313.828125 199.1875 307.675781 199.1875 L 276.285156 199.1875 L 276.285156 189.84375 C 276.285156 183.050781 270.980469 177.957031 264.195312 177.957031 L 153.472656 177.957031 C 147.324219 177.957031 142.230469 182.839844 142.230469 188.570312 L 142.230469 260.75 C 142.230469 266.695312 147.324219 271.367188 153.472656 271.367188 L 159.625 271.367188 C 159.414062 270.09375 159.199219 268.605469 159.199219 267.121094 C 159.199219 254.171875 169.59375 243.769531 182.53125 243.769531 C 195.472656 243.769531 205.863281 254.171875 205.863281 267.121094 C 205.863281 268.605469 205.652344 270.09375 205.441406 271.367188 L 278.40625 271.367188 C 278.195312 270.09375 277.980469 268.605469 277.980469 267.121094 C 277.980469 265.632812 278.195312 264.148438 278.40625 262.875 L 276.285156 262.875 L 276.285156 241.644531 L 256.769531 241.644531 C 254.4375 241.644531 252.527344 239.734375 252.527344 237.398438 C 252.527344 235.0625 254.4375 233.152344 256.769531 233.152344 L 276.285156 233.152344 L 276.285156 224.660156 L 235.558594 224.660156 C 233.226562 224.660156 231.316406 222.75 231.316406 220.414062 C 231.316406 218.082031 233.226562 216.167969 235.558594 216.167969 L 276.285156 216.167969 L 276.285156 207.679688 L 307.890625 207.679688 C 309.585938 207.679688 311.707031 210.648438 313.402344 213.199219 C 313.828125 213.835938 328.675781 234.003906 328.675781 234.003906 C 329.101562 234.425781 328.886719 234.640625 328.886719 234.851562 L 328.886719 259.691406 C 328.886719 261.386719 326.980469 262.875 324.859375 262.875 L 324.222656 262.875 C 324.433594 264.148438 324.644531 265.632812 324.644531 267.121094 C 324.644531 268.605469 324.433594 270.09375 324.222656 271.367188 L 324.859375 271.367188 C 331.644531 271.367188 337.371094 266.058594 337.371094 259.691406 L 337.371094 234.851562 C 337.371094 232.941406 336.949219 231.03125 335.675781 229.332031 Z M 335.675781 229.332031 " fill-opacity="1" fill-rule="nonzero"/></g><g fill="#000000" fill-opacity="1"><g transform="translate(153.773432, 336.334108)"><g><path d="M 15.6875 0 L 8.8125 -22.40625 L 8.640625 -22.40625 C 8.878906 -17.84375 9 -14.800781 9 -13.28125 L 9 0 L 3.59375 0 L 3.59375 -28.5625 L 11.84375 -28.5625 L 18.59375 -6.71875 L 18.71875 -6.71875 L 25.875 -28.5625 L 34.125 -28.5625 L 34.125 0 L 28.484375 0 L 28.484375 -13.515625 C 28.484375 -14.148438 28.488281 -14.882812 28.5 -15.71875 C 28.519531 -16.550781 28.609375 -18.765625 28.765625 -22.359375 L 28.59375 -22.359375 L 21.234375 0 Z M 15.6875 0 "/></g></g></g><g fill="#000000" fill-opacity="1"><g transform="translate(191.484596, 336.334108)"><g><path d="M 15.71875 -23.921875 C 13.445312 -23.921875 11.6875 -23.066406 10.4375 -21.359375 C 9.1875 -19.648438 8.5625 -17.265625 8.5625 -14.203125 C 8.5625 -7.835938 10.945312 -4.65625 15.71875 -4.65625 C 17.726562 -4.65625 20.160156 -5.15625 23.015625 -6.15625 L 23.015625 -1.078125 C 20.671875 -0.0976562 18.050781 0.390625 15.15625 0.390625 C 11 0.390625 7.820312 -0.867188 5.625 -3.390625 C 3.425781 -5.910156 2.328125 -9.523438 2.328125 -14.234375 C 2.328125 -17.203125 2.863281 -19.800781 3.9375 -22.03125 C 5.019531 -24.269531 6.570312 -25.984375 8.59375 -27.171875 C 10.625 -28.367188 13 -28.96875 15.71875 -28.96875 C 18.5 -28.96875 21.285156 -28.296875 24.078125 -26.953125 L 22.125 -22.03125 C 21.0625 -22.539062 19.988281 -22.984375 18.90625 -23.359375 C 17.820312 -23.734375 16.757812 -23.921875 15.71875 -23.921875 Z M 15.71875 -23.921875 "/></g></g></g><g fill="#000000" fill-opacity="1"><g transform="translate(216.970392, 336.334108)"><g><path d="M 3.59375 0 L 3.59375 -28.5625 L 9.65625 -28.5625 L 9.65625 0 Z M 3.59375 0 "/></g></g></g></svg>