<svg xmlns="http://www.w3.org/2000/svg" xmlns:xlink="http://www.w3.org/1999/xlink" width="1280" zoomAndPan="magnify" viewBox="0 0 960 599.999999" height="800" preserveAspectRatio="xMidYMid meet" version="1.0"><defs><g/></defs><path fill="#faf8f4" d="M 365.726562 390.726562 L 636.507812 390.726562 L 636.507812 394.09375 L 365.726562 394.09375 Z M 365.726562 390.726562 " fill-opacity="1" fill-rule="nonzero"/><g fill="#faf8f4" fill-opacity="1"><g transform="translate(365.726219, 387.361387)"><g><path d="M 13.25 0.34375 C 20.8125 0.34375 24.390625 -5.515625 24.390625 -12.390625 C 24.390625 -19.234375 20.8125 -25.125 13.25 -25.125 C 5.71875 -25.125 2.15625 -19.234375 2.15625 -12.390625 C 2.15625 -5.515625 5.71875 0.34375 13.25 0.34375 Z M 13.25 -2.203125 C 7.3125 -2.203125 4.875 -7.078125 4.875 -12.390625 C 4.875 -17.6875 7.3125 -22.546875 13.25 -22.546875 C 19.28125 -22.546875 21.703125 -17.6875 21.703125 -12.390625 C 21.703125 -7.078125 19.28125 -2.203125 13.25 -2.203125 Z M 13.25 -2.203125 "/></g></g></g><g fill="#faf8f4" fill-opacity="1"><g transform="translate(390.408215, 387.361387)"><g><path d="M 6.390625 -1.921875 C 5.609375 -1.921875 5.53125 -2.875 5.53125 -2.921875 L 5.53125 -24.765625 L 2.890625 -24.765625 L 2.890625 -3.546875 C 2.890625 -1.4375 3.078125 0.34375 5.734375 0.34375 C 6.625 0.34375 7.53125 0.171875 8.09375 0 L 8.09375 -2.109375 C 7.703125 -2.03125 7.015625 -1.921875 6.390625 -1.921875 Z M 6.390625 -1.921875 "/></g></g></g><g fill="#faf8f4" fill-opacity="1"><g transform="translate(397.61891, 387.361387)"><g><path d="M 7.171875 0 L 9.484375 0 L 16 -17.5 L 13.203125 -17.5 L 8.328125 -3.40625 L 3.484375 -17.5 L 0.625 -17.5 Z M 7.171875 0 "/></g></g></g><g fill="#faf8f4" fill-opacity="1"><g transform="translate(412.3824, 387.361387)"><g><path d="M 2.78125 -21.390625 L 5.765625 -21.390625 L 5.765625 -24.765625 L 2.78125 -24.765625 Z M 2.984375 0 L 5.578125 0 L 5.578125 -17.5 L 2.984375 -17.5 Z M 2.984375 0 "/></g></g></g><g fill="#faf8f4" fill-opacity="1"><g transform="translate(419.06738, 387.361387)"><g><path d="M 14.171875 -24.765625 L 14.171875 -15.125 C 13.015625 -16.8125 11.25 -17.875 8.6875 -17.875 C 4.21875 -17.875 1.6875 -13.78125 1.6875 -8.765625 C 1.6875 -3.765625 4.21875 0.34375 8.703125 0.34375 C 11.359375 0.34375 13.03125 -0.765625 14.1875 -2.4375 L 14.25 0 L 16.78125 0 L 16.78125 -24.765625 Z M 9.375 -1.859375 C 5.875 -1.859375 4.359375 -5.1875 4.359375 -8.765625 C 4.359375 -12.296875 5.875 -15.671875 9.375 -15.671875 C 12.953125 -15.671875 14.390625 -12.296875 14.390625 -8.765625 C 14.390625 -5.171875 12.953125 -1.859375 9.375 -1.859375 Z M 9.375 -1.859375 "/></g></g></g><g fill="#faf8f4" fill-opacity="1"><g transform="translate(436.985168, 387.361387)"><g><path d="M 7.3125 -19.703125 L 9.640625 -19.703125 L 14.5 -24.765625 L 11.109375 -24.765625 Z M 9.484375 0.25 C 12.28125 0.25 14.28125 -0.5625 16.171875 -2.484375 L 14.390625 -3.921875 C 13.015625 -2.46875 11.484375 -2.046875 9.46875 -2.046875 C 6.046875 -2.046875 4.328125 -4.75 4.34375 -7.875 L 16.546875 -7.875 C 16.578125 -8.1875 16.625 -8.765625 16.625 -9.21875 C 16.625 -13.25 14.875 -17.75 9.203125 -17.75 C 4.125 -17.75 1.59375 -13.359375 1.59375 -8.65625 C 1.59375 -3.890625 4.15625 0.25 9.484375 0.25 Z M 4.34375 -10 C 4.484375 -12.984375 6 -15.59375 9.203125 -15.59375 C 12.796875 -15.59375 14.0625 -12.8125 14.125 -10 Z M 4.34375 -10 "/></g></g></g><g fill="#faf8f4" fill-opacity="1"><g transform="translate(453.308272, 387.361387)"><g><path d="M 6.390625 -1.921875 C 5.609375 -1.921875 5.53125 -2.875 5.53125 -2.921875 L 5.53125 -24.765625 L 2.890625 -24.765625 L 2.890625 -3.546875 C 2.890625 -1.4375 3.078125 0.34375 5.734375 0.34375 C 6.625 0.34375 7.53125 0.171875 8.09375 0 L 8.09375 -2.109375 C 7.703125 -2.03125 7.015625 -1.921875 6.390625 -1.921875 Z M 6.390625 -1.921875 "/></g></g></g><g fill="#faf8f4" fill-opacity="1"><g transform="translate(460.518968, 387.361387)"><g><path d="M 7.03125 0.34375 C 9.515625 0.34375 11.90625 -0.75 13.171875 -3.375 L 13.234375 0 L 15.453125 0 L 15.453125 -10.75 C 15.453125 -15 13.0625 -17.875 8.609375 -17.875 C 5.71875 -17.875 3.578125 -16.609375 2 -14.4375 L 3.90625 -12.953125 C 4.75 -14.15625 6.25 -15.59375 8.765625 -15.59375 C 11.9375 -15.59375 13.0625 -13.296875 13.0625 -10 L 9.0625 -10 C 4.078125 -10 1.34375 -8.375 1.34375 -4.875 C 1.34375 -1.578125 3.734375 0.34375 7.03125 0.34375 Z M 7.328125 -1.859375 C 5.5 -1.859375 4.046875 -2.71875 4.046875 -4.796875 C 4.046875 -7.125 5.828125 -8.03125 9.3125 -8.03125 L 13.0625 -8.03125 C 13.0625 -5.203125 10.921875 -1.859375 7.328125 -1.859375 Z M 7.328125 -1.859375 "/></g></g></g><g fill="#faf8f4" fill-opacity="1"><g transform="translate(476.614268, 387.361387)"><g/></g></g><g fill="#faf8f4" fill-opacity="1"><g transform="translate(484.228019, 387.361387)"><g><path d="M 9.21875 0.34375 C 12.390625 0.34375 14.765625 -1.390625 15.8125 -4.296875 L 13.53125 -5.28125 C 13 -3.203125 11.296875 -1.859375 9.1875 -1.859375 C 5.515625 -1.859375 4.296875 -5.515625 4.296875 -8.734375 C 4.296875 -11.875 5.5625 -15.671875 9.1875 -15.671875 C 11.28125 -15.671875 13 -14.28125 13.53125 -12.15625 L 16 -13.21875 C 14.765625 -16.109375 12.359375 -17.875 9.1875 -17.875 C 4.140625 -17.875 1.609375 -13.421875 1.609375 -8.734375 C 1.609375 -3.984375 4.171875 0.34375 9.21875 0.34375 Z M 9.21875 0.34375 "/></g></g></g><g fill="#faf8f4" fill-opacity="1"><g transform="translate(499.429589, 387.361387)"><g><path d="M 9.765625 0.34375 C 14.6875 0.34375 18.109375 -3.796875 18.109375 -8.796875 C 18.109375 -13.78125 14.6875 -17.875 9.765625 -17.875 C 4.8125 -17.875 1.5 -13.78125 1.5 -8.796875 C 1.5 -3.796875 4.8125 0.34375 9.765625 0.34375 Z M 9.78125 -1.828125 C 5.921875 -1.828125 4.140625 -5.25 4.140625 -8.796875 C 4.140625 -12.296875 5.921875 -15.703125 9.8125 -15.703125 C 13.703125 -15.703125 15.453125 -12.296875 15.453125 -8.796875 C 15.453125 -5.328125 13.703125 -1.828125 9.78125 -1.828125 Z M 9.78125 -1.828125 "/></g></g></g><g fill="#faf8f4" fill-opacity="1"><g transform="translate(517.172132, 387.361387)"><g><path d="M 2.9375 0 L 5.5625 0 L 5.5625 -9.09375 C 5.5625 -13.4375 7.75 -15.59375 10.5 -15.59375 C 13.578125 -15.59375 14.46875 -12.796875 14.46875 -10.375 L 14.46875 0 L 17.0625 0 L 17.0625 -10.640625 C 17.0625 -14.5 15.375 -17.828125 11.203125 -17.828125 C 8.65625 -17.828125 6.71875 -16.515625 5.5625 -14.453125 L 5.5625 -17.5 L 2.9375 -17.5 Z M 2.9375 0 "/></g></g></g><g fill="#faf8f4" fill-opacity="1"><g transform="translate(534.914675, 387.361387)"><g><path d="M 7.8125 0.34375 C 8.890625 0.34375 9.78125 0.15625 10.171875 0 L 10.171875 -2.25 C 9.625 -1.984375 8.984375 -1.8125 8.40625 -1.8125 C 7.125 -1.8125 6.1875 -2.703125 6.1875 -4.625 L 6.1875 -15.375 L 10.625 -15.375 L 10.625 -17.5 L 6.1875 -17.5 L 6.1875 -23.90625 L 3.59375 -21.453125 L 3.59375 -17.5 L 0.765625 -17.5 L 0.765625 -15.375 L 3.578125 -15.375 L 3.578125 -4.640625 C 3.578125 -1.640625 4.71875 0.34375 7.8125 0.34375 Z M 7.8125 0.34375 "/></g></g></g><g fill="#faf8f4" fill-opacity="1"><g transform="translate(544.841576, 387.361387)"><g><path d="M 2.9375 0 L 5.515625 0 L 5.515625 -8.75 C 5.515625 -12.96875 7.328125 -15.375 10.296875 -15.375 C 11.125 -15.375 11.859375 -15.1875 12.4375 -14.703125 L 13.546875 -16.96875 C 12.890625 -17.46875 11.9375 -17.875 10.71875 -17.875 C 8.515625 -17.875 6.46875 -16.546875 5.5625 -14.40625 L 5.5625 -17.5 L 2.9375 -17.5 Z M 2.9375 0 "/></g></g></g><g fill="#faf8f4" fill-opacity="1"><g transform="translate(556.906388, 387.361387)"><g><path d="M 7.03125 0.34375 C 9.515625 0.34375 11.90625 -0.75 13.171875 -3.375 L 13.234375 0 L 15.453125 0 L 15.453125 -10.75 C 15.453125 -15 13.0625 -17.875 8.609375 -17.875 C 5.71875 -17.875 3.578125 -16.609375 2 -14.4375 L 3.90625 -12.953125 C 4.75 -14.15625 6.25 -15.59375 8.765625 -15.59375 C 11.9375 -15.59375 13.0625 -13.296875 13.0625 -10 L 9.0625 -10 C 4.078125 -10 1.34375 -8.375 1.34375 -4.875 C 1.34375 -1.578125 3.734375 0.34375 7.03125 0.34375 Z M 7.328125 -1.859375 C 5.5 -1.859375 4.046875 -2.71875 4.046875 -4.796875 C 4.046875 -7.125 5.828125 -8.03125 9.3125 -8.03125 L 13.0625 -8.03125 C 13.0625 -5.203125 10.921875 -1.859375 7.328125 -1.859375 Z M 7.328125 -1.859375 "/></g></g></g><g fill="#faf8f4" fill-opacity="1"><g transform="translate(573.001688, 387.361387)"><g><path d="M 7.796875 0.34375 C 10.828125 0.34375 13.8125 -1.390625 13.8125 -5 C 13.8125 -11.421875 4.359375 -9.3125 4.359375 -13.34375 C 4.359375 -14.765625 5.53125 -15.75 7.4375 -15.75 C 9.3125 -15.75 10.578125 -14.8125 11.34375 -13.28125 L 13.265625 -14.390625 C 12.203125 -16.46875 10.21875 -17.875 7.515625 -17.875 C 4.53125 -17.875 1.96875 -16.171875 1.96875 -13.015625 C 1.96875 -7.078125 11.265625 -9.390625 11.265625 -4.671875 C 11.265625 -2.78125 9.8125 -1.78125 7.828125 -1.78125 C 5.484375 -1.78125 4.078125 -3.265625 3.46875 -5.125 L 1.265625 -3.984375 C 2.0625 -1.671875 4.5 0.34375 7.796875 0.34375 Z M 7.796875 0.34375 "/></g></g></g><g fill="#faf8f4" fill-opacity="1"><g transform="translate(586.345741, 387.361387)"><g><path d="M 9.484375 0.25 C 12.28125 0.25 14.28125 -0.5625 16.171875 -2.484375 L 14.390625 -3.921875 C 13.015625 -2.46875 11.484375 -2.046875 9.46875 -2.046875 C 6.046875 -2.046875 4.328125 -4.75 4.34375 -7.875 L 16.546875 -7.875 C 16.578125 -8.1875 16.625 -8.765625 16.625 -9.21875 C 16.625 -13.25 14.875 -17.75 9.203125 -17.75 C 4.125 -17.75 1.59375 -13.359375 1.59375 -8.65625 C 1.59375 -3.890625 4.15625 0.25 9.484375 0.25 Z M 4.34375 -10 C 4.484375 -12.984375 6 -15.59375 9.203125 -15.59375 C 12.796875 -15.59375 14.0625 -12.8125 14.125 -10 Z M 4.34375 -10 "/></g></g></g><g fill="#faf8f4" fill-opacity="1"><g transform="translate(602.668839, 387.361387)"><g><path d="M 11.765625 -20.078125 C 13.75 -20.078125 14.890625 -21.71875 14.890625 -24.703125 L 13.03125 -24.703125 C 13.03125 -23.078125 12.6875 -22.03125 11.796875 -22.03125 C 10.390625 -22.03125 9.84375 -24.8125 7.296875 -24.8125 C 5.359375 -24.8125 4.328125 -23.03125 4.328125 -20.4375 L 6.078125 -20.4375 C 6.078125 -21.75 6.390625 -22.828125 7.296875 -22.828125 C 8.703125 -22.828125 9.359375 -20.078125 11.765625 -20.078125 Z M 2.9375 0 L 5.5625 0 L 5.5625 -9.09375 C 5.5625 -13.4375 7.75 -15.59375 10.5 -15.59375 C 13.578125 -15.59375 14.46875 -12.796875 14.46875 -10.375 L 14.46875 0 L 17.0625 0 L 17.0625 -10.640625 C 17.0625 -14.5 15.375 -17.828125 11.203125 -17.828125 C 8.65625 -17.828125 6.71875 -16.515625 5.5625 -14.453125 L 5.5625 -17.5 L 2.9375 -17.5 Z M 2.9375 0 "/></g></g></g><g fill="#faf8f4" fill-opacity="1"><g transform="translate(620.411381, 387.361387)"><g><path d="M 7.03125 0.34375 C 9.515625 0.34375 11.90625 -0.75 13.171875 -3.375 L 13.234375 0 L 15.453125 0 L 15.453125 -10.75 C 15.453125 -15 13.0625 -17.875 8.609375 -17.875 C 5.71875 -17.875 3.578125 -16.609375 2 -14.4375 L 3.90625 -12.953125 C 4.75 -14.15625 6.25 -15.59375 8.765625 -15.59375 C 11.9375 -15.59375 13.0625 -13.296875 13.0625 -10 L 9.0625 -10 C 4.078125 -10 1.34375 -8.375 1.34375 -4.875 C 1.34375 -1.578125 3.734375 0.34375 7.03125 0.34375 Z M 7.328125 -1.859375 C 5.5 -1.859375 4.046875 -2.71875 4.046875 -4.796875 C 4.046875 -7.125 5.828125 -8.03125 9.3125 -8.03125 L 13.0625 -8.03125 C 13.0625 -5.203125 10.921875 -1.859375 7.328125 -1.859375 Z M 7.328125 -1.859375 "/></g></g></g></svg>