<svg xmlns="http://www.w3.org/2000/svg" xmlns:xlink="http://www.w3.org/1999/xlink" width="1280" zoomAndPan="magnify" viewBox="0 0 960 599.999999" height="800" preserveAspectRatio="xMidYMid meet" version="1.0"><defs><g/><clipPath id="f8e885fa42"><path d="M 19.921875 356.933594 L 924.597656 356.933594 L 924.597656 438.453125 L 19.921875 438.453125 Z M 19.921875 356.933594 " clip-rule="nonzero"/></clipPath><clipPath id="131478ca71"><path d="M 57.421875 356.933594 L 886.957031 356.933594 C 907.667969 356.933594 924.457031 373.722656 924.457031 394.433594 L 924.457031 400.953125 C 924.457031 421.664062 907.667969 438.453125 886.957031 438.453125 L 57.421875 438.453125 C 36.710938 438.453125 19.921875 421.664062 19.921875 400.953125 L 19.921875 394.433594 C 19.921875 373.722656 36.710938 356.933594 57.421875 356.933594 Z M 57.421875 356.933594 " clip-rule="nonzero"/></clipPath><clipPath id="f0120e4289"><path d="M 19.9375 356.933594 L 924.421875 356.933594 L 924.421875 438.683594 L 19.9375 438.683594 Z M 19.9375 356.933594 " clip-rule="nonzero"/></clipPath><clipPath id="4a8ebe386c"><path d="M 57.4375 356.933594 L 886.929688 356.933594 C 907.640625 356.933594 924.429688 373.722656 924.429688 394.433594 L 924.429688 400.949219 C 924.429688 421.660156 907.640625 438.449219 886.929688 438.449219 L 57.4375 438.449219 C 36.726562 438.449219 19.9375 421.660156 19.9375 400.949219 L 19.9375 394.433594 C 19.9375 373.722656 36.726562 356.933594 57.4375 356.933594 Z M 57.4375 356.933594 " clip-rule="nonzero"/></clipPath></defs><g clip-path="url(#f8e885fa42)"><g clip-path="url(#131478ca71)"><path fill="#151d42" d="M 19.921875 356.933594 L 924.597656 356.933594 L 924.597656 438.453125 L 19.921875 438.453125 Z M 19.921875 356.933594 " fill-opacity="1" fill-rule="nonzero"/></g></g><g clip-path="url(#f0120e4289)"><g clip-path="url(#4a8ebe386c)"><path stroke-linecap="butt" transform="matrix(0.75, 0, 0, 0.75, 19.938695, 356.933501)" fill="none" stroke-linejoin="miter" d="M 49.998412 0.000123972 L 1155.988114 0.000123972 C 1183.6027 0.000123972 1205.988119 22.385543 1205.988119 50.000129 L 1205.988119 58.68763 C 1205.988119 86.302217 1183.6027 108.687636 1155.988114 108.687636 L 49.998412 108.687636 C 22.383826 108.687636 -0.00159289 86.302217 -0.00159289 58.68763 L -0.00159289 50.000129 C -0.00159289 22.385543 22.383826 0.000123972 49.998412 0.000123972 Z M 49.998412 0.000123972 " stroke="#faf8f4" stroke-width="2" stroke-opacity="1" stroke-miterlimit="4"/></g></g><g fill="#faf8f4" fill-opacity="1"><g transform="translate(275.577504, 407.753223)"><g><path d="M 3.296875 0 L 13.28125 0 C 17.640625 0 21.640625 -2.671875 21.640625 -7.4375 C 21.640625 -9.984375 19.875 -12.78125 17.53125 -13.703125 C 18.984375 -14.484375 20.375 -16.375 20.375 -18.703125 C 20.375 -23.84375 16.078125 -25.609375 12.1875 -25.609375 L 3.296875 -25.609375 Z M 7.90625 -15.296875 L 7.90625 -21.46875 L 12.25 -21.46875 C 14.453125 -21.46875 16.15625 -20.453125 16.15625 -18.453125 C 16.15625 -15.9375 14.40625 -15.296875 12.609375 -15.296875 Z M 7.90625 -4.390625 L 7.90625 -11.328125 L 13.171875 -11.328125 C 15.59375 -11.328125 17.109375 -9.765625 17.109375 -7.9375 C 17.109375 -5.53125 15.734375 -4.390625 13.359375 -4.390625 Z M 7.90625 -4.390625 "/></g></g></g><g fill="#faf8f4" fill-opacity="1"><g transform="translate(296.737465, 407.753223)"><g><path d="M 2.515625 -21.53125 L 7.125 -21.53125 L 7.125 -25.609375 L 2.515625 -25.609375 Z M 2.625 0 L 7.015625 0 L 7.015625 -18.109375 L 2.625 -18.109375 Z M 2.625 0 "/></g></g></g><g fill="#faf8f4" fill-opacity="1"><g transform="translate(304.448554, 407.753223)"><g><path d="M 10.171875 0.359375 C 13.21875 0.359375 15.625 -0.703125 17.609375 -2.90625 L 14.5625 -5.5625 C 13.28125 -4.15625 11.84375 -3.640625 10.203125 -3.640625 C 7.359375 -3.640625 6.046875 -5.234375 5.671875 -7.609375 L 18.109375 -7.609375 C 18.203125 -7.875 18.265625 -8.609375 18.265625 -9.359375 C 18.265625 -13.390625 16.21875 -18.484375 9.875 -18.484375 C 3.75 -18.484375 1 -13.703125 1 -8.984375 C 1 -4.109375 3.9375 0.359375 10.171875 0.359375 Z M 5.671875 -10.796875 C 6.09375 -13.0625 7.234375 -14.78125 9.84375 -14.78125 C 12.140625 -14.78125 13.625 -13.390625 13.921875 -10.796875 Z M 5.671875 -10.796875 "/></g></g></g><g fill="#faf8f4" fill-opacity="1"><g transform="translate(321.856618, 407.753223)"><g><path d="M 2.625 0 L 7.015625 0 L 7.015625 -9.921875 C 7.015625 -13.0625 8.609375 -14.40625 11.09375 -14.40625 C 13.359375 -14.40625 14.5625 -12.6875 14.5625 -10.3125 L 14.5625 0 L 18.921875 0 L 18.921875 -10.875 C 18.921875 -14.671875 17.109375 -18.484375 12.359375 -18.484375 C 10.59375 -18.484375 8.46875 -17.78125 7.015625 -16 L 7.015625 -18.109375 L 2.625 -18.109375 Z M 2.625 0 "/></g></g></g><g fill="#faf8f4" fill-opacity="1"><g transform="translate(340.968448, 407.753223)"><g><path d="M 7.234375 0 L 10.875 0 L 18.265625 -18.109375 L 13.46875 -18.109375 L 9.0625 -5.703125 L 4.671875 -18.109375 L -0.140625 -18.109375 Z M 7.234375 0 "/></g></g></g><g fill="#faf8f4" fill-opacity="1"><g transform="translate(357.144001, 407.753223)"><g><path d="M 10.171875 0.359375 C 13.21875 0.359375 15.625 -0.703125 17.609375 -2.90625 L 14.5625 -5.5625 C 13.28125 -4.15625 11.84375 -3.640625 10.203125 -3.640625 C 7.359375 -3.640625 6.046875 -5.234375 5.671875 -7.609375 L 18.109375 -7.609375 C 18.203125 -7.875 18.265625 -8.609375 18.265625 -9.359375 C 18.265625 -13.390625 16.21875 -18.484375 9.875 -18.484375 C 3.75 -18.484375 1 -13.703125 1 -8.984375 C 1 -4.109375 3.9375 0.359375 10.171875 0.359375 Z M 5.671875 -10.796875 C 6.09375 -13.0625 7.234375 -14.78125 9.84375 -14.78125 C 12.140625 -14.78125 13.625 -13.390625 13.921875 -10.796875 Z M 5.671875 -10.796875 "/></g></g></g><g fill="#faf8f4" fill-opacity="1"><g transform="translate(374.552065, 407.753223)"><g><path d="M 2.625 0 L 7.015625 0 L 7.015625 -9.921875 C 7.015625 -13.0625 8.609375 -14.40625 11.09375 -14.40625 C 13.359375 -14.40625 14.5625 -12.6875 14.5625 -10.3125 L 14.5625 0 L 18.921875 0 L 18.921875 -10.875 C 18.921875 -14.671875 17.109375 -18.484375 12.359375 -18.484375 C 10.59375 -18.484375 8.46875 -17.78125 7.015625 -16 L 7.015625 -18.109375 L 2.625 -18.109375 Z M 2.625 0 "/></g></g></g><g fill="#faf8f4" fill-opacity="1"><g transform="translate(393.663889, 407.753223)"><g><path d="M 2.515625 -21.53125 L 7.125 -21.53125 L 7.125 -25.609375 L 2.515625 -25.609375 Z M 2.625 0 L 7.015625 0 L 7.015625 -18.109375 L 2.625 -18.109375 Z M 2.625 0 "/></g></g></g><g fill="#faf8f4" fill-opacity="1"><g transform="translate(401.374984, 407.753223)"><g><path d="M 14.0625 -25.609375 L 14.0625 -16.296875 C 12.8125 -17.859375 10.796875 -18.484375 8.921875 -18.484375 C 3.890625 -18.484375 1.140625 -14.0625 1.140625 -9.0625 C 1.140625 -4 3.890625 0.359375 8.984375 0.359375 C 11 0.359375 13 -0.328125 14.25 -2.03125 L 14.453125 0 L 18.5625 0 L 18.5625 -25.609375 Z M 10.0625 -3.640625 C 7.015625 -3.640625 5.640625 -6.015625 5.640625 -9.0625 C 5.640625 -12.078125 7.015625 -14.484375 10.0625 -14.484375 C 13.109375 -14.484375 14.453125 -12.109375 14.453125 -9.0625 C 14.453125 -5.984375 13.109375 -3.640625 10.0625 -3.640625 Z M 10.0625 -3.640625 "/></g></g></g><g fill="#faf8f4" fill-opacity="1"><g transform="translate(420.668071, 407.753223)"><g><path d="M 10.203125 0.359375 C 15.8125 0.359375 19.484375 -3.96875 19.484375 -9.09375 C 19.484375 -14.21875 15.8125 -18.484375 10.203125 -18.484375 C 4.609375 -18.484375 0.921875 -14.21875 0.921875 -9.09375 C 0.921875 -3.96875 4.609375 0.359375 10.203125 0.359375 Z M 10.203125 -3.4375 C 6.875 -3.4375 5.53125 -6.125 5.53125 -9.09375 C 5.53125 -12.078125 6.875 -14.671875 10.203125 -14.671875 C 13.5625 -14.671875 14.875 -12.078125 14.875 -9.09375 C 14.875 -6.125 13.5625 -3.4375 10.203125 -3.4375 Z M 10.203125 -3.4375 "/></g></g></g><g fill="#faf8f4" fill-opacity="1"><g transform="translate(439.181765, 407.753223)"><g/></g></g><g fill="#faf8f4" fill-opacity="1"><g transform="translate(446.167853, 407.753223)"><g><path d="M 7.578125 0.359375 C 9.734375 0.359375 11.65625 -0.328125 13.21875 -2.59375 L 13.5 0 L 17.15625 0 L 17.15625 -10.984375 C 17.15625 -15.40625 14.25 -18.484375 9.3125 -18.484375 C 5.75 -18.484375 3.4375 -16.890625 1.703125 -14.515625 L 5.09375 -12.078125 C 5.875 -13.390625 7.265625 -14.625 9.359375 -14.625 C 11.6875 -14.625 12.921875 -13.109375 12.921875 -10.796875 L 8.21875 -10.796875 C 4.15625 -10.796875 1 -9.5 1 -5.5625 C 1 -1.78125 3.859375 0.359375 7.578125 0.359375 Z M 8.21875 -3.375 C 6.484375 -3.375 5.53125 -4.21875 5.53125 -5.421875 C 5.53125 -6.5625 6.453125 -7.609375 8.46875 -7.609375 L 12.921875 -7.609375 C 12.859375 -5.34375 10.734375 -3.375 8.21875 -3.375 Z M 8.21875 -3.375 "/></g></g></g><g fill="#faf8f4" fill-opacity="1"><g transform="translate(463.467172, 407.753223)"><g/></g></g><g fill="#faf8f4" fill-opacity="1"><g transform="translate(470.45326, 407.753223)"><g><path d="M 6.3125 0.359375 C 7.359375 0.359375 8.6875 0.1875 9.609375 0 L 9.609375 -3.71875 C 9.140625 -3.640625 8.640625 -3.609375 8.390625 -3.609375 C 7.5 -3.609375 6.9375 -3.96875 6.9375 -4.828125 L 6.9375 -25.609375 L 2.515625 -25.609375 L 2.515625 -3.609375 C 2.515625 -0.421875 4.21875 0.359375 6.3125 0.359375 Z M 6.3125 0.359375 "/></g></g></g><g fill="#faf8f4" fill-opacity="1"><g transform="translate(478.907499, 407.753223)"><g><path d="M 7.578125 0.359375 C 9.734375 0.359375 11.65625 -0.328125 13.21875 -2.59375 L 13.5 0 L 17.15625 0 L 17.15625 -10.984375 C 17.15625 -15.40625 14.25 -18.484375 9.3125 -18.484375 C 5.75 -18.484375 3.4375 -16.890625 1.703125 -14.515625 L 5.09375 -12.078125 C 5.875 -13.390625 7.265625 -14.625 9.359375 -14.625 C 11.6875 -14.625 12.921875 -13.109375 12.921875 -10.796875 L 8.21875 -10.796875 C 4.15625 -10.796875 1 -9.5 1 -5.5625 C 1 -1.78125 3.859375 0.359375 7.578125 0.359375 Z M 8.21875 -3.375 C 6.484375 -3.375 5.53125 -4.21875 5.53125 -5.421875 C 5.53125 -6.5625 6.453125 -7.609375 8.46875 -7.609375 L 12.921875 -7.609375 C 12.859375 -5.34375 10.734375 -3.375 8.21875 -3.375 Z M 8.21875 -3.375 "/></g></g></g><g fill="#faf8f4" fill-opacity="1"><g transform="translate(496.206818, 407.753223)"><g/></g></g><g fill="#faf8f4" fill-opacity="1"><g transform="translate(503.192906, 407.753223)"><g><path d="M 10.203125 0.359375 C 15.8125 0.359375 19.484375 -3.96875 19.484375 -9.09375 C 19.484375 -14.21875 15.8125 -18.484375 10.203125 -18.484375 C 4.609375 -18.484375 0.921875 -14.21875 0.921875 -9.09375 C 0.921875 -3.96875 4.609375 0.359375 10.203125 0.359375 Z M 10.203125 -3.4375 C 6.875 -3.4375 5.53125 -6.125 5.53125 -9.09375 C 5.53125 -12.078125 6.875 -14.671875 10.203125 -14.671875 C 13.5625 -14.671875 14.875 -12.078125 14.875 -9.09375 C 14.875 -6.125 13.5625 -3.4375 10.203125 -3.4375 Z M 10.203125 -3.4375 "/></g></g></g><g fill="#faf8f4" fill-opacity="1"><g transform="translate(521.706599, 407.753223)"><g><path d="M 2.671875 7.9375 L 7.15625 7.9375 L 7.15625 -1.8125 C 8.421875 -0.25 10.421875 0.359375 12.328125 0.359375 C 17.328125 0.359375 20.078125 -4.046875 20.078125 -9.0625 C 20.078125 -14.109375 17.328125 -18.484375 12.25 -18.484375 C 10.3125 -18.484375 8.421875 -17.859375 7.15625 -16.296875 L 7.15625 -18.109375 L 2.671875 -18.109375 Z M 11.171875 -3.71875 C 8.140625 -3.71875 6.765625 -6.015625 6.765625 -9.0625 C 6.765625 -12.109375 8.140625 -14.515625 11.171875 -14.515625 C 14.21875 -14.515625 15.59375 -12.109375 15.59375 -9.0625 C 15.59375 -6.015625 14.21875 -3.71875 11.171875 -3.71875 Z M 11.171875 -3.71875 "/></g></g></g><g fill="#faf8f4" fill-opacity="1"><g transform="translate(540.999687, 407.753223)"><g><path d="M 9.0625 0.359375 C 10.3125 0.359375 11.65625 0.078125 12.328125 -0.1875 L 12.328125 -4.1875 C 11.734375 -3.890625 10.734375 -3.53125 9.8125 -3.53125 C 8.640625 -3.53125 7.765625 -4.046875 7.765625 -5.78125 L 7.765625 -14.40625 L 12.328125 -14.40625 L 12.328125 -18.109375 L 7.765625 -18.109375 L 7.765625 -25.765625 L 3.4375 -22.609375 L 3.4375 -18.109375 L 0.453125 -18.109375 L 0.453125 -14.40625 L 3.375 -14.40625 L 3.375 -5 C 3.375 -1.703125 5.5 0.359375 9.0625 0.359375 Z M 9.0625 0.359375 "/></g></g></g><g fill="#faf8f4" fill-opacity="1"><g transform="translate(552.734568, 407.753223)"><g><path d="M 2.515625 -21.53125 L 7.125 -21.53125 L 7.125 -25.609375 L 2.515625 -25.609375 Z M 2.625 0 L 7.015625 0 L 7.015625 -18.109375 L 2.625 -18.109375 Z M 2.625 0 "/></g></g></g><g fill="#faf8f4" fill-opacity="1"><g transform="translate(560.445663, 407.753223)"><g><path d="M 2.625 0 L 7.09375 0 L 7.09375 -9.953125 C 7.09375 -12.359375 8.5 -14.375 10.90625 -14.375 C 13.171875 -14.375 13.78125 -12.578125 13.78125 -10.390625 L 13.78125 0 L 18.265625 0 L 18.265625 -9.953125 C 18.265625 -12.359375 19.671875 -14.375 22.0625 -14.375 C 24.34375 -14.375 24.984375 -12.546875 24.984375 -10.3125 L 24.984375 0 L 29.46875 0 L 29.46875 -10.875 C 29.46875 -14.703125 27.421875 -18.484375 22.78125 -18.484375 C 20.453125 -18.484375 18.203125 -17.53125 16.78125 -15.296875 C 15.59375 -17.453125 13.890625 -18.484375 11.6875 -18.484375 C 9.984375 -18.484375 8.28125 -17.859375 7.09375 -16.21875 L 7.09375 -18.109375 L 2.625 -18.109375 Z M 2.625 0 "/></g></g></g><g fill="#faf8f4" fill-opacity="1"><g transform="translate(590.106345, 407.753223)"><g><path d="M 2.515625 -21.53125 L 7.125 -21.53125 L 7.125 -25.609375 L 2.515625 -25.609375 Z M 2.625 0 L 7.015625 0 L 7.015625 -18.109375 L 2.625 -18.109375 Z M 2.625 0 "/></g></g></g><g fill="#faf8f4" fill-opacity="1"><g transform="translate(597.817439, 407.753223)"><g><path d="M 16.9375 -18.109375 L 1.484375 -18.109375 L 1.484375 -14.40625 L 11.203125 -14.40625 L 0.953125 -2.9375 L 0.953125 0 L 16.9375 0 L 16.9375 -3.71875 L 7.109375 -3.71875 L 16.9375 -14.953125 Z M 16.9375 -18.109375 "/></g></g></g><g fill="#faf8f4" fill-opacity="1"><g transform="translate(614.083612, 407.753223)"><g><path d="M 7.578125 0.359375 C 9.734375 0.359375 11.65625 -0.328125 13.21875 -2.59375 L 13.5 0 L 17.15625 0 L 17.15625 -10.984375 C 17.15625 -15.40625 14.25 -18.484375 9.3125 -18.484375 C 5.75 -18.484375 3.4375 -16.890625 1.703125 -14.515625 L 5.09375 -12.078125 C 5.875 -13.390625 7.265625 -14.625 9.359375 -14.625 C 11.6875 -14.625 12.921875 -13.109375 12.921875 -10.796875 L 8.21875 -10.796875 C 4.15625 -10.796875 1 -9.5 1 -5.5625 C 1 -1.78125 3.859375 0.359375 7.578125 0.359375 Z M 8.21875 -3.375 C 6.484375 -3.375 5.53125 -4.21875 5.53125 -5.421875 C 5.53125 -6.5625 6.453125 -7.609375 8.46875 -7.609375 L 12.921875 -7.609375 C 12.859375 -5.34375 10.734375 -3.375 8.21875 -3.375 Z M 8.21875 -3.375 "/></g></g></g><g fill="#faf8f4" fill-opacity="1"><g transform="translate(631.382931, 407.753223)"><g><path d="M 9.8125 0.359375 C 13.390625 0.359375 16.21875 -1.625 17.421875 -5 L 13.390625 -6.53125 C 12.921875 -4.828125 11.546875 -3.640625 9.765625 -3.640625 C 6.6875 -3.640625 5.53125 -6.265625 5.53125 -9.03125 C 5.53125 -11.734375 6.71875 -14.484375 9.765625 -14.484375 C 11.578125 -14.484375 12.921875 -13.25 13.390625 -11.515625 L 17.609375 -13.140625 C 16.21875 -16.75 13.359375 -18.484375 9.765625 -18.484375 C 3.859375 -18.484375 1.03125 -13.78125 1.03125 -9.03125 C 1.03125 -4.21875 3.890625 0.359375 9.8125 0.359375 Z M 9.8125 0.359375 "/></g></g></g><g fill="#faf8f4" fill-opacity="1"><g transform="translate(647.649104, 407.753223)"><g><path d="M 2.515625 -21.53125 L 7.125 -21.53125 L 7.125 -25.609375 L 2.515625 -25.609375 Z M 2.625 0 L 7.015625 0 L 7.015625 -18.109375 L 2.625 -18.109375 Z M 2.625 0 "/></g></g></g><g fill="#faf8f4" fill-opacity="1"><g transform="translate(655.360199, 407.753223)"><g><path d="M 8.046875 -20.375 L 11.28125 -20.375 L 16.84375 -25.609375 L 12.125 -25.609375 Z M 10.203125 0.359375 C 15.8125 0.359375 19.484375 -3.96875 19.484375 -9.09375 C 19.484375 -14.21875 15.8125 -18.484375 10.203125 -18.484375 C 4.609375 -18.484375 0.921875 -14.21875 0.921875 -9.09375 C 0.921875 -3.96875 4.609375 0.359375 10.203125 0.359375 Z M 10.203125 -3.4375 C 6.875 -3.4375 5.53125 -6.125 5.53125 -9.09375 C 5.53125 -12.078125 6.875 -14.671875 10.203125 -14.671875 C 13.5625 -14.671875 14.875 -12.078125 14.875 -9.09375 C 14.875 -6.125 13.5625 -3.4375 10.203125 -3.4375 Z M 10.203125 -3.4375 "/></g></g></g><g fill="#faf8f4" fill-opacity="1"><g transform="translate(673.873892, 407.753223)"><g><path d="M 2.625 0 L 7.015625 0 L 7.015625 -9.921875 C 7.015625 -13.0625 8.609375 -14.40625 11.09375 -14.40625 C 13.359375 -14.40625 14.5625 -12.6875 14.5625 -10.3125 L 14.5625 0 L 18.921875 0 L 18.921875 -10.875 C 18.921875 -14.671875 17.109375 -18.484375 12.359375 -18.484375 C 10.59375 -18.484375 8.46875 -17.78125 7.015625 -16 L 7.015625 -18.109375 L 2.625 -18.109375 Z M 2.625 0 "/></g></g></g><g fill="#5271ff" fill-opacity="1"><g transform="translate(77.615316, 329.543386)"><g><path d="M 56.953125 1.484375 C 91.78125 1.484375 107.8125 -24 107.8125 -52.703125 C 107.8125 -81.40625 91.78125 -106.90625 56.953125 -106.90625 C 22.140625 -106.90625 6.109375 -81.40625 6.109375 -52.703125 C 6.109375 -24 22.140625 1.484375 56.953125 1.484375 Z M 56.953125 -15.28125 C 34.375 -15.28125 26.09375 -32.796875 26.09375 -52.703125 C 26.09375 -72.546875 34.375 -90.0625 56.953125 -90.0625 C 79.546875 -90.0625 87.828125 -72.546875 87.828125 -52.703125 C 87.828125 -32.796875 79.546875 -15.28125 56.953125 -15.28125 Z M 56.953125 -15.28125 "/></g></g></g><g fill="#5271ff" fill-opacity="1"><g transform="translate(183.595059, 329.543386)"><g><path d="M 13.5625 0 L 32.359375 0 L 32.359375 -43.6875 L 46.59375 -43.6875 C 68.0625 -43.6875 83.796875 -54.5 83.796875 -74.1875 C 83.796875 -94.09375 68.0625 -105.34375 46.59375 -105.34375 L 13.5625 -105.34375 Z M 32.359375 -61.359375 L 32.359375 -87.671875 L 46.59375 -87.671875 C 59.421875 -87.671875 65.015625 -82.75 65.015625 -74.1875 C 65.015625 -65.828125 59.5625 -61.359375 46.59375 -61.359375 Z M 32.359375 -61.359375 "/></g></g></g><g fill="#5271ff" fill-opacity="1"><g transform="translate(262.660361, 329.543386)"><g><path d="M 34.515625 0 L 53.453125 0 L 53.453125 -88.421875 L 86.40625 -88.421875 L 86.40625 -105.34375 L 1.484375 -105.34375 L 1.484375 -88.421875 L 34.515625 -88.421875 Z M 34.515625 0 "/></g></g></g><g fill="#5271ff" fill-opacity="1"><g transform="translate(342.694882, 329.543386)"><g><path d="M 13.5625 0 L 32.5 0 L 32.5 -105.34375 L 13.5625 -105.34375 Z M 13.5625 0 "/></g></g></g><g fill="#5271ff" fill-opacity="1"><g transform="translate(380.829355, 329.543386)"><g><path d="M 34.515625 0 L 53.453125 0 L 53.453125 -88.421875 L 86.40625 -88.421875 L 86.40625 -105.34375 L 1.484375 -105.34375 L 1.484375 -88.421875 L 34.515625 -88.421875 Z M 34.515625 0 "/></g></g></g><g fill="#5271ff" fill-opacity="1"><g transform="translate(460.863876, 329.543386)"><g><path d="M 13.5625 0.15625 L 32.5 0.15625 L 32.5 -45.03125 L 45.1875 -45.03125 L 71.125 0.15625 L 92.8125 0.15625 L 63.515625 -46.890625 C 75.453125 -51 84.09375 -61.0625 84.09375 -74.328125 C 84.09375 -94.09375 67.328125 -105.34375 47.640625 -105.34375 L 13.5625 -105.34375 Z M 32.65625 -60.46875 L 32.65625 -88.421875 L 47.796875 -88.421875 C 58.59375 -88.421875 65.390625 -82.75 65.390625 -74.03125 C 65.390625 -66.125 59.421875 -60.90625 49.359375 -60.46875 Z M 32.65625 -60.46875 "/></g></g></g><g fill="#5271ff" fill-opacity="1"><g transform="translate(547.459233, 329.543386)"><g><path d="M 0.890625 0 L 21.546875 0 L 29.75 -22.890625 L 70.671875 -22.890625 L 78.796875 0 L 99.234375 0 L 57.265625 -105.34375 L 43.09375 -105.34375 Z M 36.15625 -39.0625 L 50.25 -77.53125 L 64.265625 -39.0625 Z M 36.15625 -39.0625 "/></g></g></g><g fill="#5271ff" fill-opacity="1"><g transform="translate(639.646256, 329.543386)"><g><path d="M 13.5625 0 L 31.765625 0 L 31.765625 -73.890625 L 75.890625 0 L 94.828125 0 L 94.828125 -105.34375 L 76.640625 -105.34375 L 76.640625 -31.609375 L 32.359375 -105.34375 L 13.5625 -105.34375 Z M 13.5625 0 "/></g></g></g><g fill="#5271ff" fill-opacity="1"><g transform="translate(740.108887, 329.543386)"><g><path d="M 43.6875 1.1875 C 63.8125 1.1875 80.296875 -10.8125 80.296875 -30.71875 C 80.296875 -65.6875 29.296875 -58.96875 29.296875 -78.796875 C 29.296875 -85.515625 35.109375 -90.0625 42.578125 -90.0625 C 49.65625 -90.0625 55.921875 -85.96875 59.5625 -78.796875 L 75.296875 -88.421875 C 68.0625 -101.25 56.21875 -106.90625 43.234375 -106.90625 C 25.5 -106.90625 10.359375 -96.46875 10.359375 -77.828125 C 10.359375 -43.546875 61.359375 -50.84375 61.359375 -29 C 61.359375 -21.546875 55.25 -15.578125 43.984375 -15.578125 C 32.796875 -15.578125 23.484375 -21.390625 22.140625 -34.515625 L 3.359375 -29.75 C 6.703125 -9.015625 25.046875 1.1875 43.6875 1.1875 Z M 43.6875 1.1875 "/></g></g></g></svg>