<svg xmlns="http://www.w3.org/2000/svg" xmlns:xlink="http://www.w3.org/1999/xlink" width="1280" zoomAndPan="magnify" viewBox="0 0 960 599.999999" height="800" preserveAspectRatio="xMidYMid meet" version="1.0"><defs><g/><clipPath id="4182500316"><path d="M 25.21875 167 L 288 167 L 288 562.023438 L 25.21875 562.023438 Z M 25.21875 167 " clip-rule="nonzero"/></clipPath><clipPath id="9c3020be12"><path d="M 304.085938 215 L 407 215 L 407 387.863281 L 304.085938 387.863281 Z M 304.085938 215 " clip-rule="nonzero"/></clipPath><clipPath id="977e0d9044"><path d="M 413 215 L 515.585938 215 L 515.585938 387.863281 L 413 387.863281 Z M 413 215 " clip-rule="nonzero"/></clipPath><clipPath id="08e0b6123b"><path d="M 517.324219 81.367188 L 944 81.367188 L 944 139.761719 L 517.324219 139.761719 Z M 517.324219 81.367188 " clip-rule="nonzero"/></clipPath><clipPath id="37065a642d"><path d="M 546.523438 81.367188 L 914.804688 81.367188 C 922.546875 81.367188 929.976562 84.441406 935.449219 89.917969 C 940.925781 95.394531 944.003906 102.820312 944.003906 110.566406 C 944.003906 118.308594 940.925781 125.734375 935.449219 131.210938 C 929.976562 136.6875 922.546875 139.761719 914.804688 139.761719 L 546.523438 139.761719 C 538.777344 139.761719 531.351562 136.6875 525.875 131.210938 C 520.398438 125.734375 517.324219 118.308594 517.324219 110.566406 C 517.324219 102.820312 520.398438 95.394531 525.875 89.917969 C 531.351562 84.441406 538.777344 81.367188 546.523438 81.367188 Z M 546.523438 81.367188 " clip-rule="nonzero"/></clipPath><clipPath id="cfb6eb5e9b"><path d="M 517.324219 81.367188 L 944 81.367188 L 944 139.867188 L 517.324219 139.867188 Z M 517.324219 81.367188 " clip-rule="nonzero"/></clipPath><clipPath id="ada804c102"><path d="M 546.523438 81.367188 L 914.792969 81.367188 C 922.539062 81.367188 929.964844 84.441406 935.4375 89.917969 C 940.914062 95.394531 943.992188 102.820312 943.992188 110.5625 C 943.992188 118.308594 940.914062 125.734375 935.4375 131.210938 C 929.964844 136.683594 922.539062 139.761719 914.792969 139.761719 L 546.523438 139.761719 C 538.777344 139.761719 531.351562 136.683594 525.875 131.210938 C 520.402344 125.734375 517.324219 118.308594 517.324219 110.5625 C 517.324219 102.820312 520.402344 95.394531 525.875 89.917969 C 531.351562 84.441406 538.777344 81.367188 546.523438 81.367188 Z M 546.523438 81.367188 " clip-rule="nonzero"/></clipPath><clipPath id="979a74bf66"><path d="M 542.039062 230.230469 L 928.25 230.230469 L 928.25 273.707031 L 542.039062 273.707031 Z M 542.039062 230.230469 " clip-rule="nonzero"/></clipPath><clipPath id="307d6fd354"><path d="M 541.136719 229.332031 L 928.886719 229.332031 L 928.886719 274.332031 L 541.136719 274.332031 Z M 541.136719 229.332031 " clip-rule="nonzero"/></clipPath><clipPath id="f42e274cc9"><path d="M 542.039062 326.074219 L 928.25 326.074219 L 928.25 369.550781 L 542.039062 369.550781 Z M 542.039062 326.074219 " clip-rule="nonzero"/></clipPath><clipPath id="3209751b7b"><path d="M 541.136719 325.175781 L 928.886719 325.175781 L 928.886719 370.175781 L 541.136719 370.175781 Z M 541.136719 325.175781 " clip-rule="nonzero"/></clipPath></defs><path fill="#36251e" d="M 91.175781 176.203125 C 38.707031 189.835938 52.761719 258.953125 52.761719 258.953125 C 52.761719 258.953125 42.46875 307.085938 48.164062 322.101562 C 53.34375 335.757812 77.320312 335.296875 124.214844 323.578125 C 161.398438 314.285156 184.410156 293.738281 190.8125 279.6875 C 197.210938 265.632812 162.628906 239.265625 162.628906 239.265625 C 162.628906 239.265625 144.011719 162.480469 91.175781 176.203125 Z M 91.175781 176.203125 " fill-opacity="1" fill-rule="evenodd"/><path fill="#ffb79f" d="M 136.699219 282.808594 L 103.230469 285.585938 C 103.230469 285.585938 108.753906 324.015625 104.964844 336.691406 C 101.945312 346.804688 85.453125 357.320312 85.453125 357.320312 C 109.082031 376.820312 132.398438 388.050781 154.042969 354.628906 L 136.527344 342.457031 C 133.589844 323.058594 136.605469 301.613281 136.699219 282.808594 Z M 136.699219 282.808594 " fill-opacity="1" fill-rule="evenodd"/><path fill="#dc7669" d="M 104.816406 298.789062 C 105.363281 304.113281 105.898438 310.429688 106.152344 316.527344 C 110.746094 315.65625 115.257812 314.472656 119.558594 312.601562 C 125.175781 310.160156 130.449219 306.550781 135.140625 300.9375 C 135.140625 300.9375 113.878906 291.457031 104.816406 298.789062 Z M 104.816406 298.789062 " fill-opacity="1" fill-rule="evenodd"/><path fill="#ffb79f" d="M 67.503906 250.886719 C 62.414062 231.875 69.707031 198.300781 92.214844 192.078125 C 118.550781 184.792969 142.625 222.421875 147.714844 241.433594 C 152.804688 260.445312 153.417969 301.855469 119.964844 306.664062 C 74.25 313.230469 72.59375 269.898438 67.503906 250.886719 Z M 67.503906 250.886719 " fill-opacity="1" fill-rule="evenodd"/><path fill="#36251e" d="M 104.644531 281.75 C 106.976562 282.980469 109.230469 283.816406 111.421875 284.144531 C 113.132812 284.402344 114.796875 284.355469 116.394531 283.984375 C 117.042969 283.832031 117.683594 283.621094 118.300781 283.347656 C 119.195312 282.957031 120.0625 282.457031 120.882812 281.832031 C 122.59375 280.53125 124.152344 278.734375 125.566406 276.375 C 125.75 276.109375 125.679688 275.742188 125.410156 275.558594 C 125.140625 275.378906 124.777344 275.445312 124.597656 275.710938 C 123.320312 277.335938 121.996094 278.585938 120.632812 279.558594 C 119.722656 280.214844 118.792969 280.714844 117.847656 281.101562 C 117.199219 281.371094 116.53125 281.574219 115.863281 281.730469 C 114.511719 282.046875 113.125 282.144531 111.667969 282.023438 C 109.644531 281.855469 107.511719 281.324219 105.285156 280.398438 C 104.910156 280.222656 104.460938 280.382812 104.289062 280.753906 C 104.113281 281.128906 104.269531 281.574219 104.644531 281.75 Z M 104.644531 281.75 " fill-opacity="1" fill-rule="evenodd"/><path fill="#36251e" d="M 107.035156 246.761719 C 107.945312 249.203125 108.441406 252.257812 108.734375 255.3125 C 108.953125 257.589844 109.039062 259.867188 109.054688 261.898438 C 109.066406 262.839844 109.066406 263.726562 109.054688 264.535156 C 109.011719 266.261719 108.925781 267.625 108.753906 268.363281 C 108.484375 269.578125 108.699219 270.394531 109.179688 270.933594 C 109.550781 271.367188 110.089844 271.648438 110.730469 271.773438 C 112.792969 272.167969 116.027344 271 116.027344 271 C 116.261719 270.925781 116.390625 270.671875 116.3125 270.4375 C 116.238281 270.207031 115.984375 270.078125 115.75 270.15625 C 115.75 270.15625 112.820312 271.003906 111.015625 270.523438 C 110.625 270.417969 110.304688 270.246094 110.15625 269.914062 C 110.027344 269.625 110.0625 269.242188 110.210938 268.738281 C 110.496094 267.738281 110.765625 265.640625 110.816406 263.015625 C 110.84375 261.304688 110.773438 259.367188 110.589844 257.375 C 110.226562 253.492188 109.421875 249.414062 108.09375 246.339844 C 107.972656 246.046875 107.644531 245.90625 107.355469 246.023438 C 107.0625 246.140625 106.921875 246.472656 107.035156 246.761719 Z M 107.035156 246.761719 " fill-opacity="1" fill-rule="evenodd"/><path fill="#36251e" d="M 95.515625 254.449219 C 95.597656 254.847656 95.652344 255.25 95.6875 255.65625 C 95.71875 256.058594 95.726562 256.457031 95.707031 256.847656 C 95.6875 257.234375 95.640625 257.613281 95.570312 257.972656 C 95.5 258.335938 95.40625 258.675781 95.289062 258.996094 C 95.167969 259.316406 95.027344 259.609375 94.867188 259.875 C 94.703125 260.140625 94.523438 260.375 94.324219 260.574219 C 94.125 260.777344 93.910156 260.941406 93.679688 261.070312 C 93.449219 261.199219 93.210938 261.289062 92.960938 261.339844 C 92.710938 261.390625 92.453125 261.402344 92.191406 261.375 C 91.929688 261.347656 91.667969 261.28125 91.402344 261.171875 C 91.140625 261.066406 90.882812 260.925781 90.628906 260.746094 C 90.375 260.5625 90.128906 260.351562 89.894531 260.101562 C 89.65625 259.855469 89.4375 259.578125 89.226562 259.273438 C 89.019531 258.96875 88.828125 258.640625 88.65625 258.289062 C 88.484375 257.9375 88.335938 257.570312 88.203125 257.1875 C 88.074219 256.804688 87.96875 256.414062 87.886719 256.011719 C 87.800781 255.609375 87.746094 255.207031 87.710938 254.804688 C 87.679688 254.402344 87.675781 254.003906 87.695312 253.613281 C 87.710938 253.222656 87.757812 252.847656 87.828125 252.484375 C 87.898438 252.125 87.992188 251.78125 88.113281 251.460938 C 88.230469 251.140625 88.371094 250.847656 88.53125 250.582031 C 88.695312 250.320312 88.875 250.085938 89.074219 249.882812 C 89.277344 249.683594 89.492188 249.519531 89.71875 249.390625 C 89.949219 249.261719 90.1875 249.171875 90.441406 249.121094 C 90.691406 249.070312 90.945312 249.058594 91.207031 249.085938 C 91.46875 249.113281 91.730469 249.179688 91.996094 249.285156 C 92.257812 249.390625 92.515625 249.535156 92.769531 249.714844 C 93.023438 249.894531 93.269531 250.109375 93.503906 250.355469 C 93.742188 250.605469 93.964844 250.878906 94.171875 251.183594 C 94.378906 251.492188 94.570312 251.820312 94.742188 252.167969 C 94.914062 252.519531 95.066406 252.886719 95.195312 253.269531 C 95.324219 253.65625 95.429688 254.046875 95.515625 254.449219 Z M 95.515625 254.449219 " fill-opacity="1" fill-rule="nonzero"/><path fill="#36251e" d="M 129.398438 246.097656 C 129.484375 246.496094 129.539062 246.898438 129.570312 247.300781 C 129.605469 247.707031 129.609375 248.101562 129.589844 248.492188 C 129.570312 248.882812 129.527344 249.261719 129.457031 249.621094 C 129.386719 249.984375 129.292969 250.324219 129.171875 250.644531 C 129.054688 250.964844 128.914062 251.257812 128.753906 251.523438 C 128.589844 251.789062 128.410156 252.023438 128.210938 252.222656 C 128.007812 252.425781 127.792969 252.589844 127.566406 252.71875 C 127.335938 252.847656 127.097656 252.9375 126.847656 252.988281 C 126.59375 253.039062 126.339844 253.050781 126.078125 253.023438 C 125.816406 252.996094 125.554688 252.925781 125.289062 252.820312 C 125.027344 252.714844 124.769531 252.570312 124.515625 252.390625 C 124.261719 252.210938 124.015625 251.996094 123.78125 251.75 C 123.542969 251.503906 123.320312 251.226562 123.113281 250.921875 C 122.90625 250.617188 122.714844 250.289062 122.542969 249.9375 C 122.371094 249.585938 122.21875 249.21875 122.089844 248.835938 C 121.960938 248.453125 121.855469 248.058594 121.773438 247.660156 C 121.6875 247.257812 121.632812 246.855469 121.597656 246.453125 C 121.566406 246.046875 121.558594 245.652344 121.578125 245.261719 C 121.597656 244.871094 121.644531 244.496094 121.714844 244.132812 C 121.785156 243.769531 121.878906 243.429688 121.996094 243.109375 C 122.117188 242.789062 122.257812 242.496094 122.417969 242.230469 C 122.582031 241.964844 122.761719 241.734375 122.960938 241.53125 C 123.160156 241.332031 123.375 241.164062 123.605469 241.039062 C 123.835938 240.910156 124.074219 240.820312 124.324219 240.765625 C 124.574219 240.714844 124.832031 240.703125 125.09375 240.730469 C 125.355469 240.761719 125.617188 240.828125 125.882812 240.933594 C 126.144531 241.039062 126.402344 241.183594 126.65625 241.363281 C 126.910156 241.542969 127.15625 241.757812 127.390625 242.003906 C 127.628906 242.25 127.847656 242.527344 128.058594 242.832031 C 128.265625 243.136719 128.453125 243.464844 128.628906 243.816406 C 128.800781 244.167969 128.949219 244.535156 129.082031 244.917969 C 129.210938 245.300781 129.316406 245.695312 129.398438 246.097656 Z M 129.398438 246.097656 " fill-opacity="1" fill-rule="nonzero"/><path fill="#36251e" d="M 115.925781 238.183594 C 117.273438 236.910156 118.691406 235.925781 120.152344 235.152344 C 121.15625 234.621094 122.179688 234.226562 123.25 233.933594 C 123.78125 233.789062 124.320312 233.65625 124.871094 233.5625 C 125.679688 233.421875 126.503906 233.324219 127.382812 233.320312 C 128.75 233.308594 130.1875 233.4375 131.726562 233.8125 C 132.066406 233.929688 132.4375 233.746094 132.550781 233.402344 C 132.675781 233.0625 132.492188 232.6875 132.144531 232.570312 C 130.195312 231.707031 128.339844 231.21875 126.550781 231.078125 C 125.730469 231.011719 124.929688 231.035156 124.148438 231.125 C 123.617188 231.1875 123.085938 231.292969 122.574219 231.433594 C 121.292969 231.789062 120.074219 232.351562 118.9375 233.089844 C 117.394531 234.101562 116.003906 235.445312 114.707031 237.050781 C 114.394531 237.386719 114.410156 237.917969 114.75 238.230469 C 115.089844 238.542969 115.621094 238.523438 115.925781 238.183594 Z M 115.925781 238.183594 " fill-opacity="1" fill-rule="evenodd"/><path fill="#36251e" d="M 81.035156 247.636719 C 82.382812 246.363281 83.800781 245.382812 85.265625 244.605469 C 86.265625 244.078125 87.292969 243.683594 88.363281 243.386719 C 88.890625 243.242188 89.433594 243.113281 89.980469 243.015625 C 90.789062 242.875 91.617188 242.78125 92.496094 242.773438 C 93.859375 242.765625 95.296875 242.890625 96.835938 243.265625 C 97.175781 243.382812 97.550781 243.199219 97.664062 242.859375 C 97.785156 242.515625 97.601562 242.144531 97.253906 242.027344 C 95.304688 241.164062 93.453125 240.675781 91.660156 240.53125 C 90.839844 240.46875 90.039062 240.488281 89.257812 240.582031 C 88.726562 240.644531 88.195312 240.746094 87.683594 240.890625 C 86.402344 241.246094 85.1875 241.804688 84.046875 242.546875 C 82.507812 243.558594 81.113281 244.902344 79.816406 246.503906 C 79.503906 246.84375 79.523438 247.371094 79.859375 247.683594 C 80.199219 247.996094 80.730469 247.976562 81.035156 247.636719 Z M 81.035156 247.636719 " fill-opacity="1" fill-rule="evenodd"/><path fill="#ffb79f" d="M 251.328125 399.535156 L 278.90625 380.816406 L 294.597656 342.214844 C 305.949219 343.925781 301.527344 360.539062 298.933594 376.46875 C 332.160156 384.53125 353.585938 395.03125 358.867188 414.53125 C 359.691406 417.574219 353.9375 419.234375 353.9375 419.234375 C 353.9375 419.234375 358.882812 425.136719 354.382812 430.683594 C 353.144531 432.207031 346.304688 429.644531 342.726562 427.578125 C 328.167969 419.164062 322.070312 414.933594 305.210938 412.226562 C 292.238281 410.140625 283.71875 417.929688 257.53125 416.308594 Z M 251.328125 399.535156 " fill-opacity="1" fill-rule="evenodd"/><path fill="#ffb79f" d="M 230.960938 174.902344 C 230.960938 174.902344 234.921875 149.558594 234.429688 142.027344 C 234.132812 137.542969 228.011719 129.710938 228.011719 129.710938 C 237.515625 121.019531 244.832031 140.753906 251.945312 141.59375 C 259.054688 142.433594 264.308594 136.65625 270.675781 134.742188 C 291.15625 128.582031 310.824219 127.089844 329.554688 137.949219 C 335.058594 141.140625 332.527344 148.691406 326.953125 147.839844 C 329.441406 150.828125 328.617188 153.949219 324.871094 154.171875 C 310.972656 150.1875 291.824219 152.675781 283.855469 158.246094 C 273.113281 165.757812 251.753906 168.945312 249.601562 175.855469 Z M 230.960938 174.902344 " fill-opacity="1" fill-rule="evenodd"/><g clip-path="url(#4182500316)"><path fill="#ee8a4c" d="M 143.117188 357.234375 C 148.382812 356.070312 136.527344 342.457031 136.527344 342.457031 L 161.242188 337.542969 C 161.242188 337.542969 195.457031 284.136719 205.8125 257.828125 C 214.511719 235.722656 214.726562 201.476562 223.15625 169.003906 C 237.117188 165.722656 249.925781 168.339844 261.308594 178.199219 C 261.308594 178.199219 250.140625 258.015625 240.324219 291.136719 C 230.515625 324.238281 194.539062 390.109375 194.539062 390.109375 C 197.871094 408.738281 196.847656 415.21875 196.445312 424.632812 L 269.808594 383.863281 C 282.703125 392.519531 287.273438 404.265625 287.757812 417.519531 C 260.910156 438.007812 209.359375 475.054688 189.078125 483.875 L 201.128906 561.164062 L 25.273438 562.03125 C 33.101562 524.957031 64.113281 496.828125 69.585938 477.285156 C 71.953125 468.835938 74.179688 445.796875 74.179688 445.796875 C 74.179688 445.796875 40.015625 385.925781 63.339844 360.09375 C 69.957031 352.765625 91.871094 352.722656 91.871094 352.722656 C 91.871094 352.722656 116.949219 363.019531 143.117188 357.234375 Z M 143.117188 357.234375 " fill-opacity="1" fill-rule="evenodd"/></g><path fill="#36251e" d="M 327.265625 147.460938 C 324.664062 145.195312 321.914062 143.460938 319.027344 142.230469 C 316.996094 141.371094 314.90625 140.75 312.757812 140.351562 C 311.898438 140.195312 311.03125 140.074219 310.164062 139.996094 C 308.871094 139.871094 307.570312 139.828125 306.246094 139.847656 C 303.113281 139.902344 299.898438 140.339844 296.621094 141.042969 C 296.410156 141.082031 296.273438 141.28125 296.316406 141.488281 C 296.351562 141.695312 296.550781 141.835938 296.757812 141.796875 C 300 141.296875 303.167969 141.082031 306.238281 141.179688 C 307.511719 141.222656 308.769531 141.316406 310 141.464844 C 310.832031 141.566406 311.664062 141.695312 312.480469 141.84375 C 314.535156 142.214844 316.539062 142.765625 318.496094 143.527344 C 321.316406 144.625 324.039062 146.140625 326.640625 148.214844 C 326.847656 148.386719 327.152344 148.359375 327.324219 148.152344 C 327.5 147.945312 327.472656 147.636719 327.265625 147.460938 Z M 327.265625 147.460938 " fill-opacity="1" fill-rule="evenodd"/><path fill="#36251e" d="M 332.8125 143.472656 C 330.289062 141.269531 327.75 139.40625 325.121094 137.953125 C 323.222656 136.898438 321.273438 136.054688 319.277344 135.433594 C 318.464844 135.179688 317.628906 134.96875 316.796875 134.796875 C 315.558594 134.539062 314.292969 134.371094 313 134.285156 C 310 134.085938 306.871094 134.34375 303.558594 135.058594 C 303.347656 135.097656 303.210938 135.296875 303.253906 135.503906 C 303.289062 135.710938 303.488281 135.851562 303.695312 135.8125 C 306.9375 135.316406 309.980469 135.269531 312.878906 135.609375 C 314.101562 135.75 315.296875 135.964844 316.476562 136.242188 C 317.265625 136.425781 318.054688 136.640625 318.828125 136.882812 C 320.742188 137.472656 322.617188 138.238281 324.464844 139.1875 C 327.074219 140.523438 329.640625 142.191406 332.191406 144.222656 C 332.398438 144.398438 332.703125 144.367188 332.875 144.160156 C 333.046875 143.953125 333.023438 143.644531 332.8125 143.472656 Z M 332.8125 143.472656 " fill-opacity="1" fill-rule="evenodd"/><path fill="#36251e" d="M 182 372.324219 C 185.660156 376.480469 188.574219 381.078125 190.792969 386.058594 C 192.25 389.320312 193.386719 392.746094 194.226562 396.34375 C 194.546875 397.742188 194.84375 399.164062 195.085938 400.613281 C 195.433594 402.71875 195.703125 404.878906 195.847656 407.101562 C 196.214844 412.277344 196.023438 417.761719 195.148438 423.546875 C 195.078125 423.929688 195.335938 424.300781 195.710938 424.371094 C 196.089844 424.441406 196.464844 424.179688 196.535156 423.808594 C 197.792969 417.925781 198.382812 412.324219 198.285156 406.996094 C 198.242188 404.671875 198.070312 402.40625 197.757812 400.195312 C 197.546875 398.679688 197.269531 397.175781 196.925781 395.710938 C 196.039062 391.9375 194.757812 388.355469 193.117188 384.980469 C 190.628906 379.871094 187.316406 375.257812 183.320312 371.113281 C 182.980469 370.746094 182.417969 370.730469 182.050781 371.058594 C 181.6875 371.398438 181.671875 371.960938 182 372.324219 Z M 182 372.324219 " fill-opacity="1" fill-rule="evenodd"/><path fill="#36251e" d="M 92.320312 451.007812 C 92.320312 451.007812 105.371094 458.148438 121.605469 466.078125 C 127.960938 469.171875 134.792969 472.398438 141.523438 475.359375 C 148.710938 478.515625 155.777344 481.378906 162.003906 483.496094 C 167.691406 485.417969 172.6875 486.703125 176.449219 487.09375 C 182.433594 487.691406 190.550781 484.699219 198.503906 480.441406 C 212.785156 472.789062 226.632812 461.261719 226.632812 461.261719 C 226.9375 461.019531 226.980469 460.578125 226.738281 460.273438 C 226.492188 459.96875 226.050781 459.925781 225.746094 460.167969 C 225.746094 460.167969 211.753906 471.203125 197.480469 478.464844 C 189.933594 482.296875 182.328125 485.132812 176.726562 484.472656 C 173.128906 484.066406 168.351562 482.730469 162.898438 480.867188 C 156.742188 478.757812 149.734375 475.964844 142.589844 472.894531 C 135.859375 470.015625 129.007812 466.902344 122.644531 463.917969 C 106.324219 456.265625 93.152344 449.429688 93.152344 449.429688 C 92.71875 449.195312 92.183594 449.359375 91.949219 449.804688 C 91.714844 450.238281 91.878906 450.773438 92.320312 451.007812 Z M 92.320312 451.007812 " fill-opacity="1" fill-rule="evenodd"/><path fill="#36251e" d="M 123.390625 390.28125 C 123.390625 390.28125 140.679688 404.707031 155.71875 417.128906 C 167.191406 426.601562 177.363281 434.902344 177.363281 434.902344 C 177.796875 435.257812 178.402344 435.316406 178.894531 435.050781 C 178.894531 435.050781 190.222656 428.882812 203.027344 421.8125 C 219.789062 412.546875 239.09375 401.738281 239.09375 401.738281 C 239.441406 401.558594 239.5625 401.132812 239.378906 400.792969 C 239.199219 400.449219 238.773438 400.328125 238.433594 400.507812 C 238.433594 400.507812 218.8125 410.726562 201.867188 419.679688 C 190.992188 425.421875 181.21875 430.652344 178.394531 432.167969 C 175.886719 430.121094 167.113281 423 157.332031 415.132812 C 142.136719 402.910156 124.519531 388.894531 124.519531 388.894531 C 124.136719 388.582031 123.574219 388.640625 123.261719 389.023438 C 122.949219 389.40625 123.007812 389.96875 123.390625 390.28125 Z M 123.390625 390.28125 " fill-opacity="1" fill-rule="evenodd"/><path fill="#ffb79f" d="M 79.050781 262.460938 C 79.355469 263.375 79.582031 264.304688 79.730469 265.25 C 79.875 266.195312 79.941406 267.140625 79.925781 268.085938 C 79.90625 269.027344 79.808594 269.953125 79.625 270.859375 C 79.445312 271.765625 79.183594 272.632812 78.84375 273.464844 C 78.507812 274.296875 78.09375 275.074219 77.613281 275.800781 C 77.128906 276.527344 76.582031 277.1875 75.976562 277.78125 C 75.367188 278.371094 74.707031 278.886719 73.996094 279.324219 C 73.285156 279.761719 72.539062 280.109375 71.753906 280.375 C 70.96875 280.640625 70.160156 280.8125 69.332031 280.890625 C 68.5 280.972656 67.664062 280.960938 66.820312 280.855469 C 65.976562 280.75 65.144531 280.550781 64.324219 280.265625 C 63.5 279.976562 62.703125 279.605469 61.929688 279.144531 C 61.15625 278.6875 60.425781 278.152344 59.734375 277.539062 C 59.042969 276.925781 58.40625 276.25 57.824219 275.507812 C 57.242188 274.765625 56.722656 273.972656 56.269531 273.128906 C 55.816406 272.285156 55.433594 271.40625 55.128906 270.496094 C 54.824219 269.582031 54.59375 268.652344 54.449219 267.707031 C 54.300781 266.761719 54.234375 265.816406 54.253906 264.871094 C 54.269531 263.925781 54.371094 263.003906 54.554688 262.097656 C 54.734375 261.191406 54.996094 260.324219 55.332031 259.492188 C 55.671875 258.660156 56.082031 257.882812 56.566406 257.15625 C 57.046875 256.429688 57.59375 255.769531 58.203125 255.175781 C 58.8125 254.582031 59.46875 254.070312 60.179688 253.632812 C 60.890625 253.195312 61.640625 252.84375 62.425781 252.582031 C 63.210938 252.316406 64.019531 252.144531 64.847656 252.066406 C 65.675781 251.984375 66.515625 251.996094 67.355469 252.101562 C 68.199219 252.207031 69.03125 252.402344 69.855469 252.691406 C 70.679688 252.980469 71.476562 253.351562 72.25 253.8125 C 73.019531 254.269531 73.75 254.804688 74.441406 255.417969 C 75.132812 256.03125 75.769531 256.707031 76.355469 257.449219 C 76.9375 258.191406 77.457031 258.984375 77.910156 259.828125 C 78.363281 260.671875 78.742188 261.550781 79.050781 262.460938 Z M 79.050781 262.460938 " fill-opacity="1" fill-rule="nonzero"/><path fill="#ffb79f" d="M 162.539062 247.113281 C 162.691406 248.066406 162.769531 249.019531 162.761719 249.976562 C 162.753906 250.933594 162.667969 251.878906 162.5 252.804688 C 162.328125 253.734375 162.082031 254.632812 161.757812 255.496094 C 161.433594 256.359375 161.039062 257.175781 160.570312 257.941406 C 160.101562 258.710938 159.570312 259.410156 158.980469 260.050781 C 158.386719 260.691406 157.742188 261.253906 157.046875 261.742188 C 156.351562 262.230469 155.617188 262.632812 154.847656 262.949219 C 154.074219 263.265625 153.28125 263.492188 152.460938 263.625 C 151.644531 263.761719 150.820312 263.800781 149.988281 263.746094 C 149.15625 263.695312 148.332031 263.546875 147.515625 263.308594 C 146.703125 263.066406 145.910156 262.742188 145.144531 262.324219 C 144.378906 261.910156 143.652344 261.414062 142.964844 260.835938 C 142.273438 260.257812 141.640625 259.613281 141.054688 258.898438 C 140.472656 258.183594 139.949219 257.410156 139.492188 256.585938 C 139.035156 255.757812 138.652344 254.894531 138.339844 253.988281 C 138.027344 253.082031 137.792969 252.15625 137.636719 251.207031 C 137.480469 250.257812 137.40625 249.300781 137.414062 248.34375 C 137.417969 247.386719 137.507812 246.445312 137.675781 245.515625 C 137.84375 244.585938 138.089844 243.6875 138.414062 242.824219 C 138.742188 241.960938 139.136719 241.144531 139.605469 240.378906 C 140.070312 239.613281 140.601562 238.910156 141.195312 238.269531 C 141.789062 237.628906 142.433594 237.066406 143.128906 236.578125 C 143.824219 236.089844 144.558594 235.6875 145.328125 235.371094 C 146.101562 235.054688 146.894531 234.828125 147.710938 234.695312 C 148.53125 234.5625 149.355469 234.519531 150.1875 234.574219 C 151.019531 234.628906 151.84375 234.773438 152.65625 235.011719 C 153.472656 235.253906 154.261719 235.582031 155.027344 235.996094 C 155.796875 236.414062 156.523438 236.910156 157.210938 237.484375 C 157.898438 238.0625 158.535156 238.707031 159.121094 239.421875 C 159.703125 240.136719 160.222656 240.910156 160.679688 241.734375 C 161.136719 242.5625 161.523438 243.425781 161.835938 244.332031 C 162.148438 245.238281 162.382812 246.164062 162.539062 247.113281 Z M 162.539062 247.113281 " fill-opacity="1" fill-rule="nonzero"/><path fill="#36251e" d="M 59.699219 246.722656 C 59.699219 246.722656 68.726562 270.300781 70.675781 265.316406 C 72.628906 260.328125 68.292969 233.109375 71.40625 216.796875 C 90.222656 229.253906 111.925781 232.824219 137.046875 225.820312 C 137.046875 225.820312 144.53125 250.496094 146.414062 251.234375 C 148.292969 251.972656 148.320312 230.242188 148.320312 230.242188 C 148.320312 230.242188 134.054688 180.140625 105.050781 185.746094 C 101.875 186.359375 98.355469 179.925781 95.527344 180.558594 C 72.53125 185.722656 58.824219 204.808594 59.699219 246.722656 Z M 59.699219 246.722656 " fill-opacity="1" fill-rule="evenodd"/><g clip-path="url(#9c3020be12)"><path fill="#750971" d="M 404.636719 270.617188 L 309.347656 215.542969 C 308.75 215.183594 308.152344 215.066406 307.675781 215.066406 C 306.835938 215.066406 306.238281 215.304688 305.882812 215.542969 C 305.285156 215.78125 304.085938 216.742188 304.085938 218.535156 L 304.085938 328.804688 C 304.085938 330 304.804688 331.199219 305.882812 331.796875 L 401.167969 386.871094 C 402.722656 387.828125 404.160156 387.230469 404.636719 386.871094 C 405.113281 386.511719 406.429688 385.671875 406.429688 383.875 L 406.429688 273.609375 C 406.3125 272.414062 405.714844 271.214844 404.636719 270.617188 Z M 404.636719 270.617188 " fill-opacity="1" fill-rule="nonzero"/></g><g clip-path="url(#977e0d9044)"><path fill="#8c2088" d="M 515.585938 328.804688 L 515.585938 218.535156 C 515.585938 216.742188 514.390625 215.78125 513.792969 215.542969 C 513.4375 215.304688 512.835938 215.066406 512 215.066406 C 511.523438 215.066406 510.925781 215.183594 510.328125 215.542969 L 415.039062 270.617188 C 413.960938 271.214844 413.246094 272.414062 413.246094 273.609375 L 413.246094 383.875 C 413.246094 385.671875 414.441406 386.628906 415.039062 386.871094 C 415.515625 387.230469 416.953125 387.828125 418.503906 386.871094 L 513.792969 331.796875 C 514.871094 331.199219 515.585938 330 515.585938 328.804688 Z M 515.585938 328.804688 " fill-opacity="1" fill-rule="nonzero"/></g><path fill="#a2369e" d="M 411.570312 264.628906 L 506.859375 209.558594 C 508.414062 208.597656 508.652344 207.164062 508.652344 206.5625 C 508.652344 205.964844 508.535156 204.410156 506.859375 203.570312 L 411.570312 148.496094 C 410.496094 147.898438 409.179688 147.898438 408.105469 148.496094 L 312.816406 203.570312 C 311.261719 204.527344 311.023438 205.964844 311.023438 206.5625 C 311.023438 207.164062 311.140625 208.71875 312.816406 209.558594 L 408.105469 264.628906 C 409.179688 265.230469 410.496094 265.230469 411.570312 264.628906 Z M 411.570312 264.628906 " fill-opacity="1" fill-rule="nonzero"/><path fill="#ffffff" d="M 330.75 268.820312 C 331.226562 259.003906 336.964844 246.433594 355.855469 257.566406 C 374.03125 268.222656 379.648438 285.222656 379.648438 295.519531 C 379.648438 304.257812 377.257812 308.6875 368.890625 312.761719 C 363.628906 315.394531 361.953125 318.746094 361.953125 324.613281 L 361.953125 325.929688 L 347.128906 317.308594 L 347.128906 315.035156 C 347.128906 306.773438 349.757812 301.746094 358.488281 297.792969 C 363.867188 295.28125 365.183594 291.6875 365.183594 286.660156 C 365.183594 281.152344 362.3125 274.207031 355.617188 270.378906 C 348.445312 266.1875 345.574219 270.136719 344.855469 276.960938 Z M 347.007812 340.535156 L 361.835938 349.15625 L 361.835938 333.59375 L 347.007812 324.972656 Z M 454.015625 288.933594 C 454.851562 281.152344 457.601562 273.96875 464.773438 269.777344 C 471.46875 265.949219 474.339844 269.417969 474.339844 275.046875 C 474.339844 279.957031 473.023438 285.222656 467.644531 293.964844 C 458.917969 307.972656 456.285156 316.113281 456.285156 324.375 L 456.285156 326.648438 L 471.113281 318.027344 L 471.113281 316.710938 C 471.113281 310.964844 472.785156 305.457031 478.046875 296.835938 C 486.414062 283.066406 488.804688 275.765625 488.804688 267.144531 C 488.804688 256.847656 483.1875 246.191406 465.015625 256.609375 C 446.003906 267.503906 440.386719 286.539062 439.90625 296.957031 Z M 456.285156 349.996094 L 471.113281 341.375 L 471.113281 325.808594 L 456.285156 334.429688 Z M 415.277344 191.359375 C 422.449219 188.125 429.984375 187.050781 437.15625 191.121094 C 443.851562 194.949219 442.179688 199.261719 437.394531 202.015625 C 433.09375 204.527344 427.949219 205.964844 417.667969 205.605469 C 401.167969 205.007812 392.921875 206.804688 385.746094 210.992188 L 383.714844 212.191406 L 398.539062 220.8125 L 399.617188 220.210938 C 404.636719 217.339844 410.136719 216.140625 420.179688 216.261719 C 436.199219 216.621094 443.734375 215.066406 451.265625 210.753906 C 460.113281 205.605469 466.570312 195.429688 448.515625 184.894531 C 429.625 173.878906 410.257812 178.546875 401.050781 183.21875 Z M 363.507812 223.804688 L 378.332031 232.425781 L 391.84375 224.640625 L 377.019531 216.023438 Z M 363.507812 223.804688 " fill-opacity="1" fill-rule="nonzero"/><g clip-path="url(#08e0b6123b)"><g clip-path="url(#37065a642d)"><path fill="#151d42" d="M 517.324219 81.367188 L 943.890625 81.367188 L 943.890625 139.761719 L 517.324219 139.761719 Z M 517.324219 81.367188 " fill-opacity="1" fill-rule="nonzero"/></g></g><g clip-path="url(#cfb6eb5e9b)"><g clip-path="url(#ada804c102)"><path stroke-linecap="butt" transform="matrix(0.75, 0, 0, 0.75, 517.32485, 81.366681)" fill="none" stroke-linejoin="miter" d="M 38.931454 0.000674896 L 529.957548 0.000674896 C 540.285674 0.000674896 550.186716 4.099634 557.483592 11.401718 C 564.785676 18.703802 568.889843 28.604845 568.889843 38.927762 C 568.889843 49.255888 564.785676 59.156931 557.483592 66.459015 C 550.186716 73.755891 540.285674 77.860058 529.957548 77.860058 L 38.931454 77.860058 C 28.603328 77.860058 18.702285 73.755891 11.400201 66.459015 C 4.103325 59.156931 -0.00084221 49.255888 -0.00084221 38.927762 C -0.00084221 28.604845 4.103325 18.703802 11.400201 11.401718 C 18.702285 4.099634 28.603328 0.000674896 38.931454 0.000674896 Z M 38.931454 0.000674896 " stroke="#faf8f4" stroke-width="2" stroke-opacity="1" stroke-miterlimit="4"/></g></g><g clip-path="url(#979a74bf66)"><path fill="#ffffff" d="M 928.28125 203.625 L 928.28125 286.585938 C 928.28125 292.316406 923.640625 296.957031 917.910156 296.957031 L 552.371094 296.957031 C 546.644531 296.957031 542.003906 292.316406 542.003906 286.585938 L 542.003906 203.625 C 542.003906 197.898438 546.644531 193.257812 552.371094 193.257812 L 917.910156 193.257812 C 923.640625 193.257812 928.28125 197.898438 928.28125 203.625 Z M 928.28125 203.625 " fill-opacity="1" fill-rule="nonzero"/><path fill="#b8b9bb" d="M 917.910156 193.257812 L 552.371094 193.257812 C 546.644531 193.257812 542.003906 197.898438 542.003906 203.625 L 542.003906 286.585938 C 542.003906 292.316406 546.644531 296.957031 552.371094 296.957031 L 917.910156 296.957031 C 923.640625 296.957031 928.28125 292.316406 928.28125 286.585938 L 928.28125 203.625 C 928.28125 197.898438 923.640625 193.257812 917.910156 193.257812 Z M 925.691406 286.585938 C 925.691406 290.863281 922.191406 294.363281 917.910156 294.363281 L 552.371094 294.363281 C 548.09375 294.363281 544.59375 290.863281 544.59375 286.585938 L 544.59375 203.625 C 544.59375 199.347656 548.09375 195.847656 552.371094 195.847656 L 917.910156 195.847656 C 922.191406 195.847656 925.691406 199.347656 925.691406 203.625 Z M 925.691406 286.585938 " fill-opacity="1" fill-rule="nonzero"/></g><path fill="#151d42" d="M 893.464844 247.800781 L 884.289062 256.980469 C 882.523438 258.742188 879.648438 258.742188 877.882812 256.980469 L 868.707031 247.800781 C 867.953125 247.050781 867.953125 245.804688 868.707031 245.054688 C 869.457031 244.300781 870.703125 244.300781 871.453125 245.054688 L 880.632812 254.230469 C 880.890625 254.492188 881.304688 254.492188 881.539062 254.230469 L 890.71875 245.054688 C 891.46875 244.300781 892.714844 244.300781 893.464844 245.054688 C 894.214844 245.804688 894.214844 247.050781 893.464844 247.800781 Z M 893.464844 247.800781 " fill-opacity="1" fill-rule="nonzero"/><g clip-path="url(#307d6fd354)"><path stroke-linecap="butt" transform="matrix(0.75, 0, 0, 0.75, 541.138225, 229.331758)" fill="none" stroke-linejoin="miter" d="M -0.00200886 0.000364046 L -0.00200886 60.359738 L 517.341796 60.359738 L 517.341796 0.000364046 L -0.00200886 0.000364046 " stroke="#000000" stroke-width="6" stroke-opacity="1" stroke-miterlimit="4"/></g><g fill="#ffffff" fill-opacity="1"><g transform="translate(573.929509, 121.064801)"><g><path d="M 10.59375 0.296875 C 15.46875 0.296875 19.46875 -2.625 19.46875 -7.453125 C 19.46875 -15.921875 7.109375 -14.296875 7.109375 -19.109375 C 7.109375 -20.734375 8.515625 -21.828125 10.3125 -21.828125 C 12.03125 -21.828125 13.5625 -20.84375 14.4375 -19.109375 L 18.25 -21.4375 C 16.5 -24.546875 13.625 -25.921875 10.484375 -25.921875 C 6.1875 -25.921875 2.515625 -23.390625 2.515625 -18.875 C 2.515625 -10.5625 14.875 -12.328125 14.875 -7.03125 C 14.875 -5.21875 13.390625 -3.78125 10.65625 -3.78125 C 7.953125 -3.78125 5.6875 -5.1875 5.375 -8.375 L 0.8125 -7.21875 C 1.625 -2.1875 6.078125 0.296875 10.59375 0.296875 Z M 10.59375 0.296875 "/></g></g></g><g fill="#ffffff" fill-opacity="1"><g transform="translate(592.550564, 121.064801)"><g><path d="M 10.140625 0.359375 C 13.171875 0.359375 15.578125 -0.703125 17.546875 -2.890625 L 14.515625 -5.546875 C 13.25 -4.140625 11.796875 -3.640625 10.171875 -3.640625 C 7.34375 -3.640625 6.03125 -5.21875 5.65625 -7.59375 L 18.0625 -7.59375 C 18.140625 -7.84375 18.21875 -8.578125 18.21875 -9.328125 C 18.21875 -13.359375 16.171875 -18.4375 9.84375 -18.4375 C 3.734375 -18.4375 1 -13.65625 1 -8.96875 C 1 -4.109375 3.921875 0.359375 10.140625 0.359375 Z M 5.65625 -10.765625 C 6.078125 -13.03125 7.21875 -14.734375 9.8125 -14.734375 C 12.109375 -14.734375 13.59375 -13.359375 13.875 -10.765625 Z M 5.65625 -10.765625 "/></g></g></g><g fill="#ffffff" fill-opacity="1"><g transform="translate(609.906703, 121.064801)"><g><path d="M 6.296875 0.359375 C 7.34375 0.359375 8.65625 0.1875 9.578125 0 L 9.578125 -3.703125 C 9.109375 -3.640625 8.625 -3.59375 8.375 -3.59375 C 7.484375 -3.59375 6.921875 -3.953125 6.921875 -4.8125 L 6.921875 -25.53125 L 2.515625 -25.53125 L 2.515625 -3.59375 C 2.515625 -0.421875 4.21875 0.359375 6.296875 0.359375 Z M 6.296875 0.359375 "/></g></g></g><g fill="#ffffff" fill-opacity="1"><g transform="translate(618.336155, 121.064801)"><g><path d="M 10.140625 0.359375 C 13.171875 0.359375 15.578125 -0.703125 17.546875 -2.890625 L 14.515625 -5.546875 C 13.25 -4.140625 11.796875 -3.640625 10.171875 -3.640625 C 7.34375 -3.640625 6.03125 -5.21875 5.65625 -7.59375 L 18.0625 -7.59375 C 18.140625 -7.84375 18.21875 -8.578125 18.21875 -9.328125 C 18.21875 -13.359375 16.171875 -18.4375 9.84375 -18.4375 C 3.734375 -18.4375 1 -13.65625 1 -8.96875 C 1 -4.109375 3.921875 0.359375 10.140625 0.359375 Z M 5.65625 -10.765625 C 6.078125 -13.03125 7.21875 -14.734375 9.8125 -14.734375 C 12.109375 -14.734375 13.59375 -13.359375 13.875 -10.765625 Z M 5.65625 -10.765625 "/></g></g></g><g fill="#ffffff" fill-opacity="1"><g transform="translate(635.692293, 121.064801)"><g><path d="M 9.78125 0.359375 C 13.359375 0.359375 16.171875 -1.625 17.375 -4.984375 L 13.359375 -6.5 C 12.890625 -4.8125 11.515625 -3.640625 9.734375 -3.640625 C 6.671875 -3.640625 5.515625 -6.25 5.515625 -9 C 5.515625 -11.6875 6.703125 -14.4375 9.734375 -14.4375 C 11.546875 -14.4375 12.890625 -13.21875 13.359375 -11.484375 L 17.546875 -13.109375 C 16.171875 -16.703125 13.328125 -18.4375 9.734375 -18.4375 C 3.84375 -18.4375 1.03125 -13.734375 1.03125 -9 C 1.03125 -4.21875 3.890625 0.359375 9.78125 0.359375 Z M 9.78125 0.359375 "/></g></g></g><g fill="#ffffff" fill-opacity="1"><g transform="translate(651.910006, 121.064801)"><g><path d="M 2.515625 -21.46875 L 7.109375 -21.46875 L 7.109375 -25.53125 L 2.515625 -25.53125 Z M 2.625 0 L 7 0 L 7 -18.0625 L 2.625 -18.0625 Z M 2.625 0 "/></g></g></g><g fill="#ffffff" fill-opacity="1"><g transform="translate(659.598576, 121.064801)"><g><path d="M 10.171875 0.359375 C 15.765625 0.359375 19.421875 -3.953125 19.421875 -9.078125 C 19.421875 -14.171875 15.765625 -18.4375 10.171875 -18.4375 C 4.59375 -18.4375 0.921875 -14.171875 0.921875 -9.078125 C 0.921875 -3.953125 4.59375 0.359375 10.171875 0.359375 Z M 10.171875 -3.4375 C 6.84375 -3.4375 5.515625 -6.109375 5.515625 -9.078125 C 5.515625 -12.03125 6.84375 -14.625 10.171875 -14.625 C 13.515625 -14.625 14.84375 -12.03125 14.84375 -9.078125 C 14.84375 -6.109375 13.515625 -3.4375 10.171875 -3.4375 Z M 10.171875 -3.4375 "/></g></g></g><g fill="#ffffff" fill-opacity="1"><g transform="translate(678.056997, 121.064801)"><g><path d="M 2.625 0 L 7 0 L 7 -9.890625 C 7 -13.03125 8.578125 -14.375 11.0625 -14.375 C 13.328125 -14.375 14.515625 -12.65625 14.515625 -10.28125 L 14.515625 0 L 18.875 0 L 18.875 -10.84375 C 18.875 -14.625 17.0625 -18.4375 12.328125 -18.4375 C 10.5625 -18.4375 8.4375 -17.734375 7 -15.953125 L 7 -18.0625 L 2.625 -18.0625 Z M 2.625 0 "/></g></g></g><g fill="#ffffff" fill-opacity="1"><g transform="translate(697.111741, 121.064801)"><g><path d="M 7.5625 0.359375 C 9.703125 0.359375 11.625 -0.328125 13.171875 -2.578125 L 13.46875 0 L 17.09375 0 L 17.09375 -10.953125 C 17.09375 -15.359375 14.203125 -18.4375 9.296875 -18.4375 C 5.734375 -18.4375 3.4375 -16.84375 1.703125 -14.484375 L 5.078125 -12.03125 C 5.859375 -13.359375 7.25 -14.578125 9.328125 -14.578125 C 11.65625 -14.578125 12.890625 -13.0625 12.890625 -10.765625 L 8.1875 -10.765625 C 4.140625 -10.765625 1 -9.46875 1 -5.546875 C 1 -1.765625 3.84375 0.359375 7.5625 0.359375 Z M 8.1875 -3.359375 C 6.46875 -3.359375 5.515625 -4.21875 5.515625 -5.40625 C 5.515625 -6.546875 6.4375 -7.59375 8.4375 -7.59375 L 12.890625 -7.59375 C 12.8125 -5.328125 10.703125 -3.359375 8.1875 -3.359375 Z M 8.1875 -3.359375 "/></g></g></g><g fill="#ffffff" fill-opacity="1"><g transform="translate(714.359463, 121.064801)"><g/></g></g><g fill="#ffffff" fill-opacity="1"><g transform="translate(721.32523, 121.064801)"><g><path d="M 9.03125 0.359375 C 10.28125 0.359375 11.625 0.078125 12.296875 -0.1875 L 12.296875 -4.171875 C 11.6875 -3.890625 10.703125 -3.53125 9.78125 -3.53125 C 8.625 -3.53125 7.734375 -4.03125 7.734375 -5.765625 L 7.734375 -14.375 L 12.296875 -14.375 L 12.296875 -18.0625 L 7.734375 -18.0625 L 7.734375 -25.6875 L 3.4375 -22.53125 L 3.4375 -18.0625 L 0.453125 -18.0625 L 0.453125 -14.375 L 3.359375 -14.375 L 3.359375 -4.984375 C 3.359375 -1.703125 5.46875 0.359375 9.03125 0.359375 Z M 9.03125 0.359375 "/></g></g></g><g fill="#ffffff" fill-opacity="1"><g transform="translate(733.025394, 121.064801)"><g><path d="M 8.65625 0.359375 C 10.8125 0.359375 12.6875 -0.421875 13.984375 -2.109375 L 13.984375 0 L 18.46875 0 L 18.46875 -18.0625 L 13.984375 -18.0625 L 13.984375 -9.921875 C 13.984375 -4.703125 11.875 -3.640625 9.8125 -3.640625 C 7.140625 -3.640625 6.546875 -5.4375 6.546875 -8.40625 L 6.546875 -18.0625 L 2.078125 -18.0625 L 2.078125 -8.546875 C 2.078125 -3.109375 4.109375 0.359375 8.65625 0.359375 Z M 8.65625 0.359375 "/></g></g></g><g fill="#ffffff" fill-opacity="1"><g transform="translate(752.188559, 121.064801)"><g/></g></g><g fill="#ffffff" fill-opacity="1"><g transform="translate(759.154326, 121.064801)"><g><path d="M 2.65625 7.921875 L 7.140625 7.921875 L 7.140625 -1.8125 C 8.40625 -0.25 10.390625 0.359375 12.296875 0.359375 C 17.28125 0.359375 20.03125 -4.03125 20.03125 -9.03125 C 20.03125 -14.0625 17.28125 -18.4375 12.21875 -18.4375 C 10.28125 -18.4375 8.40625 -17.796875 7.140625 -16.25 L 7.140625 -18.0625 L 2.65625 -18.0625 Z M 11.140625 -3.703125 C 8.109375 -3.703125 6.734375 -6 6.734375 -9.03125 C 6.734375 -12.078125 8.109375 -14.484375 11.140625 -14.484375 C 14.171875 -14.484375 15.546875 -12.078125 15.546875 -9.03125 C 15.546875 -6 14.171875 -3.703125 11.140625 -3.703125 Z M 11.140625 -3.703125 "/></g></g></g><g fill="#ffffff" fill-opacity="1"><g transform="translate(778.38976, 121.064801)"><g><path d="M 2.625 0 L 6.890625 0 L 6.890625 -7.625 C 6.890625 -12.21875 9.03125 -14.140625 11.09375 -14.140625 C 11.796875 -14.140625 12.46875 -13.921875 13.0625 -13.515625 L 15.078125 -17.140625 C 14.203125 -18.015625 12.953125 -18.4375 11.765625 -18.4375 C 9.734375 -18.4375 7.703125 -17.203125 6.921875 -15.015625 L 6.921875 -18.0625 L 2.625 -18.0625 Z M 2.625 0 "/></g></g></g><g fill="#ffffff" fill-opacity="1"><g transform="translate(791.192197, 121.064801)"><g><path d="M 10.171875 0.359375 C 15.765625 0.359375 19.421875 -3.953125 19.421875 -9.078125 C 19.421875 -14.171875 15.765625 -18.4375 10.171875 -18.4375 C 4.59375 -18.4375 0.921875 -14.171875 0.921875 -9.078125 C 0.921875 -3.953125 4.59375 0.359375 10.171875 0.359375 Z M 10.171875 -3.4375 C 6.84375 -3.4375 5.515625 -6.109375 5.515625 -9.078125 C 5.515625 -12.03125 6.84375 -14.625 10.171875 -14.625 C 13.515625 -14.625 14.84375 -12.03125 14.84375 -9.078125 C 14.84375 -6.109375 13.515625 -3.4375 10.171875 -3.4375 Z M 10.171875 -3.4375 "/></g></g></g><g fill="#ffffff" fill-opacity="1"><g transform="translate(809.650624, 121.064801)"><g><path d="M 14.03125 -25.53125 L 14.03125 -16.25 C 12.78125 -17.796875 10.765625 -18.4375 8.890625 -18.4375 C 3.890625 -18.4375 1.140625 -14.03125 1.140625 -9.03125 C 1.140625 -4 3.890625 0.359375 8.96875 0.359375 C 10.96875 0.359375 12.953125 -0.328125 14.203125 -2.03125 L 14.40625 0 L 18.515625 0 L 18.515625 -25.53125 Z M 10.03125 -3.640625 C 7 -3.640625 5.625 -6 5.625 -9.03125 C 5.625 -12.03125 7 -14.4375 10.03125 -14.4375 C 13.0625 -14.4375 14.40625 -12.078125 14.40625 -9.03125 C 14.40625 -5.96875 13.0625 -3.640625 10.03125 -3.640625 Z M 10.03125 -3.640625 "/></g></g></g><g fill="#ffffff" fill-opacity="1"><g transform="translate(828.886058, 121.064801)"><g><path d="M 8.65625 0.359375 C 10.8125 0.359375 12.6875 -0.421875 13.984375 -2.109375 L 13.984375 0 L 18.46875 0 L 18.46875 -18.0625 L 13.984375 -18.0625 L 13.984375 -9.921875 C 13.984375 -4.703125 11.875 -3.640625 9.8125 -3.640625 C 7.140625 -3.640625 6.546875 -5.4375 6.546875 -8.40625 L 6.546875 -18.0625 L 2.078125 -18.0625 L 2.078125 -8.546875 C 2.078125 -3.109375 4.109375 0.359375 8.65625 0.359375 Z M 8.65625 0.359375 "/></g></g></g><g fill="#ffffff" fill-opacity="1"><g transform="translate(848.049212, 121.064801)"><g><path d="M 9.78125 0.359375 C 13.359375 0.359375 16.171875 -1.625 17.375 -4.984375 L 13.359375 -6.5 C 12.890625 -4.8125 11.515625 -3.640625 9.734375 -3.640625 C 6.671875 -3.640625 5.515625 -6.25 5.515625 -9 C 5.515625 -11.6875 6.703125 -14.4375 9.734375 -14.4375 C 11.546875 -14.4375 12.890625 -13.21875 13.359375 -11.484375 L 17.546875 -13.109375 C 16.171875 -16.703125 13.328125 -18.4375 9.734375 -18.4375 C 3.84375 -18.4375 1.03125 -13.734375 1.03125 -9 C 1.03125 -4.21875 3.890625 0.359375 9.78125 0.359375 Z M 9.78125 0.359375 "/></g></g></g><g fill="#ffffff" fill-opacity="1"><g transform="translate(864.266931, 121.064801)"><g><path d="M 9.03125 0.359375 C 10.28125 0.359375 11.625 0.078125 12.296875 -0.1875 L 12.296875 -4.171875 C 11.6875 -3.890625 10.703125 -3.53125 9.78125 -3.53125 C 8.625 -3.53125 7.734375 -4.03125 7.734375 -5.765625 L 7.734375 -14.375 L 12.296875 -14.375 L 12.296875 -18.0625 L 7.734375 -18.0625 L 7.734375 -25.6875 L 3.4375 -22.53125 L 3.4375 -18.0625 L 0.453125 -18.0625 L 0.453125 -14.375 L 3.359375 -14.375 L 3.359375 -4.984375 C 3.359375 -1.703125 5.46875 0.359375 9.03125 0.359375 Z M 9.03125 0.359375 "/></g></g></g><g fill="#ffffff" fill-opacity="1"><g transform="translate(875.967096, 121.064801)"><g><path d="M 10.171875 0.359375 C 15.765625 0.359375 19.421875 -3.953125 19.421875 -9.078125 C 19.421875 -14.171875 15.765625 -18.4375 10.171875 -18.4375 C 4.59375 -18.4375 0.921875 -14.171875 0.921875 -9.078125 C 0.921875 -3.953125 4.59375 0.359375 10.171875 0.359375 Z M 10.171875 -3.4375 C 6.84375 -3.4375 5.515625 -6.109375 5.515625 -9.078125 C 5.515625 -12.03125 6.84375 -14.625 10.171875 -14.625 C 13.515625 -14.625 14.84375 -12.03125 14.84375 -9.078125 C 14.84375 -6.109375 13.515625 -3.4375 10.171875 -3.4375 Z M 10.171875 -3.4375 "/></g></g></g><g fill="#151d42" fill-opacity="1"><g transform="translate(541.138225, 210.963688)"><g><path d="M 2.578125 0 L 6.15625 0 L 6.15625 -8.296875 L 8.859375 -8.296875 C 12.9375 -8.296875 15.921875 -10.359375 15.921875 -14.09375 C 15.921875 -17.875 12.9375 -20.015625 8.859375 -20.015625 L 2.578125 -20.015625 Z M 6.15625 -11.65625 L 6.15625 -16.65625 L 8.859375 -16.65625 C 11.296875 -16.65625 12.359375 -15.71875 12.359375 -14.09375 C 12.359375 -12.515625 11.3125 -11.65625 8.859375 -11.65625 Z M 6.15625 -11.65625 "/></g></g></g><g fill="#151d42" fill-opacity="1"><g transform="translate(556.156561, 210.963688)"><g><path d="M 7.96875 0.28125 C 12.359375 0.28125 15.234375 -3.109375 15.234375 -7.109375 C 15.234375 -11.109375 12.359375 -14.453125 7.96875 -14.453125 C 3.59375 -14.453125 0.71875 -11.109375 0.71875 -7.109375 C 0.71875 -3.109375 3.59375 0.28125 7.96875 0.28125 Z M 7.96875 -2.6875 C 5.375 -2.6875 4.328125 -4.78125 4.328125 -7.109375 C 4.328125 -9.4375 5.375 -11.46875 7.96875 -11.46875 C 10.59375 -11.46875 11.625 -9.4375 11.625 -7.109375 C 11.625 -4.78125 10.59375 -2.6875 7.96875 -2.6875 Z M 7.96875 -2.6875 "/></g></g></g><g fill="#151d42" fill-opacity="1"><g transform="translate(570.62257, 210.963688)"><g><path d="M 2.046875 0 L 5.390625 0 L 5.390625 -5.984375 C 5.390625 -9.578125 7.078125 -11.078125 8.703125 -11.078125 C 9.25 -11.078125 9.78125 -10.90625 10.25 -10.59375 L 11.8125 -13.4375 C 11.140625 -14.125 10.15625 -14.453125 9.21875 -14.453125 C 7.640625 -14.453125 6.03125 -13.484375 5.421875 -11.765625 L 5.421875 -14.15625 L 2.046875 -14.15625 Z M 2.046875 0 "/></g></g></g><g fill="#151d42" fill-opacity="1"><g transform="translate(580.655859, 210.963688)"><g/></g></g><g fill="#151d42" fill-opacity="1"><g transform="translate(586.114797, 210.963688)"><g><path d="M 2.078125 6.203125 L 5.59375 6.203125 L 5.59375 -1.421875 C 6.59375 -0.203125 8.140625 0.28125 9.640625 0.28125 C 13.546875 0.28125 15.703125 -3.15625 15.703125 -7.078125 C 15.703125 -11.015625 13.546875 -14.453125 9.578125 -14.453125 C 8.0625 -14.453125 6.59375 -13.953125 5.59375 -12.734375 L 5.59375 -14.15625 L 2.078125 -14.15625 Z M 8.734375 -2.90625 C 6.359375 -2.90625 5.28125 -4.703125 5.28125 -7.078125 C 5.28125 -9.46875 6.359375 -11.34375 8.734375 -11.34375 C 11.109375 -11.34375 12.1875 -9.46875 12.1875 -7.078125 C 12.1875 -4.703125 11.109375 -2.90625 8.734375 -2.90625 Z M 8.734375 -2.90625 "/></g></g></g><g fill="#151d42" fill-opacity="1"><g transform="translate(601.189778, 210.963688)"><g><path d="M 2.046875 0 L 5.390625 0 L 5.390625 -5.984375 C 5.390625 -9.578125 7.078125 -11.078125 8.703125 -11.078125 C 9.25 -11.078125 9.78125 -10.90625 10.25 -10.59375 L 11.8125 -13.4375 C 11.140625 -14.125 10.15625 -14.453125 9.21875 -14.453125 C 7.640625 -14.453125 6.03125 -13.484375 5.421875 -11.765625 L 5.421875 -14.15625 L 2.046875 -14.15625 Z M 2.046875 0 "/></g></g></g><g fill="#151d42" fill-opacity="1"><g transform="translate(611.22307, 210.963688)"><g><path d="M 7.96875 0.28125 C 12.359375 0.28125 15.234375 -3.109375 15.234375 -7.109375 C 15.234375 -11.109375 12.359375 -14.453125 7.96875 -14.453125 C 3.59375 -14.453125 0.71875 -11.109375 0.71875 -7.109375 C 0.71875 -3.109375 3.59375 0.28125 7.96875 0.28125 Z M 7.96875 -2.6875 C 5.375 -2.6875 4.328125 -4.78125 4.328125 -7.109375 C 4.328125 -9.4375 5.375 -11.46875 7.96875 -11.46875 C 10.59375 -11.46875 11.625 -9.4375 11.625 -7.109375 C 11.625 -4.78125 10.59375 -2.6875 7.96875 -2.6875 Z M 7.96875 -2.6875 "/></g></g></g><g fill="#151d42" fill-opacity="1"><g transform="translate(625.689083, 210.963688)"><g><path d="M 11 -20.015625 L 11 -12.734375 C 10.015625 -13.953125 8.4375 -14.453125 6.96875 -14.453125 C 3.046875 -14.453125 0.890625 -11 0.890625 -7.078125 C 0.890625 -3.125 3.046875 0.28125 7.03125 0.28125 C 8.59375 0.28125 10.15625 -0.25 11.140625 -1.59375 L 11.296875 0 L 14.515625 0 L 14.515625 -20.015625 Z M 7.859375 -2.84375 C 5.484375 -2.84375 4.40625 -4.703125 4.40625 -7.078125 C 4.40625 -9.4375 5.484375 -11.3125 7.859375 -11.3125 C 10.25 -11.3125 11.296875 -9.46875 11.296875 -7.078125 C 11.296875 -4.671875 10.25 -2.84375 7.859375 -2.84375 Z M 7.859375 -2.84375 "/></g></g></g><g fill="#151d42" fill-opacity="1"><g transform="translate(640.764064, 210.963688)"><g><path d="M 6.78125 0.28125 C 8.46875 0.28125 9.953125 -0.328125 10.96875 -1.65625 L 10.96875 0 L 14.484375 0 L 14.484375 -14.15625 L 10.96875 -14.15625 L 10.96875 -7.78125 C 10.96875 -3.6875 9.3125 -2.84375 7.6875 -2.84375 C 5.59375 -2.84375 5.125 -4.265625 5.125 -6.59375 L 5.125 -14.15625 L 1.625 -14.15625 L 1.625 -6.703125 C 1.625 -2.4375 3.21875 0.28125 6.78125 0.28125 Z M 6.78125 0.28125 "/></g></g></g><g fill="#151d42" fill-opacity="1"><g transform="translate(655.782397, 210.963688)"><g><path d="M 7.671875 0.28125 C 10.46875 0.28125 12.6875 -1.28125 13.609375 -3.90625 L 10.46875 -5.09375 C 10.109375 -3.765625 9.03125 -2.84375 7.640625 -2.84375 C 5.234375 -2.84375 4.328125 -4.90625 4.328125 -7.0625 C 4.328125 -9.171875 5.25 -11.3125 7.640625 -11.3125 C 9.046875 -11.3125 10.109375 -10.359375 10.46875 -9 L 13.75 -10.265625 C 12.6875 -13.09375 10.4375 -14.453125 7.640625 -14.453125 C 3.015625 -14.453125 0.8125 -10.765625 0.8125 -7.0625 C 0.8125 -3.296875 3.046875 0.28125 7.671875 0.28125 Z M 7.671875 0.28125 "/></g></g></g><g fill="#151d42" fill-opacity="1"><g transform="translate(668.492308, 210.963688)"><g><path d="M 7.078125 0.28125 C 8.0625 0.28125 9.109375 0.0625 9.640625 -0.140625 L 9.640625 -3.265625 C 9.171875 -3.046875 8.390625 -2.765625 7.671875 -2.765625 C 6.765625 -2.765625 6.0625 -3.15625 6.0625 -4.515625 L 6.0625 -11.265625 L 9.640625 -11.265625 L 9.640625 -14.15625 L 6.0625 -14.15625 L 6.0625 -20.125 L 2.6875 -17.671875 L 2.6875 -14.15625 L 0.359375 -14.15625 L 0.359375 -11.265625 L 2.640625 -11.265625 L 2.640625 -3.90625 C 2.640625 -1.328125 4.296875 0.28125 7.078125 0.28125 Z M 7.078125 0.28125 "/></g></g></g><g fill="#151d42" fill-opacity="1"><g transform="translate(677.661703, 210.963688)"><g><path d="M 7.96875 0.28125 C 12.359375 0.28125 15.234375 -3.109375 15.234375 -7.109375 C 15.234375 -11.109375 12.359375 -14.453125 7.96875 -14.453125 C 3.59375 -14.453125 0.71875 -11.109375 0.71875 -7.109375 C 0.71875 -3.109375 3.59375 0.28125 7.96875 0.28125 Z M 7.96875 -2.6875 C 5.375 -2.6875 4.328125 -4.78125 4.328125 -7.109375 C 4.328125 -9.4375 5.375 -11.46875 7.96875 -11.46875 C 10.59375 -11.46875 11.625 -9.4375 11.625 -7.109375 C 11.625 -4.78125 10.59375 -2.6875 7.96875 -2.6875 Z M 7.96875 -2.6875 "/></g></g></g><g fill="#151d42" fill-opacity="1"><g transform="translate(541.138225, 307.025016)"><g><path d="M 2.578125 0 L 6.15625 0 L 6.15625 -8.296875 L 8.859375 -8.296875 C 12.9375 -8.296875 15.921875 -10.359375 15.921875 -14.09375 C 15.921875 -17.875 12.9375 -20.015625 8.859375 -20.015625 L 2.578125 -20.015625 Z M 6.15625 -11.65625 L 6.15625 -16.65625 L 8.859375 -16.65625 C 11.296875 -16.65625 12.359375 -15.71875 12.359375 -14.09375 C 12.359375 -12.515625 11.3125 -11.65625 8.859375 -11.65625 Z M 6.15625 -11.65625 "/></g></g></g><g fill="#151d42" fill-opacity="1"><g transform="translate(556.156561, 307.025016)"><g><path d="M 7.96875 0.28125 C 12.359375 0.28125 15.234375 -3.109375 15.234375 -7.109375 C 15.234375 -11.109375 12.359375 -14.453125 7.96875 -14.453125 C 3.59375 -14.453125 0.71875 -11.109375 0.71875 -7.109375 C 0.71875 -3.109375 3.59375 0.28125 7.96875 0.28125 Z M 7.96875 -2.6875 C 5.375 -2.6875 4.328125 -4.78125 4.328125 -7.109375 C 4.328125 -9.4375 5.375 -11.46875 7.96875 -11.46875 C 10.59375 -11.46875 11.625 -9.4375 11.625 -7.109375 C 11.625 -4.78125 10.59375 -2.6875 7.96875 -2.6875 Z M 7.96875 -2.6875 "/></g></g></g><g fill="#151d42" fill-opacity="1"><g transform="translate(570.62257, 307.025016)"><g><path d="M 2.046875 0 L 5.390625 0 L 5.390625 -5.984375 C 5.390625 -9.578125 7.078125 -11.078125 8.703125 -11.078125 C 9.25 -11.078125 9.78125 -10.90625 10.25 -10.59375 L 11.8125 -13.4375 C 11.140625 -14.125 10.15625 -14.453125 9.21875 -14.453125 C 7.640625 -14.453125 6.03125 -13.484375 5.421875 -11.765625 L 5.421875 -14.15625 L 2.046875 -14.15625 Z M 2.046875 0 "/></g></g></g><g fill="#151d42" fill-opacity="1"><g transform="translate(580.655859, 307.025016)"><g/></g></g><g fill="#151d42" fill-opacity="1"><g transform="translate(586.114797, 307.025016)"><g><path d="M 6.3125 0.28125 C 9 0.28125 11.84375 -1.15625 11.84375 -4.4375 C 11.84375 -9.640625 4.640625 -8.359375 4.640625 -10.5 C 4.640625 -11.171875 5.34375 -11.71875 6.46875 -11.71875 C 8 -11.71875 8.796875 -10.796875 9.28125 -9.921875 L 11.953125 -11.375 C 10.875 -13.296875 9.03125 -14.453125 6.59375 -14.453125 C 3.859375 -14.453125 1.328125 -13.03125 1.328125 -10.046875 C 1.328125 -5.046875 8.4375 -6.640625 8.4375 -4.265625 C 8.4375 -3.515625 7.75 -2.578125 6.15625 -2.578125 C 4.265625 -2.578125 3.515625 -3.875 3.125 -4.90625 L 0.375 -3.6875 C 1.078125 -1.5 3.34375 0.28125 6.3125 0.28125 Z M 6.3125 0.28125 "/></g></g></g><g fill="#151d42" fill-opacity="1"><g transform="translate(597.479323, 307.025016)"><g><path d="M 6.78125 0.28125 C 8.46875 0.28125 9.953125 -0.328125 10.96875 -1.65625 L 10.96875 0 L 14.484375 0 L 14.484375 -14.15625 L 10.96875 -14.15625 L 10.96875 -7.78125 C 10.96875 -3.6875 9.3125 -2.84375 7.6875 -2.84375 C 5.59375 -2.84375 5.125 -4.265625 5.125 -6.59375 L 5.125 -14.15625 L 1.625 -14.15625 L 1.625 -6.703125 C 1.625 -2.4375 3.21875 0.28125 6.78125 0.28125 Z M 6.78125 0.28125 "/></g></g></g><g fill="#151d42" fill-opacity="1"><g transform="translate(612.497661, 307.025016)"><g><path d="M 9.6875 0.28125 C 13.609375 0.28125 15.75 -3.15625 15.75 -7.078125 C 15.75 -11.015625 13.609375 -14.453125 9.640625 -14.453125 C 8.125 -14.453125 6.640625 -13.953125 5.65625 -12.734375 L 5.65625 -20.015625 L 2.078125 -20.015625 L 2.078125 0 L 5.65625 0 L 5.65625 -1.421875 C 6.640625 -0.203125 8.21875 0.28125 9.6875 0.28125 Z M 8.828125 -2.90625 C 6.453125 -2.90625 5.34375 -4.703125 5.34375 -7.078125 C 5.34375 -9.46875 6.453125 -11.3125 8.828125 -11.3125 C 11.203125 -11.3125 12.265625 -9.4375 12.265625 -7.078125 C 12.265625 -4.734375 11.203125 -2.90625 8.828125 -2.90625 Z M 8.828125 -2.90625 "/></g></g></g><g fill="#151d42" fill-opacity="1"><g transform="translate(627.643447, 307.025016)"><g><path d="M 2.078125 6.203125 L 5.59375 6.203125 L 5.59375 -1.421875 C 6.59375 -0.203125 8.140625 0.28125 9.640625 0.28125 C 13.546875 0.28125 15.703125 -3.15625 15.703125 -7.078125 C 15.703125 -11.015625 13.546875 -14.453125 9.578125 -14.453125 C 8.0625 -14.453125 6.59375 -13.953125 5.59375 -12.734375 L 5.59375 -14.15625 L 2.078125 -14.15625 Z M 8.734375 -2.90625 C 6.359375 -2.90625 5.28125 -4.703125 5.28125 -7.078125 C 5.28125 -9.46875 6.359375 -11.34375 8.734375 -11.34375 C 11.109375 -11.34375 12.1875 -9.46875 12.1875 -7.078125 C 12.1875 -4.703125 11.109375 -2.90625 8.734375 -2.90625 Z M 8.734375 -2.90625 "/></g></g></g><g fill="#151d42" fill-opacity="1"><g transform="translate(642.718429, 307.025016)"><g><path d="M 5.921875 0.28125 C 7.609375 0.28125 9.109375 -0.25 10.328125 -2.03125 L 10.5625 0 L 13.40625 0 L 13.40625 -8.578125 C 13.40625 -12.046875 11.140625 -14.453125 7.28125 -14.453125 C 4.484375 -14.453125 2.6875 -13.203125 1.328125 -11.34375 L 3.984375 -9.4375 C 4.59375 -10.46875 5.6875 -11.4375 7.3125 -11.4375 C 9.140625 -11.4375 10.109375 -10.25 10.109375 -8.4375 L 6.421875 -8.4375 C 3.25 -8.4375 0.78125 -7.421875 0.78125 -4.34375 C 0.78125 -1.390625 3.015625 0.28125 5.921875 0.28125 Z M 6.421875 -2.640625 C 5.078125 -2.640625 4.328125 -3.296875 4.328125 -4.234375 C 4.328125 -5.125 5.046875 -5.953125 6.609375 -5.953125 L 10.109375 -5.953125 C 10.046875 -4.171875 8.390625 -2.640625 6.421875 -2.640625 Z M 6.421875 -2.640625 "/></g></g></g><g fill="#151d42" fill-opacity="1"><g transform="translate(656.235583, 307.025016)"><g><path d="M 2.046875 0 L 5.390625 0 L 5.390625 -5.984375 C 5.390625 -9.578125 7.078125 -11.078125 8.703125 -11.078125 C 9.25 -11.078125 9.78125 -10.90625 10.25 -10.59375 L 11.8125 -13.4375 C 11.140625 -14.125 10.15625 -14.453125 9.21875 -14.453125 C 7.640625 -14.453125 6.03125 -13.484375 5.421875 -11.765625 L 5.421875 -14.15625 L 2.046875 -14.15625 Z M 2.046875 0 "/></g></g></g><g fill="#151d42" fill-opacity="1"><g transform="translate(666.268869, 307.025016)"><g><path d="M 7.078125 0.28125 C 8.0625 0.28125 9.109375 0.0625 9.640625 -0.140625 L 9.640625 -3.265625 C 9.171875 -3.046875 8.390625 -2.765625 7.671875 -2.765625 C 6.765625 -2.765625 6.0625 -3.15625 6.0625 -4.515625 L 6.0625 -11.265625 L 9.640625 -11.265625 L 9.640625 -14.15625 L 6.0625 -14.15625 L 6.0625 -20.125 L 2.6875 -17.671875 L 2.6875 -14.15625 L 0.359375 -14.15625 L 0.359375 -11.265625 L 2.640625 -11.265625 L 2.640625 -3.90625 C 2.640625 -1.328125 4.296875 0.28125 7.078125 0.28125 Z M 7.078125 0.28125 "/></g></g></g><g fill="#151d42" fill-opacity="1"><g transform="translate(675.438264, 307.025016)"><g><path d="M 1.96875 -16.828125 L 5.5625 -16.828125 L 5.5625 -20.015625 L 1.96875 -20.015625 Z M 2.046875 0 L 5.484375 0 L 5.484375 -14.15625 L 2.046875 -14.15625 Z M 2.046875 0 "/></g></g></g><g fill="#151d42" fill-opacity="1"><g transform="translate(681.463682, 307.025016)"><g><path d="M 11 -20.015625 L 11 -12.734375 C 10.015625 -13.953125 8.4375 -14.453125 6.96875 -14.453125 C 3.046875 -14.453125 0.890625 -11 0.890625 -7.078125 C 0.890625 -3.125 3.046875 0.28125 7.03125 0.28125 C 8.59375 0.28125 10.15625 -0.25 11.140625 -1.59375 L 11.296875 0 L 14.515625 0 L 14.515625 -20.015625 Z M 7.859375 -2.84375 C 5.484375 -2.84375 4.40625 -4.703125 4.40625 -7.078125 C 4.40625 -9.4375 5.484375 -11.3125 7.859375 -11.3125 C 10.25 -11.3125 11.296875 -9.46875 11.296875 -7.078125 C 11.296875 -4.671875 10.25 -2.84375 7.859375 -2.84375 Z M 7.859375 -2.84375 "/></g></g></g><g fill="#151d42" fill-opacity="1"><g transform="translate(696.538663, 307.025016)"><g><path d="M 5.921875 0.28125 C 7.609375 0.28125 9.109375 -0.25 10.328125 -2.03125 L 10.5625 0 L 13.40625 0 L 13.40625 -8.578125 C 13.40625 -12.046875 11.140625 -14.453125 7.28125 -14.453125 C 4.484375 -14.453125 2.6875 -13.203125 1.328125 -11.34375 L 3.984375 -9.4375 C 4.59375 -10.46875 5.6875 -11.4375 7.3125 -11.4375 C 9.140625 -11.4375 10.109375 -10.25 10.109375 -8.4375 L 6.421875 -8.4375 C 3.25 -8.4375 0.78125 -7.421875 0.78125 -4.34375 C 0.78125 -1.390625 3.015625 0.28125 5.921875 0.28125 Z M 6.421875 -2.640625 C 5.078125 -2.640625 4.328125 -3.296875 4.328125 -4.234375 C 4.328125 -5.125 5.046875 -5.953125 6.609375 -5.953125 L 10.109375 -5.953125 C 10.046875 -4.171875 8.390625 -2.640625 6.421875 -2.640625 Z M 6.421875 -2.640625 "/></g></g></g><g clip-path="url(#f42e274cc9)"><path fill="#ffffff" d="M 928.28125 299.46875 L 928.28125 382.429688 C 928.28125 388.160156 923.640625 392.800781 917.910156 392.800781 L 552.371094 392.800781 C 546.644531 392.800781 542.003906 388.160156 542.003906 382.429688 L 542.003906 299.46875 C 542.003906 293.742188 546.644531 289.101562 552.371094 289.101562 L 917.910156 289.101562 C 923.640625 289.101562 928.28125 293.742188 928.28125 299.46875 Z M 928.28125 299.46875 " fill-opacity="1" fill-rule="nonzero"/><path fill="#b8b9bb" d="M 917.910156 289.101562 L 552.371094 289.101562 C 546.644531 289.101562 542.003906 293.742188 542.003906 299.46875 L 542.003906 382.429688 C 542.003906 388.160156 546.644531 392.800781 552.371094 392.800781 L 917.910156 392.800781 C 923.640625 392.800781 928.28125 388.160156 928.28125 382.429688 L 928.28125 299.46875 C 928.28125 293.742188 923.640625 289.101562 917.910156 289.101562 Z M 925.691406 382.429688 C 925.691406 386.707031 922.191406 390.207031 917.910156 390.207031 L 552.371094 390.207031 C 548.09375 390.207031 544.59375 386.707031 544.59375 382.429688 L 544.59375 299.46875 C 544.59375 295.191406 548.09375 291.691406 552.371094 291.691406 L 917.910156 291.691406 C 922.191406 291.691406 925.691406 295.191406 925.691406 299.46875 Z M 925.691406 382.429688 " fill-opacity="1" fill-rule="nonzero"/></g><path fill="#151d42" d="M 893.464844 343.648438 L 884.289062 352.824219 C 882.523438 354.585938 879.648438 354.585938 877.882812 352.824219 L 868.707031 343.648438 C 867.953125 342.894531 867.953125 341.648438 868.707031 340.898438 C 869.457031 340.148438 870.703125 340.148438 871.453125 340.898438 L 880.632812 350.074219 C 880.890625 350.335938 881.304688 350.335938 881.539062 350.074219 L 890.71875 340.898438 C 891.46875 340.148438 892.714844 340.148438 893.464844 340.898438 C 894.214844 341.648438 894.214844 342.894531 893.464844 343.648438 Z M 893.464844 343.648438 " fill-opacity="1" fill-rule="nonzero"/><g clip-path="url(#3209751b7b)"><path stroke-linecap="butt" transform="matrix(0.75, 0, 0, 0.75, 541.138225, 325.175778)" fill="none" stroke-linejoin="miter" d="M -0.00200886 0.00000416556 L -0.00200886 60.359378 L 517.341796 60.359378 L 517.341796 0.00000416556 L -0.00200886 0.00000416556 " stroke="#000000" stroke-width="6" stroke-opacity="1" stroke-miterlimit="4"/></g></svg>