<svg xmlns="http://www.w3.org/2000/svg" xmlns:xlink="http://www.w3.org/1999/xlink" width="1280" zoomAndPan="magnify" viewBox="0 0 960 599.999999" height="800" preserveAspectRatio="xMidYMid meet" version="1.0"><defs><g/><clipPath id="1b994d9541"><path d="M 22.910156 122 L 286 122 L 286 516.75 L 22.910156 516.75 Z M 22.910156 122 " clip-rule="nonzero"/></clipPath><clipPath id="29e958f963"><path d="M 289.085938 170 L 392 170 L 392 342.878906 L 289.085938 342.878906 Z M 289.085938 170 " clip-rule="nonzero"/></clipPath><clipPath id="94708ca00e"><path d="M 398 170 L 500.585938 170 L 500.585938 342.878906 L 398 342.878906 Z M 398 170 " clip-rule="nonzero"/></clipPath><clipPath id="92b670268f"><path d="M 517.324219 81.367188 L 944 81.367188 L 944 139.761719 L 517.324219 139.761719 Z M 517.324219 81.367188 " clip-rule="nonzero"/></clipPath><clipPath id="31ef006894"><path d="M 546.523438 81.367188 L 914.804688 81.367188 C 922.546875 81.367188 929.976562 84.441406 935.449219 89.917969 C 940.925781 95.394531 944.003906 102.820312 944.003906 110.566406 C 944.003906 118.308594 940.925781 125.734375 935.449219 131.210938 C 929.976562 136.6875 922.546875 139.761719 914.804688 139.761719 L 546.523438 139.761719 C 538.777344 139.761719 531.351562 136.6875 525.875 131.210938 C 520.398438 125.734375 517.324219 118.308594 517.324219 110.566406 C 517.324219 102.820312 520.398438 95.394531 525.875 89.917969 C 531.351562 84.441406 538.777344 81.367188 546.523438 81.367188 Z M 546.523438 81.367188 " clip-rule="nonzero"/></clipPath><clipPath id="5af0814fc0"><path d="M 517.324219 81.367188 L 944 81.367188 L 944 139.867188 L 517.324219 139.867188 Z M 517.324219 81.367188 " clip-rule="nonzero"/></clipPath><clipPath id="a9a8de027f"><path d="M 546.523438 81.367188 L 914.792969 81.367188 C 922.539062 81.367188 929.964844 84.441406 935.4375 89.917969 C 940.914062 95.394531 943.992188 102.820312 943.992188 110.5625 C 943.992188 118.308594 940.914062 125.734375 935.4375 131.210938 C 929.964844 136.683594 922.539062 139.761719 914.792969 139.761719 L 546.523438 139.761719 C 538.777344 139.761719 531.351562 136.683594 525.875 131.210938 C 520.402344 125.734375 517.324219 118.308594 517.324219 110.5625 C 517.324219 102.820312 520.402344 95.394531 525.875 89.917969 C 531.351562 84.441406 538.777344 81.367188 546.523438 81.367188 Z M 546.523438 81.367188 " clip-rule="nonzero"/></clipPath><clipPath id="9b8414aa27"><path d="M 542.039062 201.140625 L 928.25 201.140625 L 928.25 244.617188 L 542.039062 244.617188 Z M 542.039062 201.140625 " clip-rule="nonzero"/></clipPath><clipPath id="8fe3ef3543"><path d="M 541.136719 200.242188 L 928.886719 200.242188 L 928.886719 245.242188 L 541.136719 245.242188 Z M 541.136719 200.242188 " clip-rule="nonzero"/></clipPath><clipPath id="2481892d1b"><path d="M 542.039062 296.984375 L 928.25 296.984375 L 928.25 340.460938 L 542.039062 340.460938 Z M 542.039062 296.984375 " clip-rule="nonzero"/></clipPath><clipPath id="eeba1e2c0f"><path d="M 541.136719 296.085938 L 928.886719 296.085938 L 928.886719 341.085938 L 541.136719 341.085938 Z M 541.136719 296.085938 " clip-rule="nonzero"/></clipPath></defs><path fill="#36251e" d="M 88.867188 130.929688 C 36.398438 144.558594 50.453125 213.679688 50.453125 213.679688 C 50.453125 213.679688 40.160156 261.8125 45.859375 276.828125 C 51.035156 290.480469 75.011719 290.019531 121.90625 278.300781 C 159.089844 269.011719 182.101562 248.460938 188.503906 234.410156 C 194.902344 220.359375 160.320312 193.988281 160.320312 193.988281 C 160.320312 193.988281 141.703125 117.203125 88.867188 130.929688 Z M 88.867188 130.929688 " fill-opacity="1" fill-rule="evenodd"/><path fill="#ffb79f" d="M 134.394531 237.535156 L 100.921875 240.308594 C 100.921875 240.308594 106.445312 278.738281 102.65625 291.417969 C 99.636719 301.527344 83.144531 312.042969 83.144531 312.042969 C 106.773438 331.542969 130.09375 342.777344 151.734375 309.355469 L 134.21875 297.183594 C 131.28125 277.785156 134.296875 256.339844 134.394531 237.535156 Z M 134.394531 237.535156 " fill-opacity="1" fill-rule="evenodd"/><path fill="#dc7669" d="M 102.507812 253.511719 C 103.054688 258.839844 103.59375 265.15625 103.84375 271.25 C 108.4375 270.378906 112.949219 269.195312 117.25 267.328125 C 122.867188 264.886719 128.140625 261.277344 132.832031 255.664062 C 132.832031 255.664062 111.570312 246.179688 102.507812 253.511719 Z M 102.507812 253.511719 " fill-opacity="1" fill-rule="evenodd"/><path fill="#ffb79f" d="M 65.195312 205.613281 C 60.105469 186.601562 67.398438 153.023438 89.910156 146.800781 C 116.242188 139.519531 140.316406 177.144531 145.40625 196.15625 C 150.496094 215.167969 151.113281 256.582031 117.65625 261.386719 C 71.941406 267.957031 70.285156 224.625 65.195312 205.613281 Z M 65.195312 205.613281 " fill-opacity="1" fill-rule="evenodd"/><path fill="#36251e" d="M 102.335938 236.472656 C 104.667969 237.707031 106.921875 238.542969 109.117188 238.871094 C 110.824219 239.125 112.488281 239.078125 114.085938 238.707031 C 114.734375 238.558594 115.375 238.34375 115.992188 238.074219 C 116.886719 237.683594 117.753906 237.183594 118.578125 236.558594 C 120.285156 235.257812 121.84375 233.457031 123.257812 231.097656 C 123.441406 230.832031 123.371094 230.46875 123.101562 230.285156 C 122.832031 230.101562 122.46875 230.167969 122.289062 230.4375 C 121.011719 232.058594 119.6875 233.3125 118.324219 234.285156 C 117.414062 234.9375 116.488281 235.4375 115.542969 235.828125 C 114.890625 236.097656 114.222656 236.296875 113.554688 236.457031 C 112.203125 236.773438 110.816406 236.871094 109.359375 236.75 C 107.339844 236.578125 105.203125 236.050781 102.976562 235.125 C 102.605469 234.949219 102.152344 235.109375 101.980469 235.480469 C 101.804688 235.851562 101.960938 236.296875 102.335938 236.472656 Z M 102.335938 236.472656 " fill-opacity="1" fill-rule="evenodd"/><path fill="#36251e" d="M 104.726562 201.488281 C 105.636719 203.925781 106.132812 206.984375 106.425781 210.039062 C 106.644531 212.316406 106.730469 214.59375 106.75 216.625 C 106.757812 217.5625 106.757812 218.449219 106.75 219.257812 C 106.703125 220.988281 106.617188 222.351562 106.445312 223.085938 C 106.175781 224.300781 106.394531 225.117188 106.871094 225.660156 C 107.242188 226.089844 107.78125 226.375 108.421875 226.5 C 110.484375 226.894531 113.71875 225.726562 113.71875 225.726562 C 113.953125 225.648438 114.085938 225.398438 114.007812 225.164062 C 113.929688 224.929688 113.675781 224.804688 113.441406 224.878906 C 113.441406 224.878906 110.511719 225.730469 108.707031 225.25 C 108.316406 225.144531 107.996094 224.96875 107.851562 224.636719 C 107.71875 224.347656 107.753906 223.96875 107.902344 223.464844 C 108.1875 222.460938 108.457031 220.363281 108.507812 217.738281 C 108.535156 216.027344 108.464844 214.089844 108.285156 212.097656 C 107.917969 208.21875 107.113281 204.140625 105.785156 201.0625 C 105.664062 200.773438 105.335938 200.632812 105.046875 200.746094 C 104.753906 200.863281 104.613281 201.195312 104.726562 201.488281 Z M 104.726562 201.488281 " fill-opacity="1" fill-rule="evenodd"/><path fill="#36251e" d="M 93.207031 209.171875 C 93.289062 209.574219 93.347656 209.976562 93.378906 210.378906 C 93.410156 210.785156 93.417969 211.179688 93.398438 211.570312 C 93.378906 211.960938 93.332031 212.335938 93.261719 212.699219 C 93.191406 213.0625 93.097656 213.402344 92.980469 213.722656 C 92.859375 214.042969 92.71875 214.335938 92.558594 214.601562 C 92.394531 214.867188 92.214844 215.097656 92.015625 215.300781 C 91.816406 215.5 91.601562 215.667969 91.371094 215.792969 C 91.140625 215.921875 90.902344 216.011719 90.652344 216.066406 C 90.402344 216.117188 90.144531 216.128906 89.882812 216.101562 C 89.621094 216.070312 89.359375 216.003906 89.097656 215.898438 C 88.832031 215.792969 88.574219 215.648438 88.320312 215.46875 C 88.066406 215.289062 87.820312 215.074219 87.585938 214.828125 C 87.351562 214.582031 87.128906 214.304688 86.921875 214 C 86.710938 213.695312 86.523438 213.367188 86.351562 213.015625 C 86.175781 212.664062 86.027344 212.296875 85.894531 211.914062 C 85.765625 211.53125 85.660156 211.136719 85.578125 210.738281 C 85.496094 210.335938 85.4375 209.933594 85.40625 209.53125 C 85.371094 209.125 85.367188 208.730469 85.386719 208.339844 C 85.40625 207.949219 85.449219 207.570312 85.519531 207.210938 C 85.589844 206.847656 85.683594 206.507812 85.804688 206.1875 C 85.921875 205.867188 86.0625 205.574219 86.226562 205.308594 C 86.386719 205.042969 86.566406 204.808594 86.769531 204.609375 C 86.96875 204.40625 87.183594 204.242188 87.410156 204.113281 C 87.640625 203.984375 87.882812 203.894531 88.132812 203.84375 C 88.382812 203.792969 88.636719 203.78125 88.898438 203.808594 C 89.160156 203.835938 89.421875 203.90625 89.6875 204.011719 C 89.949219 204.117188 90.207031 204.261719 90.460938 204.441406 C 90.71875 204.621094 90.960938 204.835938 91.199219 205.082031 C 91.433594 205.328125 91.65625 205.605469 91.863281 205.910156 C 92.070312 206.214844 92.261719 206.542969 92.433594 206.894531 C 92.605469 207.246094 92.757812 207.613281 92.886719 207.996094 C 93.015625 208.378906 93.125 208.773438 93.207031 209.171875 Z M 93.207031 209.171875 " fill-opacity="1" fill-rule="nonzero"/><path fill="#36251e" d="M 127.09375 200.820312 C 127.175781 201.222656 127.230469 201.625 127.265625 202.027344 C 127.296875 202.429688 127.304688 202.828125 127.285156 203.21875 C 127.265625 203.609375 127.21875 203.984375 127.148438 204.347656 C 127.078125 204.707031 126.984375 205.050781 126.867188 205.371094 C 126.746094 205.691406 126.605469 205.984375 126.445312 206.25 C 126.28125 206.515625 126.101562 206.746094 125.902344 206.949219 C 125.703125 207.148438 125.488281 207.3125 125.257812 207.441406 C 125.027344 207.570312 124.789062 207.660156 124.539062 207.710938 C 124.289062 207.761719 124.03125 207.773438 123.769531 207.746094 C 123.507812 207.71875 123.246094 207.652344 122.980469 207.546875 C 122.71875 207.441406 122.460938 207.296875 122.207031 207.117188 C 121.953125 206.9375 121.707031 206.722656 121.472656 206.476562 C 121.234375 206.226562 121.015625 205.953125 120.804688 205.648438 C 120.597656 205.34375 120.40625 205.015625 120.234375 204.664062 C 120.0625 204.3125 119.914062 203.945312 119.78125 203.5625 C 119.652344 203.175781 119.546875 202.785156 119.464844 202.382812 C 119.378906 201.984375 119.324219 201.582031 119.289062 201.175781 C 119.257812 200.773438 119.253906 200.375 119.269531 199.988281 C 119.289062 199.597656 119.335938 199.21875 119.40625 198.859375 C 119.476562 198.496094 119.570312 198.15625 119.691406 197.835938 C 119.808594 197.515625 119.949219 197.222656 120.109375 196.957031 C 120.273438 196.691406 120.453125 196.457031 120.652344 196.257812 C 120.855469 196.054688 121.066406 195.890625 121.296875 195.761719 C 121.527344 195.632812 121.765625 195.542969 122.019531 195.492188 C 122.269531 195.441406 122.523438 195.429688 122.785156 195.457031 C 123.046875 195.484375 123.308594 195.550781 123.574219 195.660156 C 123.835938 195.765625 124.09375 195.90625 124.347656 196.085938 C 124.601562 196.269531 124.847656 196.480469 125.082031 196.730469 C 125.320312 196.976562 125.542969 197.253906 125.75 197.558594 C 125.957031 197.863281 126.148438 198.191406 126.320312 198.542969 C 126.492188 198.894531 126.644531 199.261719 126.773438 199.644531 C 126.902344 200.027344 127.007812 200.417969 127.09375 200.820312 Z M 127.09375 200.820312 " fill-opacity="1" fill-rule="nonzero"/><path fill="#36251e" d="M 113.617188 192.910156 C 114.964844 191.636719 116.382812 190.652344 117.847656 189.875 C 118.847656 189.347656 119.875 188.953125 120.941406 188.660156 C 121.472656 188.515625 122.011719 188.382812 122.5625 188.285156 C 123.371094 188.144531 124.199219 188.050781 125.074219 188.042969 C 126.441406 188.035156 127.878906 188.164062 129.417969 188.539062 C 129.757812 188.652344 130.132812 188.46875 130.246094 188.128906 C 130.367188 187.785156 130.183594 187.414062 129.835938 187.296875 C 127.886719 186.433594 126.03125 185.945312 124.242188 185.804688 C 123.421875 185.738281 122.621094 185.761719 121.839844 185.851562 C 121.308594 185.914062 120.777344 186.015625 120.265625 186.160156 C 118.984375 186.515625 117.765625 187.074219 116.628906 187.816406 C 115.085938 188.828125 113.695312 190.171875 112.398438 191.773438 C 112.085938 192.113281 112.101562 192.640625 112.441406 192.953125 C 112.78125 193.265625 113.3125 193.246094 113.617188 192.910156 Z M 113.617188 192.910156 " fill-opacity="1" fill-rule="evenodd"/><path fill="#36251e" d="M 78.726562 202.363281 C 80.078125 201.089844 81.496094 200.105469 82.957031 199.332031 C 83.957031 198.800781 84.984375 198.40625 86.054688 198.113281 C 86.585938 197.96875 87.125 197.835938 87.671875 197.742188 C 88.480469 197.601562 89.308594 197.503906 90.1875 197.5 C 91.550781 197.488281 92.988281 197.617188 94.527344 197.992188 C 94.867188 198.109375 95.242188 197.925781 95.355469 197.582031 C 95.476562 197.242188 95.292969 196.867188 94.945312 196.75 C 92.996094 195.886719 91.144531 195.398438 89.351562 195.257812 C 88.535156 195.191406 87.734375 195.214844 86.949219 195.304688 C 86.417969 195.367188 85.886719 195.472656 85.375 195.613281 C 84.097656 195.96875 82.878906 196.53125 81.738281 197.269531 C 80.199219 198.28125 78.804688 199.625 77.507812 201.226562 C 77.195312 201.566406 77.214844 202.097656 77.554688 202.410156 C 77.890625 202.722656 78.421875 202.703125 78.726562 202.363281 Z M 78.726562 202.363281 " fill-opacity="1" fill-rule="evenodd"/><path fill="#ffb79f" d="M 249.023438 354.261719 L 276.597656 335.539062 L 292.289062 296.941406 C 303.644531 298.648438 299.21875 315.265625 296.625 331.191406 C 329.851562 339.257812 351.277344 349.753906 356.558594 369.257812 C 357.382812 372.300781 351.628906 373.960938 351.628906 373.960938 C 351.628906 373.960938 356.574219 379.859375 352.074219 385.40625 C 350.835938 386.933594 343.996094 384.367188 340.417969 382.300781 C 325.859375 373.890625 319.761719 369.65625 302.902344 366.949219 C 289.929688 364.867188 281.410156 372.65625 255.222656 371.03125 Z M 249.023438 354.261719 " fill-opacity="1" fill-rule="evenodd"/><path fill="#ffb79f" d="M 228.652344 129.625 C 228.652344 129.625 232.613281 104.285156 232.121094 96.75 C 231.824219 92.269531 225.703125 84.433594 225.703125 84.433594 C 235.207031 75.746094 242.527344 95.480469 249.636719 96.316406 C 256.746094 97.15625 262 91.378906 268.367188 89.464844 C 288.847656 83.304688 308.515625 81.8125 327.246094 92.675781 C 332.753906 95.867188 330.21875 103.414062 324.644531 102.5625 C 327.132812 105.550781 326.308594 108.675781 322.5625 108.894531 C 308.664062 104.910156 289.515625 107.398438 281.546875 112.972656 C 270.804688 120.480469 249.445312 123.671875 247.296875 130.582031 Z M 228.652344 129.625 " fill-opacity="1" fill-rule="evenodd"/><g clip-path="url(#1b994d9541)"><path fill="#ee8a4c" d="M 140.808594 311.957031 C 146.074219 310.792969 134.21875 297.183594 134.21875 297.183594 L 158.933594 292.265625 C 158.933594 292.265625 193.152344 238.863281 203.503906 212.550781 C 212.203125 190.449219 212.417969 156.203125 220.847656 123.726562 C 234.808594 120.445312 247.617188 123.0625 259 132.921875 C 259 132.921875 247.832031 212.738281 238.015625 245.859375 C 228.210938 278.960938 192.230469 344.832031 192.230469 344.832031 C 195.5625 363.464844 194.539062 369.945312 194.140625 379.355469 L 267.5 338.585938 C 280.394531 347.246094 284.964844 358.988281 285.449219 372.242188 C 258.601562 392.730469 207.050781 429.777344 186.769531 438.601562 L 198.820312 515.886719 L 22.964844 516.753906 C 30.796875 479.679688 61.804688 451.550781 67.277344 432.007812 C 69.644531 423.558594 71.871094 400.519531 71.871094 400.519531 C 71.871094 400.519531 37.707031 340.652344 61.03125 314.820312 C 67.648438 307.488281 89.5625 307.445312 89.5625 307.445312 C 89.5625 307.445312 114.640625 317.742188 140.808594 311.957031 Z M 140.808594 311.957031 " fill-opacity="1" fill-rule="evenodd"/></g><path fill="#36251e" d="M 324.957031 102.1875 C 322.355469 99.917969 319.605469 98.1875 316.71875 96.957031 C 314.691406 96.09375 312.601562 95.472656 310.449219 95.078125 C 309.589844 94.917969 308.722656 94.800781 307.855469 94.71875 C 306.5625 94.597656 305.265625 94.550781 303.9375 94.574219 C 300.804688 94.628906 297.589844 95.0625 294.3125 95.765625 C 294.105469 95.804688 293.964844 96.003906 294.007812 96.214844 C 294.042969 96.421875 294.242188 96.558594 294.449219 96.523438 C 297.695312 96.023438 300.859375 95.808594 303.929688 95.90625 C 305.203125 95.945312 306.460938 96.042969 307.691406 96.191406 C 308.523438 96.292969 309.355469 96.417969 310.171875 96.566406 C 312.226562 96.941406 314.230469 97.492188 316.191406 98.253906 C 319.007812 99.351562 321.730469 100.867188 324.332031 102.9375 C 324.539062 103.113281 324.84375 103.082031 325.015625 102.875 C 325.191406 102.667969 325.164062 102.359375 324.957031 102.1875 Z M 324.957031 102.1875 " fill-opacity="1" fill-rule="evenodd"/><path fill="#36251e" d="M 330.507812 98.199219 C 327.984375 95.992188 325.441406 94.132812 322.816406 92.675781 C 320.914062 91.625 318.964844 90.777344 316.96875 90.15625 C 316.15625 89.902344 315.324219 89.691406 314.488281 89.519531 C 313.25 89.265625 311.984375 89.09375 310.691406 89.007812 C 307.691406 88.808594 304.5625 89.070312 301.25 89.78125 C 301.039062 89.820312 300.902344 90.019531 300.945312 90.230469 C 300.980469 90.4375 301.179688 90.574219 301.386719 90.535156 C 304.628906 90.039062 307.675781 89.996094 310.570312 90.335938 C 311.792969 90.476562 312.988281 90.691406 314.167969 90.96875 C 314.957031 91.152344 315.746094 91.367188 316.519531 91.605469 C 318.4375 92.195312 320.308594 92.964844 322.15625 93.910156 C 324.765625 95.246094 327.332031 96.914062 329.882812 98.949219 C 330.089844 99.121094 330.394531 99.09375 330.566406 98.886719 C 330.742188 98.679688 330.714844 98.371094 330.507812 98.199219 Z M 330.507812 98.199219 " fill-opacity="1" fill-rule="evenodd"/><path fill="#36251e" d="M 179.691406 327.050781 C 183.351562 331.207031 186.265625 335.804688 188.484375 340.78125 C 189.941406 344.042969 191.078125 347.46875 191.917969 351.070312 C 192.238281 352.464844 192.535156 353.890625 192.777344 355.335938 C 193.125 357.445312 193.394531 359.605469 193.539062 361.824219 C 193.90625 367.003906 193.714844 372.484375 192.839844 378.273438 C 192.769531 378.652344 193.027344 379.027344 193.402344 379.097656 C 193.785156 379.164062 194.15625 378.90625 194.226562 378.53125 C 195.484375 372.652344 196.074219 367.046875 195.976562 361.722656 C 195.933594 359.398438 195.761719 357.132812 195.449219 354.921875 C 195.242188 353.402344 194.964844 351.902344 194.617188 350.4375 C 193.730469 346.664062 192.449219 343.082031 190.808594 339.707031 C 188.320312 334.597656 185.007812 329.984375 181.011719 325.835938 C 180.671875 325.472656 180.109375 325.453125 179.746094 325.785156 C 179.378906 326.121094 179.363281 326.6875 179.691406 327.050781 Z M 179.691406 327.050781 " fill-opacity="1" fill-rule="evenodd"/><path fill="#36251e" d="M 90.011719 405.734375 C 90.011719 405.734375 103.0625 412.875 119.296875 420.800781 C 125.652344 423.898438 132.484375 427.125 139.214844 430.082031 C 146.402344 433.238281 153.46875 436.101562 159.695312 438.21875 C 165.382812 440.144531 170.378906 441.429688 174.144531 441.820312 C 180.125 442.417969 188.242188 439.425781 196.195312 435.164062 C 210.476562 427.515625 224.324219 415.988281 224.324219 415.988281 C 224.628906 415.746094 224.671875 415.300781 224.429688 415 C 224.1875 414.695312 223.742188 414.652344 223.441406 414.894531 C 223.441406 414.894531 209.445312 425.929688 195.171875 433.1875 C 187.628906 437.023438 180.023438 439.859375 174.421875 439.199219 C 170.820312 438.792969 166.042969 437.457031 160.589844 435.589844 C 154.433594 433.484375 147.425781 430.691406 140.28125 427.621094 C 133.550781 424.738281 126.703125 421.625 120.335938 418.640625 C 104.015625 410.992188 90.84375 404.15625 90.84375 404.15625 C 90.410156 403.921875 89.875 404.085938 89.640625 404.527344 C 89.40625 404.960938 89.570312 405.5 90.011719 405.734375 Z M 90.011719 405.734375 " fill-opacity="1" fill-rule="evenodd"/><path fill="#36251e" d="M 121.082031 345.007812 C 121.082031 345.007812 138.375 359.429688 153.410156 371.851562 C 164.882812 381.324219 175.054688 389.625 175.054688 389.625 C 175.488281 389.980469 176.09375 390.042969 176.589844 389.773438 C 176.589844 389.773438 187.914062 383.605469 200.722656 376.535156 C 217.484375 367.273438 236.785156 356.464844 236.785156 356.464844 C 237.132812 356.28125 237.253906 355.859375 237.070312 355.519531 C 236.890625 355.171875 236.464844 355.050781 236.125 355.234375 C 236.125 355.234375 216.503906 365.453125 199.558594 374.402344 C 188.683594 380.144531 178.914062 385.375 176.085938 386.894531 C 173.578125 384.847656 164.804688 377.726562 155.023438 369.859375 C 139.828125 357.636719 122.210938 343.617188 122.210938 343.617188 C 121.828125 343.304688 121.265625 343.367188 120.953125 343.75 C 120.640625 344.128906 120.699219 344.695312 121.082031 345.007812 Z M 121.082031 345.007812 " fill-opacity="1" fill-rule="evenodd"/><path fill="#ffb79f" d="M 76.742188 217.1875 C 77.046875 218.097656 77.273438 219.027344 77.421875 219.972656 C 77.570312 220.921875 77.632812 221.867188 77.617188 222.808594 C 77.597656 223.753906 77.5 224.679688 77.316406 225.582031 C 77.136719 226.488281 76.875 227.355469 76.535156 228.1875 C 76.199219 229.019531 75.785156 229.800781 75.304688 230.527344 C 74.820312 231.253906 74.277344 231.910156 73.667969 232.503906 C 73.058594 233.097656 72.398438 233.613281 71.6875 234.050781 C 70.980469 234.484375 70.230469 234.835938 69.445312 235.101562 C 68.660156 235.363281 67.851562 235.535156 67.023438 235.617188 C 66.191406 235.695312 65.355469 235.683594 64.511719 235.578125 C 63.671875 235.472656 62.835938 235.277344 62.015625 234.988281 C 61.191406 234.703125 60.394531 234.328125 59.621094 233.871094 C 58.851562 233.410156 58.117188 232.875 57.425781 232.265625 C 56.738281 231.652344 56.097656 230.972656 55.515625 230.230469 C 54.933594 229.488281 54.414062 228.699219 53.960938 227.855469 C 53.507812 227.011719 53.125 226.132812 52.820312 225.21875 C 52.515625 224.308594 52.289062 223.378906 52.140625 222.433594 C 51.992188 221.484375 51.929688 220.539062 51.945312 219.597656 C 51.964844 218.652344 52.0625 217.726562 52.246094 216.824219 C 52.425781 215.917969 52.6875 215.046875 53.027344 214.21875 C 53.363281 213.386719 53.773438 212.605469 54.257812 211.878906 C 54.742188 211.152344 55.285156 210.496094 55.894531 209.902344 C 56.503906 209.308594 57.164062 208.792969 57.871094 208.355469 C 58.582031 207.921875 59.332031 207.570312 60.117188 207.304688 C 60.902344 207.042969 61.710938 206.871094 62.539062 206.789062 C 63.371094 206.710938 64.207031 206.722656 65.050781 206.828125 C 65.890625 206.933594 66.726562 207.128906 67.546875 207.417969 C 68.371094 207.703125 69.167969 208.078125 69.941406 208.535156 C 70.710938 208.996094 71.445312 209.53125 72.132812 210.140625 C 72.824219 210.753906 73.460938 211.433594 74.046875 212.171875 C 74.628906 212.914062 75.148438 213.707031 75.601562 214.550781 C 76.054688 215.394531 76.433594 216.273438 76.742188 217.1875 Z M 76.742188 217.1875 " fill-opacity="1" fill-rule="nonzero"/><path fill="#ffb79f" d="M 160.230469 201.839844 C 160.386719 202.789062 160.460938 203.742188 160.453125 204.699219 C 160.445312 205.660156 160.359375 206.601562 160.191406 207.53125 C 160.023438 208.460938 159.773438 209.355469 159.449219 210.222656 C 159.125 211.085938 158.730469 211.902344 158.261719 212.667969 C 157.792969 213.433594 157.265625 214.136719 156.671875 214.777344 C 156.078125 215.414062 155.433594 215.980469 154.738281 216.464844 C 154.042969 216.953125 153.308594 217.355469 152.539062 217.671875 C 151.765625 217.992188 150.972656 218.214844 150.15625 218.351562 C 149.335938 218.484375 148.511719 218.527344 147.679688 218.472656 C 146.847656 218.417969 146.023438 218.273438 145.210938 218.03125 C 144.394531 217.792969 143.605469 217.464844 142.835938 217.050781 C 142.070312 216.632812 141.34375 216.136719 140.65625 215.558594 C 139.96875 214.984375 139.332031 214.335938 138.746094 213.621094 C 138.164062 212.90625 137.644531 212.136719 137.1875 211.3125 C 136.730469 210.484375 136.34375 209.617188 136.03125 208.714844 C 135.71875 207.808594 135.484375 206.878906 135.328125 205.929688 C 135.171875 204.980469 135.097656 204.027344 135.105469 203.070312 C 135.113281 202.113281 135.199219 201.167969 135.367188 200.238281 C 135.535156 199.308594 135.785156 198.414062 136.109375 197.550781 C 136.433594 196.683594 136.828125 195.871094 137.296875 195.101562 C 137.765625 194.335938 138.292969 193.632812 138.886719 192.996094 C 139.480469 192.355469 140.125 191.792969 140.820312 191.304688 C 141.515625 190.816406 142.25 190.414062 143.019531 190.097656 C 143.792969 189.78125 144.585938 189.554688 145.402344 189.417969 C 146.222656 189.285156 147.046875 189.246094 147.878906 189.296875 C 148.710938 189.351562 149.535156 189.5 150.347656 189.738281 C 151.164062 189.976562 151.953125 190.304688 152.722656 190.722656 C 153.488281 191.136719 154.214844 191.632812 154.902344 192.210938 C 155.589844 192.785156 156.226562 193.433594 156.8125 194.148438 C 157.394531 194.863281 157.914062 195.632812 158.371094 196.460938 C 158.828125 197.285156 159.214844 198.152344 159.527344 199.058594 C 159.839844 199.960938 160.074219 200.890625 160.230469 201.839844 Z M 160.230469 201.839844 " fill-opacity="1" fill-rule="nonzero"/><path fill="#36251e" d="M 57.390625 201.449219 C 57.390625 201.449219 66.417969 225.027344 68.367188 220.039062 C 70.320312 215.050781 65.984375 187.835938 69.097656 171.523438 C 87.914062 183.980469 109.617188 187.550781 134.738281 180.542969 C 134.738281 180.542969 142.222656 205.222656 144.105469 205.960938 C 145.988281 206.695312 146.011719 184.96875 146.011719 184.96875 C 146.011719 184.96875 131.75 134.867188 102.742188 140.46875 C 99.570312 141.082031 96.046875 134.652344 93.222656 135.285156 C 70.222656 140.449219 56.515625 159.535156 57.390625 201.449219 Z M 57.390625 201.449219 " fill-opacity="1" fill-rule="evenodd"/><g clip-path="url(#29e958f963)"><path fill="#750971" d="M 389.632812 225.632812 L 294.347656 170.558594 C 293.75 170.199219 293.152344 170.078125 292.671875 170.078125 C 291.835938 170.078125 291.238281 170.320312 290.878906 170.558594 C 290.28125 170.796875 289.085938 171.753906 289.085938 173.550781 L 289.085938 283.816406 C 289.085938 285.015625 289.804688 286.210938 290.878906 286.8125 L 386.167969 341.882812 C 387.722656 342.84375 389.15625 342.242188 389.632812 341.882812 C 390.113281 341.523438 391.429688 340.6875 391.429688 338.890625 L 391.429688 228.625 C 391.308594 227.425781 390.710938 226.230469 389.632812 225.632812 Z M 389.632812 225.632812 " fill-opacity="1" fill-rule="nonzero"/></g><g clip-path="url(#94708ca00e)"><path fill="#8c2088" d="M 500.585938 283.816406 L 500.585938 173.550781 C 500.585938 171.753906 499.390625 170.796875 498.792969 170.558594 C 498.433594 170.320312 497.835938 170.078125 497 170.078125 C 496.519531 170.078125 495.921875 170.199219 495.324219 170.558594 L 400.035156 225.632812 C 398.960938 226.230469 398.242188 227.425781 398.242188 228.625 L 398.242188 338.890625 C 398.242188 340.6875 399.4375 341.644531 400.035156 341.882812 C 400.515625 342.242188 401.949219 342.84375 403.503906 341.882812 L 498.792969 286.8125 C 499.867188 286.210938 500.585938 285.015625 500.585938 283.816406 Z M 500.585938 283.816406 " fill-opacity="1" fill-rule="nonzero"/></g><path fill="#a2369e" d="M 396.570312 219.644531 L 491.859375 164.570312 C 493.410156 163.613281 493.652344 162.175781 493.652344 161.578125 C 493.652344 160.980469 493.53125 159.425781 491.859375 158.585938 L 396.570312 103.511719 C 395.492188 102.914062 394.179688 102.914062 393.101562 103.511719 L 297.8125 158.585938 C 296.257812 159.542969 296.019531 160.980469 296.019531 161.578125 C 296.019531 162.175781 296.140625 163.734375 297.8125 164.570312 L 393.101562 219.644531 C 394.179688 220.242188 395.492188 220.242188 396.570312 219.644531 Z M 396.570312 219.644531 " fill-opacity="1" fill-rule="nonzero"/><path fill="#ffffff" d="M 315.746094 223.835938 C 316.226562 214.019531 321.964844 201.445312 340.855469 212.582031 C 359.027344 223.238281 364.648438 240.238281 364.648438 250.535156 C 364.648438 259.273438 362.253906 263.703125 353.886719 267.773438 C 348.625 270.410156 346.953125 273.761719 346.953125 279.628906 L 346.953125 280.945312 L 332.125 272.324219 L 332.125 270.050781 C 332.125 261.789062 334.757812 256.761719 343.484375 252.808594 C 348.863281 250.296875 350.179688 246.703125 350.179688 241.675781 C 350.179688 236.167969 347.3125 229.222656 340.617188 225.390625 C 333.441406 221.203125 330.574219 225.152344 329.855469 231.976562 Z M 332.007812 295.550781 L 346.832031 304.171875 L 346.832031 288.605469 L 332.007812 279.988281 Z M 439.011719 243.949219 C 439.847656 236.167969 442.597656 228.984375 449.773438 224.792969 C 456.46875 220.960938 459.335938 224.433594 459.335938 230.0625 C 459.335938 234.96875 458.023438 240.238281 452.640625 248.976562 C 443.914062 262.984375 441.285156 271.128906 441.285156 279.386719 L 441.285156 281.664062 L 456.109375 273.042969 L 456.109375 271.726562 C 456.109375 265.980469 457.785156 260.472656 463.042969 251.851562 C 471.414062 238.082031 473.804688 230.78125 473.804688 222.160156 C 473.804688 211.863281 468.183594 201.207031 450.011719 211.625 C 431.003906 222.519531 425.382812 241.554688 424.90625 251.972656 Z M 441.285156 305.007812 L 456.109375 296.390625 L 456.109375 280.824219 L 441.285156 289.445312 Z M 400.277344 146.375 C 407.449219 143.140625 414.980469 142.0625 422.15625 146.132812 C 428.851562 149.964844 427.175781 154.277344 422.394531 157.03125 C 418.089844 159.542969 412.949219 160.980469 402.667969 160.621094 C 386.167969 160.023438 377.917969 161.820312 370.746094 166.007812 L 368.710938 167.207031 L 383.539062 175.824219 L 384.613281 175.226562 C 389.632812 172.355469 395.132812 171.15625 405.175781 171.277344 C 421.199219 171.636719 428.730469 170.078125 436.261719 165.769531 C 445.109375 160.621094 451.566406 150.445312 433.511719 139.910156 C 414.621094 128.894531 395.253906 133.5625 386.046875 138.234375 Z M 348.507812 178.820312 L 363.332031 187.441406 L 376.84375 179.65625 L 362.015625 171.039062 Z M 348.507812 178.820312 " fill-opacity="1" fill-rule="nonzero"/><g clip-path="url(#92b670268f)"><g clip-path="url(#31ef006894)"><path fill="#151d42" d="M 517.324219 81.367188 L 943.890625 81.367188 L 943.890625 139.761719 L 517.324219 139.761719 Z M 517.324219 81.367188 " fill-opacity="1" fill-rule="nonzero"/></g></g><g clip-path="url(#5af0814fc0)"><g clip-path="url(#a9a8de027f)"><path stroke-linecap="butt" transform="matrix(0.75, 0, 0, 0.75, 517.32485, 81.366681)" fill="none" stroke-linejoin="miter" d="M 38.931454 0.000674896 L 529.957548 0.000674896 C 540.285674 0.000674896 550.186716 4.099634 557.483592 11.401718 C 564.785676 18.703802 568.889843 28.604845 568.889843 38.927762 C 568.889843 49.255888 564.785676 59.156931 557.483592 66.459015 C 550.186716 73.755891 540.285674 77.860058 529.957548 77.860058 L 38.931454 77.860058 C 28.603328 77.860058 18.702285 73.755891 11.400201 66.459015 C 4.103325 59.156931 -0.00084221 49.255888 -0.00084221 38.927762 C -0.00084221 28.604845 4.103325 18.703802 11.400201 11.401718 C 18.702285 4.099634 28.603328 0.000674896 38.931454 0.000674896 Z M 38.931454 0.000674896 " stroke="#faf8f4" stroke-width="2" stroke-opacity="1" stroke-miterlimit="4"/></g></g><g clip-path="url(#9b8414aa27)"><path fill="#ffffff" d="M 928.28125 174.535156 L 928.28125 257.496094 C 928.28125 263.222656 923.640625 267.863281 917.910156 267.863281 L 552.371094 267.863281 C 546.644531 267.863281 542.003906 263.222656 542.003906 257.496094 L 542.003906 174.535156 C 542.003906 168.804688 546.644531 164.164062 552.371094 164.164062 L 917.910156 164.164062 C 923.640625 164.164062 928.28125 168.804688 928.28125 174.535156 Z M 928.28125 174.535156 " fill-opacity="1" fill-rule="nonzero"/><path fill="#b8b9bb" d="M 917.910156 164.164062 L 552.371094 164.164062 C 546.644531 164.164062 542.003906 168.804688 542.003906 174.535156 L 542.003906 257.496094 C 542.003906 263.222656 546.644531 267.863281 552.371094 267.863281 L 917.910156 267.863281 C 923.640625 267.863281 928.28125 263.222656 928.28125 257.496094 L 928.28125 174.535156 C 928.28125 168.804688 923.640625 164.164062 917.910156 164.164062 Z M 925.691406 257.496094 C 925.691406 261.773438 922.191406 265.273438 917.910156 265.273438 L 552.371094 265.273438 C 548.09375 265.273438 544.59375 261.773438 544.59375 257.496094 L 544.59375 174.535156 C 544.59375 170.257812 548.09375 166.757812 552.371094 166.757812 L 917.910156 166.757812 C 922.191406 166.757812 925.691406 170.257812 925.691406 174.535156 Z M 925.691406 257.496094 " fill-opacity="1" fill-rule="nonzero"/></g><path fill="#151d42" d="M 893.464844 218.710938 L 884.289062 227.886719 C 882.523438 229.652344 879.648438 229.652344 877.882812 227.886719 L 868.707031 218.710938 C 867.953125 217.960938 867.953125 216.714844 868.707031 215.964844 C 869.457031 215.210938 870.703125 215.210938 871.453125 215.964844 L 880.632812 225.140625 C 880.890625 225.398438 881.304688 225.398438 881.539062 225.140625 L 890.71875 215.964844 C 891.46875 215.210938 892.714844 215.210938 893.464844 215.964844 C 894.214844 216.714844 894.214844 217.960938 893.464844 218.710938 Z M 893.464844 218.710938 " fill-opacity="1" fill-rule="nonzero"/><g clip-path="url(#8fe3ef3543)"><path stroke-linecap="butt" transform="matrix(0.75, 0, 0, 0.75, 541.138225, 200.240373)" fill="none" stroke-linejoin="miter" d="M -0.00200886 0.00241926 L -0.00200886 60.361793 L 517.341796 60.361793 L 517.341796 0.00241926 L -0.00200886 0.00241926 " stroke="#000000" stroke-width="6" stroke-opacity="1" stroke-miterlimit="4"/></g><g clip-path="url(#2481892d1b)"><path fill="#ffffff" d="M 928.28125 270.378906 L 928.28125 353.339844 C 928.28125 359.066406 923.640625 363.707031 917.910156 363.707031 L 552.371094 363.707031 C 546.644531 363.707031 542.003906 359.066406 542.003906 353.339844 L 542.003906 270.378906 C 542.003906 264.648438 546.644531 260.007812 552.371094 260.007812 L 917.910156 260.007812 C 923.640625 260.007812 928.28125 264.648438 928.28125 270.378906 Z M 928.28125 270.378906 " fill-opacity="1" fill-rule="nonzero"/><path fill="#b8b9bb" d="M 917.910156 260.007812 L 552.371094 260.007812 C 546.644531 260.007812 542.003906 264.648438 542.003906 270.378906 L 542.003906 353.339844 C 542.003906 359.066406 546.644531 363.707031 552.371094 363.707031 L 917.910156 363.707031 C 923.640625 363.707031 928.28125 359.066406 928.28125 353.339844 L 928.28125 270.378906 C 928.28125 264.648438 923.640625 260.007812 917.910156 260.007812 Z M 925.691406 353.339844 C 925.691406 357.617188 922.191406 361.117188 917.910156 361.117188 L 552.371094 361.117188 C 548.09375 361.117188 544.59375 357.617188 544.59375 353.339844 L 544.59375 270.378906 C 544.59375 266.101562 548.09375 262.601562 552.371094 262.601562 L 917.910156 262.601562 C 922.191406 262.601562 925.691406 266.101562 925.691406 270.378906 Z M 925.691406 353.339844 " fill-opacity="1" fill-rule="nonzero"/></g><path fill="#151d42" d="M 893.464844 314.554688 L 884.289062 323.734375 C 882.523438 325.496094 879.648438 325.496094 877.882812 323.734375 L 868.707031 314.554688 C 867.953125 313.804688 867.953125 312.558594 868.707031 311.808594 C 869.457031 311.054688 870.703125 311.054688 871.453125 311.808594 L 880.632812 320.984375 C 880.890625 321.242188 881.304688 321.242188 881.539062 320.984375 L 890.71875 311.808594 C 891.46875 311.054688 892.714844 311.054688 893.464844 311.808594 C 894.214844 312.558594 894.214844 313.804688 893.464844 314.554688 Z M 893.464844 314.554688 " fill-opacity="1" fill-rule="nonzero"/><g clip-path="url(#eeba1e2c0f)"><path stroke-linecap="butt" transform="matrix(0.75, 0, 0, 0.75, 541.138225, 296.084393)" fill="none" stroke-linejoin="miter" d="M -0.00200886 0.00205938 L -0.00200886 60.361433 L 517.341796 60.361433 L 517.341796 0.00205938 L -0.00200886 0.00205938 " stroke="#000000" stroke-width="6" stroke-opacity="1" stroke-miterlimit="4"/></g><g fill="#ffffff" fill-opacity="1"><g transform="translate(565.820135, 121.064801)"><g><path d="M 10.59375 0.296875 C 15.46875 0.296875 19.46875 -2.625 19.46875 -7.453125 C 19.46875 -15.921875 7.109375 -14.296875 7.109375 -19.109375 C 7.109375 -20.734375 8.515625 -21.828125 10.3125 -21.828125 C 12.03125 -21.828125 13.5625 -20.84375 14.4375 -19.109375 L 18.25 -21.4375 C 16.5 -24.546875 13.625 -25.921875 10.484375 -25.921875 C 6.1875 -25.921875 2.515625 -23.390625 2.515625 -18.875 C 2.515625 -10.5625 14.875 -12.328125 14.875 -7.03125 C 14.875 -5.21875 13.390625 -3.78125 10.65625 -3.78125 C 7.953125 -3.78125 5.6875 -5.1875 5.375 -8.375 L 0.8125 -7.21875 C 1.625 -2.1875 6.078125 0.296875 10.59375 0.296875 Z M 10.59375 0.296875 "/></g></g></g><g fill="#ffffff" fill-opacity="1"><g transform="translate(584.44119, 121.064801)"><g><path d="M 10.140625 0.359375 C 13.171875 0.359375 15.578125 -0.703125 17.546875 -2.890625 L 14.515625 -5.546875 C 13.25 -4.140625 11.796875 -3.640625 10.171875 -3.640625 C 7.34375 -3.640625 6.03125 -5.21875 5.65625 -7.59375 L 18.0625 -7.59375 C 18.140625 -7.84375 18.21875 -8.578125 18.21875 -9.328125 C 18.21875 -13.359375 16.171875 -18.4375 9.84375 -18.4375 C 3.734375 -18.4375 1 -13.65625 1 -8.96875 C 1 -4.109375 3.921875 0.359375 10.140625 0.359375 Z M 5.65625 -10.765625 C 6.078125 -13.03125 7.21875 -14.734375 9.8125 -14.734375 C 12.109375 -14.734375 13.59375 -13.359375 13.875 -10.765625 Z M 5.65625 -10.765625 "/></g></g></g><g fill="#ffffff" fill-opacity="1"><g transform="translate(601.797329, 121.064801)"><g><path d="M 6.296875 0.359375 C 7.34375 0.359375 8.65625 0.1875 9.578125 0 L 9.578125 -3.703125 C 9.109375 -3.640625 8.625 -3.59375 8.375 -3.59375 C 7.484375 -3.59375 6.921875 -3.953125 6.921875 -4.8125 L 6.921875 -25.53125 L 2.515625 -25.53125 L 2.515625 -3.59375 C 2.515625 -0.421875 4.21875 0.359375 6.296875 0.359375 Z M 6.296875 0.359375 "/></g></g></g><g fill="#ffffff" fill-opacity="1"><g transform="translate(610.22678, 121.064801)"><g><path d="M 10.140625 0.359375 C 13.171875 0.359375 15.578125 -0.703125 17.546875 -2.890625 L 14.515625 -5.546875 C 13.25 -4.140625 11.796875 -3.640625 10.171875 -3.640625 C 7.34375 -3.640625 6.03125 -5.21875 5.65625 -7.59375 L 18.0625 -7.59375 C 18.140625 -7.84375 18.21875 -8.578125 18.21875 -9.328125 C 18.21875 -13.359375 16.171875 -18.4375 9.84375 -18.4375 C 3.734375 -18.4375 1 -13.65625 1 -8.96875 C 1 -4.109375 3.921875 0.359375 10.140625 0.359375 Z M 5.65625 -10.765625 C 6.078125 -13.03125 7.21875 -14.734375 9.8125 -14.734375 C 12.109375 -14.734375 13.59375 -13.359375 13.875 -10.765625 Z M 5.65625 -10.765625 "/></g></g></g><g fill="#ffffff" fill-opacity="1"><g transform="translate(627.582918, 121.064801)"><g><path d="M 9.78125 0.359375 C 13.359375 0.359375 16.171875 -1.625 17.375 -4.984375 L 13.359375 -6.5 C 12.890625 -4.8125 11.515625 -3.640625 9.734375 -3.640625 C 6.671875 -3.640625 5.515625 -6.25 5.515625 -9 C 5.515625 -11.6875 6.703125 -14.4375 9.734375 -14.4375 C 11.546875 -14.4375 12.890625 -13.21875 13.359375 -11.484375 L 17.546875 -13.109375 C 16.171875 -16.703125 13.328125 -18.4375 9.734375 -18.4375 C 3.84375 -18.4375 1.03125 -13.734375 1.03125 -9 C 1.03125 -4.21875 3.890625 0.359375 9.78125 0.359375 Z M 9.78125 0.359375 "/></g></g></g><g fill="#ffffff" fill-opacity="1"><g transform="translate(643.800632, 121.064801)"><g><path d="M 9.78125 0.359375 C 13.359375 0.359375 16.171875 -1.625 17.375 -4.984375 L 13.359375 -6.5 C 12.890625 -4.8125 11.515625 -3.640625 9.734375 -3.640625 C 6.671875 -3.640625 5.515625 -6.25 5.515625 -9 C 5.515625 -11.6875 6.703125 -14.4375 9.734375 -14.4375 C 11.546875 -14.4375 12.890625 -13.21875 13.359375 -11.484375 L 17.546875 -13.109375 C 16.171875 -16.703125 13.328125 -18.4375 9.734375 -18.4375 C 3.84375 -18.4375 1.03125 -13.734375 1.03125 -9 C 1.03125 -4.21875 3.890625 0.359375 9.78125 0.359375 Z M 9.78125 0.359375 "/></g></g></g><g fill="#ffffff" fill-opacity="1"><g transform="translate(660.018345, 121.064801)"><g><path d="M 2.515625 -21.46875 L 7.109375 -21.46875 L 7.109375 -25.53125 L 2.515625 -25.53125 Z M 2.625 0 L 7 0 L 7 -18.0625 L 2.625 -18.0625 Z M 2.625 0 "/></g></g></g><g fill="#ffffff" fill-opacity="1"><g transform="translate(667.706915, 121.064801)"><g><path d="M 10.171875 0.359375 C 15.765625 0.359375 19.421875 -3.953125 19.421875 -9.078125 C 19.421875 -14.171875 15.765625 -18.4375 10.171875 -18.4375 C 4.59375 -18.4375 0.921875 -14.171875 0.921875 -9.078125 C 0.921875 -3.953125 4.59375 0.359375 10.171875 0.359375 Z M 10.171875 -3.4375 C 6.84375 -3.4375 5.515625 -6.109375 5.515625 -9.078125 C 5.515625 -12.03125 6.84375 -14.625 10.171875 -14.625 C 13.515625 -14.625 14.84375 -12.03125 14.84375 -9.078125 C 14.84375 -6.109375 13.515625 -3.4375 10.171875 -3.4375 Z M 10.171875 -3.4375 "/></g></g></g><g fill="#ffffff" fill-opacity="1"><g transform="translate(686.165342, 121.064801)"><g><path d="M 2.625 0 L 7 0 L 7 -9.890625 C 7 -13.03125 8.578125 -14.375 11.0625 -14.375 C 13.328125 -14.375 14.515625 -12.65625 14.515625 -10.28125 L 14.515625 0 L 18.875 0 L 18.875 -10.84375 C 18.875 -14.625 17.0625 -18.4375 12.328125 -18.4375 C 10.5625 -18.4375 8.4375 -17.734375 7 -15.953125 L 7 -18.0625 L 2.625 -18.0625 Z M 2.625 0 "/></g></g></g><g fill="#ffffff" fill-opacity="1"><g transform="translate(705.220086, 121.064801)"><g><path d="M 7.5625 0.359375 C 9.703125 0.359375 11.625 -0.328125 13.171875 -2.578125 L 13.46875 0 L 17.09375 0 L 17.09375 -10.953125 C 17.09375 -15.359375 14.203125 -18.4375 9.296875 -18.4375 C 5.734375 -18.4375 3.4375 -16.84375 1.703125 -14.484375 L 5.078125 -12.03125 C 5.859375 -13.359375 7.25 -14.578125 9.328125 -14.578125 C 11.65625 -14.578125 12.890625 -13.0625 12.890625 -10.765625 L 8.1875 -10.765625 C 4.140625 -10.765625 1 -9.46875 1 -5.546875 C 1 -1.765625 3.84375 0.359375 7.5625 0.359375 Z M 8.1875 -3.359375 C 6.46875 -3.359375 5.515625 -4.21875 5.515625 -5.40625 C 5.515625 -6.546875 6.4375 -7.59375 8.4375 -7.59375 L 12.890625 -7.59375 C 12.8125 -5.328125 10.703125 -3.359375 8.1875 -3.359375 Z M 8.1875 -3.359375 "/></g></g></g><g fill="#ffffff" fill-opacity="1"><g transform="translate(722.467808, 121.064801)"><g/></g></g><g fill="#ffffff" fill-opacity="1"><g transform="translate(729.433575, 121.064801)"><g><path d="M 9.03125 0.359375 C 10.28125 0.359375 11.625 0.078125 12.296875 -0.1875 L 12.296875 -4.171875 C 11.6875 -3.890625 10.703125 -3.53125 9.78125 -3.53125 C 8.625 -3.53125 7.734375 -4.03125 7.734375 -5.765625 L 7.734375 -14.375 L 12.296875 -14.375 L 12.296875 -18.0625 L 7.734375 -18.0625 L 7.734375 -25.6875 L 3.4375 -22.53125 L 3.4375 -18.0625 L 0.453125 -18.0625 L 0.453125 -14.375 L 3.359375 -14.375 L 3.359375 -4.984375 C 3.359375 -1.703125 5.46875 0.359375 9.03125 0.359375 Z M 9.03125 0.359375 "/></g></g></g><g fill="#ffffff" fill-opacity="1"><g transform="translate(741.133739, 121.064801)"><g><path d="M 8.65625 0.359375 C 10.8125 0.359375 12.6875 -0.421875 13.984375 -2.109375 L 13.984375 0 L 18.46875 0 L 18.46875 -18.0625 L 13.984375 -18.0625 L 13.984375 -9.921875 C 13.984375 -4.703125 11.875 -3.640625 9.8125 -3.640625 C 7.140625 -3.640625 6.546875 -5.4375 6.546875 -8.40625 L 6.546875 -18.0625 L 2.078125 -18.0625 L 2.078125 -8.546875 C 2.078125 -3.109375 4.109375 0.359375 8.65625 0.359375 Z M 8.65625 0.359375 "/></g></g></g><g fill="#ffffff" fill-opacity="1"><g transform="translate(760.296904, 121.064801)"><g/></g></g><g fill="#ffffff" fill-opacity="1"><g transform="translate(767.262671, 121.064801)"><g><path d="M 2.65625 7.921875 L 7.140625 7.921875 L 7.140625 -1.8125 C 8.40625 -0.25 10.390625 0.359375 12.296875 0.359375 C 17.28125 0.359375 20.03125 -4.03125 20.03125 -9.03125 C 20.03125 -14.0625 17.28125 -18.4375 12.21875 -18.4375 C 10.28125 -18.4375 8.40625 -17.796875 7.140625 -16.25 L 7.140625 -18.0625 L 2.65625 -18.0625 Z M 11.140625 -3.703125 C 8.109375 -3.703125 6.734375 -6 6.734375 -9.03125 C 6.734375 -12.078125 8.109375 -14.484375 11.140625 -14.484375 C 14.171875 -14.484375 15.546875 -12.078125 15.546875 -9.03125 C 15.546875 -6 14.171875 -3.703125 11.140625 -3.703125 Z M 11.140625 -3.703125 "/></g></g></g><g fill="#ffffff" fill-opacity="1"><g transform="translate(786.498105, 121.064801)"><g><path d="M 2.625 0 L 6.890625 0 L 6.890625 -7.625 C 6.890625 -12.21875 9.03125 -14.140625 11.09375 -14.140625 C 11.796875 -14.140625 12.46875 -13.921875 13.0625 -13.515625 L 15.078125 -17.140625 C 14.203125 -18.015625 12.953125 -18.4375 11.765625 -18.4375 C 9.734375 -18.4375 7.703125 -17.203125 6.921875 -15.015625 L 6.921875 -18.0625 L 2.625 -18.0625 Z M 2.625 0 "/></g></g></g><g fill="#ffffff" fill-opacity="1"><g transform="translate(799.300541, 121.064801)"><g><path d="M 10.171875 0.359375 C 15.765625 0.359375 19.421875 -3.953125 19.421875 -9.078125 C 19.421875 -14.171875 15.765625 -18.4375 10.171875 -18.4375 C 4.59375 -18.4375 0.921875 -14.171875 0.921875 -9.078125 C 0.921875 -3.953125 4.59375 0.359375 10.171875 0.359375 Z M 10.171875 -3.4375 C 6.84375 -3.4375 5.515625 -6.109375 5.515625 -9.078125 C 5.515625 -12.03125 6.84375 -14.625 10.171875 -14.625 C 13.515625 -14.625 14.84375 -12.03125 14.84375 -9.078125 C 14.84375 -6.109375 13.515625 -3.4375 10.171875 -3.4375 Z M 10.171875 -3.4375 "/></g></g></g><g fill="#ffffff" fill-opacity="1"><g transform="translate(817.758968, 121.064801)"><g><path d="M 14.03125 -25.53125 L 14.03125 -16.25 C 12.78125 -17.796875 10.765625 -18.4375 8.890625 -18.4375 C 3.890625 -18.4375 1.140625 -14.03125 1.140625 -9.03125 C 1.140625 -4 3.890625 0.359375 8.96875 0.359375 C 10.96875 0.359375 12.953125 -0.328125 14.203125 -2.03125 L 14.40625 0 L 18.515625 0 L 18.515625 -25.53125 Z M 10.03125 -3.640625 C 7 -3.640625 5.625 -6 5.625 -9.03125 C 5.625 -12.03125 7 -14.4375 10.03125 -14.4375 C 13.0625 -14.4375 14.40625 -12.078125 14.40625 -9.03125 C 14.40625 -5.96875 13.0625 -3.640625 10.03125 -3.640625 Z M 10.03125 -3.640625 "/></g></g></g><g fill="#ffffff" fill-opacity="1"><g transform="translate(836.994403, 121.064801)"><g><path d="M 8.65625 0.359375 C 10.8125 0.359375 12.6875 -0.421875 13.984375 -2.109375 L 13.984375 0 L 18.46875 0 L 18.46875 -18.0625 L 13.984375 -18.0625 L 13.984375 -9.921875 C 13.984375 -4.703125 11.875 -3.640625 9.8125 -3.640625 C 7.140625 -3.640625 6.546875 -5.4375 6.546875 -8.40625 L 6.546875 -18.0625 L 2.078125 -18.0625 L 2.078125 -8.546875 C 2.078125 -3.109375 4.109375 0.359375 8.65625 0.359375 Z M 8.65625 0.359375 "/></g></g></g><g fill="#ffffff" fill-opacity="1"><g transform="translate(856.157557, 121.064801)"><g><path d="M 9.78125 0.359375 C 13.359375 0.359375 16.171875 -1.625 17.375 -4.984375 L 13.359375 -6.5 C 12.890625 -4.8125 11.515625 -3.640625 9.734375 -3.640625 C 6.671875 -3.640625 5.515625 -6.25 5.515625 -9 C 5.515625 -11.6875 6.703125 -14.4375 9.734375 -14.4375 C 11.546875 -14.4375 12.890625 -13.21875 13.359375 -11.484375 L 17.546875 -13.109375 C 16.171875 -16.703125 13.328125 -18.4375 9.734375 -18.4375 C 3.84375 -18.4375 1.03125 -13.734375 1.03125 -9 C 1.03125 -4.21875 3.890625 0.359375 9.78125 0.359375 Z M 9.78125 0.359375 "/></g></g></g><g fill="#ffffff" fill-opacity="1"><g transform="translate(872.375276, 121.064801)"><g><path d="M 9.03125 0.359375 C 10.28125 0.359375 11.625 0.078125 12.296875 -0.1875 L 12.296875 -4.171875 C 11.6875 -3.890625 10.703125 -3.53125 9.78125 -3.53125 C 8.625 -3.53125 7.734375 -4.03125 7.734375 -5.765625 L 7.734375 -14.375 L 12.296875 -14.375 L 12.296875 -18.0625 L 7.734375 -18.0625 L 7.734375 -25.6875 L 3.4375 -22.53125 L 3.4375 -18.0625 L 0.453125 -18.0625 L 0.453125 -14.375 L 3.359375 -14.375 L 3.359375 -4.984375 C 3.359375 -1.703125 5.46875 0.359375 9.03125 0.359375 Z M 9.03125 0.359375 "/></g></g></g><g fill="#ffffff" fill-opacity="1"><g transform="translate(884.075441, 121.064801)"><g><path d="M 10.171875 0.359375 C 15.765625 0.359375 19.421875 -3.953125 19.421875 -9.078125 C 19.421875 -14.171875 15.765625 -18.4375 10.171875 -18.4375 C 4.59375 -18.4375 0.921875 -14.171875 0.921875 -9.078125 C 0.921875 -3.953125 4.59375 0.359375 10.171875 0.359375 Z M 10.171875 -3.4375 C 6.84375 -3.4375 5.515625 -6.109375 5.515625 -9.078125 C 5.515625 -12.03125 6.84375 -14.625 10.171875 -14.625 C 13.515625 -14.625 14.84375 -12.03125 14.84375 -9.078125 C 14.84375 -6.109375 13.515625 -3.4375 10.171875 -3.4375 Z M 10.171875 -3.4375 "/></g></g></g><g fill="#151d42" fill-opacity="1"><g transform="translate(541.138225, 181.872303)"><g><path d="M 2.578125 0 L 6.15625 0 L 6.15625 -8.296875 L 8.859375 -8.296875 C 12.9375 -8.296875 15.921875 -10.359375 15.921875 -14.09375 C 15.921875 -17.875 12.9375 -20.015625 8.859375 -20.015625 L 2.578125 -20.015625 Z M 6.15625 -11.65625 L 6.15625 -16.65625 L 8.859375 -16.65625 C 11.296875 -16.65625 12.359375 -15.71875 12.359375 -14.09375 C 12.359375 -12.515625 11.3125 -11.65625 8.859375 -11.65625 Z M 6.15625 -11.65625 "/></g></g></g><g fill="#151d42" fill-opacity="1"><g transform="translate(556.156561, 181.872303)"><g><path d="M 7.96875 0.28125 C 12.359375 0.28125 15.234375 -3.109375 15.234375 -7.109375 C 15.234375 -11.109375 12.359375 -14.453125 7.96875 -14.453125 C 3.59375 -14.453125 0.71875 -11.109375 0.71875 -7.109375 C 0.71875 -3.109375 3.59375 0.28125 7.96875 0.28125 Z M 7.96875 -2.6875 C 5.375 -2.6875 4.328125 -4.78125 4.328125 -7.109375 C 4.328125 -9.4375 5.375 -11.46875 7.96875 -11.46875 C 10.59375 -11.46875 11.625 -9.4375 11.625 -7.109375 C 11.625 -4.78125 10.59375 -2.6875 7.96875 -2.6875 Z M 7.96875 -2.6875 "/></g></g></g><g fill="#151d42" fill-opacity="1"><g transform="translate(570.62257, 181.872303)"><g><path d="M 2.046875 0 L 5.390625 0 L 5.390625 -5.984375 C 5.390625 -9.578125 7.078125 -11.078125 8.703125 -11.078125 C 9.25 -11.078125 9.78125 -10.90625 10.25 -10.59375 L 11.8125 -13.4375 C 11.140625 -14.125 10.15625 -14.453125 9.21875 -14.453125 C 7.640625 -14.453125 6.03125 -13.484375 5.421875 -11.765625 L 5.421875 -14.15625 L 2.046875 -14.15625 Z M 2.046875 0 "/></g></g></g><g fill="#151d42" fill-opacity="1"><g transform="translate(580.655859, 181.872303)"><g/></g></g><g fill="#151d42" fill-opacity="1"><g transform="translate(586.114797, 181.872303)"><g><path d="M 2.078125 6.203125 L 5.59375 6.203125 L 5.59375 -1.421875 C 6.59375 -0.203125 8.140625 0.28125 9.640625 0.28125 C 13.546875 0.28125 15.703125 -3.15625 15.703125 -7.078125 C 15.703125 -11.015625 13.546875 -14.453125 9.578125 -14.453125 C 8.0625 -14.453125 6.59375 -13.953125 5.59375 -12.734375 L 5.59375 -14.15625 L 2.078125 -14.15625 Z M 8.734375 -2.90625 C 6.359375 -2.90625 5.28125 -4.703125 5.28125 -7.078125 C 5.28125 -9.46875 6.359375 -11.34375 8.734375 -11.34375 C 11.109375 -11.34375 12.1875 -9.46875 12.1875 -7.078125 C 12.1875 -4.703125 11.109375 -2.90625 8.734375 -2.90625 Z M 8.734375 -2.90625 "/></g></g></g><g fill="#151d42" fill-opacity="1"><g transform="translate(601.189778, 181.872303)"><g><path d="M 2.046875 0 L 5.390625 0 L 5.390625 -5.984375 C 5.390625 -9.578125 7.078125 -11.078125 8.703125 -11.078125 C 9.25 -11.078125 9.78125 -10.90625 10.25 -10.59375 L 11.8125 -13.4375 C 11.140625 -14.125 10.15625 -14.453125 9.21875 -14.453125 C 7.640625 -14.453125 6.03125 -13.484375 5.421875 -11.765625 L 5.421875 -14.15625 L 2.046875 -14.15625 Z M 2.046875 0 "/></g></g></g><g fill="#151d42" fill-opacity="1"><g transform="translate(611.22307, 181.872303)"><g><path d="M 7.96875 0.28125 C 12.359375 0.28125 15.234375 -3.109375 15.234375 -7.109375 C 15.234375 -11.109375 12.359375 -14.453125 7.96875 -14.453125 C 3.59375 -14.453125 0.71875 -11.109375 0.71875 -7.109375 C 0.71875 -3.109375 3.59375 0.28125 7.96875 0.28125 Z M 7.96875 -2.6875 C 5.375 -2.6875 4.328125 -4.78125 4.328125 -7.109375 C 4.328125 -9.4375 5.375 -11.46875 7.96875 -11.46875 C 10.59375 -11.46875 11.625 -9.4375 11.625 -7.109375 C 11.625 -4.78125 10.59375 -2.6875 7.96875 -2.6875 Z M 7.96875 -2.6875 "/></g></g></g><g fill="#151d42" fill-opacity="1"><g transform="translate(625.689083, 181.872303)"><g><path d="M 11 -20.015625 L 11 -12.734375 C 10.015625 -13.953125 8.4375 -14.453125 6.96875 -14.453125 C 3.046875 -14.453125 0.890625 -11 0.890625 -7.078125 C 0.890625 -3.125 3.046875 0.28125 7.03125 0.28125 C 8.59375 0.28125 10.15625 -0.25 11.140625 -1.59375 L 11.296875 0 L 14.515625 0 L 14.515625 -20.015625 Z M 7.859375 -2.84375 C 5.484375 -2.84375 4.40625 -4.703125 4.40625 -7.078125 C 4.40625 -9.4375 5.484375 -11.3125 7.859375 -11.3125 C 10.25 -11.3125 11.296875 -9.46875 11.296875 -7.078125 C 11.296875 -4.671875 10.25 -2.84375 7.859375 -2.84375 Z M 7.859375 -2.84375 "/></g></g></g><g fill="#151d42" fill-opacity="1"><g transform="translate(640.764064, 181.872303)"><g><path d="M 6.78125 0.28125 C 8.46875 0.28125 9.953125 -0.328125 10.96875 -1.65625 L 10.96875 0 L 14.484375 0 L 14.484375 -14.15625 L 10.96875 -14.15625 L 10.96875 -7.78125 C 10.96875 -3.6875 9.3125 -2.84375 7.6875 -2.84375 C 5.59375 -2.84375 5.125 -4.265625 5.125 -6.59375 L 5.125 -14.15625 L 1.625 -14.15625 L 1.625 -6.703125 C 1.625 -2.4375 3.21875 0.28125 6.78125 0.28125 Z M 6.78125 0.28125 "/></g></g></g><g fill="#151d42" fill-opacity="1"><g transform="translate(655.782397, 181.872303)"><g><path d="M 7.671875 0.28125 C 10.46875 0.28125 12.6875 -1.28125 13.609375 -3.90625 L 10.46875 -5.09375 C 10.109375 -3.765625 9.03125 -2.84375 7.640625 -2.84375 C 5.234375 -2.84375 4.328125 -4.90625 4.328125 -7.0625 C 4.328125 -9.171875 5.25 -11.3125 7.640625 -11.3125 C 9.046875 -11.3125 10.109375 -10.359375 10.46875 -9 L 13.75 -10.265625 C 12.6875 -13.09375 10.4375 -14.453125 7.640625 -14.453125 C 3.015625 -14.453125 0.8125 -10.765625 0.8125 -7.0625 C 0.8125 -3.296875 3.046875 0.28125 7.671875 0.28125 Z M 7.671875 0.28125 "/></g></g></g><g fill="#151d42" fill-opacity="1"><g transform="translate(668.492308, 181.872303)"><g><path d="M 7.078125 0.28125 C 8.0625 0.28125 9.109375 0.0625 9.640625 -0.140625 L 9.640625 -3.265625 C 9.171875 -3.046875 8.390625 -2.765625 7.671875 -2.765625 C 6.765625 -2.765625 6.0625 -3.15625 6.0625 -4.515625 L 6.0625 -11.265625 L 9.640625 -11.265625 L 9.640625 -14.15625 L 6.0625 -14.15625 L 6.0625 -20.125 L 2.6875 -17.671875 L 2.6875 -14.15625 L 0.359375 -14.15625 L 0.359375 -11.265625 L 2.640625 -11.265625 L 2.640625 -3.90625 C 2.640625 -1.328125 4.296875 0.28125 7.078125 0.28125 Z M 7.078125 0.28125 "/></g></g></g><g fill="#151d42" fill-opacity="1"><g transform="translate(677.661703, 181.872303)"><g><path d="M 7.96875 0.28125 C 12.359375 0.28125 15.234375 -3.109375 15.234375 -7.109375 C 15.234375 -11.109375 12.359375 -14.453125 7.96875 -14.453125 C 3.59375 -14.453125 0.71875 -11.109375 0.71875 -7.109375 C 0.71875 -3.109375 3.59375 0.28125 7.96875 0.28125 Z M 7.96875 -2.6875 C 5.375 -2.6875 4.328125 -4.78125 4.328125 -7.109375 C 4.328125 -9.4375 5.375 -11.46875 7.96875 -11.46875 C 10.59375 -11.46875 11.625 -9.4375 11.625 -7.109375 C 11.625 -4.78125 10.59375 -2.6875 7.96875 -2.6875 Z M 7.96875 -2.6875 "/></g></g></g><g fill="#151d42" fill-opacity="1"><g transform="translate(541.138225, 277.933631)"><g><path d="M 2.578125 0 L 6.15625 0 L 6.15625 -8.296875 L 8.859375 -8.296875 C 12.9375 -8.296875 15.921875 -10.359375 15.921875 -14.09375 C 15.921875 -17.875 12.9375 -20.015625 8.859375 -20.015625 L 2.578125 -20.015625 Z M 6.15625 -11.65625 L 6.15625 -16.65625 L 8.859375 -16.65625 C 11.296875 -16.65625 12.359375 -15.71875 12.359375 -14.09375 C 12.359375 -12.515625 11.3125 -11.65625 8.859375 -11.65625 Z M 6.15625 -11.65625 "/></g></g></g><g fill="#151d42" fill-opacity="1"><g transform="translate(556.156561, 277.933631)"><g><path d="M 7.96875 0.28125 C 12.359375 0.28125 15.234375 -3.109375 15.234375 -7.109375 C 15.234375 -11.109375 12.359375 -14.453125 7.96875 -14.453125 C 3.59375 -14.453125 0.71875 -11.109375 0.71875 -7.109375 C 0.71875 -3.109375 3.59375 0.28125 7.96875 0.28125 Z M 7.96875 -2.6875 C 5.375 -2.6875 4.328125 -4.78125 4.328125 -7.109375 C 4.328125 -9.4375 5.375 -11.46875 7.96875 -11.46875 C 10.59375 -11.46875 11.625 -9.4375 11.625 -7.109375 C 11.625 -4.78125 10.59375 -2.6875 7.96875 -2.6875 Z M 7.96875 -2.6875 "/></g></g></g><g fill="#151d42" fill-opacity="1"><g transform="translate(570.62257, 277.933631)"><g><path d="M 2.046875 0 L 5.390625 0 L 5.390625 -5.984375 C 5.390625 -9.578125 7.078125 -11.078125 8.703125 -11.078125 C 9.25 -11.078125 9.78125 -10.90625 10.25 -10.59375 L 11.8125 -13.4375 C 11.140625 -14.125 10.15625 -14.453125 9.21875 -14.453125 C 7.640625 -14.453125 6.03125 -13.484375 5.421875 -11.765625 L 5.421875 -14.15625 L 2.046875 -14.15625 Z M 2.046875 0 "/></g></g></g><g fill="#151d42" fill-opacity="1"><g transform="translate(580.655859, 277.933631)"><g/></g></g><g fill="#151d42" fill-opacity="1"><g transform="translate(586.114797, 277.933631)"><g><path d="M 6.3125 0.28125 C 9 0.28125 11.84375 -1.15625 11.84375 -4.4375 C 11.84375 -9.640625 4.640625 -8.359375 4.640625 -10.5 C 4.640625 -11.171875 5.34375 -11.71875 6.46875 -11.71875 C 8 -11.71875 8.796875 -10.796875 9.28125 -9.921875 L 11.953125 -11.375 C 10.875 -13.296875 9.03125 -14.453125 6.59375 -14.453125 C 3.859375 -14.453125 1.328125 -13.03125 1.328125 -10.046875 C 1.328125 -5.046875 8.4375 -6.640625 8.4375 -4.265625 C 8.4375 -3.515625 7.75 -2.578125 6.15625 -2.578125 C 4.265625 -2.578125 3.515625 -3.875 3.125 -4.90625 L 0.375 -3.6875 C 1.078125 -1.5 3.34375 0.28125 6.3125 0.28125 Z M 6.3125 0.28125 "/></g></g></g><g fill="#151d42" fill-opacity="1"><g transform="translate(597.479323, 277.933631)"><g><path d="M 6.78125 0.28125 C 8.46875 0.28125 9.953125 -0.328125 10.96875 -1.65625 L 10.96875 0 L 14.484375 0 L 14.484375 -14.15625 L 10.96875 -14.15625 L 10.96875 -7.78125 C 10.96875 -3.6875 9.3125 -2.84375 7.6875 -2.84375 C 5.59375 -2.84375 5.125 -4.265625 5.125 -6.59375 L 5.125 -14.15625 L 1.625 -14.15625 L 1.625 -6.703125 C 1.625 -2.4375 3.21875 0.28125 6.78125 0.28125 Z M 6.78125 0.28125 "/></g></g></g><g fill="#151d42" fill-opacity="1"><g transform="translate(612.497661, 277.933631)"><g><path d="M 9.6875 0.28125 C 13.609375 0.28125 15.75 -3.15625 15.75 -7.078125 C 15.75 -11.015625 13.609375 -14.453125 9.640625 -14.453125 C 8.125 -14.453125 6.640625 -13.953125 5.65625 -12.734375 L 5.65625 -20.015625 L 2.078125 -20.015625 L 2.078125 0 L 5.65625 0 L 5.65625 -1.421875 C 6.640625 -0.203125 8.21875 0.28125 9.6875 0.28125 Z M 8.828125 -2.90625 C 6.453125 -2.90625 5.34375 -4.703125 5.34375 -7.078125 C 5.34375 -9.46875 6.453125 -11.3125 8.828125 -11.3125 C 11.203125 -11.3125 12.265625 -9.4375 12.265625 -7.078125 C 12.265625 -4.734375 11.203125 -2.90625 8.828125 -2.90625 Z M 8.828125 -2.90625 "/></g></g></g><g fill="#151d42" fill-opacity="1"><g transform="translate(627.643447, 277.933631)"><g><path d="M 2.078125 6.203125 L 5.59375 6.203125 L 5.59375 -1.421875 C 6.59375 -0.203125 8.140625 0.28125 9.640625 0.28125 C 13.546875 0.28125 15.703125 -3.15625 15.703125 -7.078125 C 15.703125 -11.015625 13.546875 -14.453125 9.578125 -14.453125 C 8.0625 -14.453125 6.59375 -13.953125 5.59375 -12.734375 L 5.59375 -14.15625 L 2.078125 -14.15625 Z M 8.734375 -2.90625 C 6.359375 -2.90625 5.28125 -4.703125 5.28125 -7.078125 C 5.28125 -9.46875 6.359375 -11.34375 8.734375 -11.34375 C 11.109375 -11.34375 12.1875 -9.46875 12.1875 -7.078125 C 12.1875 -4.703125 11.109375 -2.90625 8.734375 -2.90625 Z M 8.734375 -2.90625 "/></g></g></g><g fill="#151d42" fill-opacity="1"><g transform="translate(642.718429, 277.933631)"><g><path d="M 5.921875 0.28125 C 7.609375 0.28125 9.109375 -0.25 10.328125 -2.03125 L 10.5625 0 L 13.40625 0 L 13.40625 -8.578125 C 13.40625 -12.046875 11.140625 -14.453125 7.28125 -14.453125 C 4.484375 -14.453125 2.6875 -13.203125 1.328125 -11.34375 L 3.984375 -9.4375 C 4.59375 -10.46875 5.6875 -11.4375 7.3125 -11.4375 C 9.140625 -11.4375 10.109375 -10.25 10.109375 -8.4375 L 6.421875 -8.4375 C 3.25 -8.4375 0.78125 -7.421875 0.78125 -4.34375 C 0.78125 -1.390625 3.015625 0.28125 5.921875 0.28125 Z M 6.421875 -2.640625 C 5.078125 -2.640625 4.328125 -3.296875 4.328125 -4.234375 C 4.328125 -5.125 5.046875 -5.953125 6.609375 -5.953125 L 10.109375 -5.953125 C 10.046875 -4.171875 8.390625 -2.640625 6.421875 -2.640625 Z M 6.421875 -2.640625 "/></g></g></g><g fill="#151d42" fill-opacity="1"><g transform="translate(656.235583, 277.933631)"><g><path d="M 2.046875 0 L 5.390625 0 L 5.390625 -5.984375 C 5.390625 -9.578125 7.078125 -11.078125 8.703125 -11.078125 C 9.25 -11.078125 9.78125 -10.90625 10.25 -10.59375 L 11.8125 -13.4375 C 11.140625 -14.125 10.15625 -14.453125 9.21875 -14.453125 C 7.640625 -14.453125 6.03125 -13.484375 5.421875 -11.765625 L 5.421875 -14.15625 L 2.046875 -14.15625 Z M 2.046875 0 "/></g></g></g><g fill="#151d42" fill-opacity="1"><g transform="translate(666.268869, 277.933631)"><g><path d="M 7.078125 0.28125 C 8.0625 0.28125 9.109375 0.0625 9.640625 -0.140625 L 9.640625 -3.265625 C 9.171875 -3.046875 8.390625 -2.765625 7.671875 -2.765625 C 6.765625 -2.765625 6.0625 -3.15625 6.0625 -4.515625 L 6.0625 -11.265625 L 9.640625 -11.265625 L 9.640625 -14.15625 L 6.0625 -14.15625 L 6.0625 -20.125 L 2.6875 -17.671875 L 2.6875 -14.15625 L 0.359375 -14.15625 L 0.359375 -11.265625 L 2.640625 -11.265625 L 2.640625 -3.90625 C 2.640625 -1.328125 4.296875 0.28125 7.078125 0.28125 Z M 7.078125 0.28125 "/></g></g></g><g fill="#151d42" fill-opacity="1"><g transform="translate(675.438264, 277.933631)"><g><path d="M 1.96875 -16.828125 L 5.5625 -16.828125 L 5.5625 -20.015625 L 1.96875 -20.015625 Z M 2.046875 0 L 5.484375 0 L 5.484375 -14.15625 L 2.046875 -14.15625 Z M 2.046875 0 "/></g></g></g><g fill="#151d42" fill-opacity="1"><g transform="translate(681.463682, 277.933631)"><g><path d="M 11 -20.015625 L 11 -12.734375 C 10.015625 -13.953125 8.4375 -14.453125 6.96875 -14.453125 C 3.046875 -14.453125 0.890625 -11 0.890625 -7.078125 C 0.890625 -3.125 3.046875 0.28125 7.03125 0.28125 C 8.59375 0.28125 10.15625 -0.25 11.140625 -1.59375 L 11.296875 0 L 14.515625 0 L 14.515625 -20.015625 Z M 7.859375 -2.84375 C 5.484375 -2.84375 4.40625 -4.703125 4.40625 -7.078125 C 4.40625 -9.4375 5.484375 -11.3125 7.859375 -11.3125 C 10.25 -11.3125 11.296875 -9.46875 11.296875 -7.078125 C 11.296875 -4.671875 10.25 -2.84375 7.859375 -2.84375 Z M 7.859375 -2.84375 "/></g></g></g><g fill="#151d42" fill-opacity="1"><g transform="translate(696.538663, 277.933631)"><g><path d="M 5.921875 0.28125 C 7.609375 0.28125 9.109375 -0.25 10.328125 -2.03125 L 10.5625 0 L 13.40625 0 L 13.40625 -8.578125 C 13.40625 -12.046875 11.140625 -14.453125 7.28125 -14.453125 C 4.484375 -14.453125 2.6875 -13.203125 1.328125 -11.34375 L 3.984375 -9.4375 C 4.59375 -10.46875 5.6875 -11.4375 7.3125 -11.4375 C 9.140625 -11.4375 10.109375 -10.25 10.109375 -8.4375 L 6.421875 -8.4375 C 3.25 -8.4375 0.78125 -7.421875 0.78125 -4.34375 C 0.78125 -1.390625 3.015625 0.28125 5.921875 0.28125 Z M 6.421875 -2.640625 C 5.078125 -2.640625 4.328125 -3.296875 4.328125 -4.234375 C 4.328125 -5.125 5.046875 -5.953125 6.609375 -5.953125 L 10.109375 -5.953125 C 10.046875 -4.171875 8.390625 -2.640625 6.421875 -2.640625 Z M 6.421875 -2.640625 "/></g></g></g><path stroke-linecap="butt" transform="matrix(0.75, 0, 0, 0.75, 0.00000048, 558.694676)" fill="none" stroke-linejoin="miter" d="M -0.00000064 2.000849 L 448.000018 2.000849 " stroke="#000000" stroke-width="4" stroke-opacity="1" stroke-miterlimit="4"/></svg>