<svg xmlns="http://www.w3.org/2000/svg" xmlns:xlink="http://www.w3.org/1999/xlink" width="1280" zoomAndPan="magnify" viewBox="0 0 960 599.999999" height="800" preserveAspectRatio="xMidYMid meet" version="1.0"><defs><g/></defs><g fill="#39b54a" fill-opacity="1"><g transform="translate(35.57766, 349.918306)"><g><path d="M -1.5 -83.265625 L 23.09375 -83.265625 L 32.078125 -41.578125 L 40.953125 -83.265625 L 65.796875 -83.265625 L 43.078125 0 L 21.09375 0 Z M -1.5 -83.265625 "/></g></g></g><g fill="#39b54a" fill-opacity="1"><g transform="translate(99.864099, 349.918306)"><g><path d="M 5.25 -40.328125 L 0.625 -40.328125 L 5.25 -60.796875 L 25.71875 -60.796875 L 25.71875 -19.96875 L 30.09375 -19.96875 L 25.71875 0 L 5.25 0 Z M 8.734375 -85.765625 L 29.09375 -85.765625 L 24.71875 -65.421875 L 4.25 -65.421875 Z M 8.734375 -85.765625 "/></g></g></g><g fill="#39b54a" fill-opacity="1"><g transform="translate(130.571801, 349.918306)"><g><path d="M 5.25 -40.328125 L 0.625 -40.328125 L 5.25 -60.796875 L 25.71875 -60.796875 L 25.71875 -42.453125 L 29.84375 -60.796875 C 32.332031 -60.796875 34.285156 -60.796875 35.703125 -60.796875 C 37.117188 -60.796875 38.222656 -60.773438 39.015625 -60.734375 C 39.804688 -60.691406 40.453125 -60.628906 40.953125 -60.546875 C 41.453125 -60.460938 42.035156 -60.335938 42.703125 -60.171875 C 44.441406 -59.753906 46.082031 -58.960938 47.625 -57.796875 C 49.164062 -56.640625 50.394531 -55.1875 51.3125 -53.4375 C 51.8125 -52.601562 52.207031 -51.8125 52.5 -51.0625 C 52.789062 -50.3125 53 -49.375 53.125 -48.25 C 53.25 -47.125 53.332031 -45.644531 53.375 -43.8125 C 53.414062 -41.988281 53.4375 -39.535156 53.4375 -36.453125 L 53.4375 -19.96875 L 57.796875 -19.96875 L 53.4375 0 L 32.953125 0 L 32.953125 -26.96875 C 32.953125 -29.132812 32.953125 -30.835938 32.953125 -32.078125 C 32.953125 -33.328125 32.929688 -34.328125 32.890625 -35.078125 C 32.847656 -35.828125 32.765625 -36.410156 32.640625 -36.828125 C 32.515625 -37.242188 32.367188 -37.660156 32.203125 -38.078125 C 31.378906 -39.660156 29.675781 -40.453125 27.09375 -40.453125 C 26.925781 -40.453125 26.738281 -40.453125 26.53125 -40.453125 C 26.320312 -40.453125 26.050781 -40.410156 25.71875 -40.328125 L 25.71875 0 L 5.25 0 Z M 5.25 -40.328125 "/></g></g></g><g fill="#39b54a" fill-opacity="1"><g transform="translate(188.991323, 349.918306)"><g><path d="M 37.828125 -0.375 C 35.910156 0.207031 34.179688 0.625 32.640625 0.875 C 31.109375 1.125 29.507812 1.25 27.84375 1.25 C 24.007812 1.25 20.53125 0.457031 17.40625 -1.125 C 14.289062 -2.707031 11.609375 -4.890625 9.359375 -7.671875 C 7.117188 -10.460938 5.375 -13.832031 4.125 -17.78125 C 2.875 -21.738281 2.25 -26.09375 2.25 -30.84375 C 2.25 -35.5 2.851562 -39.738281 4.0625 -43.5625 C 5.269531 -47.394531 6.992188 -50.679688 9.234375 -53.421875 C 11.484375 -56.171875 14.1875 -58.296875 17.34375 -59.796875 C 20.507812 -61.296875 24.050781 -62.046875 27.96875 -62.046875 C 29.96875 -62.046875 31.710938 -61.878906 33.203125 -61.546875 C 34.703125 -61.210938 36.242188 -60.628906 37.828125 -59.796875 L 33.328125 -39.703125 C 31.753906 -40.703125 30.425781 -41.203125 29.34375 -41.203125 C 27.425781 -41.203125 25.945312 -40.203125 24.90625 -38.203125 C 23.863281 -36.203125 23.34375 -33.414062 23.34375 -29.84375 C 23.34375 -26.425781 23.863281 -23.65625 24.90625 -21.53125 C 25.945312 -19.414062 27.300781 -18.359375 28.96875 -18.359375 C 29.800781 -18.359375 30.523438 -18.539062 31.140625 -18.90625 C 31.765625 -19.28125 32.492188 -19.925781 33.328125 -20.84375 Z M 37.828125 -0.375 "/></g></g></g><g fill="#39b54a" fill-opacity="1"><g transform="translate(228.187324, 349.918306)"><g><path d="M 32.953125 -18.359375 L 28.84375 0 C 28.425781 0 28.03125 -0.0195312 27.65625 -0.0625 C 27.28125 -0.101562 26.863281 -0.125 26.40625 -0.125 C 25.945312 -0.125 25.363281 -0.125 24.65625 -0.125 C 23.945312 -0.125 23.007812 -0.125 21.84375 -0.125 C 18.1875 -0.125 15.273438 -0.644531 13.109375 -1.6875 C 10.941406 -2.726562 9.148438 -4.453125 7.734375 -6.859375 C 7.148438 -7.859375 6.691406 -8.773438 6.359375 -9.609375 C 6.035156 -10.441406 5.789062 -11.484375 5.625 -12.734375 C 5.457031 -13.984375 5.351562 -15.582031 5.3125 -17.53125 C 5.269531 -19.488281 5.25 -22.050781 5.25 -25.21875 L 5.25 -40.328125 L 0.625 -40.328125 L 5.25 -60.796875 L 25.71875 -60.796875 L 25.71875 -35.578125 C 25.71875 -32.992188 25.738281 -30.910156 25.78125 -29.328125 C 25.820312 -27.753906 25.863281 -26.46875 25.90625 -25.46875 C 25.945312 -24.46875 26.03125 -23.71875 26.15625 -23.21875 C 26.28125 -22.71875 26.46875 -22.300781 26.71875 -21.96875 C 27.132812 -21.300781 27.800781 -20.78125 28.71875 -20.40625 C 29.632812 -20.03125 30.585938 -19.84375 31.578125 -19.84375 C 31.742188 -19.84375 31.929688 -19.84375 32.140625 -19.84375 C 32.347656 -19.84375 32.617188 -19.882812 32.953125 -19.96875 L 32.953125 -60.796875 L 53.4375 -60.796875 L 53.4375 -19.96875 L 57.796875 -19.96875 L 53.4375 0 L 32.953125 0 Z M 32.953125 -18.359375 "/></g></g></g><g fill="#39b54a" fill-opacity="1"><g transform="translate(286.606847, 349.918306)"><g><path d="M 5.25 -64.921875 L 0.625 -64.921875 L 5.25 -85.265625 L 25.71875 -85.265625 L 25.71875 -19.96875 L 30.09375 -19.96875 L 25.71875 0 L 5.25 0 Z M 5.25 -64.921875 "/></g></g></g><g fill="#39b54a" fill-opacity="1"><g transform="translate(317.314548, 349.918306)"><g><path d="M 26.21875 -0.25 C 22.382812 -0.414062 19.445312 -0.8125 17.40625 -1.4375 C 15.375 -2.0625 13.441406 -3.207031 11.609375 -4.875 C 8.523438 -7.613281 6.191406 -11.1875 4.609375 -15.59375 C 3.035156 -20.007812 2.25 -25.09375 2.25 -30.84375 C 2.25 -35.414062 2.789062 -39.570312 3.875 -43.3125 C 4.957031 -47.0625 6.492188 -50.265625 8.484375 -52.921875 C 10.484375 -55.585938 12.914062 -57.628906 15.78125 -59.046875 C 18.65625 -60.460938 21.84375 -61.171875 25.34375 -61.171875 C 27.257812 -61.171875 28.984375 -60.960938 30.515625 -60.546875 C 32.054688 -60.128906 33.660156 -59.460938 35.328125 -58.546875 L 35.328125 -60.796875 L 55.0625 -60.796875 L 55.0625 -19.96875 L 59.421875 -19.96875 L 55.0625 0 L 34.578125 0 L 34.578125 -18.359375 L 30.46875 0 Z M 34.578125 -31.703125 C 34.578125 -33.203125 34.554688 -34.429688 34.515625 -35.390625 C 34.472656 -36.347656 34.390625 -37.140625 34.265625 -37.765625 C 34.140625 -38.390625 33.992188 -38.890625 33.828125 -39.265625 C 33.660156 -39.640625 33.410156 -39.992188 33.078125 -40.328125 C 32.160156 -41.328125 31.039062 -41.828125 29.71875 -41.828125 C 27.800781 -41.828125 26.257812 -40.847656 25.09375 -38.890625 C 23.925781 -36.929688 23.34375 -34.375 23.34375 -31.21875 C 23.34375 -23.632812 26.296875 -19.84375 32.203125 -19.84375 C 32.367188 -19.84375 32.703125 -19.84375 33.203125 -19.84375 C 33.703125 -19.84375 34.160156 -19.882812 34.578125 -19.96875 Z M 34.578125 -31.703125 "/></g></g></g><g fill="#39b54a" fill-opacity="1"><g transform="translate(377.35682, 349.918306)"><g><path d="M 37.828125 -0.375 C 35.910156 0.207031 34.179688 0.625 32.640625 0.875 C 31.109375 1.125 29.507812 1.25 27.84375 1.25 C 24.007812 1.25 20.53125 0.457031 17.40625 -1.125 C 14.289062 -2.707031 11.609375 -4.890625 9.359375 -7.671875 C 7.117188 -10.460938 5.375 -13.832031 4.125 -17.78125 C 2.875 -21.738281 2.25 -26.09375 2.25 -30.84375 C 2.25 -35.5 2.851562 -39.738281 4.0625 -43.5625 C 5.269531 -47.394531 6.992188 -50.679688 9.234375 -53.421875 C 11.484375 -56.171875 14.1875 -58.296875 17.34375 -59.796875 C 20.507812 -61.296875 24.050781 -62.046875 27.96875 -62.046875 C 29.96875 -62.046875 31.710938 -61.878906 33.203125 -61.546875 C 34.703125 -61.210938 36.242188 -60.628906 37.828125 -59.796875 L 33.328125 -39.703125 C 31.753906 -40.703125 30.425781 -41.203125 29.34375 -41.203125 C 27.425781 -41.203125 25.945312 -40.203125 24.90625 -38.203125 C 23.863281 -36.203125 23.34375 -33.414062 23.34375 -29.84375 C 23.34375 -26.425781 23.863281 -23.65625 24.90625 -21.53125 C 25.945312 -19.414062 27.300781 -18.359375 28.96875 -18.359375 C 29.800781 -18.359375 30.523438 -18.539062 31.140625 -18.90625 C 31.765625 -19.28125 32.492188 -19.925781 33.328125 -20.84375 Z M 37.828125 -0.375 "/></g></g></g><g fill="#39b54a" fill-opacity="1"><g transform="translate(416.552833, 349.918306)"><g><path d="M 5.25 -40.328125 L 0.625 -40.328125 L 5.25 -60.796875 L 25.71875 -60.796875 L 25.71875 -19.96875 L 30.09375 -19.96875 L 25.71875 0 L 5.25 0 Z M 8.734375 -85.765625 L 29.09375 -85.765625 L 24.71875 -65.421875 L 4.25 -65.421875 Z M 8.734375 -85.765625 "/></g></g></g><g fill="#39b54a" fill-opacity="1"><g transform="translate(447.260535, 349.918306)"><g><path d="M 28.46875 -62.046875 C 32.289062 -62.046875 35.800781 -61.273438 39 -59.734375 C 42.207031 -58.191406 44.976562 -56.003906 47.3125 -53.171875 C 49.644531 -50.347656 51.457031 -47 52.75 -43.125 C 54.039062 -39.257812 54.6875 -35.039062 54.6875 -30.46875 C 54.6875 -25.800781 54.039062 -21.507812 52.75 -17.59375 C 51.457031 -13.6875 49.644531 -10.335938 47.3125 -7.546875 C 44.976562 -4.765625 42.164062 -2.601562 38.875 -1.0625 C 35.59375 0.476562 32 1.25 28.09375 1.25 C 24.34375 1.25 20.90625 0.457031 17.78125 -1.125 C 14.664062 -2.707031 11.941406 -4.910156 9.609375 -7.734375 C 7.285156 -10.566406 5.476562 -13.914062 4.1875 -17.78125 C 2.894531 -21.65625 2.25 -25.882812 2.25 -30.46875 C 2.25 -35.039062 2.894531 -39.257812 4.1875 -43.125 C 5.476562 -47 7.285156 -50.328125 9.609375 -53.109375 C 11.941406 -55.898438 14.707031 -58.085938 17.90625 -59.671875 C 21.113281 -61.253906 24.632812 -62.046875 28.46875 -62.046875 Z M 28.46875 -41.203125 C 26.550781 -41.203125 25.09375 -40.222656 24.09375 -38.265625 C 23.09375 -36.304688 22.59375 -33.5 22.59375 -29.84375 C 22.59375 -26.09375 23.09375 -23.238281 24.09375 -21.28125 C 25.09375 -19.332031 26.550781 -18.359375 28.46875 -18.359375 C 30.375 -18.359375 31.828125 -19.332031 32.828125 -21.28125 C 33.828125 -23.238281 34.328125 -26.007812 34.328125 -29.59375 C 34.328125 -37.332031 32.375 -41.203125 28.46875 -41.203125 Z M 25.21875 -85.015625 L 43.6875 -85.015625 L 34.328125 -67.421875 L 19.46875 -67.421875 Z M 25.21875 -85.015625 "/></g></g></g><g fill="#39b54a" fill-opacity="1"><g transform="translate(504.182118, 349.918306)"><g><path d="M 5.25 -40.328125 L 0.625 -40.328125 L 5.25 -60.796875 L 25.71875 -60.796875 L 25.71875 -42.453125 L 29.84375 -60.796875 C 32.332031 -60.796875 34.285156 -60.796875 35.703125 -60.796875 C 37.117188 -60.796875 38.222656 -60.773438 39.015625 -60.734375 C 39.804688 -60.691406 40.453125 -60.628906 40.953125 -60.546875 C 41.453125 -60.460938 42.035156 -60.335938 42.703125 -60.171875 C 44.441406 -59.753906 46.082031 -58.960938 47.625 -57.796875 C 49.164062 -56.640625 50.394531 -55.1875 51.3125 -53.4375 C 51.8125 -52.601562 52.207031 -51.8125 52.5 -51.0625 C 52.789062 -50.3125 53 -49.375 53.125 -48.25 C 53.25 -47.125 53.332031 -45.644531 53.375 -43.8125 C 53.414062 -41.988281 53.4375 -39.535156 53.4375 -36.453125 L 53.4375 -19.96875 L 57.796875 -19.96875 L 53.4375 0 L 32.953125 0 L 32.953125 -26.96875 C 32.953125 -29.132812 32.953125 -30.835938 32.953125 -32.078125 C 32.953125 -33.328125 32.929688 -34.328125 32.890625 -35.078125 C 32.847656 -35.828125 32.765625 -36.410156 32.640625 -36.828125 C 32.515625 -37.242188 32.367188 -37.660156 32.203125 -38.078125 C 31.378906 -39.660156 29.675781 -40.453125 27.09375 -40.453125 C 26.925781 -40.453125 26.738281 -40.453125 26.53125 -40.453125 C 26.320312 -40.453125 26.050781 -40.410156 25.71875 -40.328125 L 25.71875 0 L 5.25 0 Z M 5.25 -40.328125 "/></g></g></g><path stroke-linecap="butt" transform="matrix(0.824114, 0, 0, 0.824114, 579.133968, 200.28221)" fill="none" stroke-linejoin="miter" d="M 38.633836 109.946448 C 40.719409 105.91276 42.103471 103.007178 42.781283 101.229701 C 43.482794 99.423784 43.838289 97.831165 43.838289 96.447103 C 43.838289 94.247771 43.117818 92.399195 41.681617 90.906115 C 40.240676 89.408294 38.420539 88.664124 36.221208 88.664124 C 33.908118 88.664124 32.031102 89.436734 30.594901 90.991434 C 29.15396 92.541394 28.433489 94.475288 28.433489 96.788378 C 28.433489 97.717406 28.490368 98.508976 28.604127 99.158348 C 28.717885 99.77928 28.997542 100.665648 29.452576 101.822193 L 4.695877 112.572373 C 3.766849 109.211757 3.060598 106.097618 2.581865 103.220475 C 2.13157 100.314893 1.904053 97.309772 1.904053 94.205112 C 1.904053 82.753421 4.994493 73.851816 11.170633 67.505039 C 17.346773 61.158261 25.926061 57.987242 36.899019 57.987242 C 42.117691 57.987242 46.85763 58.816732 51.114094 60.48045 C 55.403739 62.144168 59.072451 64.514138 62.115492 67.590358 C 65.191712 70.666578 67.561681 74.34477 69.225399 78.634414 C 70.917557 82.895619 71.766006 87.621337 71.766006 92.81157 C 71.766006 94.897143 71.609588 96.982716 71.301492 99.073029 C 71.017096 101.130162 70.495703 103.348453 69.732573 105.713683 C 69.002622 108.083652 67.997755 110.695358 66.732192 113.544061 C 65.461888 116.364324 63.892968 119.625402 62.034913 123.317814 L 51.114094 144.813435 L 72.950991 144.813435 L 66.220278 176.00223 L 4.695877 176.00223 Z M 118.710357 58.15314 C 144.945916 58.15314 158.061326 78.027702 158.061326 117.776826 C 158.061326 137.746187 154.733889 152.823931 148.074275 163.010059 C 141.447841 173.163007 131.598249 178.244221 118.539719 178.244221 C 110.443904 178.244221 103.447755 176.225007 97.551271 172.191319 C 91.683228 168.157632 87.407803 162.374907 84.729738 154.843145 C 82.895382 149.875689 81.51606 144.249382 80.582292 137.959484 C 79.653264 131.669585 79.18875 125.109511 79.18875 118.283999 C 79.18875 110.439401 79.847601 102.992958 81.174784 95.939929 C 82.530406 88.886901 84.364763 82.753421 86.677853 77.534748 C 89.668754 71.301729 93.925218 66.519131 99.456727 63.191695 C 105.011935 59.831078 111.429811 58.15314 118.710357 58.15314 Z M 118.710357 90.398941 C 117.098778 90.398941 115.804774 90.863455 114.814127 91.792483 C 113.82822 92.697812 113.008211 94.304651 112.363579 96.617741 C 111.742647 98.930831 111.316053 102.02127 111.093276 105.88432 C 110.865759 109.74737 110.752 114.629507 110.752 120.52599 C 110.752 126.759009 110.894198 131.413629 111.178594 134.489849 C 111.458251 137.566069 112.008084 140.016617 112.828093 141.850973 C 113.420585 143.121277 114.221635 144.135624 115.240722 144.898754 C 116.283508 145.633444 117.383174 145.998419 118.539719 145.998419 C 120.032799 145.998419 121.303103 145.548125 122.345889 144.642797 C 123.393416 143.713769 124.222905 142.09271 124.843837 139.77962 C 125.493209 137.46653 125.929283 134.347651 126.1568 130.427722 C 126.408017 126.479353 126.535995 121.497678 126.535995 115.492176 C 126.535995 111.937222 126.507555 108.946321 126.450676 106.519472 C 126.393797 104.064184 126.242119 102.007051 125.986162 100.343332 C 125.763385 98.679614 125.436329 97.295552 125.014475 96.195886 C 124.61632 95.09622 124.137586 94.077134 123.573533 93.148106 C 123.123239 92.219078 122.431208 91.527047 121.50218 91.076753 C 120.568413 90.621719 119.639385 90.398941 118.710357 90.398941 Z M 201.028868 109.946448 C 203.114441 105.91276 204.498503 103.007178 205.171574 101.229701 C 205.877825 99.423784 206.23332 97.831165 206.23332 96.447103 C 206.23332 94.247771 205.512849 92.399195 204.071908 90.906115 C 202.635707 89.408294 200.81557 88.664124 198.616239 88.664124 C 196.303149 88.664124 194.426133 89.436734 192.985192 90.991434 C 191.548991 92.541394 190.82852 94.475288 190.82852 96.788378 C 190.82852 97.717406 190.885399 98.508976 190.999158 99.158348 C 191.112916 99.77928 191.392573 100.665648 191.842867 101.822193 L 167.090908 112.572373 C 166.16188 109.211757 165.45563 106.097618 164.976896 103.220475 C 164.521862 100.314893 164.299085 97.309772 164.299085 94.205112 C 164.299085 82.753421 167.384785 73.851816 173.565664 67.505039 C 179.741804 61.158261 188.316353 57.987242 199.29405 57.987242 C 204.512722 57.987242 209.247921 58.816732 213.509126 60.48045 C 217.79877 62.144168 221.462742 64.514138 224.510523 67.590358 C 227.586743 70.666578 229.956712 74.34477 231.62043 78.634414 C 233.312588 82.895619 234.161037 87.621337 234.161037 92.81157 C 234.161037 94.897143 234.00462 96.982716 233.691784 99.073029 C 233.412127 101.130162 232.890734 103.348453 232.127604 105.713683 C 231.392913 108.083652 230.392786 110.695358 229.122483 113.544061 C 227.852179 116.364324 226.288 119.625402 224.425204 123.317814 L 213.509126 144.813435 L 235.346022 144.813435 L 228.615309 176.00223 L 167.090908 176.00223 Z M 280.93475 157.805606 L 240.394057 157.805606 L 240.394057 120.696628 L 268.791028 60.395131 L 302.766907 60.395131 L 270.013932 130.091186 L 283.176741 130.091186 L 283.176741 116.207906 L 309.876814 107.704457 L 309.876814 130.091186 L 319.228713 130.091186 L 313.346449 157.805606 L 309.876814 157.805606 L 309.876814 176.00223 L 280.93475 176.00223 Z M 280.93475 157.805606 " stroke="#39b54a" stroke-width="4.658056" stroke-opacity="1" stroke-miterlimit="4"/></svg>