<svg xmlns="http://www.w3.org/2000/svg" xmlns:xlink="http://www.w3.org/1999/xlink" width="1280" zoomAndPan="magnify" viewBox="0 0 960 599.999999" height="800" preserveAspectRatio="xMidYMid meet" version="1.0"><defs><clipPath id="f6d28dca76"><path d="M 293.375 113.375 L 666.875 113.375 L 666.875 486.875 L 293.375 486.875 Z M 293.375 113.375 " clip-rule="nonzero"/></clipPath></defs><g clip-path="url(#f6d28dca76)"><path fill="#f20001" d="M 480.125 113.375 C 376.988281 113.375 293.375 196.988281 293.375 300.125 C 293.375 403.261719 376.988281 486.875 480.125 486.875 C 583.261719 486.875 666.875 403.261719 666.875 300.125 C 666.875 196.988281 583.261719 113.375 480.125 113.375 Z M 480.125 467.617188 C 387.628906 467.617188 312.636719 392.625 312.636719 300.125 C 312.636719 207.628906 387.628906 132.636719 480.125 132.636719 C 572.625 132.636719 647.617188 207.628906 647.617188 300.125 C 647.617188 392.625 572.625 467.617188 480.125 467.617188 Z M 480.125 467.617188 " fill-opacity="1" fill-rule="nonzero"/></g><path fill="#f20001" d="M 506.417969 299.171875 C 523.640625 280.621094 541.699219 262.726562 560.375 245.71875 C 563.816406 242.589844 564.109375 237.285156 561.007812 233.8125 L 546.097656 217.136719 C 542.9375 213.609375 537.515625 213.355469 534.027344 216.542969 C 515.398438 233.511719 497.367188 251.328125 480.117188 269.769531 C 462.992188 250.3125 446.082031 230.488281 429.621094 210.554688 C 426.636719 206.945312 421.3125 206.421875 417.695312 209.386719 L 400.425781 223.542969 C 396.785156 226.519531 396.261719 231.890625 399.242188 235.511719 C 416.972656 256.984375 435.21875 278.339844 453.6875 299.238281 C 433.609375 322.59375 414.507812 347.121094 396.785156 372.339844 C 394.066406 376.210938 395 381.554688 398.902344 384.246094 L 417.292969 396.914062 C 421.148438 399.566406 426.394531 398.59375 429.074219 394.769531 C 445.050781 372.046875 462.183594 349.902344 480.175781 328.730469 C 497.964844 348.222656 516.160156 367.550781 534.523438 386.421875 C 537.800781 389.785156 543.191406 389.84375 546.546875 386.558594 L 562.5 370.9375 C 565.847656 367.660156 565.90625 362.304688 562.636719 358.949219 C 543.621094 339.398438 524.789062 319.367188 506.417969 299.171875 Z M 506.417969 299.171875 " fill-opacity="1" fill-rule="nonzero"/></svg>